G04*
G04 #@! TF.GenerationSoftware,Altium Limited,Altium Designer,23.3.1 (30)*
G04*
G04 Layer_Physical_Order=1*
G04 Layer_Color=417716*
%FSLAX25Y25*%
%MOIN*%
G70*
G04*
G04 #@! TF.SameCoordinates,15D68FC8-8055-42D3-B3C9-1605CC88C85B*
G04*
G04*
G04 #@! TF.FilePolarity,Positive*
G04*
G01*
G75*
%ADD10C,0.01000*%
%ADD15R,0.03347X0.02756*%
%ADD16R,0.05500X0.08500*%
%ADD17R,0.04921X0.05512*%
%ADD18R,0.03347X0.02362*%
%ADD19R,0.05512X0.04921*%
%ADD20R,0.02756X0.03347*%
%ADD21R,0.02835X0.00984*%
%ADD22R,0.02047X0.00984*%
%ADD23R,0.03347X0.01181*%
%ADD24R,0.05512X0.01772*%
%ADD25R,0.12992X0.08268*%
%ADD26R,0.03543X0.08268*%
%ADD42C,0.00600*%
%ADD43C,0.06000*%
%ADD44R,0.06200X0.06200*%
%ADD45C,0.02400*%
%ADD46C,0.02000*%
G36*
X238091Y-17633D02*
X238230Y-17689D01*
X238425Y-17772D01*
X238647Y-17855D01*
X238897Y-17966D01*
X239424Y-18189D01*
X239980Y-18438D01*
X240230Y-18550D01*
X240480Y-18633D01*
X240674Y-18744D01*
X240813Y-18799D01*
X240924Y-18855D01*
X240980Y-18883D01*
Y-18911D01*
X240952D01*
X240868Y-18966D01*
X240730Y-19022D01*
X240535Y-19105D01*
X240313Y-19188D01*
X240063Y-19272D01*
X239535Y-19494D01*
X239008Y-19716D01*
X238730Y-19827D01*
X238508Y-19938D01*
X238314Y-20021D01*
X238147Y-20077D01*
X238008Y-20132D01*
X237953Y-20160D01*
X238258Y-19355D01*
Y-19327D01*
X208072D01*
X208044Y-19299D01*
X208017Y-19272D01*
X207989Y-19216D01*
Y-18494D01*
Y-18466D01*
X208044Y-18438D01*
X238286D01*
X237953Y-17605D01*
Y-17578D01*
X237980D01*
X238091Y-17633D01*
D02*
G37*
G36*
X237703Y-24298D02*
Y-25270D01*
Y-25298D01*
X237647Y-25325D01*
X235898D01*
X235870Y-25270D01*
Y-24298D01*
Y-24270D01*
X235925Y-24242D01*
X237675D01*
X237703Y-24298D01*
D02*
G37*
G36*
X240674Y-21243D02*
Y-21299D01*
Y-27075D01*
Y-27103D01*
X240618Y-27130D01*
X239535D01*
X239508Y-27075D01*
Y-22687D01*
X239452D01*
X238675Y-23159D01*
X238619D01*
X238425Y-22021D01*
X238453Y-21993D01*
X238480Y-21965D01*
X238536Y-21910D01*
X238675Y-21826D01*
X238841Y-21715D01*
X239063Y-21576D01*
X239397Y-21410D01*
X239424Y-21382D01*
X239535Y-21299D01*
X239647Y-21243D01*
X239758Y-21215D01*
X240646D01*
X240674Y-21243D01*
D02*
G37*
G36*
X230344Y-21771D02*
X230483Y-21799D01*
X230677Y-21854D01*
X230871Y-21937D01*
X231093Y-22021D01*
X231343Y-22187D01*
X231593Y-22354D01*
X231871Y-22576D01*
X232149Y-22882D01*
X232454Y-23215D01*
X232732Y-23604D01*
X233010Y-24076D01*
X233287Y-24603D01*
X233537Y-25214D01*
X233565Y-25270D01*
X233593Y-25381D01*
X233676Y-25548D01*
X233759Y-25770D01*
X233870Y-26075D01*
X234037Y-26492D01*
X234148Y-26742D01*
X234231Y-27019D01*
X234370Y-27325D01*
X234481Y-27658D01*
X234620Y-28019D01*
X234787Y-28436D01*
X234953Y-28880D01*
X235120Y-29352D01*
X235342Y-29880D01*
X235537Y-30435D01*
X235759Y-31046D01*
X236009Y-31685D01*
X236259Y-32379D01*
X236536Y-33129D01*
X236842Y-33906D01*
X237147Y-34739D01*
X237480Y-35628D01*
X237842Y-36572D01*
X237814Y-36600D01*
X235981D01*
X235953Y-36572D01*
X235925Y-36517D01*
X235898Y-36406D01*
X235814Y-36239D01*
X235731Y-35961D01*
X235676Y-35767D01*
X235592Y-35572D01*
X235509Y-35350D01*
X235425Y-35073D01*
X235398Y-35017D01*
X235370Y-34906D01*
X235287Y-34684D01*
X235176Y-34434D01*
X235065Y-34101D01*
X234926Y-33712D01*
X234759Y-33295D01*
X234620Y-32823D01*
X234259Y-31824D01*
X233898Y-30796D01*
X233565Y-29769D01*
X233426Y-29269D01*
X233287Y-28824D01*
Y-28797D01*
Y-28769D01*
X233260Y-28741D01*
X233232Y-28713D01*
X233176D01*
Y-28741D01*
X233148Y-28797D01*
X233121Y-28880D01*
X233093Y-29019D01*
X233037Y-29185D01*
X232954Y-29435D01*
X232871Y-29769D01*
X232843Y-29824D01*
X232815Y-29907D01*
X232787Y-30018D01*
X232732Y-30185D01*
X232648Y-30380D01*
X232565Y-30657D01*
X232454Y-30990D01*
X232315Y-31407D01*
X232149Y-31879D01*
X231954Y-32434D01*
X231732Y-33073D01*
X231454Y-33795D01*
X231177Y-34601D01*
X230843Y-35545D01*
X230677Y-36045D01*
X230483Y-36572D01*
X230455Y-36600D01*
X228622D01*
Y-36544D01*
Y-36517D01*
X228650Y-36433D01*
X228705Y-36322D01*
X228761Y-36156D01*
X228844Y-35961D01*
X228955Y-35711D01*
X229066Y-35434D01*
X229177Y-35128D01*
X229427Y-34462D01*
X229733Y-33684D01*
X230066Y-32851D01*
X230399Y-31990D01*
X230732Y-31129D01*
X231066Y-30296D01*
X231371Y-29491D01*
X231649Y-28769D01*
X231760Y-28436D01*
X231899Y-28130D01*
X231982Y-27852D01*
X232093Y-27602D01*
X232149Y-27408D01*
X232232Y-27242D01*
X232260Y-27130D01*
X232288Y-27047D01*
X232315Y-26992D01*
Y-26880D01*
Y-26853D01*
X232288Y-26769D01*
X232260Y-26603D01*
X232176Y-26381D01*
X232065Y-26047D01*
X231982Y-25853D01*
X231871Y-25603D01*
X231760Y-25353D01*
X231621Y-25076D01*
X231482Y-24770D01*
X231288Y-24409D01*
Y-24381D01*
X231260Y-24353D01*
X231149Y-24215D01*
X231010Y-24020D01*
X230788Y-23798D01*
X230538Y-23604D01*
X230260Y-23409D01*
X229955Y-23270D01*
X229816Y-23215D01*
X229261D01*
X229205Y-23187D01*
Y-23159D01*
Y-23132D01*
X229233Y-22993D01*
X229261Y-22798D01*
X229288Y-22548D01*
X229344Y-22298D01*
X229372Y-22076D01*
X229399Y-21910D01*
X229427Y-21799D01*
X229483D01*
X229594Y-21771D01*
X229788Y-21743D01*
X230233D01*
X230344Y-21771D01*
D02*
G37*
G36*
X228150Y-26658D02*
Y-26686D01*
Y-26714D01*
X228122Y-26880D01*
X228094Y-27103D01*
X228066Y-27353D01*
X228011Y-27602D01*
X227983Y-27825D01*
X227955Y-27991D01*
X227928Y-28019D01*
Y-28047D01*
X226595D01*
Y-32768D01*
Y-32796D01*
Y-32907D01*
Y-33045D01*
Y-33240D01*
Y-33490D01*
X226622Y-33768D01*
Y-34378D01*
X226650Y-35017D01*
X226706Y-35628D01*
X226733Y-35934D01*
X226789Y-36183D01*
X226817Y-36406D01*
X226872Y-36572D01*
X226845Y-36600D01*
X225206D01*
X225151Y-36572D01*
X225095Y-36461D01*
X225067Y-36406D01*
X225040Y-36294D01*
X225012Y-36156D01*
X224956Y-36017D01*
X224928Y-35822D01*
X224901Y-35572D01*
X224873Y-35295D01*
X224845Y-34989D01*
Y-34601D01*
X224817Y-34184D01*
Y-28047D01*
X221540D01*
Y-28075D01*
Y-28102D01*
Y-28186D01*
Y-28297D01*
Y-28491D01*
X221513Y-28713D01*
Y-28991D01*
X221485Y-29324D01*
X221429Y-29713D01*
X221402Y-30130D01*
X221346Y-30630D01*
X221291Y-31157D01*
X221207Y-31740D01*
X221096Y-32351D01*
X221013Y-33045D01*
X220874Y-33768D01*
X220735Y-34545D01*
Y-34573D01*
X220707Y-34601D01*
X220680Y-34767D01*
X220624Y-35045D01*
X220541Y-35350D01*
X220346Y-36017D01*
X220235Y-36322D01*
X220124Y-36572D01*
X220096D01*
X220041Y-36600D01*
X218430D01*
Y-36572D01*
Y-36544D01*
X218458Y-36517D01*
X218486Y-36433D01*
X218514Y-36322D01*
X218541Y-36183D01*
X218597Y-35989D01*
X218653Y-35795D01*
X218736Y-35545D01*
X218791Y-35295D01*
X218875Y-34989D01*
X218930Y-34656D01*
X219014Y-34295D01*
X219097Y-33906D01*
X219180Y-33490D01*
X219263Y-33045D01*
X219347Y-32573D01*
Y-32546D01*
X219374Y-32434D01*
X219402Y-32268D01*
X219430Y-32046D01*
X219458Y-31796D01*
X219486Y-31490D01*
X219541Y-31157D01*
X219569Y-30824D01*
X219652Y-30074D01*
X219736Y-29324D01*
X219763Y-28630D01*
X219791Y-28324D01*
Y-28047D01*
X219347D01*
X219069Y-28075D01*
X218763D01*
X218430Y-28102D01*
X218097Y-28158D01*
X217764Y-28214D01*
Y-28158D01*
X217736Y-28047D01*
X217681Y-27908D01*
X217653Y-27714D01*
X217597Y-27519D01*
X217542Y-27353D01*
X217514Y-27214D01*
Y-27158D01*
X217542Y-27130D01*
X217681Y-27075D01*
X217875Y-26992D01*
X218153Y-26880D01*
X218541Y-26797D01*
X218986Y-26714D01*
X219513Y-26658D01*
X220124Y-26631D01*
X228150D01*
Y-26658D01*
D02*
G37*
G36*
X212182Y-22993D02*
X212349Y-23020D01*
X212543Y-23048D01*
X213015Y-23159D01*
X213515Y-23326D01*
X214070Y-23604D01*
X214320Y-23770D01*
X214598Y-23965D01*
X214848Y-24187D01*
X215070Y-24464D01*
X215098Y-24520D01*
X215181Y-24659D01*
X215320Y-24881D01*
X215459Y-25159D01*
X215570Y-25492D01*
X215709Y-25881D01*
X215792Y-26325D01*
X215820Y-26769D01*
Y-26992D01*
Y-27019D01*
Y-27103D01*
X215792Y-27242D01*
X215764Y-27436D01*
X215709Y-27686D01*
X215626Y-27991D01*
X215542Y-28324D01*
X215403Y-28686D01*
X215209Y-29102D01*
X214987Y-29574D01*
X214709Y-30046D01*
X214376Y-30574D01*
X213987Y-31102D01*
X213515Y-31685D01*
X212987Y-32268D01*
X212376Y-32879D01*
X212349Y-32907D01*
X212321Y-32934D01*
X212154Y-33101D01*
X211904Y-33351D01*
X211571Y-33656D01*
X211238Y-34017D01*
X210849Y-34378D01*
X210488Y-34739D01*
X210155Y-35045D01*
Y-35073D01*
X216125D01*
X216153Y-35128D01*
Y-36544D01*
Y-36572D01*
X216098Y-36600D01*
X207683D01*
X207656Y-36572D01*
X207628Y-36544D01*
X207600Y-36489D01*
Y-35600D01*
Y-35572D01*
X207628Y-35517D01*
X207711Y-35406D01*
X207850Y-35267D01*
X207906Y-35212D01*
X208044Y-35100D01*
X208239Y-34878D01*
X208516Y-34628D01*
X208850Y-34295D01*
X209183Y-33962D01*
X209988Y-33184D01*
X210766Y-32407D01*
X211127Y-32046D01*
X211432Y-31712D01*
X211710Y-31435D01*
X211904Y-31185D01*
X212043Y-31046D01*
X212099Y-30963D01*
X212126Y-30935D01*
X212182Y-30879D01*
X212265Y-30768D01*
X212404Y-30602D01*
X212543Y-30435D01*
X212710Y-30213D01*
X213043Y-29713D01*
X213404Y-29130D01*
X213682Y-28491D01*
X213821Y-28158D01*
X213904Y-27825D01*
X213959Y-27491D01*
X213987Y-27158D01*
Y-26992D01*
Y-26964D01*
Y-26908D01*
Y-26825D01*
X213959Y-26714D01*
X213904Y-26436D01*
X213821Y-26075D01*
X213654Y-25686D01*
X213404Y-25298D01*
X213237Y-25131D01*
X213071Y-24964D01*
X212848Y-24825D01*
X212599Y-24687D01*
X212571D01*
X212515Y-24659D01*
X212404Y-24631D01*
X212238Y-24576D01*
X212071Y-24548D01*
X211849Y-24520D01*
X211349Y-24492D01*
X211210D01*
X211099Y-24520D01*
X210821Y-24548D01*
X210460Y-24631D01*
X210016Y-24770D01*
X209544Y-24964D01*
X209044Y-25242D01*
X208516Y-25603D01*
Y-25575D01*
X208489Y-25548D01*
X208433Y-25409D01*
X208322Y-25214D01*
X208239Y-24992D01*
X208128Y-24742D01*
X208017Y-24548D01*
X207961Y-24409D01*
X207933Y-24326D01*
X207961Y-24298D01*
X208017Y-24270D01*
X208100Y-24187D01*
X208239Y-24103D01*
X208405Y-24020D01*
X208572Y-23881D01*
X209044Y-23631D01*
X209572Y-23381D01*
X210183Y-23187D01*
X210877Y-23020D01*
X211210Y-22993D01*
X211571Y-22965D01*
X212043D01*
X212182Y-22993D01*
D02*
G37*
D10*
X303600Y67752D02*
X303652Y67700D01*
X296600Y67752D02*
X303600D01*
X271594Y58106D02*
X275063D01*
X270800Y58900D02*
X271594Y58106D01*
X275063D02*
X279400D01*
X195000Y93486D02*
Y112200D01*
X193793Y92279D02*
X195000Y93486D01*
Y112200D02*
X209500Y126700D01*
X279400Y28894D02*
Y44681D01*
X284374D01*
X279400D02*
Y58106D01*
X278506Y28894D02*
X279400D01*
X333500Y113600D02*
X335600Y111500D01*
X350600D01*
X356900Y105200D01*
X343300Y108600D02*
X343600D01*
X352600Y99600D01*
X372055Y93142D02*
Y100745D01*
Y90780D02*
Y93142D01*
X356900Y105200D02*
X367600D01*
X372055Y100745D01*
X352600Y99600D02*
X360900D01*
X363000Y97500D01*
X353200Y13600D02*
Y40995D01*
Y4500D02*
Y13600D01*
X271000Y28800D02*
X271094Y28894D01*
X275063D01*
X-14100Y-23500D02*
X-14000Y-23600D01*
X-9500D01*
X-10000Y10500D02*
X-9900Y10600D01*
X-14100Y10500D02*
X-10000D01*
X-10200Y26400D02*
X-9900D01*
X-10300Y26500D02*
X-10200Y26400D01*
X-14100Y26500D02*
X-10300D01*
X-14100Y60500D02*
X-9400D01*
X-14100Y110500D02*
X-9600D01*
Y76200D02*
X-9500Y76100D01*
X-13800Y76200D02*
X-9600D01*
X-14100Y76500D02*
X-13800Y76200D01*
X275063Y28894D02*
X278506D01*
X281200Y26200D01*
X284374Y44681D02*
X288319D01*
X288400Y44600D01*
X319429Y110729D02*
Y113260D01*
X319400Y110700D02*
X319429Y110729D01*
X361614Y36516D02*
X371184D01*
X371200Y36500D01*
X190000Y78600D02*
Y90000D01*
Y78600D02*
X200600Y68000D01*
X244752D01*
X363248Y70500D02*
Y83000D01*
X353314Y69914D02*
X362662D01*
X363248Y70500D01*
X350100Y66700D02*
X353314Y69914D01*
X350100Y32800D02*
Y66700D01*
X352400Y76000D02*
X356000D01*
X352300Y75900D02*
X352400Y76000D01*
X333500Y113600D02*
Y115240D01*
X328000Y120445D02*
X328295D01*
X333500Y115240D01*
X370783Y94413D02*
X372055Y93142D01*
X363000Y90780D02*
Y97500D01*
X328000Y109700D02*
X328100Y109600D01*
Y109500D02*
Y109600D01*
X328000Y109700D02*
Y113555D01*
X327705Y113260D02*
X328000Y113555D01*
X319429Y113260D02*
X327705D01*
X309287Y114052D02*
X310079Y113260D01*
X305100Y114052D02*
X309287D01*
X310079Y113260D02*
X310571D01*
X300596Y113952D02*
X300696Y114052D01*
X305100D01*
X288300Y120700D02*
X292055D01*
X372800Y70700D02*
Y74296D01*
X372540Y74555D02*
X372800Y74296D01*
X361678Y66763D02*
X371037D01*
X361614Y66827D02*
X361678Y66763D01*
X371037D02*
X371100Y66700D01*
X338483Y43698D02*
X344502D01*
X338386Y43795D02*
X338483Y43698D01*
X344502D02*
X344600Y43600D01*
X346300Y29000D02*
X350100Y32800D01*
X346300Y14500D02*
Y29000D01*
X338386Y13484D02*
X345284D01*
X346300Y14500D01*
X353200Y40995D02*
X356000Y43795D01*
X348700Y0D02*
X353200Y4500D01*
X340000Y0D02*
X348700D01*
X190000Y90000D02*
X191353D01*
X193632Y92279D01*
X193793D01*
X209500Y126700D02*
X318200D01*
X319429Y125471D01*
Y120740D02*
Y125471D01*
Y120740D02*
X327705D01*
X328000Y120445D01*
X305196Y120644D02*
X305200Y120648D01*
X305100Y120548D02*
X305196Y120644D01*
X305200Y120648D02*
Y123200D01*
X310475Y120644D02*
X310571Y120740D01*
X305196Y120644D02*
X310475D01*
X299097Y120548D02*
X305100D01*
X298945Y120700D02*
X299097Y120548D01*
X291200Y114500D02*
X291500Y114200D01*
X293852D01*
X300348D02*
X300596Y113952D01*
X305074Y120574D02*
X305100Y120548D01*
X269370Y69173D02*
X270248Y68295D01*
X269075Y69173D02*
X269370D01*
X266548Y71700D02*
X269075Y69173D01*
X270248Y68000D02*
Y68295D01*
X264400Y71700D02*
X266548D01*
X270508Y68260D02*
X275571D01*
X287540Y75740D02*
X287600Y75800D01*
X287700D01*
X284429Y75740D02*
X287540D01*
X372055Y90780D02*
X372540Y90294D01*
Y81445D02*
Y90294D01*
X348000Y82248D02*
X356000D01*
X356752Y83000D01*
X356189Y83563D02*
Y86173D01*
X353945Y88417D02*
X356189Y86173D01*
Y83563D02*
X356752Y83000D01*
X353945Y88417D02*
Y90780D01*
X363000D02*
X363248Y90531D01*
Y83000D02*
Y90531D01*
X348000Y72300D02*
Y75752D01*
D15*
X296600Y74248D02*
D03*
Y67752D02*
D03*
X305100Y120548D02*
D03*
Y114052D02*
D03*
X348000Y82248D02*
D03*
Y75752D02*
D03*
D16*
X-31900Y110500D02*
D03*
Y76500D02*
D03*
X-14100Y110500D02*
D03*
Y76500D02*
D03*
X-31900Y60500D02*
D03*
Y26500D02*
D03*
X-14100Y60500D02*
D03*
Y26500D02*
D03*
X-31900Y10500D02*
D03*
Y-23500D02*
D03*
X-14100Y10500D02*
D03*
Y-23500D02*
D03*
D17*
X292055Y120700D02*
D03*
X298945D02*
D03*
X356000Y76000D02*
D03*
X362890D02*
D03*
D18*
X319429Y113260D02*
D03*
Y120740D02*
D03*
X310571D02*
D03*
Y113260D02*
D03*
X284429Y68260D02*
D03*
Y72000D02*
D03*
Y75740D02*
D03*
X275571D02*
D03*
Y68260D02*
D03*
D19*
X328000Y113555D02*
D03*
Y120445D02*
D03*
X372540Y74555D02*
D03*
Y81445D02*
D03*
D20*
X363248Y83000D02*
D03*
X356752D02*
D03*
X251248Y68000D02*
D03*
X244752D02*
D03*
X300348Y114200D02*
D03*
X293852D02*
D03*
X263752Y68000D02*
D03*
X270248D02*
D03*
X263752Y76000D02*
D03*
X270248D02*
D03*
X316052Y71900D02*
D03*
X322548D02*
D03*
X310148Y67700D02*
D03*
X303652D02*
D03*
X323248Y39957D02*
D03*
X316752D02*
D03*
Y24000D02*
D03*
X323248D02*
D03*
X316752Y16043D02*
D03*
X323248D02*
D03*
X302752Y20000D02*
D03*
X309248D02*
D03*
Y36000D02*
D03*
X302752D02*
D03*
X309248Y28000D02*
D03*
X302752D02*
D03*
X309248Y52000D02*
D03*
X302752D02*
D03*
X316752Y64000D02*
D03*
X323248D02*
D03*
X302752Y60000D02*
D03*
X309248D02*
D03*
X302752Y76000D02*
D03*
X309248D02*
D03*
X323248Y48000D02*
D03*
X316752D02*
D03*
X323248Y56000D02*
D03*
X316752D02*
D03*
X323248Y32000D02*
D03*
X316752D02*
D03*
D21*
X274807Y43500D02*
D03*
Y41138D02*
D03*
Y38776D02*
D03*
Y36413D02*
D03*
Y34051D02*
D03*
Y31689D02*
D03*
Y45862D02*
D03*
Y48224D02*
D03*
Y50587D02*
D03*
Y52949D02*
D03*
Y55311D02*
D03*
D22*
X284374Y42319D02*
D03*
Y39957D02*
D03*
Y37595D02*
D03*
Y35232D02*
D03*
Y32870D02*
D03*
Y44681D02*
D03*
Y47043D02*
D03*
Y49406D02*
D03*
Y51768D02*
D03*
Y54130D02*
D03*
D23*
X275063Y58106D02*
D03*
Y28894D02*
D03*
D24*
X338386Y66827D02*
D03*
Y64268D02*
D03*
Y61709D02*
D03*
Y59150D02*
D03*
Y56590D02*
D03*
Y54031D02*
D03*
Y51472D02*
D03*
Y48913D02*
D03*
Y46354D02*
D03*
Y43795D02*
D03*
X361614Y66827D02*
D03*
Y64268D02*
D03*
Y61709D02*
D03*
Y59150D02*
D03*
Y56590D02*
D03*
Y54031D02*
D03*
Y51472D02*
D03*
Y48913D02*
D03*
Y46354D02*
D03*
Y43795D02*
D03*
X338386Y36516D02*
D03*
Y33957D02*
D03*
Y31398D02*
D03*
Y28839D02*
D03*
Y26280D02*
D03*
Y23720D02*
D03*
Y21161D02*
D03*
Y18602D02*
D03*
Y16043D02*
D03*
Y13484D02*
D03*
X361614Y36516D02*
D03*
Y33957D02*
D03*
Y31398D02*
D03*
Y28839D02*
D03*
Y26280D02*
D03*
Y23720D02*
D03*
Y21161D02*
D03*
Y18602D02*
D03*
Y16043D02*
D03*
Y13484D02*
D03*
D25*
X363000Y113221D02*
D03*
D26*
X372055Y90780D02*
D03*
X363000D02*
D03*
X353945D02*
D03*
D42*
X257900Y75700D02*
X261900Y79700D01*
X264900D01*
X257900Y50700D02*
Y75700D01*
Y50700D02*
X265100Y43500D01*
X256400Y24800D02*
Y76200D01*
Y24800D02*
X270700Y10500D01*
X254600Y79000D02*
X257900Y82300D01*
X254600Y20700D02*
X266800Y8500D01*
X254600Y20700D02*
Y79000D01*
X251000Y67752D02*
X251248Y68000D01*
X251000Y59200D02*
Y67752D01*
X266800Y8500D02*
X346500D01*
X268100Y82900D02*
X293500D01*
X264900Y79700D02*
X268100Y82900D01*
X256400Y76200D02*
X262300Y82100D01*
X318742Y84600D02*
X336516Y66827D01*
X235651Y84600D02*
X318742D01*
X235300Y84952D02*
X235651Y84600D01*
X235300Y84952D02*
Y94700D01*
X263800Y22500D02*
Y37400D01*
X267538Y41138D01*
X263800Y22500D02*
X270552Y15748D01*
X265100Y43500D02*
X274807D01*
X266300Y54800D02*
X268151Y52949D01*
X274802Y55305D02*
X274807Y55311D01*
X267513Y50587D02*
X274807D01*
X264800Y53300D02*
Y61400D01*
X260600Y51500D02*
X266238Y45862D01*
X268151Y52949D02*
X274807D01*
X262700Y52200D02*
X266676Y48224D01*
X266300Y54800D02*
Y58600D01*
X269400Y55300D02*
X269406Y55305D01*
X274802D01*
X266676Y48224D02*
X274807D01*
X260600Y51500D02*
Y64648D01*
X264800Y53300D02*
X267513Y50587D01*
X262700Y52200D02*
Y60200D01*
X266238Y45862D02*
X274807D01*
X262579Y66627D02*
X262674D01*
X263452Y67405D01*
X264800Y61400D02*
X267800Y64400D01*
X260600Y64648D02*
X262579Y66627D01*
X266300Y58600D02*
X269700Y62000D01*
X293300D01*
X267538Y41138D02*
X274807D01*
X270552Y15748D02*
X316752D01*
X270700Y10500D02*
X329000D01*
X265800Y23900D02*
X269700Y20000D01*
X268200Y26000D02*
X270200Y24000D01*
X268200Y26000D02*
Y34800D01*
X269700Y20000D02*
X302752D01*
X265800Y23900D02*
Y35300D01*
X270200Y24000D02*
X316752D01*
X292100Y71957D02*
Y75300D01*
X279800Y79300D02*
X288100D01*
X292100Y75300D01*
Y71957D02*
X296305Y67752D01*
X284429Y72000D02*
X288900D01*
X292300Y68600D01*
X296305Y67752D02*
X296600D01*
X289253Y81300D02*
X296305Y74248D01*
X269052Y81300D02*
X289253D01*
X265125Y77373D02*
X269052Y81300D01*
X293500Y82900D02*
X300400Y76000D01*
X263752Y76295D02*
X264830Y77373D01*
X263752Y75705D02*
Y76000D01*
X264830Y77373D02*
X265125D01*
X263752Y76000D02*
Y76295D01*
X284374Y32870D02*
X287130D01*
X289000Y31000D01*
X296305Y74248D02*
X296600D01*
X310148Y67700D02*
X324800D01*
X333350Y59150D01*
X296895Y74248D02*
X299243Y71900D01*
X296600Y74248D02*
X296895D01*
X299243Y71900D02*
X316052D01*
X-25900Y69000D02*
X14700D01*
X40000Y43700D01*
Y0D02*
Y43700D01*
X230000Y100000D02*
X235300Y94700D01*
X353200Y13600D02*
X357200D01*
X338386Y36516D02*
X344216D01*
X346921Y39221D02*
Y65079D01*
X344216Y36516D02*
X346921Y39221D01*
X345173Y66827D02*
X346921Y65079D01*
X269813Y36413D02*
X274807D01*
X268200Y34800D02*
X269813Y36413D01*
X265800Y35300D02*
X269276Y38776D01*
X302669Y36083D02*
Y38222D01*
X284374Y39957D02*
X300934D01*
X302669Y38222D01*
Y36083D02*
X302752Y36000D01*
X294706Y37595D02*
X300400Y31900D01*
X316652D01*
X284374Y37595D02*
X294706D01*
X297800Y28000D02*
X302752D01*
X290568Y35232D02*
X297800Y28000D01*
X284374Y35232D02*
X290568D01*
X323248Y16043D02*
X327643D01*
X330202Y18602D02*
X338386D01*
X327643Y16043D02*
X330202Y18602D01*
X323248Y47705D02*
X323253Y47700D01*
X327700D01*
X329046Y46354D01*
X338386D01*
X338340Y46400D02*
X338386Y46354D01*
X323248Y47705D02*
Y48000D01*
X332809Y56590D02*
X338386D01*
X325400Y64000D02*
X332809Y56590D01*
X323248Y64000D02*
X325400D01*
X325700Y60000D02*
X331668Y54031D01*
X309248Y60000D02*
X325700D01*
X331668Y54031D02*
X338386D01*
X331228Y51472D02*
X338386D01*
X323398Y55850D02*
X326850D01*
X331228Y51472D01*
X333350Y59150D02*
X338386D01*
X324059Y76000D02*
X330100Y69959D01*
Y68898D02*
X334730Y64268D01*
X330100Y68898D02*
Y69959D01*
X328000Y68200D02*
Y69400D01*
X325500Y71900D02*
X328000Y69400D01*
Y68200D02*
X334491Y61709D01*
X334730Y64268D02*
X338386D01*
X322548Y71900D02*
X325500D01*
X334491Y61709D02*
X338386D01*
X322548Y71605D02*
X323626Y70527D01*
X309248Y76000D02*
X324059D01*
X-31900Y12000D02*
X-25900Y18000D01*
X12000D01*
X20000Y10000D01*
X-31900Y25000D02*
X-27400Y20500D01*
X17500D01*
X-31900Y75000D02*
X-25900Y69000D01*
X-31900Y76500D02*
Y110500D01*
Y26500D02*
Y60500D01*
Y-23500D02*
Y10500D01*
Y75000D02*
Y76500D01*
X30000Y0D02*
Y8000D01*
X17500Y20500D02*
X30000Y8000D01*
X20000Y0D02*
Y10000D01*
X-31900Y25000D02*
Y26500D01*
Y10500D02*
Y12000D01*
X284374Y47043D02*
X298000D01*
X298357D01*
X330602Y31398D02*
X338386D01*
X309248Y36000D02*
X326000D01*
X330602Y31398D01*
X331043Y33957D02*
X338386D01*
X328800Y36200D02*
X331043Y33957D01*
X270248Y76000D02*
X270508Y75740D01*
X275571D01*
X260000Y71953D02*
X263752Y75705D01*
X260000Y71700D02*
Y71953D01*
X263452Y67405D02*
Y67500D01*
X267800Y64400D02*
X316352D01*
X264657Y74800D02*
X264830Y74627D01*
X336516Y66827D02*
X338386D01*
X300400Y76000D02*
X302752D01*
X316352Y64400D02*
X316752Y64000D01*
X293300Y62000D02*
X300752D01*
X301379Y61373D01*
X302752Y60000D02*
Y60295D01*
X301674Y61373D02*
X302752Y60295D01*
X301379Y61373D02*
X301674D01*
X296500Y56000D02*
X316752D01*
X292268Y51768D02*
X296500Y56000D01*
X323248D02*
X323398Y55850D01*
X309948Y51300D02*
X327400D01*
X309248Y52000D02*
X309948Y51300D01*
X327400D02*
X329787Y48913D01*
X338386D01*
X301674Y50627D02*
X302752Y51705D01*
X301379Y50627D02*
X301674D01*
X302752Y51705D02*
Y52000D01*
X300157Y49406D02*
X301379Y50627D01*
X284374Y49406D02*
X300157D01*
X299313Y48000D02*
X316752D01*
X298357Y47043D02*
X299313Y48000D01*
X284374Y51768D02*
X292268D01*
X269276Y38776D02*
X274807D01*
X284374Y42319D02*
X310081D01*
X312443Y39957D02*
X316752D01*
X310081Y42319D02*
X312443Y39957D01*
X316752D02*
X316752Y39957D01*
X316652Y31900D02*
X316752Y32000D01*
X327100Y21100D02*
X338324D01*
X338386Y21161D01*
X309248Y20000D02*
X326000D01*
X327100Y21100D01*
X323528Y23720D02*
X338386D01*
X323248Y24000D02*
X323528Y23720D01*
X309448Y27800D02*
X326800D01*
X309248Y28000D02*
X309448Y27800D01*
X326800D02*
X328321Y26280D01*
X338386D01*
X329700Y28900D02*
X338324D01*
X338386Y28839D01*
X326600Y32000D02*
X329700Y28900D01*
X323248Y32000D02*
X326600D01*
X327143Y39957D02*
X328800Y38300D01*
X323248Y39957D02*
X327143D01*
X328800Y36200D02*
Y38300D01*
X316752Y39957D02*
Y40252D01*
X315674Y41330D02*
X316752Y40252D01*
X338386Y66827D02*
X345173D01*
X361614Y59150D02*
X367800D01*
X361614Y54031D02*
X367868D01*
X367900Y54000D01*
X361614Y51472D02*
X370900D01*
X361614Y56590D02*
X370900D01*
X361614Y16043D02*
X370857D01*
X370900Y16000D01*
X361614Y18602D02*
X367732D01*
X361614Y21161D02*
X370900D01*
X361614Y23720D02*
X368000D01*
X361614Y26280D02*
X370900D01*
X357200Y13600D02*
X357316Y13484D01*
X361614D01*
Y28839D02*
X367945D01*
X368000Y28894D01*
X361614Y31398D02*
X370854D01*
X361614Y33957D02*
X368000D01*
X356000Y43795D02*
X361614D01*
Y46354D02*
X370854D01*
X370900Y46400D01*
X367827Y48913D02*
X368000Y48740D01*
X361614Y48913D02*
X367827D01*
X361614Y61709D02*
X370891D01*
X370900Y61700D01*
X361614Y64268D02*
X367732D01*
X367800Y64200D01*
D43*
X340000Y-10000D02*
D03*
Y0D02*
D03*
X330000Y-10000D02*
D03*
Y0D02*
D03*
X320000Y-10000D02*
D03*
Y0D02*
D03*
X310000Y-10000D02*
D03*
Y0D02*
D03*
X300000Y-10000D02*
D03*
Y0D02*
D03*
X290000Y-10000D02*
D03*
Y0D02*
D03*
X280000Y-10000D02*
D03*
Y0D02*
D03*
X270000Y-10000D02*
D03*
Y0D02*
D03*
X260000Y-10000D02*
D03*
Y0D02*
D03*
X250000Y-10000D02*
D03*
Y0D02*
D03*
X240000Y-10000D02*
D03*
Y0D02*
D03*
X230000Y-10000D02*
D03*
Y0D02*
D03*
X220000Y-10000D02*
D03*
Y0D02*
D03*
X210000Y-10000D02*
D03*
Y0D02*
D03*
X200000Y-10000D02*
D03*
Y0D02*
D03*
X190000Y-10000D02*
D03*
Y0D02*
D03*
X180000Y-10000D02*
D03*
Y0D02*
D03*
X170000Y-10000D02*
D03*
Y0D02*
D03*
X160000Y-10000D02*
D03*
Y0D02*
D03*
X150000Y-10000D02*
D03*
Y0D02*
D03*
X140000Y-10000D02*
D03*
Y0D02*
D03*
X130000Y-10000D02*
D03*
Y0D02*
D03*
X120000Y-10000D02*
D03*
Y0D02*
D03*
X110000Y-10000D02*
D03*
Y0D02*
D03*
X100000Y-10000D02*
D03*
Y0D02*
D03*
X90000Y-10000D02*
D03*
Y0D02*
D03*
X80000Y-10000D02*
D03*
Y0D02*
D03*
X70000Y-10000D02*
D03*
Y0D02*
D03*
X60000Y-10000D02*
D03*
Y0D02*
D03*
X50000Y-10000D02*
D03*
Y0D02*
D03*
X40000Y-10000D02*
D03*
Y0D02*
D03*
X0Y-10000D02*
D03*
X10000Y0D02*
D03*
Y-10000D02*
D03*
X20000Y0D02*
D03*
Y-10000D02*
D03*
X30000Y0D02*
D03*
Y-10000D02*
D03*
Y90000D02*
D03*
Y100000D02*
D03*
X20000Y90000D02*
D03*
Y100000D02*
D03*
X10000Y90000D02*
D03*
Y100000D02*
D03*
X0Y90000D02*
D03*
X40000Y100000D02*
D03*
Y90000D02*
D03*
X50000Y100000D02*
D03*
Y90000D02*
D03*
X60000Y100000D02*
D03*
Y90000D02*
D03*
X70000Y100000D02*
D03*
Y90000D02*
D03*
X80000Y100000D02*
D03*
Y90000D02*
D03*
X90000Y100000D02*
D03*
Y90000D02*
D03*
X100000Y100000D02*
D03*
Y90000D02*
D03*
X110000Y100000D02*
D03*
Y90000D02*
D03*
X120000Y100000D02*
D03*
Y90000D02*
D03*
X130000Y100000D02*
D03*
Y90000D02*
D03*
X140000Y100000D02*
D03*
Y90000D02*
D03*
X150000Y100000D02*
D03*
Y90000D02*
D03*
X160000Y100000D02*
D03*
Y90000D02*
D03*
X170000Y100000D02*
D03*
Y90000D02*
D03*
X180000Y100000D02*
D03*
Y90000D02*
D03*
X190000Y100000D02*
D03*
Y90000D02*
D03*
X200000Y100000D02*
D03*
Y90000D02*
D03*
X210000Y100000D02*
D03*
Y90000D02*
D03*
X220000Y100000D02*
D03*
Y90000D02*
D03*
X230000Y100000D02*
D03*
Y90000D02*
D03*
X240000Y100000D02*
D03*
Y90000D02*
D03*
X250000Y100000D02*
D03*
Y90000D02*
D03*
X260000Y100000D02*
D03*
Y90000D02*
D03*
X270000Y100000D02*
D03*
Y90000D02*
D03*
X280000Y100000D02*
D03*
Y90000D02*
D03*
X290000Y100000D02*
D03*
Y90000D02*
D03*
X300000Y100000D02*
D03*
Y90000D02*
D03*
X310000Y100000D02*
D03*
Y90000D02*
D03*
X320000Y100000D02*
D03*
Y90000D02*
D03*
X330000Y100000D02*
D03*
Y90000D02*
D03*
X340000Y100000D02*
D03*
Y90000D02*
D03*
D44*
X0Y0D02*
D03*
Y100000D02*
D03*
D45*
X251000Y59200D02*
D03*
X269400Y55300D02*
D03*
X262700Y60200D02*
D03*
X292300Y68600D02*
D03*
X270800Y58900D02*
D03*
X343300Y108600D02*
D03*
X271000Y28800D02*
D03*
X-9500Y-23600D02*
D03*
X-9900Y10600D02*
D03*
Y26400D02*
D03*
X-9400Y60500D02*
D03*
X-9600Y110500D02*
D03*
X-9500Y76100D02*
D03*
X298000Y47043D02*
D03*
X281200Y26200D02*
D03*
X288400Y44600D02*
D03*
X319400Y110700D02*
D03*
X371200Y36500D02*
D03*
X352300Y75900D02*
D03*
X328100Y109500D02*
D03*
X288300Y120700D02*
D03*
X372800Y70700D02*
D03*
X371100Y66700D02*
D03*
X344600Y43600D02*
D03*
X350200Y40200D02*
D03*
X305200Y123200D02*
D03*
X291200Y114500D02*
D03*
X264400Y71700D02*
D03*
X287700Y75800D02*
D03*
X260000Y71700D02*
D03*
X348000Y72300D02*
D03*
X367900Y54000D02*
D03*
X370900Y56590D02*
D03*
Y16000D02*
D03*
X367732Y18602D02*
D03*
X370900Y21161D02*
D03*
X368000Y23720D02*
D03*
X370900Y26280D02*
D03*
X357200Y13600D02*
D03*
X368000Y28894D02*
D03*
X370854Y31398D02*
D03*
X368000Y33957D02*
D03*
X356000Y43795D02*
D03*
X370900Y46400D02*
D03*
X368000Y48740D02*
D03*
X370900Y51472D02*
D03*
X367800Y59150D02*
D03*
X370900Y61700D02*
D03*
X367800Y64200D02*
D03*
D46*
X262300Y82100D02*
D03*
X257900Y82300D02*
D03*
X329000Y10500D02*
D03*
X346500Y8500D02*
D03*
X279800Y79300D02*
D03*
X289000Y31000D02*
D03*
M02*
