G04*
G04 #@! TF.GenerationSoftware,Altium Limited,Altium Designer,23.3.1 (30)*
G04*
G04 Layer_Color=12040119*
%FSLAX25Y25*%
%MOIN*%
G70*
G04*
G04 #@! TF.SameCoordinates,15D68FC8-8055-42D3-B3C9-1605CC88C85B*
G04*
G04*
G04 #@! TF.FilePolarity,Positive*
G04*
G01*
G75*
%ADD15R,0.03347X0.02756*%
%ADD16R,0.05500X0.08500*%
%ADD17R,0.04921X0.05512*%
%ADD18R,0.03347X0.02362*%
%ADD19R,0.05512X0.04921*%
%ADD20R,0.02756X0.03347*%
%ADD21R,0.02835X0.00984*%
%ADD22R,0.02047X0.00984*%
%ADD23R,0.03347X0.01181*%
%ADD24R,0.05512X0.01772*%
%ADD25R,0.12992X0.08268*%
%ADD26R,0.03543X0.08268*%
D15*
X296600Y74248D02*
D03*
Y67752D02*
D03*
X305100Y120548D02*
D03*
Y114052D02*
D03*
X348000Y82248D02*
D03*
Y75752D02*
D03*
D16*
X-31900Y110500D02*
D03*
Y76500D02*
D03*
X-14100Y110500D02*
D03*
Y76500D02*
D03*
X-31900Y60500D02*
D03*
Y26500D02*
D03*
X-14100Y60500D02*
D03*
Y26500D02*
D03*
X-31900Y10500D02*
D03*
Y-23500D02*
D03*
X-14100Y10500D02*
D03*
Y-23500D02*
D03*
D17*
X292055Y120700D02*
D03*
X298945D02*
D03*
X356000Y76000D02*
D03*
X362890D02*
D03*
D18*
X319429Y113260D02*
D03*
Y120740D02*
D03*
X310571D02*
D03*
Y113260D02*
D03*
X284429Y68260D02*
D03*
Y72000D02*
D03*
Y75740D02*
D03*
X275571D02*
D03*
Y68260D02*
D03*
D19*
X328000Y113555D02*
D03*
Y120445D02*
D03*
X372540Y74555D02*
D03*
Y81445D02*
D03*
D20*
X363248Y83000D02*
D03*
X356752D02*
D03*
X251248Y68000D02*
D03*
X244752D02*
D03*
X300348Y114200D02*
D03*
X293852D02*
D03*
X263752Y68000D02*
D03*
X270248D02*
D03*
X263752Y76000D02*
D03*
X270248D02*
D03*
X316052Y71900D02*
D03*
X322548D02*
D03*
X310148Y67700D02*
D03*
X303652D02*
D03*
X323248Y39957D02*
D03*
X316752D02*
D03*
Y24000D02*
D03*
X323248D02*
D03*
X316752Y16043D02*
D03*
X323248D02*
D03*
X302752Y20000D02*
D03*
X309248D02*
D03*
Y36000D02*
D03*
X302752D02*
D03*
X309248Y28000D02*
D03*
X302752D02*
D03*
X309248Y52000D02*
D03*
X302752D02*
D03*
X316752Y64000D02*
D03*
X323248D02*
D03*
X302752Y60000D02*
D03*
X309248D02*
D03*
X302752Y76000D02*
D03*
X309248D02*
D03*
X323248Y48000D02*
D03*
X316752D02*
D03*
X323248Y56000D02*
D03*
X316752D02*
D03*
X323248Y32000D02*
D03*
X316752D02*
D03*
D21*
X274807Y43500D02*
D03*
Y41138D02*
D03*
Y38776D02*
D03*
Y36413D02*
D03*
Y34051D02*
D03*
Y31689D02*
D03*
Y45862D02*
D03*
Y48224D02*
D03*
Y50587D02*
D03*
Y52949D02*
D03*
Y55311D02*
D03*
D22*
X284374Y42319D02*
D03*
Y39957D02*
D03*
Y37595D02*
D03*
Y35232D02*
D03*
Y32870D02*
D03*
Y44681D02*
D03*
Y47043D02*
D03*
Y49406D02*
D03*
Y51768D02*
D03*
Y54130D02*
D03*
D23*
X275063Y58106D02*
D03*
Y28894D02*
D03*
D24*
X338386Y66827D02*
D03*
Y64268D02*
D03*
Y61709D02*
D03*
Y59150D02*
D03*
Y56590D02*
D03*
Y54031D02*
D03*
Y51472D02*
D03*
Y48913D02*
D03*
Y46354D02*
D03*
Y43795D02*
D03*
X361614Y66827D02*
D03*
Y64268D02*
D03*
Y61709D02*
D03*
Y59150D02*
D03*
Y56590D02*
D03*
Y54031D02*
D03*
Y51472D02*
D03*
Y48913D02*
D03*
Y46354D02*
D03*
Y43795D02*
D03*
X338386Y36516D02*
D03*
Y33957D02*
D03*
Y31398D02*
D03*
Y28839D02*
D03*
Y26280D02*
D03*
Y23720D02*
D03*
Y21161D02*
D03*
Y18602D02*
D03*
Y16043D02*
D03*
Y13484D02*
D03*
X361614Y36516D02*
D03*
Y33957D02*
D03*
Y31398D02*
D03*
Y28839D02*
D03*
Y26280D02*
D03*
Y23720D02*
D03*
Y21161D02*
D03*
Y18602D02*
D03*
Y16043D02*
D03*
Y13484D02*
D03*
D25*
X363000Y113221D02*
D03*
D26*
X372055Y90780D02*
D03*
X363000D02*
D03*
X353945D02*
D03*
M02*
