G04*
G04 #@! TF.GenerationSoftware,Altium Limited,Altium Designer,23.3.1 (30)*
G04*
G04 Layer_Color=8150272*
%FSLAX25Y25*%
%MOIN*%
G70*
G04*
G04 #@! TF.SameCoordinates,15D68FC8-8055-42D3-B3C9-1605CC88C85B*
G04*
G04*
G04 #@! TF.FilePolarity,Negative*
G04*
G01*
G75*
%ADD39C,0.06500*%
%ADD40R,0.06700X0.06700*%
%ADD41C,0.00500*%
D39*
X340000Y-10000D02*
D03*
Y0D02*
D03*
X330000Y-10000D02*
D03*
Y0D02*
D03*
X320000Y-10000D02*
D03*
Y0D02*
D03*
X310000Y-10000D02*
D03*
Y0D02*
D03*
X300000Y-10000D02*
D03*
Y0D02*
D03*
X290000Y-10000D02*
D03*
Y0D02*
D03*
X280000Y-10000D02*
D03*
Y0D02*
D03*
X270000Y-10000D02*
D03*
Y0D02*
D03*
X260000Y-10000D02*
D03*
Y0D02*
D03*
X250000Y-10000D02*
D03*
Y0D02*
D03*
X240000Y-10000D02*
D03*
Y0D02*
D03*
X230000Y-10000D02*
D03*
Y0D02*
D03*
X220000Y-10000D02*
D03*
Y0D02*
D03*
X210000Y-10000D02*
D03*
Y0D02*
D03*
X200000Y-10000D02*
D03*
Y0D02*
D03*
X190000Y-10000D02*
D03*
Y0D02*
D03*
X180000Y-10000D02*
D03*
Y0D02*
D03*
X170000Y-10000D02*
D03*
Y0D02*
D03*
X160000Y-10000D02*
D03*
Y0D02*
D03*
X150000Y-10000D02*
D03*
Y0D02*
D03*
X140000Y-10000D02*
D03*
Y0D02*
D03*
X130000Y-10000D02*
D03*
Y0D02*
D03*
X120000Y-10000D02*
D03*
Y0D02*
D03*
X110000Y-10000D02*
D03*
Y0D02*
D03*
X100000Y-10000D02*
D03*
Y0D02*
D03*
X90000Y-10000D02*
D03*
Y0D02*
D03*
X80000Y-10000D02*
D03*
Y0D02*
D03*
X70000Y-10000D02*
D03*
Y0D02*
D03*
X60000Y-10000D02*
D03*
Y0D02*
D03*
X50000Y-10000D02*
D03*
Y0D02*
D03*
X40000Y-10000D02*
D03*
Y0D02*
D03*
X0Y-10000D02*
D03*
X10000Y0D02*
D03*
Y-10000D02*
D03*
X20000Y0D02*
D03*
Y-10000D02*
D03*
X30000Y0D02*
D03*
Y-10000D02*
D03*
Y90000D02*
D03*
Y100000D02*
D03*
X20000Y90000D02*
D03*
Y100000D02*
D03*
X10000Y90000D02*
D03*
Y100000D02*
D03*
X0Y90000D02*
D03*
X40000Y100000D02*
D03*
Y90000D02*
D03*
X50000Y100000D02*
D03*
Y90000D02*
D03*
X60000Y100000D02*
D03*
Y90000D02*
D03*
X70000Y100000D02*
D03*
Y90000D02*
D03*
X80000Y100000D02*
D03*
Y90000D02*
D03*
X90000Y100000D02*
D03*
Y90000D02*
D03*
X100000Y100000D02*
D03*
Y90000D02*
D03*
X110000Y100000D02*
D03*
Y90000D02*
D03*
X120000Y100000D02*
D03*
Y90000D02*
D03*
X130000Y100000D02*
D03*
Y90000D02*
D03*
X140000Y100000D02*
D03*
Y90000D02*
D03*
X150000Y100000D02*
D03*
Y90000D02*
D03*
X160000Y100000D02*
D03*
Y90000D02*
D03*
X170000Y100000D02*
D03*
Y90000D02*
D03*
X180000Y100000D02*
D03*
Y90000D02*
D03*
X190000Y100000D02*
D03*
Y90000D02*
D03*
X200000Y100000D02*
D03*
Y90000D02*
D03*
X210000Y100000D02*
D03*
Y90000D02*
D03*
X220000Y100000D02*
D03*
Y90000D02*
D03*
X230000Y100000D02*
D03*
Y90000D02*
D03*
X240000Y100000D02*
D03*
Y90000D02*
D03*
X250000Y100000D02*
D03*
Y90000D02*
D03*
X260000Y100000D02*
D03*
Y90000D02*
D03*
X270000Y100000D02*
D03*
Y90000D02*
D03*
X280000Y100000D02*
D03*
Y90000D02*
D03*
X290000Y100000D02*
D03*
Y90000D02*
D03*
X300000Y100000D02*
D03*
Y90000D02*
D03*
X310000Y100000D02*
D03*
Y90000D02*
D03*
X320000Y100000D02*
D03*
Y90000D02*
D03*
X330000Y100000D02*
D03*
Y90000D02*
D03*
X340000Y100000D02*
D03*
Y90000D02*
D03*
D40*
X0Y0D02*
D03*
Y100000D02*
D03*
D41*
X340900Y-29450D02*
D03*
Y119550D02*
D03*
X900D02*
D03*
Y-29450D02*
D03*
M02*
