M48
;Layer_Color=6321
;FILE_FORMAT=2:5
INCH,LZ
;TYPE=PLATED
T1F00S00C0.01000
T2F00S00C0.01200
T3F00S00C0.03800
;TYPE=NON_PLATED
T4F00S00C0.12500
%
T01
X0329Y00105
X03465Y00085
X0289Y0031
X02798Y00793
X02623Y00821
X02579Y00823
T02
X-00095Y-00236
X-00099Y00106
X03572Y00136
X0367732Y0018602
X0368Y002372
X03709Y0021161
Y0016
Y002628
X0370854Y0031398
X0368Y0028894
Y0033957
X03712Y00365
X03709Y00464
Y0051472
Y005659
Y00617
X03711Y00667
X03728Y00707
X03678Y00642
Y005915
X03679Y0054
X0368Y004874
X0356Y0043795
X03502Y00402
X03446Y00436
X0348Y00723
X03523Y00759
X03433Y01086
X03281Y01095
X03194Y01107
X03052Y01232
X02883Y01207
X02912Y01145
X02877Y00758
X02923Y00686
X0298Y0047043
X02884Y00446
X02812Y00262
X0271Y00288
X02694Y00553
X02708Y00589
X02627Y00602
X0251Y00592
X026Y00717
X02644
X-00095Y00761
X-00094Y00605
X-00099Y00264
X-00096Y01105
T03
X0Y-001
Y0
X001
Y-001
X002
Y0
X003
X004
Y-001
X003
X005
X006
X007
X008
X009
X01
X011
X012
X013
X014
X015
X016
X017
X018
X019
X02
Y0
X019
X018
X017
X016
X015
X014
X013
X012
X011
X01
X009
X008
X007
X006
X005
X021
X022
X023
X024
X025
X026
X027
X028
X029
X03
X031
X032
X033
X034
Y-001
X033
X032
X031
X03
X029
X028
X027
X026
X025
X024
X023
X022
X021
Y009
Y01
X022
Y009
X023
Y01
X024
Y009
X025
Y01
X026
Y009
X027
Y01
X028
Y009
X029
Y01
X03
Y009
X031
Y01
X032
Y009
X033
Y01
X034
Y009
X02
X019
X018
X017
X016
X015
X014
X013
X012
X011
X01
X009
X008
X007
X006
X005
Y01
X006
X007
X008
X009
X01
X011
X012
X013
X014
X015
X016
X017
X018
X019
X02
X004
X003
Y009
X002
Y01
X001
Y009
X0
Y01
X004Y009
T04
X00009Y-002945
X03409
Y011955
X00009
M30
