G04*
G04 #@! TF.GenerationSoftware,Altium Limited,Altium Designer,23.4.1 (23)*
G04*
G04 Layer_Physical_Order=1*
G04 Layer_Color=417716*
%FSLAX25Y25*%
%MOIN*%
G70*
G04*
G04 #@! TF.SameCoordinates,ACA3CFB4-5D02-48E1-8893-3A58BFC83F0D*
G04*
G04*
G04 #@! TF.FilePolarity,Positive*
G04*
G01*
G75*
%ADD10C,0.01000*%
%ADD16C,0.00600*%
%ADD17R,0.02756X0.03347*%
%ADD18R,0.08500X0.05500*%
%ADD19R,0.03937X0.01181*%
%ADD20R,0.04331X0.01181*%
%ADD21R,0.11811X0.01378*%
%ADD22R,0.01181X0.04528*%
%ADD23R,0.03347X0.02756*%
%ADD24R,0.02756X0.05315*%
%ADD25R,0.00984X0.03937*%
%ADD26R,0.02362X0.03937*%
%ADD27R,0.05118X0.03150*%
%ADD28R,0.02362X0.04724*%
%ADD29R,0.03150X0.05118*%
%ADD30R,0.05118X0.07874*%
%ADD53C,0.01200*%
%ADD54C,0.01600*%
%ADD55C,0.02000*%
%ADD56C,0.02795*%
%ADD57O,0.06299X0.04331*%
%ADD58C,0.06000*%
%ADD59R,0.06200X0.06200*%
%ADD60C,0.02000*%
%ADD61C,0.02400*%
G36*
X114243Y114243D02*
X114590Y114011D01*
X115000Y113929D01*
X235000Y113929D01*
X235410Y114011D01*
X235757Y114243D01*
X235989Y114590D01*
X236071Y115000D01*
Y125000D01*
X235989Y125410D01*
X235757Y125757D01*
X218046Y143467D01*
X218238Y143929D01*
X294557D01*
X324243Y114243D01*
X324590Y114011D01*
X325000Y113929D01*
X325000Y113929D01*
X504557D01*
X523929Y94557D01*
Y85443D01*
X519557Y81071D01*
X515000D01*
X515000Y81071D01*
X514590Y80989D01*
X514243Y80757D01*
X509243Y75757D01*
X509011Y75410D01*
X508929Y75000D01*
X509011Y74590D01*
X509243Y74243D01*
X509590Y74011D01*
X510000Y73929D01*
X539557D01*
X548486Y65000D01*
X539557Y56071D01*
X510000D01*
X509590Y55989D01*
X509243Y55757D01*
X509011Y55410D01*
X508929Y55000D01*
X509011Y54590D01*
X509243Y54243D01*
X514243Y49243D01*
X514590Y49011D01*
X515000Y48929D01*
X515000Y48929D01*
X519557D01*
X523929Y44556D01*
Y25000D01*
X524011Y24590D01*
X524243Y24243D01*
X524590Y24011D01*
X525000Y23929D01*
X564557D01*
X588486Y0D01*
X564557Y-23929D01*
X525000D01*
X524590Y-24011D01*
X524243Y-24243D01*
X524011Y-24590D01*
X523929Y-25000D01*
Y-44556D01*
X519557Y-48929D01*
X515000D01*
X515000Y-48929D01*
X514590Y-49011D01*
X514243Y-49243D01*
X509243Y-54243D01*
X509011Y-54590D01*
X508929Y-55000D01*
X509011Y-55410D01*
X509243Y-55757D01*
X509590Y-55989D01*
X510000Y-56071D01*
X539557D01*
X548486Y-65000D01*
X539557Y-73929D01*
X510000D01*
X509590Y-74011D01*
X509243Y-74243D01*
X509011Y-74590D01*
X508929Y-75000D01*
X509011Y-75410D01*
X509243Y-75757D01*
X514243Y-80757D01*
X514590Y-80989D01*
X515000Y-81071D01*
X515000Y-81071D01*
X519557D01*
X523929Y-85443D01*
Y-94557D01*
X504557Y-113929D01*
X325000D01*
X325000Y-113929D01*
X324590Y-114011D01*
X324243Y-114243D01*
X294557Y-143929D01*
X218238D01*
X218046Y-143467D01*
X235757Y-125757D01*
X235989Y-125410D01*
X236071Y-125000D01*
Y-115000D01*
X235989Y-114590D01*
X235757Y-114243D01*
X235410Y-114011D01*
X235000Y-113929D01*
X115000D01*
X115000Y-113929D01*
X114590Y-114011D01*
X114243Y-114243D01*
X114243Y-114243D01*
X59557Y-168929D01*
X-66762D01*
X-66953Y-168467D01*
X-19243Y-120757D01*
X-19011Y-120410D01*
X-18929Y-120000D01*
X-18929Y-120000D01*
Y-110000D01*
X-19011Y-109590D01*
X-19243Y-109243D01*
X-19590Y-109011D01*
X-20000Y-108929D01*
X-39557D01*
X-48929Y-99557D01*
Y-85000D01*
X-49011Y-84590D01*
X-49243Y-84243D01*
X-49243Y-84243D01*
X-64243Y-69243D01*
X-64590Y-69011D01*
X-65000Y-68929D01*
X-79557D01*
X-88929Y-59557D01*
Y-40444D01*
X-79557Y-31071D01*
X-70000D01*
X-69590Y-30989D01*
X-69243Y-30757D01*
X-59243Y-20757D01*
X-59243Y-20757D01*
X-59011Y-20410D01*
X-58929Y-20000D01*
X-58929Y-20000D01*
Y20000D01*
X-58929Y20000D01*
X-59011Y20410D01*
X-59243Y20757D01*
X-59243Y20757D01*
X-69243Y30757D01*
X-69590Y30989D01*
X-70000Y31071D01*
X-84557D01*
X-88929Y35443D01*
Y64557D01*
X-84557Y68929D01*
X-65000D01*
X-64590Y69011D01*
X-64243Y69243D01*
X-49243Y84243D01*
X-49243Y84243D01*
X-49011Y84590D01*
X-48929Y85000D01*
Y99557D01*
X-39557Y108929D01*
X-20000D01*
X-19590Y109011D01*
X-19243Y109243D01*
X-19011Y109590D01*
X-18929Y110000D01*
Y120000D01*
X-18929Y120000D01*
X-19011Y120410D01*
X-19243Y120757D01*
X-66953Y168467D01*
X-66762Y168929D01*
X59557D01*
X114243Y114243D01*
D02*
G37*
%LPC*%
G36*
X6630Y161873D02*
X4752D01*
Y159700D01*
X6630D01*
Y161873D01*
D02*
G37*
G36*
X800Y161274D02*
X54Y160965D01*
X-565Y160346D01*
X-874Y159600D01*
X800D01*
Y161274D01*
D02*
G37*
G36*
Y158600D02*
X-874D01*
X-565Y157854D01*
X54Y157235D01*
X800Y156926D01*
Y158600D01*
D02*
G37*
G36*
X6630Y158700D02*
X4752D01*
Y156527D01*
X6630D01*
Y158700D01*
D02*
G37*
G36*
X3752Y161873D02*
X1874D01*
Y161391D01*
X1800Y161342D01*
Y159100D01*
Y156858D01*
X1874Y156809D01*
Y156527D01*
X3752D01*
Y159200D01*
Y161873D01*
D02*
G37*
G36*
X8752Y153264D02*
X7661D01*
Y152603D01*
X7161Y152356D01*
X6911Y152548D01*
X6141Y152867D01*
X5315Y152976D01*
X4831D01*
Y149784D01*
X4331D01*
Y149284D01*
X220D01*
X263Y148957D01*
X581Y148187D01*
X1089Y147526D01*
X1750Y147019D01*
X2520Y146700D01*
X2813Y146661D01*
X2910Y146372D01*
X2928Y146142D01*
X2298Y145512D01*
X1933Y144631D01*
Y143677D01*
X2298Y142795D01*
X2928Y142166D01*
X2910Y141935D01*
X2813Y141646D01*
X2520Y141607D01*
X1750Y141288D01*
X1089Y140781D01*
X581Y140120D01*
X263Y139350D01*
X220Y139024D01*
X4331D01*
Y138524D01*
X4831D01*
Y135331D01*
X5315D01*
X6141Y135440D01*
X6911Y135759D01*
X7161Y135951D01*
X7661Y135704D01*
Y135043D01*
X8752D01*
Y138307D01*
Y141571D01*
X7661D01*
Y141343D01*
X7161Y141097D01*
X6911Y141288D01*
X6141Y141607D01*
X5849Y141646D01*
X5751Y141935D01*
X5733Y142166D01*
X6363Y142795D01*
X6728Y143677D01*
Y144631D01*
X6363Y145512D01*
X5733Y146142D01*
X5751Y146372D01*
X5849Y146661D01*
X6141Y146700D01*
X6911Y147019D01*
X7161Y147211D01*
X7661Y146964D01*
Y146736D01*
X8752D01*
Y150000D01*
Y153264D01*
D02*
G37*
G36*
X30406D02*
X29315D01*
Y150500D01*
X30406D01*
Y153264D01*
D02*
G37*
G36*
X10842D02*
X9752D01*
Y150500D01*
X10842D01*
Y153264D01*
D02*
G37*
G36*
X36811Y152976D02*
X36327D01*
Y150284D01*
X39938D01*
X39895Y150610D01*
X39576Y151380D01*
X39069Y152041D01*
X38407Y152548D01*
X37637Y152867D01*
X36811Y152976D01*
D02*
G37*
G36*
X3831D02*
X3347D01*
X2520Y152867D01*
X1750Y152548D01*
X1089Y152041D01*
X581Y151380D01*
X263Y150610D01*
X220Y150284D01*
X3831D01*
Y152976D01*
D02*
G37*
G36*
X30406Y149500D02*
X29315D01*
Y146736D01*
X30406D01*
Y149500D01*
D02*
G37*
G36*
X10842D02*
X9752D01*
Y146736D01*
X10842D01*
Y149500D01*
D02*
G37*
G36*
X32496Y153264D02*
X31405D01*
Y150000D01*
Y146736D01*
X32496D01*
Y146964D01*
X32996Y147211D01*
X33246Y147019D01*
X34016Y146700D01*
X34309Y146661D01*
X34406Y146372D01*
X34424Y146142D01*
X33794Y145512D01*
X33429Y144631D01*
Y143677D01*
X33794Y142795D01*
X34424Y142166D01*
X34406Y141935D01*
X34309Y141646D01*
X34016Y141607D01*
X33246Y141288D01*
X32996Y141097D01*
X32496Y141343D01*
Y141571D01*
X31405D01*
Y138307D01*
Y135043D01*
X32496D01*
Y135704D01*
X32996Y135951D01*
X33246Y135759D01*
X34016Y135440D01*
X34843Y135331D01*
X35327D01*
Y138524D01*
X35827D01*
Y139024D01*
X39938D01*
X39895Y139350D01*
X39576Y140120D01*
X39069Y140781D01*
X38407Y141288D01*
X37637Y141607D01*
X37345Y141646D01*
X37248Y141935D01*
X37229Y142166D01*
X37859Y142795D01*
X38224Y143677D01*
Y144631D01*
X37859Y145512D01*
X37229Y146142D01*
X37248Y146372D01*
X37345Y146661D01*
X37637Y146700D01*
X38407Y147019D01*
X39069Y147526D01*
X39576Y148187D01*
X39895Y148957D01*
X39938Y149284D01*
X35827D01*
Y149784D01*
X35327D01*
Y152976D01*
X34843D01*
X34016Y152867D01*
X33246Y152548D01*
X32996Y152356D01*
X32496Y152603D01*
Y153264D01*
D02*
G37*
G36*
X30406Y141571D02*
X29315D01*
Y138807D01*
X30406D01*
Y141571D01*
D02*
G37*
G36*
X10842D02*
X9752D01*
Y138807D01*
X10842D01*
Y141571D01*
D02*
G37*
G36*
X39938Y138024D02*
X36327D01*
Y135331D01*
X36811D01*
X37637Y135440D01*
X38407Y135759D01*
X39069Y136266D01*
X39576Y136927D01*
X39895Y137697D01*
X39938Y138024D01*
D02*
G37*
G36*
X3831D02*
X220D01*
X263Y137697D01*
X581Y136927D01*
X1089Y136266D01*
X1750Y135759D01*
X2520Y135440D01*
X3347Y135331D01*
X3831D01*
Y138024D01*
D02*
G37*
G36*
X30406Y137807D02*
X29315D01*
Y135043D01*
X30406D01*
Y137807D01*
D02*
G37*
G36*
X10842D02*
X9752D01*
Y135043D01*
X10842D01*
Y137807D01*
D02*
G37*
G36*
X35748Y133673D02*
X33870D01*
Y131500D01*
X35748D01*
Y133673D01*
D02*
G37*
G36*
X39700Y132874D02*
Y131200D01*
X41374D01*
X41065Y131946D01*
X40446Y132565D01*
X39700Y132874D01*
D02*
G37*
G36*
X41374Y130200D02*
X39700D01*
Y128526D01*
X40446Y128835D01*
X41065Y129454D01*
X41374Y130200D01*
D02*
G37*
G36*
X38626Y133673D02*
X36748D01*
Y131000D01*
Y128327D01*
X38626D01*
Y128409D01*
X38700Y128458D01*
Y130700D01*
Y132942D01*
X38626Y132991D01*
Y133673D01*
D02*
G37*
G36*
X35748Y130500D02*
X33870D01*
Y128327D01*
X35748D01*
Y130500D01*
D02*
G37*
G36*
X13126Y161873D02*
X8370D01*
Y156527D01*
X12636D01*
X12913Y156111D01*
X12800Y155838D01*
Y154962D01*
X13135Y154154D01*
X13537Y153752D01*
X13567Y153264D01*
X13567Y153264D01*
Y146736D01*
X13832D01*
Y141571D01*
X13567D01*
Y135043D01*
X17781D01*
X17870Y134598D01*
X18157Y134168D01*
X18274Y134051D01*
Y116214D01*
X18259D01*
X17450Y115879D01*
X16831Y115260D01*
X16496Y114452D01*
Y113576D01*
X16831Y112768D01*
X17450Y112149D01*
X18259Y111814D01*
X19134D01*
X19942Y112149D01*
X20155Y112361D01*
X20492Y112023D01*
X21301Y111688D01*
X22176D01*
X22985Y112023D01*
X23604Y112642D01*
X23939Y113451D01*
Y114326D01*
X23604Y115134D01*
X22985Y115753D01*
X22176Y116088D01*
X22126D01*
Y131547D01*
X22587Y131738D01*
X24363Y129963D01*
X24793Y129675D01*
X25300Y129575D01*
X27374D01*
Y128327D01*
X32130D01*
Y133673D01*
X27374D01*
Y132226D01*
X25849D01*
X24357Y133718D01*
Y135043D01*
X26591D01*
Y141571D01*
X26326D01*
Y146736D01*
X26591D01*
Y153264D01*
X26276D01*
Y153864D01*
X26686Y154274D01*
X41851D01*
X58675Y137451D01*
Y85182D01*
X57622D01*
Y77867D01*
X62378D01*
Y80274D01*
X66374D01*
Y78927D01*
X71130D01*
Y84273D01*
X66374D01*
Y82925D01*
X62378D01*
Y85182D01*
X61326D01*
Y138000D01*
X61225Y138507D01*
X60937Y138937D01*
X43337Y156537D01*
X42907Y156825D01*
X42400Y156925D01*
X26686D01*
X26146Y157465D01*
X25338Y157800D01*
X24462D01*
X23654Y157465D01*
X23035Y156846D01*
X22700Y156038D01*
Y155162D01*
X23035Y154354D01*
X23625Y153764D01*
Y153264D01*
X18451D01*
Y158274D01*
X18351Y158781D01*
X18063Y159211D01*
X17137Y160137D01*
X16707Y160425D01*
X16200Y160526D01*
X13126D01*
Y161873D01*
D02*
G37*
G36*
X124026Y77663D02*
X121557D01*
Y76573D01*
X124026D01*
Y77663D01*
D02*
G37*
G36*
X131574Y77700D02*
X129900D01*
Y76026D01*
X130646Y76335D01*
X131265Y76954D01*
X131574Y77700D01*
D02*
G37*
G36*
X83373Y77430D02*
X81200D01*
Y75552D01*
X83373D01*
Y77430D01*
D02*
G37*
G36*
X80200D02*
X78027D01*
Y75552D01*
X80200D01*
Y77430D01*
D02*
G37*
G36*
X83373Y74552D02*
X80700D01*
X78027D01*
Y72674D01*
X78509D01*
X78558Y72600D01*
X83042D01*
X83091Y72674D01*
X83373D01*
Y74552D01*
D02*
G37*
G36*
X82974Y71600D02*
X81300D01*
Y69926D01*
X82046Y70235D01*
X82665Y70854D01*
X82974Y71600D01*
D02*
G37*
G36*
X80300D02*
X78626D01*
X78935Y70854D01*
X79554Y70235D01*
X80300Y69926D01*
Y71600D01*
D02*
G37*
G36*
X62378Y75733D02*
X57622D01*
Y71302D01*
X53758Y67438D01*
X53316Y66776D01*
X53161Y65996D01*
Y58149D01*
X52699Y57958D01*
X52456Y58201D01*
X51544Y58727D01*
X50527Y59000D01*
X49473D01*
X48456Y58727D01*
X47544Y58201D01*
X46799Y57456D01*
X46273Y56544D01*
X46000Y55527D01*
Y54473D01*
X46273Y53456D01*
X46799Y52544D01*
X47544Y51799D01*
X48456Y51273D01*
X49473Y51000D01*
X50527D01*
X51544Y51273D01*
X52456Y51799D01*
X52699Y52042D01*
X53161Y51851D01*
Y49800D01*
X53316Y49020D01*
X53758Y48358D01*
X56125Y45992D01*
X56000Y45527D01*
Y44473D01*
X56273Y43456D01*
X56799Y42544D01*
X57544Y41799D01*
X58061Y41501D01*
Y38239D01*
X19747D01*
X18967Y38084D01*
X18305Y37642D01*
X11289Y30626D01*
X8827D01*
Y30378D01*
X7559D01*
Y30913D01*
X441D01*
Y25764D01*
X7559D01*
Y26299D01*
X8827D01*
Y25870D01*
X14173D01*
Y27742D01*
X20592Y34161D01*
X58928D01*
X59709Y34316D01*
X60370Y34758D01*
X61542Y35930D01*
X61542Y35930D01*
X61984Y36591D01*
X62139Y37372D01*
Y41616D01*
X62456Y41799D01*
X63201Y42544D01*
X63727Y43456D01*
X64000Y44473D01*
Y45527D01*
X63727Y46544D01*
X63201Y47456D01*
X62456Y48201D01*
X61544Y48727D01*
X60527Y49000D01*
X59473D01*
X59008Y48875D01*
X57239Y50645D01*
Y51437D01*
X57739Y51687D01*
X58456Y51273D01*
X59473Y51000D01*
X60527D01*
X61544Y51273D01*
X62456Y51799D01*
X63201Y52544D01*
X63727Y53456D01*
X64000Y54473D01*
Y55527D01*
X63727Y56544D01*
X63201Y57456D01*
X62456Y58201D01*
X61544Y58727D01*
X60527Y59000D01*
X59473D01*
X58456Y58727D01*
X57739Y58314D01*
X57239Y58562D01*
Y65151D01*
X60506Y68418D01*
X60950D01*
X61078Y68393D01*
X61206Y68418D01*
X62378D01*
Y69590D01*
X62403Y69718D01*
X62378Y69846D01*
Y75733D01*
D02*
G37*
G36*
X115274Y76684D02*
X91553D01*
X90929Y76560D01*
X90399Y76206D01*
X82193Y68000D01*
X82102D01*
X81367Y67695D01*
X80805Y67133D01*
X80500Y66398D01*
Y65602D01*
X80805Y64867D01*
X81367Y64305D01*
X82102Y64000D01*
X82898D01*
X83633Y64305D01*
X84196Y64867D01*
X84500Y65602D01*
Y65693D01*
X92229Y73421D01*
X104925D01*
X105069Y73120D01*
X104785Y72645D01*
X98416D01*
X97830Y72529D01*
X97334Y72197D01*
X93519Y68381D01*
X93187Y67885D01*
X93071Y67300D01*
Y58240D01*
X92609Y58048D01*
X92456Y58201D01*
X91544Y58727D01*
X90527Y59000D01*
X89473D01*
X88456Y58727D01*
X87544Y58201D01*
X86799Y57456D01*
X86273Y56544D01*
X86000Y55527D01*
Y54473D01*
X86273Y53456D01*
X86799Y52544D01*
X87544Y51799D01*
X88456Y51273D01*
X89473Y51000D01*
X90527D01*
X91544Y51273D01*
X92456Y51799D01*
X92609Y51952D01*
X93071Y51761D01*
Y48239D01*
X92609Y48048D01*
X92456Y48201D01*
X91544Y48727D01*
X90527Y49000D01*
X89473D01*
X88456Y48727D01*
X87544Y48201D01*
X86799Y47456D01*
X86273Y46544D01*
X86000Y45527D01*
Y44473D01*
X86273Y43456D01*
X86799Y42544D01*
X87544Y41799D01*
X88456Y41273D01*
X89473Y41000D01*
X90527D01*
X91544Y41273D01*
X92456Y41799D01*
X92609Y41952D01*
X93071Y41761D01*
Y23382D01*
X92735Y23046D01*
X92400Y22238D01*
Y21362D01*
X92735Y20554D01*
X93354Y19935D01*
X94162Y19600D01*
X95038D01*
X95846Y19935D01*
X96465Y20554D01*
X96800Y21362D01*
Y22238D01*
X96465Y23046D01*
X96129Y23382D01*
Y42704D01*
X96629Y42838D01*
X96799Y42544D01*
X97544Y41799D01*
X98165Y41441D01*
Y36100D01*
X98304Y35398D01*
X98702Y34802D01*
X108902Y24602D01*
X109498Y24204D01*
X110200Y24065D01*
X116604D01*
X117002Y23900D01*
X117798D01*
X118533Y24205D01*
X119096Y24767D01*
X119400Y25502D01*
Y26298D01*
X119096Y27033D01*
X118533Y27595D01*
X117798Y27900D01*
X117002D01*
X116604Y27735D01*
X110960D01*
X101835Y36860D01*
Y41441D01*
X102456Y41799D01*
X103201Y42544D01*
X103727Y43456D01*
X104000Y44473D01*
Y45527D01*
X103727Y46544D01*
X103201Y47456D01*
X102456Y48201D01*
X101544Y48727D01*
X100527Y49000D01*
X99473D01*
X98456Y48727D01*
X97544Y48201D01*
X96799Y47456D01*
X96629Y47162D01*
X96129Y47296D01*
Y52704D01*
X96629Y52838D01*
X96799Y52544D01*
X97544Y51799D01*
X98456Y51273D01*
X99473Y51000D01*
X100527D01*
X101544Y51273D01*
X102456Y51799D01*
X103201Y52544D01*
X103727Y53456D01*
X104000Y54473D01*
Y55527D01*
X103727Y56544D01*
X103201Y57456D01*
X102456Y58201D01*
X101544Y58727D01*
X100527Y59000D01*
X99473D01*
X98456Y58727D01*
X97544Y58201D01*
X96799Y57456D01*
X96629Y57162D01*
X96129Y57296D01*
Y66667D01*
X99049Y69586D01*
X105806D01*
X106119Y69119D01*
X107171Y68066D01*
X107668Y67734D01*
X108253Y67618D01*
X112109D01*
Y67557D01*
X118439D01*
Y69525D01*
Y73462D01*
Y76643D01*
X115479D01*
X115274Y76684D01*
D02*
G37*
G36*
X341614Y81800D02*
X340186D01*
X338785Y81521D01*
X337466Y80975D01*
X336278Y80181D01*
X335269Y79172D01*
X334475Y77984D01*
X333929Y76665D01*
X333650Y75264D01*
Y73836D01*
X333929Y72435D01*
X334475Y71116D01*
X335269Y69928D01*
X336278Y68919D01*
X337466Y68125D01*
X338785Y67579D01*
X340186Y67300D01*
X341614D01*
X343015Y67579D01*
X344334Y68125D01*
X345522Y68919D01*
X346531Y69928D01*
X347325Y71116D01*
X347871Y72435D01*
X348150Y73836D01*
Y75264D01*
X347871Y76665D01*
X347325Y77984D01*
X346531Y79172D01*
X345522Y80181D01*
X344334Y80975D01*
X343015Y81521D01*
X341614Y81800D01*
D02*
G37*
G36*
X1614D02*
X186D01*
X-1215Y81521D01*
X-2534Y80975D01*
X-3722Y80181D01*
X-4731Y79172D01*
X-5525Y77984D01*
X-6071Y76665D01*
X-6350Y75264D01*
Y73836D01*
X-6071Y72435D01*
X-5525Y71116D01*
X-4731Y69928D01*
X-3722Y68919D01*
X-2534Y68125D01*
X-1215Y67579D01*
X186Y67300D01*
X1614D01*
X3015Y67579D01*
X4334Y68125D01*
X5522Y68919D01*
X6531Y69928D01*
X7325Y71116D01*
X7871Y72435D01*
X8150Y73836D01*
Y75264D01*
X7871Y76665D01*
X7325Y77984D01*
X6531Y79172D01*
X5522Y80181D01*
X4334Y80975D01*
X3015Y81521D01*
X1614Y81800D01*
D02*
G37*
G36*
X129400Y67974D02*
X128654Y67665D01*
X128035Y67046D01*
X127995Y66948D01*
X127495Y67048D01*
Y67628D01*
X125026D01*
Y66037D01*
Y64446D01*
X127495D01*
Y64552D01*
X127995Y64652D01*
X128035Y64554D01*
X128654Y63935D01*
X129400Y63626D01*
Y65800D01*
Y67974D01*
D02*
G37*
G36*
X124026Y67628D02*
X121557D01*
Y66537D01*
X124026D01*
Y67628D01*
D02*
G37*
G36*
X130400Y67974D02*
Y66300D01*
X132074D01*
X131765Y67046D01*
X131146Y67665D01*
X130400Y67974D01*
D02*
G37*
G36*
X42598Y67900D02*
X41802D01*
X41067Y67595D01*
X40505Y67033D01*
X40200Y66298D01*
Y66207D01*
X39324Y65331D01*
X-5800D01*
X-5800Y65331D01*
X-6424Y65207D01*
X-6954Y64854D01*
X-9554Y62253D01*
X-9907Y61724D01*
X-10031Y61100D01*
Y26000D01*
X-9907Y25376D01*
X-9554Y24847D01*
X-4053Y19346D01*
X-3524Y18993D01*
X-2900Y18869D01*
X441D01*
Y18087D01*
X2171D01*
Y15382D01*
X1835Y15046D01*
X1500Y14238D01*
Y13362D01*
X1835Y12554D01*
X2454Y11935D01*
X3090Y11671D01*
X3264Y11138D01*
X1729Y9604D01*
X1229Y9811D01*
Y11100D01*
X1113Y11685D01*
X781Y12181D01*
X-17271Y30233D01*
Y46100D01*
X-17387Y46685D01*
X-17719Y47181D01*
X-27750Y57213D01*
Y62650D01*
X-38250D01*
Y60429D01*
X-61750D01*
Y62650D01*
X-72250D01*
Y55150D01*
X-61750D01*
Y57371D01*
X-38250D01*
Y55150D01*
X-30013D01*
X-20329Y45467D01*
Y29600D01*
X-20213Y29015D01*
X-19881Y28519D01*
X-2692Y11329D01*
X-2948Y10922D01*
X-2970Y10900D01*
X-3838D01*
X-4646Y10565D01*
X-5186Y10025D01*
X-7750D01*
Y12650D01*
X-18250D01*
Y10226D01*
X-41750D01*
Y12650D01*
X-52250D01*
Y5150D01*
X-41750D01*
Y7575D01*
X-18250D01*
Y5150D01*
X-7750D01*
Y7374D01*
X-5186D01*
X-4646Y6835D01*
X-3838Y6500D01*
X-2962D01*
X-2329Y6762D01*
X-1829Y6506D01*
Y-11366D01*
X-12533Y-22071D01*
X-22518D01*
X-22854Y-21735D01*
X-23662Y-21400D01*
X-24538D01*
X-25346Y-21735D01*
X-25965Y-22354D01*
X-26300Y-23162D01*
Y-24038D01*
X-25965Y-24846D01*
X-25346Y-25465D01*
X-24538Y-25800D01*
X-23662D01*
X-22854Y-25465D01*
X-22518Y-25129D01*
X-11900D01*
X-11315Y-25013D01*
X-10819Y-24681D01*
X475Y-13388D01*
X974Y-13596D01*
Y-20951D01*
X-17685Y-39611D01*
X-17973Y-40041D01*
X-18074Y-40548D01*
Y-52327D01*
X-19126D01*
Y-57673D01*
X-18074D01*
Y-73152D01*
X-17973Y-73659D01*
X-17685Y-74089D01*
X4600Y-96374D01*
Y-97138D01*
X4935Y-97946D01*
X5554Y-98565D01*
X6362Y-98900D01*
X7238D01*
X8046Y-98565D01*
X8665Y-97946D01*
X9000Y-97138D01*
Y-96262D01*
X8665Y-95454D01*
X8046Y-94835D01*
X7238Y-94500D01*
X6475D01*
X-15423Y-72603D01*
Y-57673D01*
X-14370D01*
Y-52327D01*
X-15423D01*
Y-41097D01*
X3175Y-22500D01*
X3430Y-22545D01*
X3675Y-22683D01*
Y-40900D01*
X-4100D01*
Y-49100D01*
X3675D01*
Y-52417D01*
X3347Y-52505D01*
X3175Y-52518D01*
X2456Y-51799D01*
X1544Y-51273D01*
X527Y-51000D01*
X-527D01*
X-1544Y-51273D01*
X-2456Y-51799D01*
X-3201Y-52544D01*
X-3727Y-53456D01*
X-3786Y-53675D01*
X-7874D01*
Y-52327D01*
X-12630D01*
Y-57673D01*
X-7874D01*
Y-56326D01*
X-3786D01*
X-3727Y-56544D01*
X-3201Y-57456D01*
X-2456Y-58201D01*
X-1544Y-58727D01*
X-527Y-59000D01*
X527D01*
X1544Y-58727D01*
X2456Y-58201D01*
X3175Y-57482D01*
X3347Y-57495D01*
X3675Y-57583D01*
Y-63000D01*
X3775Y-63507D01*
X4063Y-63937D01*
X15274Y-75149D01*
Y-88914D01*
X14735Y-89454D01*
X14400Y-90262D01*
Y-91138D01*
X14735Y-91946D01*
X15274Y-92486D01*
Y-133700D01*
X15375Y-134207D01*
X15663Y-134637D01*
X19334Y-138308D01*
X19142Y-138770D01*
X7916D01*
Y-139813D01*
X6758D01*
Y-142782D01*
Y-145750D01*
X8439D01*
Y-144707D01*
X36361D01*
Y-145750D01*
X38042D01*
Y-142782D01*
Y-139813D01*
X36884D01*
Y-138770D01*
X36718D01*
Y-136757D01*
X41937Y-131537D01*
X42225Y-131107D01*
X42325Y-130600D01*
Y-100786D01*
X42865Y-100246D01*
X43200Y-99438D01*
Y-98562D01*
X42865Y-97754D01*
X42246Y-97135D01*
X41438Y-96800D01*
X40562D01*
X39754Y-97135D01*
X39135Y-97754D01*
X38800Y-98562D01*
Y-99438D01*
X39135Y-100246D01*
X39674Y-100786D01*
Y-130051D01*
X34851Y-134874D01*
X33800D01*
X33559Y-134922D01*
X33313Y-134462D01*
X37037Y-130737D01*
X37325Y-130307D01*
X37426Y-129800D01*
Y-98586D01*
X37965Y-98046D01*
X38300Y-97238D01*
Y-96362D01*
X37965Y-95554D01*
X37346Y-94935D01*
X36538Y-94600D01*
X35662D01*
X35641Y-94609D01*
X35225Y-94331D01*
Y-87149D01*
X45937Y-76437D01*
X46225Y-76007D01*
X46325Y-75500D01*
Y-57583D01*
X46654Y-57495D01*
X46826Y-57482D01*
X47544Y-58201D01*
X48456Y-58727D01*
X49473Y-59000D01*
X50527D01*
X51544Y-58727D01*
X52456Y-58201D01*
X53201Y-57456D01*
X53727Y-56544D01*
X54000Y-55527D01*
Y-54473D01*
X53727Y-53456D01*
X53201Y-52544D01*
X52456Y-51799D01*
X51544Y-51273D01*
X50527Y-51000D01*
X49473D01*
X48456Y-51273D01*
X47544Y-51799D01*
X46826Y-52518D01*
X46654Y-52505D01*
X46325Y-52417D01*
Y-47583D01*
X46654Y-47495D01*
X46826Y-47482D01*
X47544Y-48201D01*
X48456Y-48727D01*
X49473Y-49000D01*
X50527D01*
X51544Y-48727D01*
X52456Y-48201D01*
X53175Y-47482D01*
X53347Y-47495D01*
X53675Y-47583D01*
Y-50200D01*
X53775Y-50707D01*
X54063Y-51137D01*
X56313Y-53387D01*
X56273Y-53456D01*
X56000Y-54473D01*
Y-55527D01*
X56273Y-56544D01*
X56799Y-57456D01*
X57544Y-58201D01*
X58456Y-58727D01*
X59473Y-59000D01*
X60527D01*
X61544Y-58727D01*
X62456Y-58201D01*
X63201Y-57456D01*
X63727Y-56544D01*
X64000Y-55527D01*
Y-54473D01*
X63727Y-53456D01*
X63201Y-52544D01*
X62456Y-51799D01*
X61544Y-51273D01*
X60527Y-51000D01*
X59473D01*
X58456Y-51273D01*
X58133Y-51459D01*
X56326Y-49651D01*
Y-47583D01*
X56653Y-47495D01*
X56826Y-47482D01*
X57544Y-48201D01*
X58456Y-48727D01*
X59473Y-49000D01*
X60527D01*
X61544Y-48727D01*
X62456Y-48201D01*
X63174Y-47482D01*
X63346Y-47495D01*
X63674Y-47583D01*
Y-50000D01*
X63775Y-50507D01*
X64063Y-50937D01*
X66386Y-53260D01*
X66273Y-53456D01*
X66000Y-54473D01*
Y-55527D01*
X66273Y-56544D01*
X66799Y-57456D01*
X67544Y-58201D01*
X68456Y-58727D01*
X69473Y-59000D01*
X70527D01*
X71544Y-58727D01*
X72456Y-58201D01*
X73201Y-57456D01*
X73727Y-56544D01*
X74000Y-55527D01*
Y-54473D01*
X73727Y-53456D01*
X73201Y-52544D01*
X72456Y-51799D01*
X71544Y-51273D01*
X70527Y-51000D01*
X69473D01*
X68456Y-51273D01*
X68260Y-51386D01*
X66325Y-49451D01*
Y-47583D01*
X66654Y-47495D01*
X66825Y-47482D01*
X67544Y-48201D01*
X68456Y-48727D01*
X69473Y-49000D01*
X70527D01*
X71544Y-48727D01*
X72456Y-48201D01*
X73201Y-47456D01*
X73727Y-46544D01*
X74000Y-45527D01*
Y-44473D01*
X73727Y-43456D01*
X73201Y-42544D01*
X72456Y-41799D01*
X71544Y-41273D01*
X70527Y-41000D01*
X69473D01*
X68456Y-41273D01*
X67544Y-41799D01*
X66825Y-42518D01*
X66654Y-42505D01*
X66325Y-42417D01*
Y-40700D01*
X66225Y-40193D01*
X65937Y-39763D01*
X46699Y-20524D01*
X46731Y-20300D01*
X46761Y-20266D01*
X47267Y-20074D01*
X47493Y-20225D01*
X48000Y-20325D01*
X78079D01*
Y-25905D01*
X78934D01*
Y-28441D01*
X77587D01*
Y-35559D01*
X78675D01*
Y-41214D01*
X78456Y-41273D01*
X77544Y-41799D01*
X76799Y-42544D01*
X76273Y-43456D01*
X76000Y-44473D01*
Y-45527D01*
X76273Y-46544D01*
X76799Y-47456D01*
X77544Y-48201D01*
X78456Y-48727D01*
X79473Y-49000D01*
X80527D01*
X81544Y-48727D01*
X82456Y-48201D01*
X83201Y-47456D01*
X83727Y-46544D01*
X84000Y-45527D01*
Y-44473D01*
X83727Y-43456D01*
X83201Y-42544D01*
X82456Y-41799D01*
X81544Y-41273D01*
X81326Y-41214D01*
Y-35559D01*
X82736D01*
Y-28441D01*
X81585D01*
Y-25905D01*
X82441D01*
Y-20325D01*
X85559D01*
Y-22043D01*
X87740D01*
X89921D01*
Y-20325D01*
X128814D01*
X129354Y-20865D01*
X130162Y-21200D01*
X131038D01*
X131846Y-20865D01*
X132465Y-20246D01*
X132800Y-19438D01*
Y-18562D01*
X132465Y-17754D01*
X131846Y-17135D01*
X131038Y-16800D01*
X130162D01*
X129354Y-17135D01*
X128814Y-17674D01*
X96870D01*
X96618Y-17175D01*
X96757Y-16986D01*
X117047D01*
X117632Y-16870D01*
X118129Y-16538D01*
X118994Y-15673D01*
X121882D01*
Y-10327D01*
X117126D01*
Y-13215D01*
X116414Y-13927D01*
X96482D01*
X96146Y-13592D01*
X95338Y-13257D01*
X94462D01*
X93654Y-13592D01*
X93318Y-13927D01*
X86181D01*
Y-12094D01*
X81819D01*
Y-13927D01*
X51422D01*
X51302Y-13951D01*
X50938Y-13800D01*
X50062D01*
X49254Y-14135D01*
X48635Y-14754D01*
X48483Y-15121D01*
X47983Y-15021D01*
Y-12192D01*
X48175Y-12000D01*
X48938D01*
X48958Y-11991D01*
X49374Y-12269D01*
Y-12673D01*
X54130D01*
Y-7327D01*
X49374D01*
Y-7331D01*
X48958Y-7609D01*
X48938Y-7600D01*
X48062D01*
X47899Y-7668D01*
X47483Y-7390D01*
Y-4465D01*
X47943Y-4004D01*
X49374D01*
Y-5673D01*
X54130D01*
Y-327D01*
X49374D01*
Y-1353D01*
X47943D01*
X47404Y-814D01*
X46595Y-479D01*
X45720D01*
X44912Y-814D01*
X44625Y-1100D01*
X44126Y-893D01*
Y1314D01*
X44665Y1854D01*
X44674Y1874D01*
X49374D01*
Y327D01*
X54130D01*
Y5673D01*
X49374D01*
Y4526D01*
X44486D01*
X44046Y4965D01*
X43238Y5300D01*
X42362D01*
X41554Y4965D01*
X40935Y4346D01*
X40600Y3538D01*
Y2662D01*
X40935Y1854D01*
X41475Y1314D01*
Y-7575D01*
X41138Y-7800D01*
X40262D01*
X39926Y-7406D01*
Y6920D01*
X39957D01*
X40766Y7255D01*
X41306Y7794D01*
X49374D01*
Y6327D01*
X54130D01*
Y11673D01*
X49374D01*
Y10445D01*
X41306D01*
X40766Y10985D01*
X40622Y11045D01*
X40673Y11565D01*
X40703Y11571D01*
X41133Y11858D01*
X43149Y13874D01*
X46914D01*
X47454Y13335D01*
X48262Y13000D01*
X49138D01*
X49374Y12842D01*
Y12327D01*
X54130D01*
Y17673D01*
X49374D01*
Y17558D01*
X49138Y17400D01*
X48262D01*
X47454Y17065D01*
X46914Y16525D01*
X42600D01*
X42093Y16425D01*
X41663Y16137D01*
X39646Y14121D01*
X28323D01*
Y16354D01*
X25354D01*
Y17110D01*
X28323D01*
Y17110D01*
Y20291D01*
X22386D01*
Y20026D01*
X16785D01*
X16346Y20465D01*
X15538Y20800D01*
X14662D01*
X14634Y20788D01*
X14173Y21249D01*
Y24130D01*
X8827D01*
Y19374D01*
X12299D01*
X12900Y18773D01*
Y18162D01*
X13235Y17354D01*
X13854Y16735D01*
X13877Y16725D01*
X13777Y16226D01*
X8900D01*
X8393Y16125D01*
X7963Y15837D01*
X6362Y14236D01*
X5829Y14410D01*
X5565Y15046D01*
X5229Y15382D01*
Y18087D01*
X7559D01*
Y23236D01*
X441D01*
Y22131D01*
X-2224D01*
X-6769Y26676D01*
Y60424D01*
X-5124Y62069D01*
X40000D01*
X40624Y62193D01*
X41153Y62546D01*
X42507Y63900D01*
X42598D01*
X43333Y64205D01*
X43896Y64767D01*
X44200Y65502D01*
Y66298D01*
X43896Y67033D01*
X43333Y67595D01*
X42598Y67900D01*
D02*
G37*
G36*
X124026Y65537D02*
X121557D01*
Y64446D01*
X124026D01*
Y65537D01*
D02*
G37*
G36*
X132074Y65300D02*
X130400D01*
Y63626D01*
X131146Y63935D01*
X131765Y64554D01*
X132074Y65300D01*
D02*
G37*
G36*
X340527Y59000D02*
X339473D01*
X338456Y58727D01*
X337544Y58201D01*
X336799Y57456D01*
X336273Y56544D01*
X336000Y55527D01*
Y54473D01*
X336273Y53456D01*
X336799Y52544D01*
X337544Y51799D01*
X338456Y51273D01*
X339473Y51000D01*
X340527D01*
X341544Y51273D01*
X342456Y51799D01*
X343201Y52544D01*
X343727Y53456D01*
X344000Y54473D01*
Y55527D01*
X343727Y56544D01*
X343201Y57456D01*
X342456Y58201D01*
X341544Y58727D01*
X340527Y59000D01*
D02*
G37*
G36*
X330527D02*
X329473D01*
X328456Y58727D01*
X327544Y58201D01*
X326799Y57456D01*
X326273Y56544D01*
X326000Y55527D01*
Y54473D01*
X326273Y53456D01*
X326799Y52544D01*
X327544Y51799D01*
X328456Y51273D01*
X329473Y51000D01*
X330527D01*
X331544Y51273D01*
X332456Y51799D01*
X333201Y52544D01*
X333727Y53456D01*
X334000Y54473D01*
Y55527D01*
X333727Y56544D01*
X333201Y57456D01*
X332456Y58201D01*
X331544Y58727D01*
X330527Y59000D01*
D02*
G37*
G36*
X320527D02*
X319473D01*
X318456Y58727D01*
X317544Y58201D01*
X316799Y57456D01*
X316273Y56544D01*
X316000Y55527D01*
Y54473D01*
X316273Y53456D01*
X316799Y52544D01*
X317544Y51799D01*
X318456Y51273D01*
X319473Y51000D01*
X320527D01*
X321544Y51273D01*
X322456Y51799D01*
X323201Y52544D01*
X323727Y53456D01*
X324000Y54473D01*
Y55527D01*
X323727Y56544D01*
X323201Y57456D01*
X322456Y58201D01*
X321544Y58727D01*
X320527Y59000D01*
D02*
G37*
G36*
X310527D02*
X309473D01*
X308456Y58727D01*
X307544Y58201D01*
X306799Y57456D01*
X306273Y56544D01*
X306000Y55527D01*
Y54473D01*
X306273Y53456D01*
X306799Y52544D01*
X307544Y51799D01*
X308456Y51273D01*
X309473Y51000D01*
X310527D01*
X311544Y51273D01*
X312456Y51799D01*
X313201Y52544D01*
X313727Y53456D01*
X314000Y54473D01*
Y55527D01*
X313727Y56544D01*
X313201Y57456D01*
X312456Y58201D01*
X311544Y58727D01*
X310527Y59000D01*
D02*
G37*
G36*
X300527D02*
X299473D01*
X298456Y58727D01*
X297544Y58201D01*
X296799Y57456D01*
X296273Y56544D01*
X296000Y55527D01*
Y54473D01*
X296273Y53456D01*
X296799Y52544D01*
X297544Y51799D01*
X298456Y51273D01*
X299473Y51000D01*
X300527D01*
X301544Y51273D01*
X302456Y51799D01*
X303201Y52544D01*
X303727Y53456D01*
X304000Y54473D01*
Y55527D01*
X303727Y56544D01*
X303201Y57456D01*
X302456Y58201D01*
X301544Y58727D01*
X300527Y59000D01*
D02*
G37*
G36*
X77626Y84273D02*
X72870D01*
Y78927D01*
X77626D01*
Y78931D01*
X78027Y79170D01*
X83373D01*
Y80223D01*
X121483D01*
X121557Y79754D01*
X121557D01*
Y78663D01*
X124526D01*
Y78163D01*
X125026D01*
Y76573D01*
X127494D01*
X127495Y76572D01*
Y76573D01*
X127972Y76517D01*
X128154Y76335D01*
X128900Y76026D01*
Y78200D01*
X129400D01*
Y78700D01*
X131574D01*
X131265Y79446D01*
X130989Y79723D01*
X131196Y80223D01*
X276103D01*
X288674Y67651D01*
Y58786D01*
X288456Y58727D01*
X287544Y58201D01*
X286799Y57456D01*
X286273Y56544D01*
X286000Y55527D01*
Y54473D01*
X286273Y53456D01*
X286799Y52544D01*
X287544Y51799D01*
X288456Y51273D01*
X289473Y51000D01*
X290527D01*
X291544Y51273D01*
X292456Y51799D01*
X293201Y52544D01*
X293727Y53456D01*
X294000Y54473D01*
Y55527D01*
X293727Y56544D01*
X293201Y57456D01*
X292456Y58201D01*
X291544Y58727D01*
X291325Y58786D01*
Y68200D01*
X291325Y68200D01*
X291225Y68707D01*
X290937Y69137D01*
X277589Y82485D01*
X277159Y82773D01*
X276652Y82873D01*
X83373D01*
Y83926D01*
X78027D01*
X77626Y84166D01*
Y84273D01*
D02*
G37*
G36*
X280527Y59000D02*
X279473D01*
X278456Y58727D01*
X277544Y58201D01*
X276799Y57456D01*
X276273Y56544D01*
X276000Y55527D01*
Y54473D01*
X276273Y53456D01*
X276799Y52544D01*
X277544Y51799D01*
X278456Y51273D01*
X279473Y51000D01*
X280527D01*
X281544Y51273D01*
X282456Y51799D01*
X283201Y52544D01*
X283727Y53456D01*
X284000Y54473D01*
Y55527D01*
X283727Y56544D01*
X283201Y57456D01*
X282456Y58201D01*
X281544Y58727D01*
X280527Y59000D01*
D02*
G37*
G36*
X270527D02*
X269473D01*
X268456Y58727D01*
X267544Y58201D01*
X266799Y57456D01*
X266273Y56544D01*
X266000Y55527D01*
Y54473D01*
X266273Y53456D01*
X266799Y52544D01*
X267544Y51799D01*
X268456Y51273D01*
X269473Y51000D01*
X270527D01*
X271544Y51273D01*
X272456Y51799D01*
X273201Y52544D01*
X273727Y53456D01*
X274000Y54473D01*
Y55527D01*
X273727Y56544D01*
X273201Y57456D01*
X272456Y58201D01*
X271544Y58727D01*
X270527Y59000D01*
D02*
G37*
G36*
X260527D02*
X259473D01*
X258456Y58727D01*
X257544Y58201D01*
X256799Y57456D01*
X256273Y56544D01*
X256000Y55527D01*
Y54473D01*
X256273Y53456D01*
X256799Y52544D01*
X257544Y51799D01*
X258456Y51273D01*
X259473Y51000D01*
X260527D01*
X261544Y51273D01*
X262456Y51799D01*
X263201Y52544D01*
X263727Y53456D01*
X264000Y54473D01*
Y55527D01*
X263727Y56544D01*
X263201Y57456D01*
X262456Y58201D01*
X261544Y58727D01*
X260527Y59000D01*
D02*
G37*
G36*
X250527D02*
X249473D01*
X248456Y58727D01*
X247544Y58201D01*
X246799Y57456D01*
X246273Y56544D01*
X246000Y55527D01*
Y54473D01*
X246273Y53456D01*
X246799Y52544D01*
X247544Y51799D01*
X248456Y51273D01*
X249473Y51000D01*
X250527D01*
X251544Y51273D01*
X252456Y51799D01*
X253201Y52544D01*
X253727Y53456D01*
X254000Y54473D01*
Y55527D01*
X253727Y56544D01*
X253201Y57456D01*
X252456Y58201D01*
X251544Y58727D01*
X250527Y59000D01*
D02*
G37*
G36*
X240527D02*
X239473D01*
X238456Y58727D01*
X237544Y58201D01*
X236799Y57456D01*
X236273Y56544D01*
X236000Y55527D01*
Y54473D01*
X236273Y53456D01*
X236799Y52544D01*
X237544Y51799D01*
X238456Y51273D01*
X239473Y51000D01*
X240527D01*
X241544Y51273D01*
X242456Y51799D01*
X243201Y52544D01*
X243727Y53456D01*
X244000Y54473D01*
Y55527D01*
X243727Y56544D01*
X243201Y57456D01*
X242456Y58201D01*
X241544Y58727D01*
X240527Y59000D01*
D02*
G37*
G36*
X230527D02*
X229473D01*
X228456Y58727D01*
X227544Y58201D01*
X226799Y57456D01*
X226273Y56544D01*
X226000Y55527D01*
Y54473D01*
X226273Y53456D01*
X226799Y52544D01*
X227544Y51799D01*
X228456Y51273D01*
X229473Y51000D01*
X230527D01*
X231544Y51273D01*
X232456Y51799D01*
X233201Y52544D01*
X233727Y53456D01*
X234000Y54473D01*
Y55527D01*
X233727Y56544D01*
X233201Y57456D01*
X232456Y58201D01*
X231544Y58727D01*
X230527Y59000D01*
D02*
G37*
G36*
X220527D02*
X219473D01*
X218456Y58727D01*
X217544Y58201D01*
X216799Y57456D01*
X216273Y56544D01*
X216000Y55527D01*
Y54473D01*
X216273Y53456D01*
X216799Y52544D01*
X217544Y51799D01*
X218456Y51273D01*
X219473Y51000D01*
X220527D01*
X221544Y51273D01*
X222456Y51799D01*
X223201Y52544D01*
X223727Y53456D01*
X224000Y54473D01*
Y55527D01*
X223727Y56544D01*
X223201Y57456D01*
X222456Y58201D01*
X221544Y58727D01*
X220527Y59000D01*
D02*
G37*
G36*
X210527D02*
X209473D01*
X208456Y58727D01*
X207544Y58201D01*
X206799Y57456D01*
X206273Y56544D01*
X206000Y55527D01*
Y54473D01*
X206273Y53456D01*
X206799Y52544D01*
X207544Y51799D01*
X208456Y51273D01*
X209473Y51000D01*
X210527D01*
X211544Y51273D01*
X212456Y51799D01*
X213201Y52544D01*
X213727Y53456D01*
X214000Y54473D01*
Y55527D01*
X213727Y56544D01*
X213201Y57456D01*
X212456Y58201D01*
X211544Y58727D01*
X210527Y59000D01*
D02*
G37*
G36*
X200527D02*
X199473D01*
X198456Y58727D01*
X197544Y58201D01*
X196799Y57456D01*
X196273Y56544D01*
X196000Y55527D01*
Y54473D01*
X196273Y53456D01*
X196799Y52544D01*
X197544Y51799D01*
X198456Y51273D01*
X199473Y51000D01*
X200527D01*
X201544Y51273D01*
X202456Y51799D01*
X203201Y52544D01*
X203727Y53456D01*
X204000Y54473D01*
Y55527D01*
X203727Y56544D01*
X203201Y57456D01*
X202456Y58201D01*
X201544Y58727D01*
X200527Y59000D01*
D02*
G37*
G36*
X190527D02*
X189473D01*
X188456Y58727D01*
X187544Y58201D01*
X186799Y57456D01*
X186273Y56544D01*
X186000Y55527D01*
Y54473D01*
X186273Y53456D01*
X186799Y52544D01*
X187544Y51799D01*
X188456Y51273D01*
X189473Y51000D01*
X190527D01*
X191544Y51273D01*
X192456Y51799D01*
X193201Y52544D01*
X193727Y53456D01*
X194000Y54473D01*
Y55527D01*
X193727Y56544D01*
X193201Y57456D01*
X192456Y58201D01*
X191544Y58727D01*
X190527Y59000D01*
D02*
G37*
G36*
X180527D02*
X179473D01*
X178456Y58727D01*
X177544Y58201D01*
X176799Y57456D01*
X176273Y56544D01*
X176000Y55527D01*
Y54473D01*
X176273Y53456D01*
X176799Y52544D01*
X177544Y51799D01*
X178456Y51273D01*
X179473Y51000D01*
X180527D01*
X181544Y51273D01*
X182456Y51799D01*
X183201Y52544D01*
X183727Y53456D01*
X184000Y54473D01*
Y55527D01*
X183727Y56544D01*
X183201Y57456D01*
X182456Y58201D01*
X181544Y58727D01*
X180527Y59000D01*
D02*
G37*
G36*
X170527D02*
X169473D01*
X168456Y58727D01*
X167544Y58201D01*
X166799Y57456D01*
X166273Y56544D01*
X166000Y55527D01*
Y54473D01*
X166273Y53456D01*
X166799Y52544D01*
X167544Y51799D01*
X168456Y51273D01*
X169473Y51000D01*
X170527D01*
X171544Y51273D01*
X172456Y51799D01*
X173201Y52544D01*
X173727Y53456D01*
X174000Y54473D01*
Y55527D01*
X173727Y56544D01*
X173201Y57456D01*
X172456Y58201D01*
X171544Y58727D01*
X170527Y59000D01*
D02*
G37*
G36*
X160527D02*
X159473D01*
X158456Y58727D01*
X157544Y58201D01*
X156799Y57456D01*
X156273Y56544D01*
X156000Y55527D01*
Y54473D01*
X156273Y53456D01*
X156799Y52544D01*
X157544Y51799D01*
X158456Y51273D01*
X159473Y51000D01*
X160527D01*
X161544Y51273D01*
X162456Y51799D01*
X163201Y52544D01*
X163727Y53456D01*
X164000Y54473D01*
Y55527D01*
X163727Y56544D01*
X163201Y57456D01*
X162456Y58201D01*
X161544Y58727D01*
X160527Y59000D01*
D02*
G37*
G36*
X150527D02*
X149473D01*
X148456Y58727D01*
X147544Y58201D01*
X146799Y57456D01*
X146273Y56544D01*
X146000Y55527D01*
Y54473D01*
X146273Y53456D01*
X146799Y52544D01*
X147544Y51799D01*
X148456Y51273D01*
X149473Y51000D01*
X150527D01*
X151544Y51273D01*
X152456Y51799D01*
X153201Y52544D01*
X153727Y53456D01*
X154000Y54473D01*
Y55527D01*
X153727Y56544D01*
X153201Y57456D01*
X152456Y58201D01*
X151544Y58727D01*
X150527Y59000D01*
D02*
G37*
G36*
X140527D02*
X139473D01*
X138456Y58727D01*
X137544Y58201D01*
X136799Y57456D01*
X136273Y56544D01*
X136000Y55527D01*
Y54473D01*
X136273Y53456D01*
X136799Y52544D01*
X137544Y51799D01*
X138456Y51273D01*
X139473Y51000D01*
X140527D01*
X141544Y51273D01*
X142456Y51799D01*
X143201Y52544D01*
X143727Y53456D01*
X144000Y54473D01*
Y55527D01*
X143727Y56544D01*
X143201Y57456D01*
X142456Y58201D01*
X141544Y58727D01*
X140527Y59000D01*
D02*
G37*
G36*
X130527D02*
X129473D01*
X128456Y58727D01*
X127544Y58201D01*
X126799Y57456D01*
X126273Y56544D01*
X126000Y55527D01*
Y54473D01*
X126273Y53456D01*
X126799Y52544D01*
X127544Y51799D01*
X128456Y51273D01*
X129473Y51000D01*
X130527D01*
X131544Y51273D01*
X132456Y51799D01*
X133201Y52544D01*
X133727Y53456D01*
X134000Y54473D01*
Y55527D01*
X133727Y56544D01*
X133201Y57456D01*
X132456Y58201D01*
X131544Y58727D01*
X130527Y59000D01*
D02*
G37*
G36*
X120527D02*
X119473D01*
X118456Y58727D01*
X117544Y58201D01*
X116799Y57456D01*
X116273Y56544D01*
X116000Y55527D01*
Y54473D01*
X116273Y53456D01*
X116799Y52544D01*
X117544Y51799D01*
X118456Y51273D01*
X119473Y51000D01*
X120527D01*
X121544Y51273D01*
X122456Y51799D01*
X123201Y52544D01*
X123727Y53456D01*
X124000Y54473D01*
Y55527D01*
X123727Y56544D01*
X123201Y57456D01*
X122456Y58201D01*
X121544Y58727D01*
X120527Y59000D01*
D02*
G37*
G36*
X110527D02*
X109473D01*
X108456Y58727D01*
X107544Y58201D01*
X106799Y57456D01*
X106273Y56544D01*
X106000Y55527D01*
Y54473D01*
X106273Y53456D01*
X106799Y52544D01*
X107544Y51799D01*
X108456Y51273D01*
X109473Y51000D01*
X110527D01*
X111544Y51273D01*
X112456Y51799D01*
X113201Y52544D01*
X113727Y53456D01*
X114000Y54473D01*
Y55527D01*
X113727Y56544D01*
X113201Y57456D01*
X112456Y58201D01*
X111544Y58727D01*
X110527Y59000D01*
D02*
G37*
G36*
X80527D02*
X79473D01*
X78456Y58727D01*
X77544Y58201D01*
X76799Y57456D01*
X76273Y56544D01*
X76000Y55527D01*
Y54473D01*
X76273Y53456D01*
X76799Y52544D01*
X77544Y51799D01*
X78456Y51273D01*
X79473Y51000D01*
X80527D01*
X81544Y51273D01*
X82456Y51799D01*
X83201Y52544D01*
X83727Y53456D01*
X84000Y54473D01*
Y55527D01*
X83727Y56544D01*
X83201Y57456D01*
X82456Y58201D01*
X81544Y58727D01*
X80527Y59000D01*
D02*
G37*
G36*
X70527D02*
X69473D01*
X68456Y58727D01*
X67544Y58201D01*
X66799Y57456D01*
X66273Y56544D01*
X66000Y55527D01*
Y54473D01*
X66273Y53456D01*
X66799Y52544D01*
X67544Y51799D01*
X68456Y51273D01*
X69473Y51000D01*
X70527D01*
X71544Y51273D01*
X72456Y51799D01*
X73201Y52544D01*
X73727Y53456D01*
X74000Y54473D01*
Y55527D01*
X73727Y56544D01*
X73201Y57456D01*
X72456Y58201D01*
X71544Y58727D01*
X70527Y59000D01*
D02*
G37*
G36*
X40527D02*
X39473D01*
X38456Y58727D01*
X37544Y58201D01*
X36799Y57456D01*
X36273Y56544D01*
X36000Y55527D01*
Y54473D01*
X36273Y53456D01*
X36799Y52544D01*
X37544Y51799D01*
X38456Y51273D01*
X39473Y51000D01*
X40527D01*
X41544Y51273D01*
X42456Y51799D01*
X43201Y52544D01*
X43727Y53456D01*
X44000Y54473D01*
Y55527D01*
X43727Y56544D01*
X43201Y57456D01*
X42456Y58201D01*
X41544Y58727D01*
X40527Y59000D01*
D02*
G37*
G36*
X30527D02*
X29473D01*
X28456Y58727D01*
X27544Y58201D01*
X26799Y57456D01*
X26273Y56544D01*
X26000Y55527D01*
Y54473D01*
X26273Y53456D01*
X26799Y52544D01*
X27544Y51799D01*
X28456Y51273D01*
X29473Y51000D01*
X30527D01*
X31544Y51273D01*
X32456Y51799D01*
X33201Y52544D01*
X33727Y53456D01*
X34000Y54473D01*
Y55527D01*
X33727Y56544D01*
X33201Y57456D01*
X32456Y58201D01*
X31544Y58727D01*
X30527Y59000D01*
D02*
G37*
G36*
X20527D02*
X19473D01*
X18456Y58727D01*
X17544Y58201D01*
X16799Y57456D01*
X16273Y56544D01*
X16000Y55527D01*
Y54473D01*
X16273Y53456D01*
X16799Y52544D01*
X17544Y51799D01*
X18456Y51273D01*
X19473Y51000D01*
X20527D01*
X21544Y51273D01*
X22456Y51799D01*
X23201Y52544D01*
X23727Y53456D01*
X24000Y54473D01*
Y55527D01*
X23727Y56544D01*
X23201Y57456D01*
X22456Y58201D01*
X21544Y58727D01*
X20527Y59000D01*
D02*
G37*
G36*
X10527D02*
X9473D01*
X8456Y58727D01*
X7544Y58201D01*
X6799Y57456D01*
X6273Y56544D01*
X6000Y55527D01*
Y54473D01*
X6273Y53456D01*
X6799Y52544D01*
X7544Y51799D01*
X8456Y51273D01*
X9473Y51000D01*
X10527D01*
X11544Y51273D01*
X12456Y51799D01*
X13201Y52544D01*
X13727Y53456D01*
X14000Y54473D01*
Y55527D01*
X13727Y56544D01*
X13201Y57456D01*
X12456Y58201D01*
X11544Y58727D01*
X10527Y59000D01*
D02*
G37*
G36*
X4100Y59100D02*
X-4100D01*
Y50900D01*
X4100D01*
Y59100D01*
D02*
G37*
G36*
X-27750Y44850D02*
X-32500D01*
Y41600D01*
X-27750D01*
Y44850D01*
D02*
G37*
G36*
X-61750D02*
X-66500D01*
Y41600D01*
X-61750D01*
Y44850D01*
D02*
G37*
G36*
X-33500D02*
X-38250D01*
Y41600D01*
X-33500D01*
Y44850D01*
D02*
G37*
G36*
X-67500D02*
X-72250D01*
Y41600D01*
X-67500D01*
Y44850D01*
D02*
G37*
G36*
X-50300Y43174D02*
Y41500D01*
X-48626D01*
X-48935Y42246D01*
X-49554Y42865D01*
X-50300Y43174D01*
D02*
G37*
G36*
X-51300D02*
X-52046Y42865D01*
X-52665Y42246D01*
X-52974Y41500D01*
X-51300D01*
Y43174D01*
D02*
G37*
G36*
X340527Y49000D02*
X339473D01*
X338456Y48727D01*
X337544Y48201D01*
X336799Y47456D01*
X336273Y46544D01*
X336000Y45527D01*
Y44473D01*
X336273Y43456D01*
X336799Y42544D01*
X337544Y41799D01*
X338456Y41273D01*
X339473Y41000D01*
X340527D01*
X341544Y41273D01*
X342456Y41799D01*
X343201Y42544D01*
X343727Y43456D01*
X344000Y44473D01*
Y45527D01*
X343727Y46544D01*
X343201Y47456D01*
X342456Y48201D01*
X341544Y48727D01*
X340527Y49000D01*
D02*
G37*
G36*
X330527D02*
X329473D01*
X328456Y48727D01*
X327544Y48201D01*
X326799Y47456D01*
X326273Y46544D01*
X326000Y45527D01*
Y44473D01*
X326273Y43456D01*
X326799Y42544D01*
X327544Y41799D01*
X328456Y41273D01*
X329473Y41000D01*
X330527D01*
X331544Y41273D01*
X332456Y41799D01*
X333201Y42544D01*
X333727Y43456D01*
X334000Y44473D01*
Y45527D01*
X333727Y46544D01*
X333201Y47456D01*
X332456Y48201D01*
X331544Y48727D01*
X330527Y49000D01*
D02*
G37*
G36*
X320527D02*
X319473D01*
X318456Y48727D01*
X317544Y48201D01*
X316799Y47456D01*
X316273Y46544D01*
X316000Y45527D01*
Y44473D01*
X316273Y43456D01*
X316799Y42544D01*
X317544Y41799D01*
X318456Y41273D01*
X319473Y41000D01*
X320527D01*
X321544Y41273D01*
X322456Y41799D01*
X323201Y42544D01*
X323727Y43456D01*
X324000Y44473D01*
Y45527D01*
X323727Y46544D01*
X323201Y47456D01*
X322456Y48201D01*
X321544Y48727D01*
X320527Y49000D01*
D02*
G37*
G36*
X310527D02*
X309473D01*
X308456Y48727D01*
X307544Y48201D01*
X306799Y47456D01*
X306273Y46544D01*
X306000Y45527D01*
Y44473D01*
X306273Y43456D01*
X306799Y42544D01*
X307544Y41799D01*
X308456Y41273D01*
X309473Y41000D01*
X310527D01*
X311544Y41273D01*
X312456Y41799D01*
X313201Y42544D01*
X313727Y43456D01*
X314000Y44473D01*
Y45527D01*
X313727Y46544D01*
X313201Y47456D01*
X312456Y48201D01*
X311544Y48727D01*
X310527Y49000D01*
D02*
G37*
G36*
X300527D02*
X299473D01*
X298456Y48727D01*
X297544Y48201D01*
X296799Y47456D01*
X296273Y46544D01*
X296000Y45527D01*
Y44473D01*
X296273Y43456D01*
X296799Y42544D01*
X297544Y41799D01*
X298456Y41273D01*
X299473Y41000D01*
X300527D01*
X301544Y41273D01*
X302456Y41799D01*
X303201Y42544D01*
X303727Y43456D01*
X304000Y44473D01*
Y45527D01*
X303727Y46544D01*
X303201Y47456D01*
X302456Y48201D01*
X301544Y48727D01*
X300527Y49000D01*
D02*
G37*
G36*
X290527D02*
X289473D01*
X288456Y48727D01*
X287544Y48201D01*
X286799Y47456D01*
X286273Y46544D01*
X286000Y45527D01*
Y44473D01*
X286273Y43456D01*
X286799Y42544D01*
X287544Y41799D01*
X288456Y41273D01*
X289473Y41000D01*
X290527D01*
X291544Y41273D01*
X292456Y41799D01*
X293201Y42544D01*
X293727Y43456D01*
X294000Y44473D01*
Y45527D01*
X293727Y46544D01*
X293201Y47456D01*
X292456Y48201D01*
X291544Y48727D01*
X290527Y49000D01*
D02*
G37*
G36*
X280527D02*
X279473D01*
X278456Y48727D01*
X277544Y48201D01*
X276799Y47456D01*
X276273Y46544D01*
X276000Y45527D01*
Y44473D01*
X276273Y43456D01*
X276799Y42544D01*
X277544Y41799D01*
X278456Y41273D01*
X279473Y41000D01*
X280527D01*
X281544Y41273D01*
X282456Y41799D01*
X283201Y42544D01*
X283727Y43456D01*
X284000Y44473D01*
Y45527D01*
X283727Y46544D01*
X283201Y47456D01*
X282456Y48201D01*
X281544Y48727D01*
X280527Y49000D01*
D02*
G37*
G36*
X270527D02*
X269473D01*
X268456Y48727D01*
X267544Y48201D01*
X266799Y47456D01*
X266273Y46544D01*
X266000Y45527D01*
Y44473D01*
X266273Y43456D01*
X266799Y42544D01*
X267544Y41799D01*
X268456Y41273D01*
X269473Y41000D01*
X270527D01*
X271544Y41273D01*
X272456Y41799D01*
X273201Y42544D01*
X273727Y43456D01*
X274000Y44473D01*
Y45527D01*
X273727Y46544D01*
X273201Y47456D01*
X272456Y48201D01*
X271544Y48727D01*
X270527Y49000D01*
D02*
G37*
G36*
X260527D02*
X259473D01*
X258456Y48727D01*
X257544Y48201D01*
X256799Y47456D01*
X256273Y46544D01*
X256000Y45527D01*
Y44473D01*
X256273Y43456D01*
X256799Y42544D01*
X257544Y41799D01*
X258456Y41273D01*
X259473Y41000D01*
X260527D01*
X261544Y41273D01*
X262456Y41799D01*
X263201Y42544D01*
X263727Y43456D01*
X264000Y44473D01*
Y45527D01*
X263727Y46544D01*
X263201Y47456D01*
X262456Y48201D01*
X261544Y48727D01*
X260527Y49000D01*
D02*
G37*
G36*
X250527D02*
X249473D01*
X248456Y48727D01*
X247544Y48201D01*
X246799Y47456D01*
X246273Y46544D01*
X246000Y45527D01*
Y44473D01*
X246273Y43456D01*
X246799Y42544D01*
X247544Y41799D01*
X248456Y41273D01*
X249473Y41000D01*
X250527D01*
X251544Y41273D01*
X252456Y41799D01*
X253201Y42544D01*
X253727Y43456D01*
X254000Y44473D01*
Y45527D01*
X253727Y46544D01*
X253201Y47456D01*
X252456Y48201D01*
X251544Y48727D01*
X250527Y49000D01*
D02*
G37*
G36*
X240527D02*
X239473D01*
X238456Y48727D01*
X237544Y48201D01*
X236799Y47456D01*
X236273Y46544D01*
X236000Y45527D01*
Y44473D01*
X236273Y43456D01*
X236799Y42544D01*
X237544Y41799D01*
X238456Y41273D01*
X239473Y41000D01*
X240527D01*
X241544Y41273D01*
X242456Y41799D01*
X243201Y42544D01*
X243727Y43456D01*
X244000Y44473D01*
Y45527D01*
X243727Y46544D01*
X243201Y47456D01*
X242456Y48201D01*
X241544Y48727D01*
X240527Y49000D01*
D02*
G37*
G36*
X230527D02*
X229473D01*
X228456Y48727D01*
X227544Y48201D01*
X226799Y47456D01*
X226273Y46544D01*
X226000Y45527D01*
Y44473D01*
X226273Y43456D01*
X226799Y42544D01*
X227544Y41799D01*
X228456Y41273D01*
X229473Y41000D01*
X230527D01*
X231544Y41273D01*
X232456Y41799D01*
X233201Y42544D01*
X233727Y43456D01*
X234000Y44473D01*
Y45527D01*
X233727Y46544D01*
X233201Y47456D01*
X232456Y48201D01*
X231544Y48727D01*
X230527Y49000D01*
D02*
G37*
G36*
X220527D02*
X219473D01*
X218456Y48727D01*
X217544Y48201D01*
X216799Y47456D01*
X216273Y46544D01*
X216000Y45527D01*
Y44473D01*
X216273Y43456D01*
X216799Y42544D01*
X217544Y41799D01*
X218456Y41273D01*
X219473Y41000D01*
X220527D01*
X221544Y41273D01*
X222456Y41799D01*
X223201Y42544D01*
X223727Y43456D01*
X224000Y44473D01*
Y45527D01*
X223727Y46544D01*
X223201Y47456D01*
X222456Y48201D01*
X221544Y48727D01*
X220527Y49000D01*
D02*
G37*
G36*
X210527D02*
X209473D01*
X208456Y48727D01*
X207544Y48201D01*
X206799Y47456D01*
X206273Y46544D01*
X206000Y45527D01*
Y44473D01*
X206273Y43456D01*
X206799Y42544D01*
X207544Y41799D01*
X208456Y41273D01*
X209473Y41000D01*
X210527D01*
X211544Y41273D01*
X212456Y41799D01*
X213201Y42544D01*
X213727Y43456D01*
X214000Y44473D01*
Y45527D01*
X213727Y46544D01*
X213201Y47456D01*
X212456Y48201D01*
X211544Y48727D01*
X210527Y49000D01*
D02*
G37*
G36*
X200527D02*
X199473D01*
X198456Y48727D01*
X197544Y48201D01*
X196799Y47456D01*
X196273Y46544D01*
X196000Y45527D01*
Y44473D01*
X196273Y43456D01*
X196799Y42544D01*
X197544Y41799D01*
X198456Y41273D01*
X199473Y41000D01*
X200527D01*
X201544Y41273D01*
X202456Y41799D01*
X203201Y42544D01*
X203727Y43456D01*
X204000Y44473D01*
Y45527D01*
X203727Y46544D01*
X203201Y47456D01*
X202456Y48201D01*
X201544Y48727D01*
X200527Y49000D01*
D02*
G37*
G36*
X180527D02*
X179473D01*
X178456Y48727D01*
X177544Y48201D01*
X176799Y47456D01*
X176273Y46544D01*
X176000Y45527D01*
Y44473D01*
X176273Y43456D01*
X176799Y42544D01*
X177544Y41799D01*
X178456Y41273D01*
X179473Y41000D01*
X180527D01*
X181544Y41273D01*
X182456Y41799D01*
X183201Y42544D01*
X183727Y43456D01*
X184000Y44473D01*
Y45527D01*
X183727Y46544D01*
X183201Y47456D01*
X182456Y48201D01*
X181544Y48727D01*
X180527Y49000D01*
D02*
G37*
G36*
X170527D02*
X169473D01*
X168456Y48727D01*
X167544Y48201D01*
X166799Y47456D01*
X166273Y46544D01*
X166000Y45527D01*
Y44473D01*
X166273Y43456D01*
X166799Y42544D01*
X167544Y41799D01*
X168456Y41273D01*
X169473Y41000D01*
X170527D01*
X171544Y41273D01*
X172456Y41799D01*
X173201Y42544D01*
X173727Y43456D01*
X174000Y44473D01*
Y45527D01*
X173727Y46544D01*
X173201Y47456D01*
X172456Y48201D01*
X171544Y48727D01*
X170527Y49000D01*
D02*
G37*
G36*
X160527D02*
X159473D01*
X158456Y48727D01*
X157544Y48201D01*
X156799Y47456D01*
X156273Y46544D01*
X156000Y45527D01*
Y44473D01*
X156273Y43456D01*
X156799Y42544D01*
X157544Y41799D01*
X158456Y41273D01*
X159473Y41000D01*
X160527D01*
X161544Y41273D01*
X162456Y41799D01*
X163201Y42544D01*
X163727Y43456D01*
X164000Y44473D01*
Y45527D01*
X163727Y46544D01*
X163201Y47456D01*
X162456Y48201D01*
X161544Y48727D01*
X160527Y49000D01*
D02*
G37*
G36*
X150527D02*
X149473D01*
X148456Y48727D01*
X147544Y48201D01*
X146799Y47456D01*
X146273Y46544D01*
X146000Y45527D01*
Y44473D01*
X146273Y43456D01*
X146799Y42544D01*
X147544Y41799D01*
X148456Y41273D01*
X149473Y41000D01*
X150527D01*
X151544Y41273D01*
X152456Y41799D01*
X153201Y42544D01*
X153727Y43456D01*
X154000Y44473D01*
Y45527D01*
X153727Y46544D01*
X153201Y47456D01*
X152456Y48201D01*
X151544Y48727D01*
X150527Y49000D01*
D02*
G37*
G36*
X140527D02*
X139473D01*
X138456Y48727D01*
X137544Y48201D01*
X136799Y47456D01*
X136273Y46544D01*
X136000Y45527D01*
Y44473D01*
X136273Y43456D01*
X136799Y42544D01*
X137544Y41799D01*
X138456Y41273D01*
X139473Y41000D01*
X140527D01*
X141544Y41273D01*
X142456Y41799D01*
X143201Y42544D01*
X143727Y43456D01*
X144000Y44473D01*
Y45527D01*
X143727Y46544D01*
X143201Y47456D01*
X142456Y48201D01*
X141544Y48727D01*
X140527Y49000D01*
D02*
G37*
G36*
X120527D02*
X119473D01*
X118456Y48727D01*
X117544Y48201D01*
X116799Y47456D01*
X116273Y46544D01*
X116000Y45527D01*
Y44473D01*
X116273Y43456D01*
X116799Y42544D01*
X117544Y41799D01*
X118456Y41273D01*
X119473Y41000D01*
X120527D01*
X121544Y41273D01*
X122456Y41799D01*
X123201Y42544D01*
X123727Y43456D01*
X124000Y44473D01*
Y45527D01*
X123727Y46544D01*
X123201Y47456D01*
X122456Y48201D01*
X121544Y48727D01*
X120527Y49000D01*
D02*
G37*
G36*
X110527D02*
X109473D01*
X108456Y48727D01*
X107544Y48201D01*
X106799Y47456D01*
X106273Y46544D01*
X106000Y45527D01*
Y44473D01*
X106273Y43456D01*
X106799Y42544D01*
X107544Y41799D01*
X108456Y41273D01*
X109473Y41000D01*
X110527D01*
X111544Y41273D01*
X112456Y41799D01*
X113201Y42544D01*
X113727Y43456D01*
X114000Y44473D01*
Y45527D01*
X113727Y46544D01*
X113201Y47456D01*
X112456Y48201D01*
X111544Y48727D01*
X110527Y49000D01*
D02*
G37*
G36*
X80527D02*
X79473D01*
X78456Y48727D01*
X77544Y48201D01*
X76799Y47456D01*
X76273Y46544D01*
X76000Y45527D01*
Y44473D01*
X76273Y43456D01*
X76799Y42544D01*
X77544Y41799D01*
X78456Y41273D01*
X79473Y41000D01*
X80527D01*
X81544Y41273D01*
X82456Y41799D01*
X83201Y42544D01*
X83727Y43456D01*
X84000Y44473D01*
Y45527D01*
X83727Y46544D01*
X83201Y47456D01*
X82456Y48201D01*
X81544Y48727D01*
X80527Y49000D01*
D02*
G37*
G36*
X70527D02*
X69473D01*
X68456Y48727D01*
X67544Y48201D01*
X66799Y47456D01*
X66273Y46544D01*
X66000Y45527D01*
Y44473D01*
X66273Y43456D01*
X66799Y42544D01*
X67544Y41799D01*
X68456Y41273D01*
X69473Y41000D01*
X70527D01*
X71544Y41273D01*
X72456Y41799D01*
X73201Y42544D01*
X73727Y43456D01*
X74000Y44473D01*
Y45527D01*
X73727Y46544D01*
X73201Y47456D01*
X72456Y48201D01*
X71544Y48727D01*
X70527Y49000D01*
D02*
G37*
G36*
X50527D02*
X49473D01*
X48456Y48727D01*
X47544Y48201D01*
X46799Y47456D01*
X46273Y46544D01*
X46000Y45527D01*
Y44473D01*
X46273Y43456D01*
X46799Y42544D01*
X47544Y41799D01*
X48456Y41273D01*
X49473Y41000D01*
X50527D01*
X51544Y41273D01*
X52456Y41799D01*
X53201Y42544D01*
X53727Y43456D01*
X54000Y44473D01*
Y45527D01*
X53727Y46544D01*
X53201Y47456D01*
X52456Y48201D01*
X51544Y48727D01*
X50527Y49000D01*
D02*
G37*
G36*
X40527D02*
X39473D01*
X38456Y48727D01*
X37544Y48201D01*
X36799Y47456D01*
X36273Y46544D01*
X36000Y45527D01*
Y44473D01*
X36273Y43456D01*
X36799Y42544D01*
X37544Y41799D01*
X38456Y41273D01*
X39473Y41000D01*
X40527D01*
X41544Y41273D01*
X42456Y41799D01*
X43201Y42544D01*
X43727Y43456D01*
X44000Y44473D01*
Y45527D01*
X43727Y46544D01*
X43201Y47456D01*
X42456Y48201D01*
X41544Y48727D01*
X40527Y49000D01*
D02*
G37*
G36*
X30527D02*
X29473D01*
X28456Y48727D01*
X27544Y48201D01*
X26799Y47456D01*
X26273Y46544D01*
X26000Y45527D01*
Y44473D01*
X26273Y43456D01*
X26799Y42544D01*
X27544Y41799D01*
X28456Y41273D01*
X29473Y41000D01*
X30527D01*
X31544Y41273D01*
X32456Y41799D01*
X33201Y42544D01*
X33727Y43456D01*
X34000Y44473D01*
Y45527D01*
X33727Y46544D01*
X33201Y47456D01*
X32456Y48201D01*
X31544Y48727D01*
X30527Y49000D01*
D02*
G37*
G36*
X20527D02*
X19473D01*
X18456Y48727D01*
X17544Y48201D01*
X16799Y47456D01*
X16273Y46544D01*
X16000Y45527D01*
Y44473D01*
X16273Y43456D01*
X16799Y42544D01*
X17544Y41799D01*
X18456Y41273D01*
X19473Y41000D01*
X20527D01*
X21544Y41273D01*
X22456Y41799D01*
X23201Y42544D01*
X23727Y43456D01*
X24000Y44473D01*
Y45527D01*
X23727Y46544D01*
X23201Y47456D01*
X22456Y48201D01*
X21544Y48727D01*
X20527Y49000D01*
D02*
G37*
G36*
X10527D02*
X9473D01*
X8456Y48727D01*
X7544Y48201D01*
X6799Y47456D01*
X6273Y46544D01*
X6000Y45527D01*
Y44473D01*
X6273Y43456D01*
X6799Y42544D01*
X7544Y41799D01*
X8456Y41273D01*
X9473Y41000D01*
X10527D01*
X11544Y41273D01*
X12456Y41799D01*
X13201Y42544D01*
X13727Y43456D01*
X14000Y44473D01*
Y45527D01*
X13727Y46544D01*
X13201Y47456D01*
X12456Y48201D01*
X11544Y48727D01*
X10527Y49000D01*
D02*
G37*
G36*
X527D02*
X-527D01*
X-1544Y48727D01*
X-2456Y48201D01*
X-3201Y47456D01*
X-3727Y46544D01*
X-4000Y45527D01*
Y44473D01*
X-3727Y43456D01*
X-3201Y42544D01*
X-2456Y41799D01*
X-1544Y41273D01*
X-527Y41000D01*
X527D01*
X1544Y41273D01*
X2456Y41799D01*
X3201Y42544D01*
X3727Y43456D01*
X4000Y44473D01*
Y45527D01*
X3727Y46544D01*
X3201Y47456D01*
X2456Y48201D01*
X1544Y48727D01*
X527Y49000D01*
D02*
G37*
G36*
X-48626Y40500D02*
X-50300D01*
Y38826D01*
X-49554Y39135D01*
X-48935Y39754D01*
X-48626Y40500D01*
D02*
G37*
G36*
X-51300D02*
X-52974D01*
X-52665Y39754D01*
X-52046Y39135D01*
X-51300Y38826D01*
Y40500D01*
D02*
G37*
G36*
X-27750Y40600D02*
X-32500D01*
Y37350D01*
X-27750D01*
Y40600D01*
D02*
G37*
G36*
X-33500D02*
X-38250D01*
Y37350D01*
X-33500D01*
Y40600D01*
D02*
G37*
G36*
X-61750D02*
X-66500D01*
Y37350D01*
X-61750D01*
Y40600D01*
D02*
G37*
G36*
X-67500D02*
X-72250D01*
Y37350D01*
X-67500D01*
Y40600D01*
D02*
G37*
G36*
X39543Y32693D02*
X32425D01*
Y22819D01*
X39543D01*
Y32693D01*
D02*
G37*
G36*
X32200Y20674D02*
Y19000D01*
X33874D01*
X33565Y19746D01*
X32946Y20365D01*
X32200Y20674D01*
D02*
G37*
G36*
X31200D02*
X30454Y20365D01*
X29835Y19746D01*
X29526Y19000D01*
X31200D01*
Y20674D01*
D02*
G37*
G36*
X168600Y19074D02*
Y17400D01*
X170274D01*
X169965Y18146D01*
X169346Y18765D01*
X168600Y19074D01*
D02*
G37*
G36*
X167600D02*
X166854Y18765D01*
X166235Y18146D01*
X165926Y17400D01*
X167600D01*
Y19074D01*
D02*
G37*
G36*
X189406Y18445D02*
X183000D01*
Y17256D01*
X189406D01*
Y18445D01*
D02*
G37*
G36*
X182000D02*
X175594D01*
Y17256D01*
X182000D01*
Y18445D01*
D02*
G37*
G36*
X33874Y18000D02*
X32200D01*
Y16326D01*
X32946Y16635D01*
X33565Y17254D01*
X33874Y18000D01*
D02*
G37*
G36*
X31200D02*
X29526D01*
X29835Y17254D01*
X30454Y16635D01*
X31200Y16326D01*
Y18000D01*
D02*
G37*
G36*
X60626Y17673D02*
X55870D01*
Y12327D01*
X60626D01*
Y13675D01*
X110743D01*
X110835Y13454D01*
X111454Y12835D01*
X112262Y12500D01*
X113138D01*
X113946Y12835D01*
X114565Y13454D01*
X114900Y14262D01*
Y15138D01*
X114565Y15946D01*
X113946Y16565D01*
X113138Y16900D01*
X112262D01*
X111454Y16565D01*
X111214Y16326D01*
X60626D01*
Y17673D01*
D02*
G37*
G36*
X130527Y49000D02*
X129473D01*
X128456Y48727D01*
X127544Y48201D01*
X126799Y47456D01*
X126273Y46544D01*
X126000Y45527D01*
Y44473D01*
X126273Y43456D01*
X126799Y42544D01*
X127544Y41799D01*
X128456Y41273D01*
X128674Y41214D01*
Y17986D01*
X128335Y17646D01*
X128000Y16838D01*
Y15962D01*
X128092Y15741D01*
X127814Y15326D01*
X118200D01*
X117693Y15225D01*
X117263Y14937D01*
X112651Y10326D01*
X60626D01*
Y11673D01*
X55870D01*
Y6327D01*
X60626D01*
Y7675D01*
X113193D01*
X113208Y7659D01*
X113437Y7212D01*
X110551Y4326D01*
X60626D01*
Y5673D01*
X55870D01*
Y327D01*
X60626D01*
Y1674D01*
X110593D01*
X110800Y1175D01*
X107951Y-1674D01*
X60626D01*
Y-327D01*
X55870D01*
Y-5673D01*
X60626D01*
Y-4326D01*
X108500D01*
X108866Y-4253D01*
X109122Y-4703D01*
X105151Y-8675D01*
X60626D01*
Y-7327D01*
X55870D01*
Y-12673D01*
X60626D01*
Y-11326D01*
X105700D01*
X106207Y-11225D01*
X106637Y-10937D01*
X121649Y4075D01*
X155093D01*
X155300Y3574D01*
X153951Y2225D01*
X128386D01*
X127846Y2765D01*
X127038Y3100D01*
X126162D01*
X125354Y2765D01*
X124735Y2146D01*
X124400Y1338D01*
Y462D01*
X124735Y-346D01*
X125354Y-965D01*
X126162Y-1300D01*
X127038D01*
X127846Y-965D01*
X128386Y-426D01*
X154500D01*
X155007Y-325D01*
X155437Y-37D01*
X157125Y1651D01*
X165786D01*
X165996Y1151D01*
X165700Y438D01*
Y-300D01*
X165562D01*
X164754Y-635D01*
X164135Y-1254D01*
X163826Y-2000D01*
X166000D01*
Y-2500D01*
X166500D01*
Y-4674D01*
X167246Y-4365D01*
X167865Y-3746D01*
X168200Y-2938D01*
Y-2200D01*
X168338D01*
X169146Y-1865D01*
X169765Y-1246D01*
X170074Y-500D01*
X167900D01*
Y500D01*
X170074D01*
X169805Y1151D01*
X170014Y1651D01*
X175594D01*
Y720D01*
X182500D01*
X189406D01*
Y1287D01*
Y4043D01*
Y6799D01*
Y9555D01*
Y12311D01*
Y15067D01*
Y16256D01*
X182500D01*
X175594D01*
Y15326D01*
X170290D01*
X170036Y15825D01*
X170274Y16400D01*
X165926D01*
X166164Y15825D01*
X165910Y15326D01*
X132586D01*
X132308Y15741D01*
X132400Y15962D01*
Y16838D01*
X132065Y17646D01*
X131446Y18265D01*
X131325Y18315D01*
Y41214D01*
X131544Y41273D01*
X132456Y41799D01*
X133201Y42544D01*
X133727Y43456D01*
X134000Y44473D01*
Y45527D01*
X133727Y46544D01*
X133201Y47456D01*
X132456Y48201D01*
X131544Y48727D01*
X130527Y49000D01*
D02*
G37*
G36*
X526022Y21100D02*
X503800D01*
Y-15480D01*
X526022D01*
Y6557D01*
X526522Y6892D01*
X526985Y6700D01*
X527750D01*
Y5150D01*
X538250D01*
Y7371D01*
X561750D01*
Y5150D01*
X572250D01*
Y12650D01*
X561750D01*
Y10429D01*
X538250D01*
Y12650D01*
X527750D01*
Y11100D01*
X526985D01*
X526522Y10909D01*
X526022Y11243D01*
Y21100D01*
D02*
G37*
G36*
X189406Y-280D02*
X182500D01*
X175594D01*
Y-1469D01*
Y-2036D01*
X182500D01*
X189406D01*
Y-280D01*
D02*
G37*
G36*
X165500Y-3000D02*
X163826D01*
X164135Y-3746D01*
X164754Y-4365D01*
X165500Y-4674D01*
Y-3000D01*
D02*
G37*
G36*
X190527Y49000D02*
X189473D01*
X188456Y48727D01*
X187544Y48201D01*
X186799Y47456D01*
X186273Y46544D01*
X186000Y45527D01*
Y44473D01*
X186273Y43456D01*
X186799Y42544D01*
X187544Y41799D01*
X188165Y41441D01*
Y30100D01*
X188304Y29398D01*
X188702Y28802D01*
X197665Y19840D01*
Y-2040D01*
X193836Y-5869D01*
X193834Y-5868D01*
X193669Y-5326D01*
X195198Y-3798D01*
X195596Y-3202D01*
X195735Y-2500D01*
Y19100D01*
X195596Y19802D01*
X195198Y20398D01*
X188198Y27398D01*
X187602Y27796D01*
X186900Y27935D01*
X140000D01*
X139823Y27900D01*
X139402D01*
X138667Y27595D01*
X138104Y27033D01*
X137800Y26298D01*
Y25502D01*
X138104Y24767D01*
X138667Y24205D01*
X139402Y23900D01*
X140198D01*
X140933Y24205D01*
X140993Y24265D01*
X186140D01*
X192065Y18340D01*
Y-1740D01*
X190348Y-3456D01*
X189406D01*
Y-3036D01*
X182500D01*
X175594D01*
Y-4224D01*
Y-8968D01*
X136197D01*
X135494Y-9108D01*
X134899Y-9505D01*
X132840Y-11565D01*
X128378D01*
Y-10327D01*
X123622D01*
Y-15673D01*
X128378D01*
Y-15235D01*
X133600D01*
X134302Y-15096D01*
X134898Y-14698D01*
X136957Y-12638D01*
X166008D01*
X166286Y-13054D01*
X166226Y-13200D01*
X170574D01*
X170514Y-13054D01*
X170791Y-12638D01*
X175594D01*
Y-13059D01*
X182500D01*
X189406D01*
Y-12492D01*
Y-9883D01*
X194253D01*
X194955Y-9743D01*
X195551Y-9345D01*
X200798Y-4098D01*
X201196Y-3502D01*
X201335Y-2800D01*
Y20600D01*
X201196Y21302D01*
X200798Y21898D01*
X191835Y30860D01*
Y41441D01*
X192456Y41799D01*
X193201Y42544D01*
X193727Y43456D01*
X194000Y44473D01*
Y45527D01*
X193727Y46544D01*
X193201Y47456D01*
X192456Y48201D01*
X191544Y48727D01*
X190527Y49000D01*
D02*
G37*
G36*
X-6700Y-6626D02*
Y-8300D01*
X-5026D01*
X-5335Y-7554D01*
X-5954Y-6935D01*
X-6700Y-6626D01*
D02*
G37*
G36*
X-29900Y-6726D02*
Y-8400D01*
X-28226D01*
X-28535Y-7654D01*
X-29154Y-7035D01*
X-29900Y-6726D01*
D02*
G37*
G36*
X-30900D02*
X-31646Y-7035D01*
X-32265Y-7654D01*
X-32574Y-8400D01*
X-30900D01*
Y-6726D01*
D02*
G37*
G36*
X572250Y-5150D02*
X567500D01*
Y-8400D01*
X572250D01*
Y-5150D01*
D02*
G37*
G36*
X538250D02*
X533500D01*
Y-8400D01*
X538250D01*
Y-5150D01*
D02*
G37*
G36*
X-41750D02*
X-46500D01*
Y-8400D01*
X-41750D01*
Y-5150D01*
D02*
G37*
G36*
X566500D02*
X561750D01*
Y-8400D01*
X566500D01*
Y-5150D01*
D02*
G37*
G36*
X532500D02*
X527750D01*
Y-8400D01*
X532500D01*
Y-5150D01*
D02*
G37*
G36*
X-13500D02*
X-18250D01*
Y-8400D01*
X-13500D01*
Y-5150D01*
D02*
G37*
G36*
X-47500D02*
X-52250D01*
Y-8400D01*
X-47500D01*
Y-5150D01*
D02*
G37*
G36*
X548800Y-7026D02*
Y-8700D01*
X550474D01*
X550165Y-7954D01*
X549546Y-7335D01*
X548800Y-7026D01*
D02*
G37*
G36*
X547800D02*
X547054Y-7335D01*
X546435Y-7954D01*
X546126Y-8700D01*
X547800D01*
Y-7026D01*
D02*
G37*
G36*
X-5026Y-9300D02*
X-6700D01*
Y-10974D01*
X-5954Y-10665D01*
X-5335Y-10046D01*
X-5026Y-9300D01*
D02*
G37*
G36*
X-28226Y-9400D02*
X-29900D01*
Y-11074D01*
X-29154Y-10765D01*
X-28535Y-10146D01*
X-28226Y-9400D01*
D02*
G37*
G36*
X-30900D02*
X-32574D01*
X-32265Y-10146D01*
X-31646Y-10765D01*
X-30900Y-11074D01*
Y-9400D01*
D02*
G37*
G36*
X550474Y-9700D02*
X548800D01*
Y-11374D01*
X549546Y-11065D01*
X550165Y-10446D01*
X550474Y-9700D01*
D02*
G37*
G36*
X547800D02*
X546126D01*
X546435Y-10446D01*
X547054Y-11065D01*
X547800Y-11374D01*
Y-9700D01*
D02*
G37*
G36*
X572250Y-9400D02*
X567500D01*
Y-12650D01*
X572250D01*
Y-9400D01*
D02*
G37*
G36*
X566500D02*
X561750D01*
Y-12650D01*
X566500D01*
Y-9400D01*
D02*
G37*
G36*
X538250D02*
X533500D01*
Y-12650D01*
X538250D01*
Y-9400D01*
D02*
G37*
G36*
X532500D02*
X527750D01*
Y-12650D01*
X532500D01*
Y-9400D01*
D02*
G37*
G36*
X-7750Y-5150D02*
X-12500D01*
Y-8900D01*
Y-12650D01*
X-7750D01*
Y-11075D01*
X-7700Y-11042D01*
Y-8800D01*
Y-6558D01*
X-7750Y-6525D01*
Y-5150D01*
D02*
G37*
G36*
X-13500Y-9400D02*
X-18250D01*
Y-12650D01*
X-13500D01*
Y-9400D01*
D02*
G37*
G36*
X-41750D02*
X-46500D01*
Y-12650D01*
X-41750D01*
Y-9400D01*
D02*
G37*
G36*
X-47500D02*
X-52250D01*
Y-12650D01*
X-47500D01*
Y-9400D01*
D02*
G37*
G36*
X189406Y-14059D02*
X183000D01*
Y-15248D01*
X189406D01*
Y-14059D01*
D02*
G37*
G36*
X182000D02*
X175594D01*
Y-15248D01*
X182000D01*
Y-14059D01*
D02*
G37*
G36*
X170574Y-14200D02*
X168900D01*
Y-15874D01*
X169646Y-15565D01*
X170265Y-14946D01*
X170574Y-14200D01*
D02*
G37*
G36*
X167900D02*
X166226D01*
X166535Y-14946D01*
X167154Y-15565D01*
X167900Y-15874D01*
Y-14200D01*
D02*
G37*
G36*
X89921Y-23043D02*
X88240D01*
Y-25905D01*
X89921D01*
Y-23043D01*
D02*
G37*
G36*
X87240D02*
X85559D01*
Y-25905D01*
X87240D01*
Y-23043D01*
D02*
G37*
G36*
X93000Y-29726D02*
Y-31400D01*
X94674D01*
X94365Y-30654D01*
X93746Y-30035D01*
X93000Y-29726D01*
D02*
G37*
G36*
X87339Y-28441D02*
X85264D01*
Y-31500D01*
X87339D01*
Y-28441D01*
D02*
G37*
G36*
X-12362Y-28600D02*
X-13238D01*
X-14046Y-28935D01*
X-14586Y-29474D01*
X-21200D01*
X-21707Y-29575D01*
X-22137Y-29863D01*
X-29625Y-37350D01*
X-38250D01*
Y-39775D01*
X-61750D01*
Y-37350D01*
X-72250D01*
Y-44850D01*
X-61750D01*
Y-42426D01*
X-38250D01*
Y-44850D01*
X-27750D01*
Y-39224D01*
X-20651Y-32125D01*
X-14586D01*
X-14046Y-32665D01*
X-13238Y-33000D01*
X-12362D01*
X-11554Y-32665D01*
X-10935Y-32046D01*
X-10600Y-31238D01*
Y-30362D01*
X-10935Y-29554D01*
X-11554Y-28935D01*
X-12362Y-28600D01*
D02*
G37*
G36*
X94674Y-32400D02*
X93000D01*
Y-34074D01*
X93746Y-33765D01*
X94365Y-33146D01*
X94674Y-32400D01*
D02*
G37*
G36*
X90413Y-28441D02*
X88339D01*
Y-32000D01*
Y-35559D01*
X90413D01*
Y-33632D01*
X90913Y-33425D01*
X91254Y-33765D01*
X92000Y-34074D01*
Y-31900D01*
Y-29726D01*
X91254Y-30035D01*
X90913Y-30375D01*
X90413Y-30168D01*
Y-28441D01*
D02*
G37*
G36*
X87339Y-32500D02*
X85264D01*
Y-35559D01*
X87339D01*
Y-32500D01*
D02*
G37*
G36*
X105738Y-30600D02*
X104862D01*
X104054Y-30935D01*
X103435Y-31554D01*
X103100Y-32362D01*
Y-33238D01*
X103435Y-34046D01*
X103974Y-34586D01*
Y-42884D01*
X103474Y-43018D01*
X103201Y-42544D01*
X102456Y-41799D01*
X101544Y-41273D01*
X100527Y-41000D01*
X99473D01*
X98456Y-41273D01*
X97544Y-41799D01*
X96799Y-42544D01*
X96273Y-43456D01*
X96000Y-44473D01*
Y-45527D01*
X96273Y-46544D01*
X96799Y-47456D01*
X97544Y-48201D01*
X98456Y-48727D01*
X99473Y-49000D01*
X100527D01*
X101544Y-48727D01*
X102456Y-48201D01*
X103201Y-47456D01*
X103474Y-46982D01*
X103974Y-47116D01*
Y-50300D01*
X104075Y-50807D01*
X104363Y-51237D01*
X106386Y-53260D01*
X106273Y-53456D01*
X106000Y-54473D01*
Y-55527D01*
X106273Y-56544D01*
X106799Y-57456D01*
X107544Y-58201D01*
X108456Y-58727D01*
X109473Y-59000D01*
X110527D01*
X111544Y-58727D01*
X112456Y-58201D01*
X113201Y-57456D01*
X113727Y-56544D01*
X114000Y-55527D01*
Y-54473D01*
X113727Y-53456D01*
X113201Y-52544D01*
X112456Y-51799D01*
X111544Y-51273D01*
X110527Y-51000D01*
X109473D01*
X108456Y-51273D01*
X108260Y-51386D01*
X106625Y-49751D01*
Y-47989D01*
X107125Y-47782D01*
X107544Y-48201D01*
X108456Y-48727D01*
X109473Y-49000D01*
X110527D01*
X111544Y-48727D01*
X112456Y-48201D01*
X113201Y-47456D01*
X113727Y-46544D01*
X114000Y-45527D01*
Y-44473D01*
X113727Y-43456D01*
X113201Y-42544D01*
X112456Y-41799D01*
X111544Y-41273D01*
X110527Y-41000D01*
X109473D01*
X108456Y-41273D01*
X107544Y-41799D01*
X107125Y-42218D01*
X106625Y-42011D01*
Y-34586D01*
X107165Y-34046D01*
X107500Y-33238D01*
Y-32362D01*
X107165Y-31554D01*
X106546Y-30935D01*
X105738Y-30600D01*
D02*
G37*
G36*
X340527Y-41000D02*
X339473D01*
X338456Y-41273D01*
X337544Y-41799D01*
X336799Y-42544D01*
X336273Y-43456D01*
X336000Y-44473D01*
Y-45527D01*
X336273Y-46544D01*
X336799Y-47456D01*
X337544Y-48201D01*
X338456Y-48727D01*
X339473Y-49000D01*
X340527D01*
X341544Y-48727D01*
X342456Y-48201D01*
X343201Y-47456D01*
X343727Y-46544D01*
X344000Y-45527D01*
Y-44473D01*
X343727Y-43456D01*
X343201Y-42544D01*
X342456Y-41799D01*
X341544Y-41273D01*
X340527Y-41000D01*
D02*
G37*
G36*
X330527D02*
X329473D01*
X328456Y-41273D01*
X327544Y-41799D01*
X326799Y-42544D01*
X326273Y-43456D01*
X326000Y-44473D01*
Y-45527D01*
X326273Y-46544D01*
X326799Y-47456D01*
X327544Y-48201D01*
X328456Y-48727D01*
X329473Y-49000D01*
X330527D01*
X331544Y-48727D01*
X332456Y-48201D01*
X333201Y-47456D01*
X333727Y-46544D01*
X334000Y-45527D01*
Y-44473D01*
X333727Y-43456D01*
X333201Y-42544D01*
X332456Y-41799D01*
X331544Y-41273D01*
X330527Y-41000D01*
D02*
G37*
G36*
X320527D02*
X319473D01*
X318456Y-41273D01*
X317544Y-41799D01*
X316799Y-42544D01*
X316273Y-43456D01*
X316000Y-44473D01*
Y-45527D01*
X316273Y-46544D01*
X316799Y-47456D01*
X317544Y-48201D01*
X318456Y-48727D01*
X319473Y-49000D01*
X320527D01*
X321544Y-48727D01*
X322456Y-48201D01*
X323201Y-47456D01*
X323727Y-46544D01*
X324000Y-45527D01*
Y-44473D01*
X323727Y-43456D01*
X323201Y-42544D01*
X322456Y-41799D01*
X321544Y-41273D01*
X320527Y-41000D01*
D02*
G37*
G36*
X310527D02*
X309473D01*
X308456Y-41273D01*
X307544Y-41799D01*
X306799Y-42544D01*
X306273Y-43456D01*
X306000Y-44473D01*
Y-45527D01*
X306273Y-46544D01*
X306799Y-47456D01*
X307544Y-48201D01*
X308456Y-48727D01*
X309473Y-49000D01*
X310527D01*
X311544Y-48727D01*
X312456Y-48201D01*
X313201Y-47456D01*
X313727Y-46544D01*
X314000Y-45527D01*
Y-44473D01*
X313727Y-43456D01*
X313201Y-42544D01*
X312456Y-41799D01*
X311544Y-41273D01*
X310527Y-41000D01*
D02*
G37*
G36*
X300527D02*
X299473D01*
X298456Y-41273D01*
X297544Y-41799D01*
X296799Y-42544D01*
X296273Y-43456D01*
X296000Y-44473D01*
Y-45527D01*
X296273Y-46544D01*
X296799Y-47456D01*
X297544Y-48201D01*
X298456Y-48727D01*
X299473Y-49000D01*
X300527D01*
X301544Y-48727D01*
X302456Y-48201D01*
X303201Y-47456D01*
X303727Y-46544D01*
X304000Y-45527D01*
Y-44473D01*
X303727Y-43456D01*
X303201Y-42544D01*
X302456Y-41799D01*
X301544Y-41273D01*
X300527Y-41000D01*
D02*
G37*
G36*
X290527D02*
X289473D01*
X288456Y-41273D01*
X287544Y-41799D01*
X286799Y-42544D01*
X286273Y-43456D01*
X286000Y-44473D01*
Y-45527D01*
X286273Y-46544D01*
X286799Y-47456D01*
X287544Y-48201D01*
X288456Y-48727D01*
X289473Y-49000D01*
X290527D01*
X291544Y-48727D01*
X292456Y-48201D01*
X293201Y-47456D01*
X293727Y-46544D01*
X294000Y-45527D01*
Y-44473D01*
X293727Y-43456D01*
X293201Y-42544D01*
X292456Y-41799D01*
X291544Y-41273D01*
X290527Y-41000D01*
D02*
G37*
G36*
X280527D02*
X279473D01*
X278456Y-41273D01*
X277544Y-41799D01*
X276799Y-42544D01*
X276273Y-43456D01*
X276000Y-44473D01*
Y-45527D01*
X276273Y-46544D01*
X276799Y-47456D01*
X277544Y-48201D01*
X278456Y-48727D01*
X279473Y-49000D01*
X280527D01*
X281544Y-48727D01*
X282456Y-48201D01*
X283201Y-47456D01*
X283727Y-46544D01*
X284000Y-45527D01*
Y-44473D01*
X283727Y-43456D01*
X283201Y-42544D01*
X282456Y-41799D01*
X281544Y-41273D01*
X280527Y-41000D01*
D02*
G37*
G36*
X270527D02*
X269473D01*
X268456Y-41273D01*
X267544Y-41799D01*
X266799Y-42544D01*
X266273Y-43456D01*
X266000Y-44473D01*
Y-45527D01*
X266273Y-46544D01*
X266799Y-47456D01*
X267544Y-48201D01*
X268456Y-48727D01*
X269473Y-49000D01*
X270527D01*
X271544Y-48727D01*
X272456Y-48201D01*
X273201Y-47456D01*
X273727Y-46544D01*
X274000Y-45527D01*
Y-44473D01*
X273727Y-43456D01*
X273201Y-42544D01*
X272456Y-41799D01*
X271544Y-41273D01*
X270527Y-41000D01*
D02*
G37*
G36*
X260527D02*
X259473D01*
X258456Y-41273D01*
X257544Y-41799D01*
X256799Y-42544D01*
X256273Y-43456D01*
X256000Y-44473D01*
Y-45527D01*
X256273Y-46544D01*
X256799Y-47456D01*
X257544Y-48201D01*
X258456Y-48727D01*
X259473Y-49000D01*
X260527D01*
X261544Y-48727D01*
X262456Y-48201D01*
X263201Y-47456D01*
X263727Y-46544D01*
X264000Y-45527D01*
Y-44473D01*
X263727Y-43456D01*
X263201Y-42544D01*
X262456Y-41799D01*
X261544Y-41273D01*
X260527Y-41000D01*
D02*
G37*
G36*
X250527D02*
X249473D01*
X248456Y-41273D01*
X247544Y-41799D01*
X246799Y-42544D01*
X246273Y-43456D01*
X246000Y-44473D01*
Y-45527D01*
X246273Y-46544D01*
X246799Y-47456D01*
X247544Y-48201D01*
X248456Y-48727D01*
X249473Y-49000D01*
X250527D01*
X251544Y-48727D01*
X252456Y-48201D01*
X253201Y-47456D01*
X253727Y-46544D01*
X254000Y-45527D01*
Y-44473D01*
X253727Y-43456D01*
X253201Y-42544D01*
X252456Y-41799D01*
X251544Y-41273D01*
X250527Y-41000D01*
D02*
G37*
G36*
X240527D02*
X239473D01*
X238456Y-41273D01*
X237544Y-41799D01*
X236799Y-42544D01*
X236273Y-43456D01*
X236000Y-44473D01*
Y-45527D01*
X236273Y-46544D01*
X236799Y-47456D01*
X237544Y-48201D01*
X238456Y-48727D01*
X239473Y-49000D01*
X240527D01*
X241544Y-48727D01*
X242456Y-48201D01*
X243201Y-47456D01*
X243727Y-46544D01*
X244000Y-45527D01*
Y-44473D01*
X243727Y-43456D01*
X243201Y-42544D01*
X242456Y-41799D01*
X241544Y-41273D01*
X240527Y-41000D01*
D02*
G37*
G36*
X230527D02*
X229473D01*
X228456Y-41273D01*
X227544Y-41799D01*
X226799Y-42544D01*
X226273Y-43456D01*
X226000Y-44473D01*
Y-45527D01*
X226273Y-46544D01*
X226799Y-47456D01*
X227544Y-48201D01*
X228456Y-48727D01*
X229473Y-49000D01*
X230527D01*
X231544Y-48727D01*
X232456Y-48201D01*
X233201Y-47456D01*
X233727Y-46544D01*
X234000Y-45527D01*
Y-44473D01*
X233727Y-43456D01*
X233201Y-42544D01*
X232456Y-41799D01*
X231544Y-41273D01*
X230527Y-41000D01*
D02*
G37*
G36*
X220527D02*
X219473D01*
X218456Y-41273D01*
X217544Y-41799D01*
X216799Y-42544D01*
X216273Y-43456D01*
X216000Y-44473D01*
Y-45527D01*
X216273Y-46544D01*
X216799Y-47456D01*
X217544Y-48201D01*
X218456Y-48727D01*
X219473Y-49000D01*
X220527D01*
X221544Y-48727D01*
X222456Y-48201D01*
X223201Y-47456D01*
X223727Y-46544D01*
X224000Y-45527D01*
Y-44473D01*
X223727Y-43456D01*
X223201Y-42544D01*
X222456Y-41799D01*
X221544Y-41273D01*
X220527Y-41000D01*
D02*
G37*
G36*
X210527D02*
X209473D01*
X208456Y-41273D01*
X207544Y-41799D01*
X206799Y-42544D01*
X206273Y-43456D01*
X206000Y-44473D01*
Y-45527D01*
X206273Y-46544D01*
X206799Y-47456D01*
X207544Y-48201D01*
X208456Y-48727D01*
X209473Y-49000D01*
X210527D01*
X211544Y-48727D01*
X212456Y-48201D01*
X213201Y-47456D01*
X213727Y-46544D01*
X214000Y-45527D01*
Y-44473D01*
X213727Y-43456D01*
X213201Y-42544D01*
X212456Y-41799D01*
X211544Y-41273D01*
X210527Y-41000D01*
D02*
G37*
G36*
X200527D02*
X199473D01*
X198456Y-41273D01*
X197544Y-41799D01*
X196799Y-42544D01*
X196273Y-43456D01*
X196000Y-44473D01*
Y-45527D01*
X196273Y-46544D01*
X196799Y-47456D01*
X197544Y-48201D01*
X198456Y-48727D01*
X199473Y-49000D01*
X200527D01*
X201544Y-48727D01*
X202456Y-48201D01*
X203201Y-47456D01*
X203727Y-46544D01*
X204000Y-45527D01*
Y-44473D01*
X203727Y-43456D01*
X203201Y-42544D01*
X202456Y-41799D01*
X201544Y-41273D01*
X200527Y-41000D01*
D02*
G37*
G36*
X190527D02*
X189473D01*
X188456Y-41273D01*
X187544Y-41799D01*
X186799Y-42544D01*
X186273Y-43456D01*
X186000Y-44473D01*
Y-45527D01*
X186273Y-46544D01*
X186799Y-47456D01*
X187544Y-48201D01*
X188456Y-48727D01*
X189473Y-49000D01*
X190527D01*
X191544Y-48727D01*
X192456Y-48201D01*
X193201Y-47456D01*
X193727Y-46544D01*
X194000Y-45527D01*
Y-44473D01*
X193727Y-43456D01*
X193201Y-42544D01*
X192456Y-41799D01*
X191544Y-41273D01*
X190527Y-41000D01*
D02*
G37*
G36*
X180527D02*
X179473D01*
X178456Y-41273D01*
X177544Y-41799D01*
X176799Y-42544D01*
X176273Y-43456D01*
X176000Y-44473D01*
Y-45527D01*
X176273Y-46544D01*
X176799Y-47456D01*
X177544Y-48201D01*
X178456Y-48727D01*
X179473Y-49000D01*
X180527D01*
X181544Y-48727D01*
X182456Y-48201D01*
X183201Y-47456D01*
X183727Y-46544D01*
X184000Y-45527D01*
Y-44473D01*
X183727Y-43456D01*
X183201Y-42544D01*
X182456Y-41799D01*
X181544Y-41273D01*
X180527Y-41000D01*
D02*
G37*
G36*
X170527D02*
X169473D01*
X168456Y-41273D01*
X167544Y-41799D01*
X166799Y-42544D01*
X166273Y-43456D01*
X166000Y-44473D01*
Y-45527D01*
X166273Y-46544D01*
X166799Y-47456D01*
X167544Y-48201D01*
X168456Y-48727D01*
X169473Y-49000D01*
X170527D01*
X171544Y-48727D01*
X172456Y-48201D01*
X173201Y-47456D01*
X173727Y-46544D01*
X174000Y-45527D01*
Y-44473D01*
X173727Y-43456D01*
X173201Y-42544D01*
X172456Y-41799D01*
X171544Y-41273D01*
X170527Y-41000D01*
D02*
G37*
G36*
X160527D02*
X159473D01*
X158456Y-41273D01*
X157544Y-41799D01*
X156799Y-42544D01*
X156273Y-43456D01*
X156000Y-44473D01*
Y-45527D01*
X156273Y-46544D01*
X156799Y-47456D01*
X157544Y-48201D01*
X158456Y-48727D01*
X159473Y-49000D01*
X160527D01*
X161544Y-48727D01*
X162456Y-48201D01*
X163201Y-47456D01*
X163727Y-46544D01*
X164000Y-45527D01*
Y-44473D01*
X163727Y-43456D01*
X163201Y-42544D01*
X162456Y-41799D01*
X161544Y-41273D01*
X160527Y-41000D01*
D02*
G37*
G36*
X150527D02*
X149473D01*
X148456Y-41273D01*
X147544Y-41799D01*
X146799Y-42544D01*
X146273Y-43456D01*
X146000Y-44473D01*
Y-45527D01*
X146273Y-46544D01*
X146799Y-47456D01*
X147544Y-48201D01*
X148456Y-48727D01*
X149473Y-49000D01*
X150527D01*
X151544Y-48727D01*
X152456Y-48201D01*
X153201Y-47456D01*
X153727Y-46544D01*
X154000Y-45527D01*
Y-44473D01*
X153727Y-43456D01*
X153201Y-42544D01*
X152456Y-41799D01*
X151544Y-41273D01*
X150527Y-41000D01*
D02*
G37*
G36*
X130527D02*
X129473D01*
X128456Y-41273D01*
X127544Y-41799D01*
X126799Y-42544D01*
X126273Y-43456D01*
X126000Y-44473D01*
Y-45527D01*
X126273Y-46544D01*
X126799Y-47456D01*
X127544Y-48201D01*
X128456Y-48727D01*
X129473Y-49000D01*
X130527D01*
X131544Y-48727D01*
X132456Y-48201D01*
X133201Y-47456D01*
X133727Y-46544D01*
X134000Y-45527D01*
Y-44473D01*
X133727Y-43456D01*
X133201Y-42544D01*
X132456Y-41799D01*
X131544Y-41273D01*
X130527Y-41000D01*
D02*
G37*
G36*
X120527D02*
X119473D01*
X118456Y-41273D01*
X117544Y-41799D01*
X116799Y-42544D01*
X116273Y-43456D01*
X116000Y-44473D01*
Y-45527D01*
X116273Y-46544D01*
X116799Y-47456D01*
X117544Y-48201D01*
X118456Y-48727D01*
X119473Y-49000D01*
X120527D01*
X121544Y-48727D01*
X122456Y-48201D01*
X123201Y-47456D01*
X123727Y-46544D01*
X124000Y-45527D01*
Y-44473D01*
X123727Y-43456D01*
X123201Y-42544D01*
X122456Y-41799D01*
X121544Y-41273D01*
X120527Y-41000D01*
D02*
G37*
G36*
X90527D02*
X89473D01*
X88456Y-41273D01*
X87544Y-41799D01*
X86799Y-42544D01*
X86273Y-43456D01*
X86000Y-44473D01*
Y-45527D01*
X86273Y-46544D01*
X86799Y-47456D01*
X87544Y-48201D01*
X88456Y-48727D01*
X89473Y-49000D01*
X90527D01*
X91544Y-48727D01*
X92456Y-48201D01*
X93201Y-47456D01*
X93727Y-46544D01*
X94000Y-45527D01*
Y-44473D01*
X93727Y-43456D01*
X93201Y-42544D01*
X92456Y-41799D01*
X91544Y-41273D01*
X90527Y-41000D01*
D02*
G37*
G36*
X-26300Y-56426D02*
Y-58100D01*
X-24626D01*
X-24935Y-57354D01*
X-25554Y-56735D01*
X-26300Y-56426D01*
D02*
G37*
G36*
X-61750Y-55150D02*
X-66500D01*
Y-58400D01*
X-61750D01*
Y-55150D01*
D02*
G37*
G36*
X-33500D02*
X-38250D01*
Y-58400D01*
X-33500D01*
Y-55150D01*
D02*
G37*
G36*
X-67500D02*
X-72250D01*
Y-58400D01*
X-67500D01*
Y-55150D01*
D02*
G37*
G36*
X-49300Y-57026D02*
Y-58700D01*
X-47626D01*
X-47935Y-57954D01*
X-48554Y-57335D01*
X-49300Y-57026D01*
D02*
G37*
G36*
X-50300D02*
X-51046Y-57335D01*
X-51665Y-57954D01*
X-51974Y-58700D01*
X-50300D01*
Y-57026D01*
D02*
G37*
G36*
X340527Y-51000D02*
X339473D01*
X338456Y-51273D01*
X337544Y-51799D01*
X336799Y-52544D01*
X336273Y-53456D01*
X336000Y-54473D01*
Y-55527D01*
X336273Y-56544D01*
X336799Y-57456D01*
X337544Y-58201D01*
X338456Y-58727D01*
X339473Y-59000D01*
X340527D01*
X341544Y-58727D01*
X342456Y-58201D01*
X343201Y-57456D01*
X343727Y-56544D01*
X344000Y-55527D01*
Y-54473D01*
X343727Y-53456D01*
X343201Y-52544D01*
X342456Y-51799D01*
X341544Y-51273D01*
X340527Y-51000D01*
D02*
G37*
G36*
X330527D02*
X329473D01*
X328456Y-51273D01*
X327544Y-51799D01*
X326799Y-52544D01*
X326273Y-53456D01*
X326000Y-54473D01*
Y-55527D01*
X326273Y-56544D01*
X326799Y-57456D01*
X327544Y-58201D01*
X328456Y-58727D01*
X329473Y-59000D01*
X330527D01*
X331544Y-58727D01*
X332456Y-58201D01*
X333201Y-57456D01*
X333727Y-56544D01*
X334000Y-55527D01*
Y-54473D01*
X333727Y-53456D01*
X333201Y-52544D01*
X332456Y-51799D01*
X331544Y-51273D01*
X330527Y-51000D01*
D02*
G37*
G36*
X320527D02*
X319473D01*
X318456Y-51273D01*
X317544Y-51799D01*
X316799Y-52544D01*
X316273Y-53456D01*
X316000Y-54473D01*
Y-55527D01*
X316273Y-56544D01*
X316799Y-57456D01*
X317544Y-58201D01*
X318456Y-58727D01*
X319473Y-59000D01*
X320527D01*
X321544Y-58727D01*
X322456Y-58201D01*
X323201Y-57456D01*
X323727Y-56544D01*
X324000Y-55527D01*
Y-54473D01*
X323727Y-53456D01*
X323201Y-52544D01*
X322456Y-51799D01*
X321544Y-51273D01*
X320527Y-51000D01*
D02*
G37*
G36*
X300527D02*
X299473D01*
X298456Y-51273D01*
X297544Y-51799D01*
X296799Y-52544D01*
X296273Y-53456D01*
X296000Y-54473D01*
Y-55527D01*
X296273Y-56544D01*
X296799Y-57456D01*
X297544Y-58201D01*
X298456Y-58727D01*
X299473Y-59000D01*
X300527D01*
X301544Y-58727D01*
X302456Y-58201D01*
X303201Y-57456D01*
X303727Y-56544D01*
X304000Y-55527D01*
Y-54473D01*
X303727Y-53456D01*
X303201Y-52544D01*
X302456Y-51799D01*
X301544Y-51273D01*
X300527Y-51000D01*
D02*
G37*
G36*
X290527D02*
X289473D01*
X288456Y-51273D01*
X287544Y-51799D01*
X286799Y-52544D01*
X286273Y-53456D01*
X286000Y-54473D01*
Y-55527D01*
X286273Y-56544D01*
X286799Y-57456D01*
X287544Y-58201D01*
X288456Y-58727D01*
X289473Y-59000D01*
X290527D01*
X291544Y-58727D01*
X292456Y-58201D01*
X293201Y-57456D01*
X293727Y-56544D01*
X294000Y-55527D01*
Y-54473D01*
X293727Y-53456D01*
X293201Y-52544D01*
X292456Y-51799D01*
X291544Y-51273D01*
X290527Y-51000D01*
D02*
G37*
G36*
X280527D02*
X279473D01*
X278456Y-51273D01*
X277544Y-51799D01*
X276799Y-52544D01*
X276273Y-53456D01*
X276000Y-54473D01*
Y-55527D01*
X276273Y-56544D01*
X276799Y-57456D01*
X277544Y-58201D01*
X278456Y-58727D01*
X279473Y-59000D01*
X280527D01*
X281544Y-58727D01*
X282456Y-58201D01*
X283201Y-57456D01*
X283727Y-56544D01*
X284000Y-55527D01*
Y-54473D01*
X283727Y-53456D01*
X283201Y-52544D01*
X282456Y-51799D01*
X281544Y-51273D01*
X280527Y-51000D01*
D02*
G37*
G36*
X270527D02*
X269473D01*
X268456Y-51273D01*
X267544Y-51799D01*
X266799Y-52544D01*
X266273Y-53456D01*
X266000Y-54473D01*
Y-55527D01*
X266273Y-56544D01*
X266799Y-57456D01*
X267544Y-58201D01*
X268456Y-58727D01*
X269473Y-59000D01*
X270527D01*
X271544Y-58727D01*
X272456Y-58201D01*
X273201Y-57456D01*
X273727Y-56544D01*
X274000Y-55527D01*
Y-54473D01*
X273727Y-53456D01*
X273201Y-52544D01*
X272456Y-51799D01*
X271544Y-51273D01*
X270527Y-51000D01*
D02*
G37*
G36*
X260527D02*
X259473D01*
X258456Y-51273D01*
X257544Y-51799D01*
X256799Y-52544D01*
X256273Y-53456D01*
X256000Y-54473D01*
Y-55527D01*
X256273Y-56544D01*
X256799Y-57456D01*
X257544Y-58201D01*
X258456Y-58727D01*
X259473Y-59000D01*
X260527D01*
X261544Y-58727D01*
X262456Y-58201D01*
X263201Y-57456D01*
X263727Y-56544D01*
X264000Y-55527D01*
Y-54473D01*
X263727Y-53456D01*
X263201Y-52544D01*
X262456Y-51799D01*
X261544Y-51273D01*
X260527Y-51000D01*
D02*
G37*
G36*
X250527D02*
X249473D01*
X248456Y-51273D01*
X247544Y-51799D01*
X246799Y-52544D01*
X246273Y-53456D01*
X246000Y-54473D01*
Y-55527D01*
X246273Y-56544D01*
X246799Y-57456D01*
X247544Y-58201D01*
X248456Y-58727D01*
X249473Y-59000D01*
X250527D01*
X251544Y-58727D01*
X252456Y-58201D01*
X253201Y-57456D01*
X253727Y-56544D01*
X254000Y-55527D01*
Y-54473D01*
X253727Y-53456D01*
X253201Y-52544D01*
X252456Y-51799D01*
X251544Y-51273D01*
X250527Y-51000D01*
D02*
G37*
G36*
X240527D02*
X239473D01*
X238456Y-51273D01*
X237544Y-51799D01*
X236799Y-52544D01*
X236273Y-53456D01*
X236000Y-54473D01*
Y-55527D01*
X236273Y-56544D01*
X236799Y-57456D01*
X237544Y-58201D01*
X238456Y-58727D01*
X239473Y-59000D01*
X240527D01*
X241544Y-58727D01*
X242456Y-58201D01*
X243201Y-57456D01*
X243727Y-56544D01*
X244000Y-55527D01*
Y-54473D01*
X243727Y-53456D01*
X243201Y-52544D01*
X242456Y-51799D01*
X241544Y-51273D01*
X240527Y-51000D01*
D02*
G37*
G36*
X230527D02*
X229473D01*
X228456Y-51273D01*
X227544Y-51799D01*
X226799Y-52544D01*
X226273Y-53456D01*
X226000Y-54473D01*
Y-55527D01*
X226273Y-56544D01*
X226799Y-57456D01*
X227544Y-58201D01*
X228456Y-58727D01*
X229473Y-59000D01*
X230527D01*
X231544Y-58727D01*
X232456Y-58201D01*
X233201Y-57456D01*
X233727Y-56544D01*
X234000Y-55527D01*
Y-54473D01*
X233727Y-53456D01*
X233201Y-52544D01*
X232456Y-51799D01*
X231544Y-51273D01*
X230527Y-51000D01*
D02*
G37*
G36*
X220527D02*
X219473D01*
X218456Y-51273D01*
X217544Y-51799D01*
X216799Y-52544D01*
X216273Y-53456D01*
X216000Y-54473D01*
Y-55527D01*
X216273Y-56544D01*
X216799Y-57456D01*
X217544Y-58201D01*
X218456Y-58727D01*
X219473Y-59000D01*
X220527D01*
X221544Y-58727D01*
X222456Y-58201D01*
X223201Y-57456D01*
X223727Y-56544D01*
X224000Y-55527D01*
Y-54473D01*
X223727Y-53456D01*
X223201Y-52544D01*
X222456Y-51799D01*
X221544Y-51273D01*
X220527Y-51000D01*
D02*
G37*
G36*
X210527D02*
X209473D01*
X208456Y-51273D01*
X207544Y-51799D01*
X206799Y-52544D01*
X206273Y-53456D01*
X206000Y-54473D01*
Y-55527D01*
X206273Y-56544D01*
X206799Y-57456D01*
X207544Y-58201D01*
X208456Y-58727D01*
X209473Y-59000D01*
X210527D01*
X211544Y-58727D01*
X212456Y-58201D01*
X213201Y-57456D01*
X213727Y-56544D01*
X214000Y-55527D01*
Y-54473D01*
X213727Y-53456D01*
X213201Y-52544D01*
X212456Y-51799D01*
X211544Y-51273D01*
X210527Y-51000D01*
D02*
G37*
G36*
X200527D02*
X199473D01*
X198456Y-51273D01*
X197544Y-51799D01*
X196799Y-52544D01*
X196273Y-53456D01*
X196000Y-54473D01*
Y-55527D01*
X196273Y-56544D01*
X196799Y-57456D01*
X197544Y-58201D01*
X198456Y-58727D01*
X199473Y-59000D01*
X200527D01*
X201544Y-58727D01*
X202456Y-58201D01*
X203201Y-57456D01*
X203727Y-56544D01*
X204000Y-55527D01*
Y-54473D01*
X203727Y-53456D01*
X203201Y-52544D01*
X202456Y-51799D01*
X201544Y-51273D01*
X200527Y-51000D01*
D02*
G37*
G36*
X190527D02*
X189473D01*
X188456Y-51273D01*
X187544Y-51799D01*
X186799Y-52544D01*
X186273Y-53456D01*
X186000Y-54473D01*
Y-55527D01*
X186273Y-56544D01*
X186799Y-57456D01*
X187544Y-58201D01*
X188456Y-58727D01*
X189473Y-59000D01*
X190527D01*
X191544Y-58727D01*
X192456Y-58201D01*
X193201Y-57456D01*
X193727Y-56544D01*
X194000Y-55527D01*
Y-54473D01*
X193727Y-53456D01*
X193201Y-52544D01*
X192456Y-51799D01*
X191544Y-51273D01*
X190527Y-51000D01*
D02*
G37*
G36*
X180527D02*
X179473D01*
X178456Y-51273D01*
X177544Y-51799D01*
X176799Y-52544D01*
X176273Y-53456D01*
X176000Y-54473D01*
Y-55527D01*
X176273Y-56544D01*
X176799Y-57456D01*
X177544Y-58201D01*
X178456Y-58727D01*
X179473Y-59000D01*
X180527D01*
X181544Y-58727D01*
X182456Y-58201D01*
X183201Y-57456D01*
X183727Y-56544D01*
X184000Y-55527D01*
Y-54473D01*
X183727Y-53456D01*
X183201Y-52544D01*
X182456Y-51799D01*
X181544Y-51273D01*
X180527Y-51000D01*
D02*
G37*
G36*
X170527D02*
X169473D01*
X168456Y-51273D01*
X167544Y-51799D01*
X166799Y-52544D01*
X166273Y-53456D01*
X166000Y-54473D01*
Y-55527D01*
X166273Y-56544D01*
X166799Y-57456D01*
X167544Y-58201D01*
X168456Y-58727D01*
X169473Y-59000D01*
X170527D01*
X171544Y-58727D01*
X172456Y-58201D01*
X173201Y-57456D01*
X173727Y-56544D01*
X174000Y-55527D01*
Y-54473D01*
X173727Y-53456D01*
X173201Y-52544D01*
X172456Y-51799D01*
X171544Y-51273D01*
X170527Y-51000D01*
D02*
G37*
G36*
X160527D02*
X159473D01*
X158456Y-51273D01*
X157544Y-51799D01*
X156799Y-52544D01*
X156273Y-53456D01*
X156000Y-54473D01*
Y-55527D01*
X156273Y-56544D01*
X156799Y-57456D01*
X157544Y-58201D01*
X158456Y-58727D01*
X159473Y-59000D01*
X160527D01*
X161544Y-58727D01*
X162456Y-58201D01*
X163201Y-57456D01*
X163727Y-56544D01*
X164000Y-55527D01*
Y-54473D01*
X163727Y-53456D01*
X163201Y-52544D01*
X162456Y-51799D01*
X161544Y-51273D01*
X160527Y-51000D01*
D02*
G37*
G36*
X480438Y8900D02*
X479562D01*
X478754Y8565D01*
X478135Y7946D01*
X477800Y7138D01*
Y6663D01*
X389266Y-81871D01*
X343237D01*
X343137Y-81371D01*
X344334Y-80875D01*
X345522Y-80081D01*
X346531Y-79072D01*
X347325Y-77884D01*
X347871Y-76565D01*
X348150Y-75164D01*
Y-73736D01*
X347871Y-72335D01*
X347325Y-71016D01*
X346531Y-69828D01*
X345522Y-68819D01*
X344334Y-68025D01*
X343015Y-67479D01*
X341614Y-67200D01*
X340186D01*
X338785Y-67479D01*
X337466Y-68025D01*
X336278Y-68819D01*
X335269Y-69828D01*
X334475Y-71016D01*
X333929Y-72335D01*
X333650Y-73736D01*
Y-75164D01*
X333929Y-76565D01*
X334475Y-77884D01*
X335269Y-79072D01*
X336278Y-80081D01*
X337466Y-80875D01*
X338663Y-81371D01*
X338563Y-81871D01*
X166833D01*
X146529Y-61567D01*
Y-57893D01*
X147029Y-57686D01*
X147544Y-58201D01*
X148456Y-58727D01*
X149473Y-59000D01*
X150527D01*
X151544Y-58727D01*
X152456Y-58201D01*
X153201Y-57456D01*
X153727Y-56544D01*
X154000Y-55527D01*
Y-54473D01*
X153727Y-53456D01*
X153201Y-52544D01*
X152456Y-51799D01*
X151544Y-51273D01*
X150527Y-51000D01*
X149473D01*
X148456Y-51273D01*
X147544Y-51799D01*
X147029Y-52314D01*
X146529Y-52107D01*
Y-50000D01*
X146413Y-49415D01*
X146081Y-48919D01*
X143720Y-46557D01*
X143727Y-46544D01*
X144000Y-45527D01*
Y-44473D01*
X143727Y-43456D01*
X143201Y-42544D01*
X142456Y-41799D01*
X141544Y-41273D01*
X140527Y-41000D01*
X139473D01*
X138456Y-41273D01*
X137544Y-41799D01*
X136799Y-42544D01*
X136273Y-43456D01*
X136000Y-44473D01*
Y-45527D01*
X136273Y-46544D01*
X136799Y-47456D01*
X137544Y-48201D01*
X138456Y-48727D01*
X139473Y-49000D01*
X140527D01*
X141544Y-48727D01*
X141557Y-48720D01*
X143471Y-50634D01*
Y-52107D01*
X142971Y-52314D01*
X142456Y-51799D01*
X141544Y-51273D01*
X140527Y-51000D01*
X139473D01*
X138456Y-51273D01*
X137544Y-51799D01*
X136799Y-52544D01*
X136273Y-53456D01*
X136000Y-54473D01*
Y-55527D01*
X136273Y-56544D01*
X136799Y-57456D01*
X137544Y-58201D01*
X138456Y-58727D01*
X139473Y-59000D01*
X140527D01*
X141544Y-58727D01*
X142456Y-58201D01*
X142971Y-57686D01*
X143471Y-57893D01*
Y-62200D01*
X143587Y-62785D01*
X143919Y-63281D01*
X165119Y-84481D01*
X165615Y-84813D01*
X166200Y-84929D01*
X389900D01*
X390485Y-84813D01*
X390981Y-84481D01*
X479963Y4500D01*
X480438D01*
X481246Y4835D01*
X481865Y5454D01*
X482200Y6262D01*
Y7138D01*
X481865Y7946D01*
X481246Y8565D01*
X480438Y8900D01*
D02*
G37*
G36*
X130527Y-51000D02*
X129473D01*
X128456Y-51273D01*
X127544Y-51799D01*
X126799Y-52544D01*
X126273Y-53456D01*
X126000Y-54473D01*
Y-55527D01*
X126273Y-56544D01*
X126799Y-57456D01*
X127544Y-58201D01*
X128456Y-58727D01*
X129473Y-59000D01*
X130527D01*
X131544Y-58727D01*
X132456Y-58201D01*
X133201Y-57456D01*
X133727Y-56544D01*
X134000Y-55527D01*
Y-54473D01*
X133727Y-53456D01*
X133201Y-52544D01*
X132456Y-51799D01*
X131544Y-51273D01*
X130527Y-51000D01*
D02*
G37*
G36*
X120527D02*
X119473D01*
X118456Y-51273D01*
X117544Y-51799D01*
X116799Y-52544D01*
X116273Y-53456D01*
X116000Y-54473D01*
Y-55527D01*
X116273Y-56544D01*
X116799Y-57456D01*
X117544Y-58201D01*
X118456Y-58727D01*
X119473Y-59000D01*
X120527D01*
X121544Y-58727D01*
X122456Y-58201D01*
X123201Y-57456D01*
X123727Y-56544D01*
X124000Y-55527D01*
Y-54473D01*
X123727Y-53456D01*
X123201Y-52544D01*
X122456Y-51799D01*
X121544Y-51273D01*
X120527Y-51000D01*
D02*
G37*
G36*
X100527D02*
X99473D01*
X98456Y-51273D01*
X97544Y-51799D01*
X96799Y-52544D01*
X96273Y-53456D01*
X96000Y-54473D01*
Y-55527D01*
X96273Y-56544D01*
X96799Y-57456D01*
X97544Y-58201D01*
X98456Y-58727D01*
X99473Y-59000D01*
X100527D01*
X101544Y-58727D01*
X102456Y-58201D01*
X103201Y-57456D01*
X103727Y-56544D01*
X104000Y-55527D01*
Y-54473D01*
X103727Y-53456D01*
X103201Y-52544D01*
X102456Y-51799D01*
X101544Y-51273D01*
X100527Y-51000D01*
D02*
G37*
G36*
X90527D02*
X89473D01*
X88456Y-51273D01*
X87544Y-51799D01*
X86799Y-52544D01*
X86273Y-53456D01*
X86000Y-54473D01*
Y-55527D01*
X86273Y-56544D01*
X86799Y-57456D01*
X87544Y-58201D01*
X88456Y-58727D01*
X89473Y-59000D01*
X90527D01*
X91544Y-58727D01*
X92456Y-58201D01*
X93201Y-57456D01*
X93727Y-56544D01*
X94000Y-55527D01*
Y-54473D01*
X93727Y-53456D01*
X93201Y-52544D01*
X92456Y-51799D01*
X91544Y-51273D01*
X90527Y-51000D01*
D02*
G37*
G36*
X80527D02*
X79473D01*
X78456Y-51273D01*
X77544Y-51799D01*
X76799Y-52544D01*
X76273Y-53456D01*
X76000Y-54473D01*
Y-55527D01*
X76273Y-56544D01*
X76799Y-57456D01*
X77544Y-58201D01*
X78456Y-58727D01*
X79473Y-59000D01*
X80527D01*
X81544Y-58727D01*
X82456Y-58201D01*
X83201Y-57456D01*
X83727Y-56544D01*
X84000Y-55527D01*
Y-54473D01*
X83727Y-53456D01*
X83201Y-52544D01*
X82456Y-51799D01*
X81544Y-51273D01*
X80527Y-51000D01*
D02*
G37*
G36*
X-24626Y-59100D02*
X-26300D01*
Y-60774D01*
X-25554Y-60465D01*
X-24935Y-59846D01*
X-24626Y-59100D01*
D02*
G37*
G36*
X-27750Y-55150D02*
X-32500D01*
Y-58900D01*
Y-62650D01*
X-27750D01*
Y-61038D01*
X-27334Y-60760D01*
X-27300Y-60774D01*
Y-58600D01*
Y-56426D01*
X-27334Y-56440D01*
X-27750Y-56162D01*
Y-55150D01*
D02*
G37*
G36*
X-47626Y-59700D02*
X-49300D01*
Y-61374D01*
X-48554Y-61065D01*
X-47935Y-60446D01*
X-47626Y-59700D01*
D02*
G37*
G36*
X-50300D02*
X-51974D01*
X-51665Y-60446D01*
X-51046Y-61065D01*
X-50300Y-61374D01*
Y-59700D01*
D02*
G37*
G36*
X-33500Y-59400D02*
X-38250D01*
Y-62650D01*
X-33500D01*
Y-59400D01*
D02*
G37*
G36*
X-61750D02*
X-66500D01*
Y-62650D01*
X-61750D01*
Y-59400D01*
D02*
G37*
G36*
X-67500D02*
X-72250D01*
Y-62650D01*
X-67500D01*
Y-59400D01*
D02*
G37*
G36*
X310527Y-51000D02*
X309473D01*
X308456Y-51273D01*
X307544Y-51799D01*
X306799Y-52544D01*
X306273Y-53456D01*
X306000Y-54473D01*
Y-55527D01*
X306273Y-56544D01*
X306799Y-57456D01*
X307544Y-58201D01*
X308456Y-58727D01*
X308471Y-58731D01*
Y-75818D01*
X307935Y-76354D01*
X307600Y-77162D01*
Y-78038D01*
X307935Y-78846D01*
X308554Y-79465D01*
X309362Y-79800D01*
X310238D01*
X311046Y-79465D01*
X311665Y-78846D01*
X312000Y-78038D01*
Y-77162D01*
X311665Y-76354D01*
X311529Y-76218D01*
Y-58731D01*
X311544Y-58727D01*
X312456Y-58201D01*
X313201Y-57456D01*
X313727Y-56544D01*
X314000Y-55527D01*
Y-54473D01*
X313727Y-53456D01*
X313201Y-52544D01*
X312456Y-51799D01*
X311544Y-51273D01*
X310527Y-51000D01*
D02*
G37*
G36*
X1614Y-67200D02*
X186D01*
X-1215Y-67479D01*
X-2534Y-68025D01*
X-3722Y-68819D01*
X-4731Y-69828D01*
X-5525Y-71016D01*
X-6071Y-72335D01*
X-6350Y-73736D01*
Y-75164D01*
X-6071Y-76565D01*
X-5525Y-77884D01*
X-4731Y-79072D01*
X-3722Y-80081D01*
X-2534Y-80875D01*
X-1215Y-81421D01*
X186Y-81700D01*
X1614D01*
X3015Y-81421D01*
X4334Y-80875D01*
X5522Y-80081D01*
X6531Y-79072D01*
X7325Y-77884D01*
X7871Y-76565D01*
X8150Y-75164D01*
Y-73736D01*
X7871Y-72335D01*
X7325Y-71016D01*
X6531Y-69828D01*
X5522Y-68819D01*
X4334Y-68025D01*
X3015Y-67479D01*
X1614Y-67200D01*
D02*
G37*
G36*
X47138Y-85400D02*
X46262D01*
X45454Y-85735D01*
X44835Y-86354D01*
X44500Y-87162D01*
Y-88038D01*
X44835Y-88846D01*
X45454Y-89465D01*
X46262Y-89800D01*
X47138D01*
X47791Y-89529D01*
X308218D01*
X308554Y-89865D01*
X309362Y-90200D01*
X310238D01*
X311046Y-89865D01*
X311665Y-89246D01*
X312000Y-88438D01*
Y-87562D01*
X311665Y-86754D01*
X311046Y-86135D01*
X310238Y-85800D01*
X309362D01*
X308554Y-86135D01*
X308218Y-86471D01*
X48614D01*
X48565Y-86354D01*
X47946Y-85735D01*
X47138Y-85400D01*
D02*
G37*
G36*
X3000Y-140626D02*
X2254Y-140935D01*
X1635Y-141554D01*
X1326Y-142300D01*
X3000D01*
Y-140626D01*
D02*
G37*
G36*
Y-143300D02*
X1326D01*
X1635Y-144046D01*
X2254Y-144665D01*
X3000Y-144974D01*
Y-143300D01*
D02*
G37*
G36*
X40723Y-139813D02*
X39042D01*
Y-142782D01*
Y-145750D01*
X40723D01*
Y-144800D01*
X41538D01*
X42346Y-144465D01*
X42965Y-143846D01*
X43274Y-143100D01*
X41100D01*
Y-142100D01*
X43274D01*
X42965Y-141354D01*
X42346Y-140735D01*
X41538Y-140400D01*
X40723D01*
Y-139813D01*
D02*
G37*
G36*
X5758D02*
X4077D01*
Y-140507D01*
X4000Y-140558D01*
Y-142800D01*
Y-145042D01*
X4077Y-145093D01*
Y-145750D01*
X5758D01*
Y-142782D01*
Y-139813D01*
D02*
G37*
G36*
X35703Y-150305D02*
X34711D01*
Y-152774D01*
X35703D01*
Y-150305D01*
D02*
G37*
G36*
Y-153774D02*
X34711D01*
Y-156243D01*
X35703D01*
Y-153774D01*
D02*
G37*
G36*
X33711Y-150305D02*
X32349D01*
Y-153274D01*
Y-156243D01*
X33711D01*
Y-153274D01*
Y-150305D01*
D02*
G37*
G36*
X21900D02*
X9097D01*
Y-156243D01*
X15539D01*
X15746Y-156743D01*
X15535Y-156954D01*
X15226Y-157700D01*
X19574D01*
X19265Y-156954D01*
X19054Y-156743D01*
X19261Y-156243D01*
X21900D01*
Y-153274D01*
Y-150305D01*
D02*
G37*
G36*
X36400Y-157526D02*
Y-159200D01*
X38074D01*
X37765Y-158454D01*
X37146Y-157835D01*
X36400Y-157526D01*
D02*
G37*
G36*
X19574Y-158700D02*
X17900D01*
Y-160374D01*
X18646Y-160065D01*
X19265Y-159446D01*
X19574Y-158700D01*
D02*
G37*
G36*
X16900D02*
X15226D01*
X15535Y-159446D01*
X16154Y-160065D01*
X16900Y-160374D01*
Y-158700D01*
D02*
G37*
G36*
X38074Y-160200D02*
X36400D01*
Y-161874D01*
X37146Y-161565D01*
X37765Y-160946D01*
X38074Y-160200D01*
D02*
G37*
G36*
X31349Y-150305D02*
X22900D01*
Y-153274D01*
Y-156243D01*
X23437D01*
Y-158489D01*
X23325Y-158600D01*
X22562D01*
X21754Y-158935D01*
X21135Y-159554D01*
X20800Y-160362D01*
Y-161238D01*
X21135Y-162046D01*
X21754Y-162665D01*
X22562Y-163000D01*
X23438D01*
X24246Y-162665D01*
X24451Y-162460D01*
X25041Y-162578D01*
X25235Y-163046D01*
X25854Y-163665D01*
X26662Y-164000D01*
X27538D01*
X28346Y-163665D01*
X28965Y-163046D01*
X29300Y-162238D01*
Y-162218D01*
X29800Y-162011D01*
X30254Y-162465D01*
X31062Y-162800D01*
X31938D01*
X32746Y-162465D01*
X33365Y-161846D01*
X33634Y-161198D01*
X33649Y-161188D01*
X34118Y-161083D01*
X34178Y-161090D01*
X34654Y-161565D01*
X35400Y-161874D01*
Y-159700D01*
Y-157526D01*
X34654Y-157835D01*
X34035Y-158454D01*
X33766Y-159102D01*
X33751Y-159112D01*
X33282Y-159217D01*
X33222Y-159210D01*
X32746Y-158735D01*
X31938Y-158400D01*
X31174D01*
X30812Y-158038D01*
Y-156243D01*
X31349D01*
Y-153274D01*
Y-150305D01*
D02*
G37*
%LPD*%
G36*
X37275Y3775D02*
Y-8200D01*
X37375Y-8707D01*
X37663Y-9137D01*
X38500Y-9974D01*
Y-10438D01*
X38835Y-11246D01*
X39454Y-11865D01*
X40262Y-12200D01*
X41138D01*
X41475Y-12425D01*
Y-25700D01*
X41575Y-26207D01*
X41863Y-26637D01*
X53675Y-38449D01*
Y-42417D01*
X53347Y-42505D01*
X53175Y-42518D01*
X52456Y-41799D01*
X51544Y-41273D01*
X50527Y-41000D01*
X49473D01*
X48456Y-41273D01*
X47544Y-41799D01*
X46826Y-42518D01*
X46654Y-42505D01*
X46325Y-42417D01*
Y-40100D01*
X46225Y-39593D01*
X45937Y-39163D01*
X42137Y-35363D01*
X41707Y-35075D01*
X41200Y-34975D01*
X36662D01*
X34842Y-33155D01*
X35034Y-32693D01*
X39543D01*
Y-22819D01*
X32425D01*
Y-30084D01*
X31963Y-30276D01*
X22479Y-20791D01*
X22686Y-20291D01*
X28323D01*
Y-16354D01*
Y-12417D01*
Y-8480D01*
Y-4543D01*
Y-3331D01*
X25354D01*
Y-2575D01*
X28323D01*
Y-606D01*
Y606D01*
X25354D01*
Y1362D01*
X28323D01*
Y3541D01*
X31223D01*
X31400Y3364D01*
Y2862D01*
X31735Y2054D01*
X32354Y1435D01*
X32680Y1300D01*
X32580Y800D01*
X31862D01*
X31054Y465D01*
X30435Y-154D01*
X30126Y-900D01*
X34474D01*
X34165Y-154D01*
X33546Y465D01*
X33220Y600D01*
X33320Y1100D01*
X34038D01*
X34846Y1435D01*
X35465Y2054D01*
X35800Y2862D01*
Y3568D01*
X35963Y3837D01*
X36233Y4000D01*
X36938D01*
X37275Y3775D01*
D02*
G37*
G36*
X10500Y-59000D02*
X10527D01*
X11544Y-58727D01*
X12456Y-58201D01*
X13201Y-57456D01*
X13274Y-57328D01*
X13774Y-57462D01*
Y-64200D01*
X13875Y-64707D01*
X14163Y-65137D01*
X20075Y-71049D01*
Y-94175D01*
X19738Y-94400D01*
X18862D01*
X18426Y-94581D01*
X17925Y-94247D01*
Y-92486D01*
X18465Y-91946D01*
X18800Y-91138D01*
Y-90262D01*
X18465Y-89454D01*
X17925Y-88914D01*
Y-74600D01*
X17825Y-74093D01*
X17537Y-73663D01*
X6325Y-62451D01*
Y-57583D01*
X6654Y-57495D01*
X6825Y-57482D01*
X7544Y-58201D01*
X8456Y-58727D01*
X9473Y-59000D01*
X9500D01*
Y-55000D01*
X10500D01*
Y-59000D01*
D02*
G37*
%LPC*%
G36*
X34474Y-1900D02*
X30126D01*
X30435Y-2646D01*
X31054Y-3265D01*
X31230Y-3338D01*
Y-3879D01*
X30854Y-4035D01*
X30235Y-4654D01*
X29926Y-5400D01*
X34274D01*
X33965Y-4654D01*
X33346Y-4035D01*
X33170Y-3962D01*
Y-3421D01*
X33546Y-3265D01*
X34165Y-2646D01*
X34474Y-1900D01*
D02*
G37*
G36*
X34274Y-6400D02*
X32600D01*
Y-8074D01*
X33346Y-7765D01*
X33965Y-7146D01*
X34274Y-6400D01*
D02*
G37*
G36*
X31600D02*
X29926D01*
X30235Y-7146D01*
X30854Y-7765D01*
X31600Y-8074D01*
Y-6400D01*
D02*
G37*
%LPD*%
G36*
X506483Y19472D02*
X506594Y19389D01*
X506733Y19250D01*
X506788Y19195D01*
X506900Y19056D01*
X507122Y18861D01*
X507372Y18584D01*
X507705Y18250D01*
X508038Y17917D01*
X508816Y17112D01*
X509593Y16334D01*
X509954Y15973D01*
X510288Y15668D01*
X510565Y15390D01*
X510815Y15196D01*
X510954Y15057D01*
X511037Y15001D01*
X511065Y14974D01*
X511121Y14918D01*
X511232Y14835D01*
X511398Y14696D01*
X511565Y14557D01*
X511787Y14390D01*
X512287Y14057D01*
X512870Y13696D01*
X513509Y13418D01*
X513842Y13280D01*
X514175Y13196D01*
X514509Y13141D01*
X514842Y13113D01*
X515008D01*
X515036D01*
X515092D01*
X515175D01*
X515286Y13141D01*
X515564Y13196D01*
X515925Y13280D01*
X516314Y13446D01*
X516702Y13696D01*
X516869Y13863D01*
X517036Y14029D01*
X517174Y14252D01*
X517313Y14501D01*
Y14529D01*
X517341Y14585D01*
X517369Y14696D01*
X517424Y14862D01*
X517452Y15029D01*
X517480Y15251D01*
X517508Y15751D01*
Y15890D01*
X517480Y16001D01*
X517452Y16279D01*
X517369Y16640D01*
X517230Y17084D01*
X517036Y17556D01*
X516758Y18056D01*
X516397Y18584D01*
X516425D01*
X516453Y18611D01*
X516591Y18667D01*
X516786Y18778D01*
X517008Y18861D01*
X517258Y18972D01*
X517452Y19083D01*
X517591Y19139D01*
X517674Y19167D01*
X517702Y19139D01*
X517730Y19083D01*
X517813Y19000D01*
X517897Y18861D01*
X517980Y18695D01*
X518119Y18528D01*
X518369Y18056D01*
X518618Y17528D01*
X518813Y16917D01*
X518980Y16223D01*
X519007Y15890D01*
X519035Y15529D01*
Y15057D01*
X519007Y14918D01*
X518980Y14751D01*
X518952Y14557D01*
X518841Y14085D01*
X518674Y13585D01*
X518396Y13030D01*
X518230Y12780D01*
X518035Y12502D01*
X517813Y12252D01*
X517535Y12030D01*
X517480Y12002D01*
X517341Y11919D01*
X517119Y11780D01*
X516841Y11641D01*
X516508Y11530D01*
X516119Y11391D01*
X515675Y11308D01*
X515231Y11280D01*
X515008D01*
X514981D01*
X514897D01*
X514758Y11308D01*
X514564Y11336D01*
X514314Y11391D01*
X514009Y11474D01*
X513675Y11558D01*
X513314Y11697D01*
X512898Y11891D01*
X512426Y12113D01*
X511954Y12391D01*
X511426Y12724D01*
X510898Y13113D01*
X510315Y13585D01*
X509732Y14113D01*
X509121Y14724D01*
X509093Y14751D01*
X509066Y14779D01*
X508899Y14946D01*
X508649Y15196D01*
X508344Y15529D01*
X507983Y15862D01*
X507622Y16251D01*
X507261Y16612D01*
X506955Y16945D01*
X506927D01*
Y10975D01*
X506872Y10947D01*
X505455D01*
X505428D01*
X505400Y11002D01*
Y19417D01*
X505428Y19444D01*
X505455Y19472D01*
X505511Y19500D01*
X506400D01*
X506427D01*
X506483Y19472D01*
D02*
G37*
G36*
X514870Y9558D02*
X514925Y9420D01*
X515008Y9225D01*
X515120Y8947D01*
X515203Y8559D01*
X515286Y8114D01*
X515342Y7587D01*
X515369Y6976D01*
Y-1050D01*
X515342D01*
X515314D01*
X515286D01*
X515120Y-1022D01*
X514897Y-994D01*
X514647Y-967D01*
X514397Y-911D01*
X514175Y-883D01*
X514009Y-855D01*
X513981Y-828D01*
X513953D01*
Y505D01*
X509232D01*
X509204D01*
X509093D01*
X508955D01*
X508760D01*
X508510D01*
X508232Y478D01*
X507622D01*
X506983Y450D01*
X506372Y394D01*
X506067Y366D01*
X505817Y311D01*
X505594Y283D01*
X505428Y228D01*
X505400Y255D01*
Y1894D01*
X505428Y1949D01*
X505539Y2005D01*
X505594Y2033D01*
X505705Y2060D01*
X505844Y2088D01*
X505983Y2144D01*
X506178Y2172D01*
X506427Y2199D01*
X506705Y2227D01*
X507011Y2255D01*
X507399D01*
X507816Y2283D01*
X513953D01*
Y5559D01*
X513925D01*
X513898D01*
X513814D01*
X513703D01*
X513509D01*
X513287Y5587D01*
X513009D01*
X512676Y5615D01*
X512287Y5671D01*
X511870Y5698D01*
X511371Y5754D01*
X510843Y5809D01*
X510260Y5893D01*
X509649Y6004D01*
X508955Y6087D01*
X508232Y6226D01*
X507455Y6365D01*
X507427D01*
X507399Y6393D01*
X507233Y6420D01*
X506955Y6476D01*
X506650Y6559D01*
X505983Y6754D01*
X505678Y6865D01*
X505428Y6976D01*
Y7004D01*
X505400Y7059D01*
Y8670D01*
X505428D01*
X505455D01*
X505483Y8642D01*
X505567Y8614D01*
X505678Y8586D01*
X505817Y8559D01*
X506011Y8503D01*
X506205Y8448D01*
X506455Y8364D01*
X506705Y8309D01*
X507011Y8225D01*
X507344Y8170D01*
X507705Y8087D01*
X508094Y8003D01*
X508510Y7920D01*
X508955Y7837D01*
X509427Y7753D01*
X509454D01*
X509565Y7726D01*
X509732Y7698D01*
X509954Y7670D01*
X510204Y7642D01*
X510510Y7614D01*
X510843Y7559D01*
X511176Y7531D01*
X511926Y7448D01*
X512676Y7365D01*
X513370Y7337D01*
X513675Y7309D01*
X513953D01*
Y7753D01*
X513925Y8031D01*
Y8337D01*
X513898Y8670D01*
X513842Y9003D01*
X513787Y9336D01*
X513842D01*
X513953Y9364D01*
X514092Y9420D01*
X514286Y9447D01*
X514481Y9503D01*
X514647Y9558D01*
X514786Y9586D01*
X514842D01*
X514870Y9558D01*
D02*
G37*
G36*
X517758Y-8825D02*
Y-10575D01*
X517702Y-10603D01*
X516730D01*
X516702D01*
X516675Y-10547D01*
Y-8798D01*
X516730Y-8770D01*
X517702D01*
X517730D01*
X517758Y-8825D01*
D02*
G37*
G36*
X505567Y-1550D02*
X505678Y-1605D01*
X505844Y-1661D01*
X506039Y-1744D01*
X506289Y-1855D01*
X506566Y-1966D01*
X506872Y-2077D01*
X507538Y-2327D01*
X508316Y-2633D01*
X509149Y-2966D01*
X510010Y-3299D01*
X510871Y-3632D01*
X511704Y-3966D01*
X512509Y-4271D01*
X513231Y-4549D01*
X513564Y-4660D01*
X513870Y-4799D01*
X514148Y-4882D01*
X514397Y-4993D01*
X514592Y-5049D01*
X514758Y-5132D01*
X514870Y-5160D01*
X514953Y-5187D01*
X515008Y-5215D01*
X515120D01*
X515147D01*
X515231Y-5187D01*
X515397Y-5160D01*
X515619Y-5076D01*
X515953Y-4965D01*
X516147Y-4882D01*
X516397Y-4771D01*
X516647Y-4660D01*
X516924Y-4521D01*
X517230Y-4382D01*
X517591Y-4188D01*
X517619D01*
X517647Y-4160D01*
X517785Y-4049D01*
X517980Y-3910D01*
X518202Y-3688D01*
X518396Y-3438D01*
X518591Y-3160D01*
X518730Y-2855D01*
X518785Y-2716D01*
Y-2161D01*
X518813Y-2105D01*
X518841D01*
X518868D01*
X519007Y-2133D01*
X519202Y-2161D01*
X519452Y-2188D01*
X519702Y-2244D01*
X519924Y-2272D01*
X520090Y-2299D01*
X520201Y-2327D01*
Y-2383D01*
X520229Y-2494D01*
X520257Y-2688D01*
Y-3133D01*
X520229Y-3244D01*
X520201Y-3382D01*
X520146Y-3577D01*
X520063Y-3771D01*
X519979Y-3993D01*
X519813Y-4243D01*
X519646Y-4493D01*
X519424Y-4771D01*
X519118Y-5049D01*
X518785Y-5354D01*
X518396Y-5632D01*
X517924Y-5910D01*
X517397Y-6187D01*
X516786Y-6437D01*
X516730Y-6465D01*
X516619Y-6493D01*
X516453Y-6576D01*
X516230Y-6659D01*
X515925Y-6770D01*
X515508Y-6937D01*
X515258Y-7048D01*
X514981Y-7131D01*
X514675Y-7270D01*
X514342Y-7381D01*
X513981Y-7520D01*
X513564Y-7687D01*
X513120Y-7853D01*
X512648Y-8020D01*
X512120Y-8242D01*
X511565Y-8437D01*
X510954Y-8659D01*
X510315Y-8909D01*
X509621Y-9159D01*
X508871Y-9436D01*
X508094Y-9742D01*
X507261Y-10047D01*
X506372Y-10380D01*
X505428Y-10741D01*
X505400Y-10714D01*
Y-8881D01*
X505428Y-8853D01*
X505483Y-8825D01*
X505594Y-8798D01*
X505761Y-8714D01*
X506039Y-8631D01*
X506233Y-8575D01*
X506427Y-8492D01*
X506650Y-8409D01*
X506927Y-8326D01*
X506983Y-8298D01*
X507094Y-8270D01*
X507316Y-8187D01*
X507566Y-8076D01*
X507899Y-7965D01*
X508288Y-7826D01*
X508705Y-7659D01*
X509177Y-7520D01*
X510176Y-7159D01*
X511204Y-6798D01*
X512231Y-6465D01*
X512731Y-6326D01*
X513176Y-6187D01*
X513203D01*
X513231D01*
X513259Y-6160D01*
X513287Y-6132D01*
Y-6076D01*
X513259D01*
X513203Y-6048D01*
X513120Y-6021D01*
X512981Y-5993D01*
X512815Y-5937D01*
X512565Y-5854D01*
X512231Y-5771D01*
X512176Y-5743D01*
X512093Y-5715D01*
X511981Y-5687D01*
X511815Y-5632D01*
X511621Y-5548D01*
X511343Y-5465D01*
X511010Y-5354D01*
X510593Y-5215D01*
X510121Y-5049D01*
X509565Y-4854D01*
X508927Y-4632D01*
X508205Y-4354D01*
X507399Y-4077D01*
X506455Y-3743D01*
X505955Y-3577D01*
X505428Y-3382D01*
X505400Y-3355D01*
Y-1522D01*
X505455D01*
X505483D01*
X505567Y-1550D01*
D02*
G37*
G36*
X523562Y19056D02*
Y-11186D01*
X524395Y-10853D01*
X524423D01*
Y-10880D01*
X524367Y-10992D01*
X524311Y-11130D01*
X524228Y-11325D01*
X524145Y-11547D01*
X524034Y-11797D01*
X523811Y-12324D01*
X523562Y-12880D01*
X523451Y-13130D01*
X523367Y-13380D01*
X523256Y-13574D01*
X523201Y-13713D01*
X523145Y-13824D01*
X523117Y-13880D01*
X523090D01*
Y-13852D01*
X523034Y-13769D01*
X522978Y-13630D01*
X522895Y-13435D01*
X522812Y-13213D01*
X522728Y-12963D01*
X522506Y-12436D01*
X522284Y-11908D01*
X522173Y-11630D01*
X522062Y-11408D01*
X521979Y-11214D01*
X521923Y-11047D01*
X521868Y-10908D01*
X521840Y-10853D01*
X522645Y-11158D01*
X522673D01*
Y19028D01*
X522701Y19056D01*
X522728Y19083D01*
X522784Y19111D01*
X523506D01*
X523534D01*
X523562Y19056D01*
D02*
G37*
G36*
X520007Y-11353D02*
X520035Y-11380D01*
X520090Y-11436D01*
X520174Y-11575D01*
X520285Y-11741D01*
X520424Y-11963D01*
X520590Y-12297D01*
X520618Y-12324D01*
X520701Y-12436D01*
X520757Y-12547D01*
X520785Y-12658D01*
Y-13546D01*
X520757Y-13574D01*
X520701D01*
X514925D01*
X514897D01*
X514870Y-13519D01*
Y-12436D01*
X514925Y-12408D01*
X519313D01*
Y-12352D01*
X518841Y-11575D01*
Y-11519D01*
X519979Y-11325D01*
X520007Y-11353D01*
D02*
G37*
D10*
X80700Y72200D02*
Y75052D01*
Y72200D02*
X80800Y72100D01*
X-31500Y58900D02*
X-29250Y56650D01*
X-18800Y29600D02*
Y46100D01*
X-29250Y56550D02*
Y56650D01*
Y56550D02*
X-18800Y46100D01*
X-67000Y58900D02*
X-31500D01*
X-18800Y29600D02*
X-300Y11100D01*
Y-12000D02*
Y11100D01*
X-11900Y-23600D02*
X-300Y-12000D01*
X-24100Y-23600D02*
X-11900D01*
X30906Y149874D02*
Y150000D01*
Y149874D02*
X30996Y149784D01*
X35827D01*
X30906Y138307D02*
Y138433D01*
X30996Y138524D01*
X35827D01*
X9252Y138307D02*
Y138433D01*
X9161Y138524D02*
X9252Y138433D01*
X4331Y138524D02*
X9161D01*
X9252Y149874D02*
Y150000D01*
X9161Y149784D02*
X9252Y149874D01*
X4331Y149784D02*
X9161D01*
X-66900Y41000D02*
X-33100D01*
X-33000Y41100D01*
X-67000D02*
X-66900Y41000D01*
X18641Y-15859D02*
X19493Y-16711D01*
X21440Y-18701D02*
X25354D01*
X19471Y-16732D02*
X21440Y-18701D01*
X19471Y-16732D02*
X25354D01*
X19917Y-12795D02*
X21886Y-14764D01*
X25354D01*
X18200Y-11078D02*
Y-11000D01*
Y-11078D02*
X19917Y-12795D01*
X25354D01*
X29153Y-2953D02*
X32100Y-5900D01*
X25354Y-2953D02*
X29153D01*
X29916Y984D02*
X32300Y-1400D01*
X25354Y984D02*
X29916D01*
X25354Y16732D02*
X29649D01*
X31417Y18500D01*
X31700D01*
X145000Y-62200D02*
Y-50000D01*
X166200Y-83400D02*
X389900D01*
X145000Y-62200D02*
X166200Y-83400D01*
X140000Y-45000D02*
X145000Y-50000D01*
X87839Y-32000D02*
X87939Y-31900D01*
X92500D01*
X87740Y-31902D02*
X87839Y-32000D01*
X51422Y-15457D02*
X84000D01*
X94900D01*
X113609Y71025D02*
X113699Y71116D01*
X113609Y69238D02*
X113699Y69147D01*
X107200Y71116D02*
X113699D01*
X98416D02*
X107200D01*
X113699Y69147D02*
X115274D01*
X108253D02*
X113699D01*
X107200Y70200D02*
Y71116D01*
Y70200D02*
X108253Y69147D01*
X113699Y71116D02*
X115274D01*
X94600Y67300D02*
X98416Y71116D01*
X94900Y-15457D02*
X117047D01*
X128463Y78163D02*
X128536Y78236D01*
X129364D02*
X129400Y78200D01*
X128536Y78236D02*
X129364D01*
X124526Y78163D02*
X128463D01*
X182482Y-2518D02*
X182500Y-2535D01*
X166018Y-2518D02*
X182482D01*
X166000Y-2500D02*
X166018Y-2518D01*
X34309Y-157909D02*
X35900Y-159500D01*
X34211Y-157909D02*
Y-153274D01*
X35900Y-159700D02*
Y-159500D01*
X31849Y-157323D02*
Y-153274D01*
X32435Y-157909D02*
X34211D01*
X31849Y-157323D02*
X32435Y-157909D01*
X21600Y-158200D02*
X22400Y-157400D01*
X17400Y-158200D02*
X21600D01*
X22400Y-157400D02*
Y-153274D01*
X50500Y-16000D02*
X50879D01*
X51422Y-15457D01*
X168100Y16900D02*
X168244Y16756D01*
X182500D01*
X527423Y8900D02*
X567000D01*
X533000Y-9300D02*
X548300D01*
Y-9200D02*
X567000D01*
Y-8900D01*
X548300Y-9300D02*
Y-9200D01*
X533000Y-9300D02*
Y-8900D01*
X-27300Y-58900D02*
X-27000Y-58600D01*
X-26800D01*
X-33000Y-58900D02*
X-27300D01*
X4152Y159100D02*
X4252Y159200D01*
X1300Y159100D02*
X4152D01*
X36248Y131000D02*
X36548Y130700D01*
X39200D01*
X-13000Y-8900D02*
X-7300D01*
X-7200Y-8800D01*
X94600Y21800D02*
Y67300D01*
X3700Y20361D02*
X4000Y20661D01*
X3700Y13800D02*
Y20361D01*
X124526Y66037D02*
X129663D01*
X129900Y65800D01*
X-67000Y-58900D02*
X-66700Y-59200D01*
X-49800D01*
X-49500Y-58900D02*
X-33000D01*
X-49800Y-59200D02*
X-49500Y-58900D01*
X-30400Y-8900D02*
X-13000D01*
X-47000D02*
X-30400D01*
X47100Y-88000D02*
X309800D01*
X46700Y-87600D02*
X47100Y-88000D01*
X310000Y-77400D02*
Y-55000D01*
X309800Y-77600D02*
X310000Y-77400D01*
X389900Y-83400D02*
X480000Y6700D01*
X87740Y-31902D02*
Y-22543D01*
X119504Y-13295D02*
Y-13000D01*
X118626Y-14173D02*
X119504Y-13295D01*
X118331Y-14173D02*
X118626D01*
X117047Y-15457D02*
X118331Y-14173D01*
X168541Y-13559D02*
X182500D01*
X168400Y-13700D02*
X168541Y-13559D01*
X168121Y221D02*
X182500D01*
X167900Y0D02*
X168121Y221D01*
X38542Y-142782D02*
X40918D01*
X41100Y-142600D01*
X3500Y-142800D02*
X3518Y-142782D01*
X6258D01*
D16*
X18696Y114014D02*
Y114362D01*
X19600Y115266D02*
Y134600D01*
X18696Y114362D02*
X19600Y115266D01*
X20800Y115314D02*
Y134700D01*
X21063Y134963D01*
X19094Y135106D02*
X19600Y134600D01*
X19094Y135106D02*
Y138307D01*
Y143407D01*
X21063Y134963D02*
Y138307D01*
X20800Y115314D02*
X21739Y114375D01*
X23031Y133168D02*
Y138307D01*
Y133168D02*
X25300Y130900D01*
X21739Y113888D02*
Y114375D01*
X33030Y-141739D02*
Y-136970D01*
X33800Y-136200D02*
X35384D01*
X33030Y-136970D02*
X33800Y-136200D01*
X35384D02*
X35392Y-136208D01*
X130000Y16600D02*
X130200Y16400D01*
X130000Y16600D02*
Y45000D01*
X51632Y9120D02*
X51752Y9000D01*
X39520Y9120D02*
X51632D01*
X36013Y6200D02*
X36500D01*
X29241Y11100D02*
X34570D01*
X35323Y6890D02*
X36013Y6200D01*
X34570Y11100D02*
X38600Y7070D01*
Y-8200D02*
Y7070D01*
X2300Y8300D02*
X8900Y14900D01*
X-16748Y-40548D02*
X2300Y-21500D01*
Y8300D01*
X8900Y14900D02*
X16287D01*
X21063Y138307D02*
X21129Y138373D01*
Y141804D01*
X21194Y141869D01*
X19094Y143407D02*
X21063Y145376D01*
Y150000D01*
X19029Y146503D02*
Y149934D01*
X19094Y150000D01*
X18963Y146438D02*
X19029Y146503D01*
X16387Y14800D02*
X25318D01*
X16287Y14900D02*
X16387Y14800D01*
X7700Y-32200D02*
X15100Y-39600D01*
X7700Y-32200D02*
Y7500D01*
X12995Y12795D01*
X9700Y-24200D02*
X25943Y-40443D01*
X9700Y7200D02*
X13327Y10827D01*
X9700Y-24200D02*
Y7200D01*
X17935Y-3835D02*
Y-1235D01*
X19021Y-4921D02*
X25354D01*
X17935Y-3835D02*
X19021Y-4921D01*
X17800Y-1100D02*
X17935Y-1235D01*
X11300Y-17500D02*
Y1400D01*
X15100Y5200D01*
X19510D01*
X13943Y6895D02*
X25349D01*
X13842Y6996D02*
X13943Y6895D01*
X16200Y3000D02*
X16247Y2953D01*
X25354D01*
X19510Y5200D02*
X19789Y4921D01*
X25297Y-1042D02*
X25354Y-984D01*
X17800Y-1100D02*
X17858Y-1042D01*
X25297D01*
X40400Y-10000D02*
X40700D01*
X42800Y-25700D02*
Y2849D01*
X43152Y3200D01*
X51552D01*
X46158Y-8482D02*
Y-2679D01*
X38600Y-8200D02*
X40400Y-10000D01*
X42800Y-25700D02*
X55000Y-37900D01*
X46158Y-2679D02*
X51431D01*
X13400Y-13587D02*
Y-1100D01*
X15201Y18701D02*
X25354D01*
X15100Y18600D02*
X15201Y18701D01*
X14947Y18600D02*
X15100D01*
X12995Y12795D02*
X25354D01*
X40195D01*
X11795Y21752D02*
X14947Y18600D01*
X-16748Y-73152D02*
X6800Y-96700D01*
X-16748Y-73152D02*
Y-55000D01*
X23581Y-141739D02*
Y-138081D01*
X19300Y-133800D02*
Y-96600D01*
Y-133800D02*
X23581Y-138081D01*
X21219Y-141739D02*
Y-138319D01*
X16600Y-133700D02*
Y-90700D01*
Y-133700D02*
X21219Y-138319D01*
X5000Y-63000D02*
X16600Y-74600D01*
Y-90700D02*
Y-74600D01*
X45209Y-20909D02*
X65000Y-40700D01*
Y-50000D02*
Y-40700D01*
X45209Y-20909D02*
Y-9431D01*
X55000Y-50200D02*
X59800Y-55000D01*
X55000Y-50200D02*
Y-37900D01*
X36113Y-36300D02*
X41200D01*
X45000Y-75500D02*
Y-40100D01*
X41200Y-36300D02*
X45000Y-40100D01*
X33900Y-86600D02*
X45000Y-75500D01*
X33900Y-127200D02*
Y-86600D01*
X30668Y-135232D02*
X36100Y-129800D01*
Y-96800D01*
X35392Y-136208D02*
X41000Y-130600D01*
Y-99000D01*
X48000Y-19000D02*
X130600D01*
X46657Y-17657D02*
X48000Y-19000D01*
X46657Y-17657D02*
Y-11643D01*
X29487Y-158587D02*
Y-153274D01*
Y-158587D02*
X31500Y-160600D01*
X23000Y-160800D02*
X24762Y-159038D01*
Y-153274D01*
X27112Y-153286D02*
X27124Y-153274D01*
X27112Y-161788D02*
Y-153286D01*
X27100Y-161800D02*
X27112Y-161788D01*
X21400Y-131800D02*
Y-70500D01*
X15100Y-64200D02*
X21400Y-70500D01*
X40195Y12795D02*
X42600Y15200D01*
X51552D02*
X51752Y15000D01*
X42600Y15200D02*
X51552D01*
X25354Y6890D02*
X35323D01*
X25354Y10827D02*
X28968D01*
X13327D02*
X25354D01*
X25505Y9009D02*
X31891D01*
X28968Y10827D02*
X29241Y11100D01*
X31891Y9009D02*
X31900Y9000D01*
X25354Y8858D02*
X25505Y9009D01*
X25409Y4866D02*
X31772D01*
X33338Y3300D02*
X33600D01*
X31772Y4866D02*
X33338Y3300D01*
X25354Y4921D02*
X25409Y4866D01*
X13400Y-13587D02*
X36113Y-36300D01*
X11300Y-17500D02*
X34600Y-40800D01*
X21692Y113935D02*
X21739Y113888D01*
X25318Y14800D02*
X25354Y14764D01*
X46657Y-11643D02*
X48500Y-9800D01*
X45209Y-9431D02*
X46158Y-8482D01*
X111100Y3000D02*
X119344Y11244D01*
X118200Y14000D02*
X182500D01*
X119344Y11244D02*
X182500D01*
X113200Y9000D02*
X118200Y14000D01*
X108500Y-3000D02*
X119700Y8200D01*
X182212D02*
X182500Y8488D01*
X119700Y8200D02*
X182212D01*
X58248Y9000D02*
X113200D01*
X112400Y15000D02*
X112700Y14700D01*
X58248Y3000D02*
X111100D01*
X58248Y15000D02*
X112400D01*
X11409Y28339D02*
X11500Y28248D01*
X60000Y70796D02*
Y72076D01*
Y70796D02*
X61078Y69718D01*
X290000Y55000D02*
Y68200D01*
X276652Y81548D02*
X290000Y68200D01*
X80700Y81548D02*
X276652D01*
X75248Y81600D02*
X80648D01*
X80700Y81548D01*
X60076Y81600D02*
X68752D01*
X60000Y81524D02*
X60076Y81600D01*
X60000Y81524D02*
Y138000D01*
X24900Y155600D02*
X42400D01*
X60000Y138000D01*
X15157Y138307D02*
Y150000D01*
X25000D02*
Y151050D01*
Y138307D02*
Y150000D01*
X24950Y151100D02*
Y155550D01*
Y151100D02*
X25000Y151050D01*
X24900Y155600D02*
X24950Y155550D01*
X15157Y150000D02*
Y155243D01*
X15000Y155400D02*
X15157Y155243D01*
X10748Y159200D02*
X16200D01*
X17126Y150000D02*
Y158274D01*
X16200Y159200D02*
X17126Y158274D01*
X29652Y130900D02*
X29752Y131000D01*
X25300Y130900D02*
X29652D01*
X-47000Y8900D02*
X-13000D01*
X48500Y-9800D02*
X51552D01*
X51752Y-10000D01*
X80161Y-32000D02*
X80260Y-31902D01*
Y-22543D01*
X58248Y-10000D02*
X105700D01*
X121100Y5400D01*
X58248Y-3000D02*
X108500D01*
X121100Y5400D02*
X179600D01*
X156576Y2976D02*
X182500D01*
X154500Y900D02*
X156576Y2976D01*
X126600Y900D02*
X154500D01*
X181089Y5732D02*
X182500D01*
X180700Y6121D02*
X181089Y5732D01*
X105300Y-50300D02*
X110000Y-55000D01*
X105300Y-50300D02*
Y-32800D01*
X34600Y-66100D02*
Y-40800D01*
X25943Y-141739D02*
Y-40443D01*
X15100Y-64200D02*
Y-39600D01*
X29700Y-71000D02*
X34600Y-66100D01*
X51431Y-2679D02*
X51752Y-3000D01*
X80000Y-45000D02*
Y-32161D01*
X80161Y-32000D01*
X65000Y-50000D02*
X70000Y-55000D01*
X51552Y3200D02*
X51752Y3000D01*
X59800Y-55000D02*
X60000D01*
X28306Y-132794D02*
X33900Y-127200D01*
X29700Y-126400D02*
Y-71000D01*
X4600Y-1600D02*
X5000Y-2000D01*
Y-63000D02*
Y-2000D01*
X35392Y-141739D02*
Y-136208D01*
X30668Y-141739D02*
Y-135232D01*
X-13000Y8900D02*
X-12800Y8700D01*
X-3400D01*
X-67000Y-41100D02*
X-33000D01*
X-31500D01*
X-21200Y-30800D01*
X-12800D01*
X20000Y-45000D02*
Y-39600D01*
X11500Y-31100D02*
X20000Y-39600D01*
X-10252Y-55000D02*
X0D01*
X-16748D02*
Y-40548D01*
X19789Y4921D02*
X25354D01*
X11500Y21752D02*
X11795D01*
X25349Y6895D02*
X25354Y6890D01*
X28306Y-141739D02*
Y-132794D01*
D17*
X119504Y-13000D02*
D03*
X126000D02*
D03*
X10748Y159200D02*
D03*
X4252D02*
D03*
X29752Y131000D02*
D03*
X36248D02*
D03*
X68752Y81600D02*
D03*
X75248D02*
D03*
X51752Y15000D02*
D03*
X58248D02*
D03*
X51752Y9000D02*
D03*
X58248D02*
D03*
X51752Y3000D02*
D03*
X58248D02*
D03*
X51752Y-3000D02*
D03*
X58248D02*
D03*
X51752Y-10000D02*
D03*
X58248D02*
D03*
X-10252Y-55000D02*
D03*
X-16748D02*
D03*
D18*
X567000Y8900D02*
D03*
X533000D02*
D03*
X567000Y-8900D02*
D03*
X533000D02*
D03*
X-33000Y58900D02*
D03*
X-67000D02*
D03*
X-33000Y41100D02*
D03*
X-67000D02*
D03*
X-13000Y8900D02*
D03*
X-47000D02*
D03*
X-13000Y-8900D02*
D03*
X-47000D02*
D03*
X-33000Y-41100D02*
D03*
X-67000D02*
D03*
X-33000Y-58900D02*
D03*
X-67000D02*
D03*
D19*
X124526Y78163D02*
D03*
Y66037D02*
D03*
X25354Y-18701D02*
D03*
Y-16732D02*
D03*
Y-14764D02*
D03*
Y-12795D02*
D03*
Y-10827D02*
D03*
Y-8858D02*
D03*
Y-6890D02*
D03*
Y-4921D02*
D03*
Y-2953D02*
D03*
Y-984D02*
D03*
Y984D02*
D03*
Y2953D02*
D03*
Y4921D02*
D03*
Y6890D02*
D03*
Y8858D02*
D03*
Y10827D02*
D03*
Y12795D02*
D03*
Y14764D02*
D03*
Y16732D02*
D03*
Y18701D02*
D03*
D20*
X115274Y75053D02*
D03*
Y69147D02*
D03*
Y71116D02*
D03*
Y73084D02*
D03*
D21*
X182500Y-13559D02*
D03*
Y-10803D02*
D03*
Y-8047D02*
D03*
Y-5291D02*
D03*
Y-2535D02*
D03*
Y221D02*
D03*
Y2976D02*
D03*
Y5732D02*
D03*
Y8488D02*
D03*
Y11244D02*
D03*
Y14000D02*
D03*
Y16756D02*
D03*
D22*
X9252Y150000D02*
D03*
Y138307D02*
D03*
X15157Y150000D02*
D03*
X17126D02*
D03*
X19094D02*
D03*
X21063D02*
D03*
X23031D02*
D03*
X25000D02*
D03*
X30906D02*
D03*
X15157Y138307D02*
D03*
X17126D02*
D03*
X19094D02*
D03*
X21063D02*
D03*
X23031D02*
D03*
X25000D02*
D03*
X30906D02*
D03*
D23*
X80700Y75052D02*
D03*
Y81548D02*
D03*
X11500Y28248D02*
D03*
Y21752D02*
D03*
D24*
X60000Y72076D02*
D03*
Y81524D02*
D03*
D25*
X22400Y-153274D02*
D03*
X20038D02*
D03*
X17676D02*
D03*
X15313D02*
D03*
X12951D02*
D03*
X24762D02*
D03*
X27124D02*
D03*
X29487D02*
D03*
X31849D02*
D03*
X34211D02*
D03*
X10589D02*
D03*
X9408Y-141739D02*
D03*
X11770D02*
D03*
X14132D02*
D03*
X16495D02*
D03*
X18857D02*
D03*
X21219D02*
D03*
X23581D02*
D03*
X25943D02*
D03*
X28306D02*
D03*
X30668D02*
D03*
X33030D02*
D03*
X35392D02*
D03*
D26*
X6258Y-142782D02*
D03*
X38542D02*
D03*
D27*
X4000Y28339D02*
D03*
Y20661D02*
D03*
D28*
X84000Y-15457D02*
D03*
X87740Y-22543D02*
D03*
X80260D02*
D03*
D29*
X87839Y-32000D02*
D03*
X80161D02*
D03*
D30*
X35984Y-27756D02*
D03*
Y27756D02*
D03*
D53*
X-5800Y63700D02*
X40000D01*
X42200Y65900D01*
X106700Y75053D02*
X115274D01*
X91553D02*
X106700D01*
X107403Y73084D02*
X115274D01*
X106700Y73787D02*
X107403Y73084D01*
X106700Y73787D02*
Y75053D01*
X3561Y20500D02*
X3700Y20361D01*
X-2900Y20500D02*
X3561D01*
X-8400Y26000D02*
X-2900Y20500D01*
X-8400Y26000D02*
Y61100D01*
X-5800Y63700D01*
X82500Y66000D02*
X91553Y75053D01*
D54*
X182500Y-8047D02*
X194253D01*
X199500Y-2800D02*
Y20600D01*
X194253Y-8047D02*
X199500Y-2800D01*
X100000Y36100D02*
X110200Y25900D01*
X100000Y36100D02*
Y45000D01*
X110200Y25900D02*
X117400D01*
X139800D02*
X140000Y26100D01*
X186900D02*
X193900Y19100D01*
X140000Y26100D02*
X186900D01*
X191109Y-5291D02*
X193900Y-2500D01*
Y19100D01*
X182500Y-5291D02*
X191109D01*
X190000Y30100D02*
Y45000D01*
Y30100D02*
X199500Y20600D01*
X126000Y-13000D02*
X126400Y-13400D01*
X133600D01*
X136197Y-10803D02*
X182500D01*
X133600Y-13400D02*
X136197Y-10803D01*
D55*
X19747Y36200D02*
X58928D01*
X60000Y45000D02*
X60100Y44900D01*
Y37372D02*
Y44900D01*
X58928Y36200D02*
X60100Y37372D01*
X11500Y28248D02*
X11795D01*
X19747Y36200D01*
X4000Y28339D02*
X11409D01*
X55200Y49800D02*
X60000Y45000D01*
X55200Y65996D02*
X60000Y70796D01*
X55200Y49800D02*
Y65996D01*
D56*
X4331Y144153D02*
D03*
X35827D02*
D03*
D57*
X4331Y149784D02*
D03*
X35827D02*
D03*
X4331Y138524D02*
D03*
X35827D02*
D03*
D58*
X340000Y-55000D02*
D03*
Y-45000D02*
D03*
X330000Y-55000D02*
D03*
Y-45000D02*
D03*
X320000Y-55000D02*
D03*
Y-45000D02*
D03*
X310000Y-55000D02*
D03*
Y-45000D02*
D03*
X300000Y-55000D02*
D03*
Y-45000D02*
D03*
X290000Y-55000D02*
D03*
Y-45000D02*
D03*
X280000Y-55000D02*
D03*
Y-45000D02*
D03*
X270000Y-55000D02*
D03*
Y-45000D02*
D03*
X260000Y-55000D02*
D03*
Y-45000D02*
D03*
X250000Y-55000D02*
D03*
Y-45000D02*
D03*
X240000Y-55000D02*
D03*
Y-45000D02*
D03*
X230000Y-55000D02*
D03*
Y-45000D02*
D03*
X220000Y-55000D02*
D03*
Y-45000D02*
D03*
X210000Y-55000D02*
D03*
Y-45000D02*
D03*
X200000Y-55000D02*
D03*
Y-45000D02*
D03*
X190000Y-55000D02*
D03*
Y-45000D02*
D03*
X180000Y-55000D02*
D03*
Y-45000D02*
D03*
X170000Y-55000D02*
D03*
Y-45000D02*
D03*
X160000Y-55000D02*
D03*
Y-45000D02*
D03*
X150000Y-55000D02*
D03*
Y-45000D02*
D03*
X140000Y-55000D02*
D03*
Y-45000D02*
D03*
X130000Y-55000D02*
D03*
Y-45000D02*
D03*
X120000Y-55000D02*
D03*
Y-45000D02*
D03*
X110000Y-55000D02*
D03*
Y-45000D02*
D03*
X100000Y-55000D02*
D03*
Y-45000D02*
D03*
X90000Y-55000D02*
D03*
Y-45000D02*
D03*
X80000Y-55000D02*
D03*
Y-45000D02*
D03*
X70000Y-55000D02*
D03*
Y-45000D02*
D03*
X60000Y-55000D02*
D03*
Y-45000D02*
D03*
X50000Y-55000D02*
D03*
Y-45000D02*
D03*
X40000Y-55000D02*
D03*
Y-45000D02*
D03*
X0Y-55000D02*
D03*
X10000Y-45000D02*
D03*
Y-55000D02*
D03*
X20000Y-45000D02*
D03*
Y-55000D02*
D03*
X30000Y-45000D02*
D03*
Y-55000D02*
D03*
Y45000D02*
D03*
Y55000D02*
D03*
X20000Y45000D02*
D03*
Y55000D02*
D03*
X10000Y45000D02*
D03*
Y55000D02*
D03*
X0Y45000D02*
D03*
X40000Y55000D02*
D03*
Y45000D02*
D03*
X50000Y55000D02*
D03*
Y45000D02*
D03*
X60000Y55000D02*
D03*
Y45000D02*
D03*
X70000Y55000D02*
D03*
Y45000D02*
D03*
X80000Y55000D02*
D03*
Y45000D02*
D03*
X90000Y55000D02*
D03*
Y45000D02*
D03*
X100000Y55000D02*
D03*
Y45000D02*
D03*
X110000Y55000D02*
D03*
Y45000D02*
D03*
X120000Y55000D02*
D03*
Y45000D02*
D03*
X130000Y55000D02*
D03*
Y45000D02*
D03*
X140000Y55000D02*
D03*
Y45000D02*
D03*
X150000Y55000D02*
D03*
Y45000D02*
D03*
X160000Y55000D02*
D03*
Y45000D02*
D03*
X170000Y55000D02*
D03*
Y45000D02*
D03*
X180000Y55000D02*
D03*
Y45000D02*
D03*
X190000Y55000D02*
D03*
Y45000D02*
D03*
X200000Y55000D02*
D03*
Y45000D02*
D03*
X210000Y55000D02*
D03*
Y45000D02*
D03*
X220000Y55000D02*
D03*
Y45000D02*
D03*
X230000Y55000D02*
D03*
Y45000D02*
D03*
X240000Y55000D02*
D03*
Y45000D02*
D03*
X250000Y55000D02*
D03*
Y45000D02*
D03*
X260000Y55000D02*
D03*
Y45000D02*
D03*
X270000Y55000D02*
D03*
Y45000D02*
D03*
X280000Y55000D02*
D03*
Y45000D02*
D03*
X290000Y55000D02*
D03*
Y45000D02*
D03*
X300000Y55000D02*
D03*
Y45000D02*
D03*
X310000Y55000D02*
D03*
Y45000D02*
D03*
X320000Y55000D02*
D03*
Y45000D02*
D03*
X330000Y55000D02*
D03*
Y45000D02*
D03*
X340000Y55000D02*
D03*
Y45000D02*
D03*
D59*
X0Y-45000D02*
D03*
Y55000D02*
D03*
D60*
X42200Y65900D02*
D03*
X82500Y66000D02*
D03*
X117400Y25900D02*
D03*
X139800D02*
D03*
D61*
X80800Y72100D02*
D03*
X39520Y9120D02*
D03*
X36500Y6200D02*
D03*
X-24100Y-23600D02*
D03*
X21194Y141869D02*
D03*
X18963Y146438D02*
D03*
X-50800Y41000D02*
D03*
X16287Y14900D02*
D03*
X18200Y-11000D02*
D03*
X13842Y6996D02*
D03*
X16200Y3000D02*
D03*
X17800Y-1100D02*
D03*
X32100Y-5900D02*
D03*
X32300Y-1400D02*
D03*
X46158Y-2679D02*
D03*
X42800Y3100D02*
D03*
X13400Y-1100D02*
D03*
X31700Y18500D02*
D03*
X15100Y18600D02*
D03*
X92500Y-31900D02*
D03*
X105300Y-32800D02*
D03*
X94900Y-15457D02*
D03*
X129400Y78200D02*
D03*
X166000Y-2500D02*
D03*
X35900Y-159700D02*
D03*
X31500Y-160600D02*
D03*
X23000Y-160800D02*
D03*
X27100Y-161800D02*
D03*
X16600Y-90700D02*
D03*
X19300Y-96600D02*
D03*
X41000Y-99000D02*
D03*
X50500Y-16000D02*
D03*
X48700Y15200D02*
D03*
X31900Y9000D02*
D03*
X33600Y3300D02*
D03*
X18641Y-15859D02*
D03*
X21739Y113888D02*
D03*
X18696Y114014D02*
D03*
X168100Y16900D02*
D03*
X527423Y8900D02*
D03*
X548300Y-9200D02*
D03*
X-26800Y-58600D02*
D03*
X1300Y159100D02*
D03*
X39200Y130700D02*
D03*
X-7200Y-8800D02*
D03*
X130600Y-19000D02*
D03*
X130200Y16400D02*
D03*
X3700Y13800D02*
D03*
X129900Y65800D02*
D03*
X94600Y21800D02*
D03*
X24900Y155600D02*
D03*
X15000Y155400D02*
D03*
X-49800Y-59200D02*
D03*
X-30400Y-8900D02*
D03*
X46700Y-87600D02*
D03*
X309800Y-88000D02*
D03*
Y-77600D02*
D03*
X480000Y6700D02*
D03*
X48500Y-9800D02*
D03*
X168400Y-13700D02*
D03*
X167900Y0D02*
D03*
X126600Y900D02*
D03*
X112700Y14700D02*
D03*
X40700Y-10000D02*
D03*
X6800Y-96700D02*
D03*
X36100Y-96800D02*
D03*
X4600Y-1600D02*
D03*
X41100Y-142600D02*
D03*
X3500Y-142800D02*
D03*
X17400Y-158200D02*
D03*
X-3400Y8700D02*
D03*
X-12800Y-30800D02*
D03*
X11500Y-31100D02*
D03*
X21400Y-131800D02*
D03*
X29700Y-126400D02*
D03*
M02*
