M48
;Layer_Color=6321
;FILE_FORMAT=2:5
INCH,LZ
;TYPE=PLATED
T1F00S00C0.01000
T2F00S00C0.01200
T4F00S00C0.03800
;TYPE=NON_PLATED
T5F00S00C0.02795
T6F00S00C0.12500
%
T01
X01174Y00259
X01398
X00825Y0066
X00422Y00659
T02
X00174Y-01582
X0023Y-01608
X00271Y-01618
X00315Y-01606
X00359Y-01597
X00411Y-01426
X00297Y-01264
X00214Y-01318
X00035Y-01428
X00068Y-00967
X00193Y-00966
X00166Y-00907
X00361Y-00968
X0041Y-0099
X00467Y-00876
X00115Y-00311
X-00128Y-00308
X-00241Y-00236
X-00268Y-00586
X-00498Y-00592
X00925Y-00319
X01053Y-00328
X03098Y-00776
Y-0088
X0527423Y00089
X05483Y-00092
X048Y00067
X01679Y0
X0166Y-00025
X01684Y-00137
X01681Y00169
X01302Y00164
X01266Y00009
X01306Y-0019
X00949Y-0015457
X00946Y00218
X01127Y00147
X01299Y00658
X01294Y00782
X00808Y00721
X00505Y-0016
X00485Y-00098
X00407Y-001
X00321Y-00059
X00323Y-00014
X00336Y00033
X00365Y00062
X003952Y000912
X00319Y0009
X00317Y00185
X00151Y00186
X0016287Y00149
X0013842Y0006996
X00162Y0003
X00178Y-00011
X00134
X00046Y-00016
X00037Y00138
X-00034Y00087
X-00072Y-00088
X-00304Y-00089
X00182Y-0011
X0018641Y-0015859
X0046158Y-0002679
X00428Y00031
X00487Y00152
X00392Y01307
X0021739Y0113888
X0018696Y0114014
X-00508Y0041
X00013Y01591
X0015Y01554
X00249Y01556
X0018963Y0146438
X0021194Y0141869
T04
X0Y-0055
Y-0045
X001
Y-0055
X002
Y-0045
X003
X004
Y-0055
X003
X005
X006
X007
X008
X009
X01
X011
X012
X013
X014
X015
X016
X017
X018
X019
X02
Y-0045
X019
X018
X017
X016
X015
X014
X013
X012
X011
X01
X009
X008
X007
X006
X005
X021
X022
X023
X024
X025
X026
X027
X028
X029
X03
X031
X032
X033
X034
Y-0055
X033
X032
X031
X03
X029
X028
X027
X026
X025
X024
X023
X022
X021
Y0045
Y0055
X022
Y0045
X023
Y0055
X024
Y0045
X025
Y0055
X026
Y0045
X027
Y0055
X028
Y0045
X029
Y0055
X03
Y0045
X031
Y0055
X032
Y0045
X033
Y0055
X034
Y0045
X02
X019
X018
X017
X016
X015
X014
X013
X012
X011
X01
X009
X008
X007
X006
X005
Y0055
X006
X007
X008
X009
X01
X011
X012
X013
X014
X015
X016
X017
X018
X019
X02
X004
X003
Y0045
X002
Y0055
X001
Y0045
X0
Y0055
X004Y0045
T05
X0004331Y0144153
X0035827
T06
X00009Y-007445
X03409
Y007455
X00009
M30
