G04*
G04 #@! TF.GenerationSoftware,Altium Limited,Altium Designer,23.4.1 (23)*
G04*
G04 Layer_Physical_Order=2*
G04 Layer_Color=11436288*
%FSLAX25Y25*%
%MOIN*%
G70*
G04*
G04 #@! TF.SameCoordinates,ACA3CFB4-5D02-48E1-8893-3A58BFC83F0D*
G04*
G04*
G04 #@! TF.FilePolarity,Positive*
G04*
G01*
G75*
%ADD10C,0.01000*%
%ADD16C,0.00600*%
%ADD53C,0.01200*%
%ADD54C,0.01600*%
%ADD56C,0.02795*%
%ADD57O,0.06299X0.04331*%
%ADD58C,0.06000*%
%ADD59R,0.06200X0.06200*%
%ADD60C,0.02000*%
%ADD61C,0.02400*%
G36*
X114243Y114243D02*
X114590Y114011D01*
X115000Y113929D01*
X235000Y113929D01*
X235410Y114011D01*
X235757Y114243D01*
X235989Y114590D01*
X236071Y115000D01*
Y125000D01*
X235989Y125410D01*
X235757Y125757D01*
X218046Y143467D01*
X218238Y143929D01*
X294557D01*
X324243Y114243D01*
X324590Y114011D01*
X325000Y113929D01*
X325000Y113929D01*
X504557D01*
X523929Y94557D01*
Y85443D01*
X519557Y81071D01*
X515000D01*
X515000Y81071D01*
X514590Y80989D01*
X514243Y80757D01*
X509243Y75757D01*
X509011Y75410D01*
X508929Y75000D01*
X509011Y74590D01*
X509243Y74243D01*
X509590Y74011D01*
X510000Y73929D01*
X539557D01*
X548486Y65000D01*
X539557Y56071D01*
X510000D01*
X509590Y55989D01*
X509243Y55757D01*
X509011Y55410D01*
X508929Y55000D01*
X509011Y54590D01*
X509243Y54243D01*
X514243Y49243D01*
X514590Y49011D01*
X515000Y48929D01*
X515000Y48929D01*
X519557D01*
X523929Y44556D01*
Y25000D01*
X524011Y24590D01*
X524243Y24243D01*
X524590Y24011D01*
X525000Y23929D01*
X564557D01*
X588486Y0D01*
X564557Y-23929D01*
X525000D01*
X524590Y-24011D01*
X524243Y-24243D01*
X524011Y-24590D01*
X523929Y-25000D01*
Y-44556D01*
X519557Y-48929D01*
X515000D01*
X515000Y-48929D01*
X514590Y-49011D01*
X514243Y-49243D01*
X509243Y-54243D01*
X509011Y-54590D01*
X508929Y-55000D01*
X509011Y-55410D01*
X509243Y-55757D01*
X509590Y-55989D01*
X510000Y-56071D01*
X539557D01*
X548486Y-65000D01*
X539557Y-73929D01*
X510000D01*
X509590Y-74011D01*
X509243Y-74243D01*
X509011Y-74590D01*
X508929Y-75000D01*
X509011Y-75410D01*
X509243Y-75757D01*
X514243Y-80757D01*
X514590Y-80989D01*
X515000Y-81071D01*
X515000Y-81071D01*
X519557D01*
X523929Y-85443D01*
Y-94557D01*
X504557Y-113929D01*
X325000D01*
X325000Y-113929D01*
X324590Y-114011D01*
X324243Y-114243D01*
X294557Y-143929D01*
X218238D01*
X218046Y-143467D01*
X235757Y-125757D01*
X235989Y-125410D01*
X236071Y-125000D01*
Y-115000D01*
X235989Y-114590D01*
X235757Y-114243D01*
X235410Y-114011D01*
X235000Y-113929D01*
X115000D01*
X115000Y-113929D01*
X114590Y-114011D01*
X114243Y-114243D01*
X114243Y-114243D01*
X59557Y-168929D01*
X-66762D01*
X-66953Y-168467D01*
X-19243Y-120757D01*
X-19011Y-120410D01*
X-18929Y-120000D01*
X-18929Y-120000D01*
Y-110000D01*
X-19011Y-109590D01*
X-19243Y-109243D01*
X-19590Y-109011D01*
X-20000Y-108929D01*
X-39557D01*
X-48929Y-99557D01*
Y-85000D01*
X-49011Y-84590D01*
X-49243Y-84243D01*
X-49243Y-84243D01*
X-64243Y-69243D01*
X-64590Y-69011D01*
X-65000Y-68929D01*
X-79557D01*
X-88929Y-59557D01*
Y-40444D01*
X-79557Y-31071D01*
X-70000D01*
X-69590Y-30989D01*
X-69243Y-30757D01*
X-59243Y-20757D01*
X-59243Y-20757D01*
X-59011Y-20410D01*
X-58929Y-20000D01*
X-58929Y-20000D01*
Y20000D01*
X-58929Y20000D01*
X-59011Y20410D01*
X-59243Y20757D01*
X-59243Y20757D01*
X-69243Y30757D01*
X-69590Y30989D01*
X-70000Y31071D01*
X-84557D01*
X-88929Y35443D01*
Y64557D01*
X-84557Y68929D01*
X-65000D01*
X-64590Y69011D01*
X-64243Y69243D01*
X-49243Y84243D01*
X-49243Y84243D01*
X-49011Y84590D01*
X-48929Y85000D01*
Y99557D01*
X-39557Y108929D01*
X-20000D01*
X-19590Y109011D01*
X-19243Y109243D01*
X-19011Y109590D01*
X-18929Y110000D01*
Y120000D01*
X-18929Y120000D01*
X-19011Y120410D01*
X-19243Y120757D01*
X-66953Y168467D01*
X-66762Y168929D01*
X59557D01*
X114243Y114243D01*
D02*
G37*
%LPC*%
G36*
X1800Y161274D02*
Y159600D01*
X3474D01*
X3165Y160346D01*
X2546Y160965D01*
X1800Y161274D01*
D02*
G37*
G36*
X800D02*
X54Y160965D01*
X-565Y160346D01*
X-874Y159600D01*
X800D01*
Y161274D01*
D02*
G37*
G36*
X3474Y158600D02*
X1800D01*
Y156926D01*
X2546Y157235D01*
X3165Y157854D01*
X3474Y158600D01*
D02*
G37*
G36*
X800D02*
X-874D01*
X-565Y157854D01*
X54Y157235D01*
X800Y156926D01*
Y158600D01*
D02*
G37*
G36*
X25338Y157800D02*
X24462D01*
X23654Y157465D01*
X23035Y156846D01*
X22985Y156726D01*
X16786D01*
X16246Y157265D01*
X15438Y157600D01*
X14562D01*
X13754Y157265D01*
X13135Y156646D01*
X12800Y155838D01*
Y154962D01*
X13135Y154154D01*
X13754Y153535D01*
X14562Y153200D01*
X15438D01*
X16246Y153535D01*
X16786Y154075D01*
X23314D01*
X23654Y153735D01*
X24462Y153400D01*
X25338D01*
X26146Y153735D01*
X26765Y154354D01*
X27100Y155162D01*
Y156038D01*
X26765Y156846D01*
X26146Y157465D01*
X25338Y157800D01*
D02*
G37*
G36*
X36811Y152976D02*
X36327D01*
Y150284D01*
X39938D01*
X39895Y150610D01*
X39576Y151380D01*
X39069Y152041D01*
X38407Y152548D01*
X37637Y152867D01*
X36811Y152976D01*
D02*
G37*
G36*
X35327D02*
X34843D01*
X34016Y152867D01*
X33246Y152548D01*
X32585Y152041D01*
X32078Y151380D01*
X31759Y150610D01*
X31716Y150284D01*
X35327D01*
Y152976D01*
D02*
G37*
G36*
X5315D02*
X4831D01*
Y150284D01*
X8442D01*
X8399Y150610D01*
X8080Y151380D01*
X7572Y152041D01*
X6911Y152548D01*
X6141Y152867D01*
X5315Y152976D01*
D02*
G37*
G36*
X3831D02*
X3347D01*
X2520Y152867D01*
X1750Y152548D01*
X1089Y152041D01*
X581Y151380D01*
X263Y150610D01*
X220Y150284D01*
X3831D01*
Y152976D01*
D02*
G37*
G36*
X19401Y148638D02*
X18525D01*
X17717Y148303D01*
X17098Y147684D01*
X16763Y146875D01*
Y146000D01*
X17098Y145191D01*
X17717Y144573D01*
X17888Y144502D01*
Y143851D01*
X17989Y143343D01*
X18276Y142913D01*
X18994Y142195D01*
Y141432D01*
X19329Y140623D01*
X19948Y140004D01*
X20757Y139670D01*
X21632D01*
X22441Y140004D01*
X23060Y140623D01*
X23394Y141432D01*
Y142307D01*
X23060Y143116D01*
X22441Y143735D01*
X21632Y144070D01*
X20869D01*
X20539Y144400D01*
Y144902D01*
X20828Y145191D01*
X21163Y146000D01*
Y146875D01*
X20828Y147684D01*
X20209Y148303D01*
X19401Y148638D01*
D02*
G37*
G36*
X39938Y149284D02*
X31716D01*
X31759Y148957D01*
X32078Y148187D01*
X32585Y147526D01*
X33246Y147019D01*
X34016Y146700D01*
X34309Y146661D01*
X34406Y146372D01*
X34424Y146142D01*
X33794Y145512D01*
X33429Y144631D01*
Y143677D01*
X33794Y142795D01*
X34424Y142166D01*
X34406Y141935D01*
X34309Y141646D01*
X34016Y141607D01*
X33246Y141288D01*
X32585Y140781D01*
X32078Y140120D01*
X31759Y139350D01*
X31716Y139024D01*
X39938D01*
X39895Y139350D01*
X39576Y140120D01*
X39069Y140781D01*
X38407Y141288D01*
X37637Y141607D01*
X37345Y141646D01*
X37248Y141935D01*
X37229Y142166D01*
X37859Y142795D01*
X38224Y143677D01*
Y144631D01*
X37859Y145512D01*
X37229Y146142D01*
X37248Y146372D01*
X37345Y146661D01*
X37637Y146700D01*
X38407Y147019D01*
X39069Y147526D01*
X39576Y148187D01*
X39895Y148957D01*
X39938Y149284D01*
D02*
G37*
G36*
X8442D02*
X220D01*
X263Y148957D01*
X581Y148187D01*
X1089Y147526D01*
X1750Y147019D01*
X2520Y146700D01*
X2813Y146661D01*
X2910Y146372D01*
X2928Y146142D01*
X2298Y145512D01*
X1933Y144631D01*
Y143677D01*
X2298Y142795D01*
X2928Y142166D01*
X2910Y141935D01*
X2813Y141646D01*
X2520Y141607D01*
X1750Y141288D01*
X1089Y140781D01*
X581Y140120D01*
X263Y139350D01*
X220Y139024D01*
X8442D01*
X8399Y139350D01*
X8080Y140120D01*
X7572Y140781D01*
X6911Y141288D01*
X6141Y141607D01*
X5849Y141646D01*
X5751Y141935D01*
X5733Y142166D01*
X6363Y142795D01*
X6728Y143677D01*
Y144631D01*
X6363Y145512D01*
X5733Y146142D01*
X5751Y146372D01*
X5849Y146661D01*
X6141Y146700D01*
X6911Y147019D01*
X7572Y147526D01*
X8080Y148187D01*
X8399Y148957D01*
X8442Y149284D01*
D02*
G37*
G36*
X39938Y138024D02*
X36327D01*
Y135331D01*
X36811D01*
X37637Y135440D01*
X38407Y135759D01*
X39069Y136266D01*
X39576Y136927D01*
X39895Y137697D01*
X39938Y138024D01*
D02*
G37*
G36*
X35327D02*
X31716D01*
X31759Y137697D01*
X32078Y136927D01*
X32585Y136266D01*
X33246Y135759D01*
X34016Y135440D01*
X34843Y135331D01*
X35327D01*
Y138024D01*
D02*
G37*
G36*
X8442D02*
X4831D01*
Y135331D01*
X5315D01*
X6141Y135440D01*
X6911Y135759D01*
X7572Y136266D01*
X8080Y136927D01*
X8399Y137697D01*
X8442Y138024D01*
D02*
G37*
G36*
X3831D02*
X220D01*
X263Y137697D01*
X581Y136927D01*
X1089Y136266D01*
X1750Y135759D01*
X2520Y135440D01*
X3347Y135331D01*
X3831D01*
Y138024D01*
D02*
G37*
G36*
X39700Y132874D02*
Y131200D01*
X41374D01*
X41065Y131946D01*
X40446Y132565D01*
X39700Y132874D01*
D02*
G37*
G36*
X38700D02*
X37954Y132565D01*
X37335Y131946D01*
X37026Y131200D01*
X38700D01*
Y132874D01*
D02*
G37*
G36*
X41374Y130200D02*
X39700D01*
Y128526D01*
X40446Y128835D01*
X41065Y129454D01*
X41374Y130200D01*
D02*
G37*
G36*
X38700D02*
X37026D01*
X37335Y129454D01*
X37954Y128835D01*
X38700Y128526D01*
Y130200D01*
D02*
G37*
G36*
X129900Y80374D02*
Y78700D01*
X131574D01*
X131265Y79446D01*
X130646Y80065D01*
X129900Y80374D01*
D02*
G37*
G36*
X128900D02*
X128154Y80065D01*
X127535Y79446D01*
X127226Y78700D01*
X128900D01*
Y80374D01*
D02*
G37*
G36*
X131574Y77700D02*
X129900D01*
Y76026D01*
X130646Y76335D01*
X131265Y76954D01*
X131574Y77700D01*
D02*
G37*
G36*
X128900D02*
X127226D01*
X127535Y76954D01*
X128154Y76335D01*
X128900Y76026D01*
Y77700D01*
D02*
G37*
G36*
X81300Y74274D02*
Y72600D01*
X82974D01*
X82665Y73346D01*
X82046Y73965D01*
X81300Y74274D01*
D02*
G37*
G36*
X80300D02*
X79554Y73965D01*
X78935Y73346D01*
X78626Y72600D01*
X80300D01*
Y74274D01*
D02*
G37*
G36*
X82974Y71600D02*
X81300D01*
Y69926D01*
X82046Y70235D01*
X82665Y70854D01*
X82974Y71600D01*
D02*
G37*
G36*
X80300D02*
X78626D01*
X78935Y70854D01*
X79554Y70235D01*
X80300Y69926D01*
Y71600D01*
D02*
G37*
G36*
X82898Y68000D02*
X82102D01*
X81367Y67695D01*
X81303Y67631D01*
X43246D01*
X42598Y67900D01*
X41802D01*
X41067Y67595D01*
X40505Y67033D01*
X40200Y66298D01*
Y65502D01*
X40505Y64767D01*
X41067Y64205D01*
X41802Y63900D01*
X42598D01*
X43333Y64205D01*
X43497Y64369D01*
X81303D01*
X81367Y64305D01*
X82102Y64000D01*
X82898D01*
X83633Y64305D01*
X84196Y64867D01*
X84500Y65602D01*
Y66398D01*
X84196Y67133D01*
X83633Y67695D01*
X82898Y68000D01*
D02*
G37*
G36*
X341614Y81800D02*
X340186D01*
X338785Y81521D01*
X337466Y80975D01*
X336278Y80181D01*
X335269Y79172D01*
X334475Y77984D01*
X333929Y76665D01*
X333650Y75264D01*
Y73836D01*
X333929Y72435D01*
X334475Y71116D01*
X335269Y69928D01*
X336278Y68919D01*
X337466Y68125D01*
X338785Y67579D01*
X340186Y67300D01*
X341614D01*
X343015Y67579D01*
X344334Y68125D01*
X345522Y68919D01*
X346531Y69928D01*
X347325Y71116D01*
X347871Y72435D01*
X348150Y73836D01*
Y75264D01*
X347871Y76665D01*
X347325Y77984D01*
X346531Y79172D01*
X345522Y80181D01*
X344334Y80975D01*
X343015Y81521D01*
X341614Y81800D01*
D02*
G37*
G36*
X1614D02*
X186D01*
X-1215Y81521D01*
X-2534Y80975D01*
X-3722Y80181D01*
X-4731Y79172D01*
X-5525Y77984D01*
X-6071Y76665D01*
X-6350Y75264D01*
Y73836D01*
X-6071Y72435D01*
X-5525Y71116D01*
X-4731Y69928D01*
X-3722Y68919D01*
X-2534Y68125D01*
X-1215Y67579D01*
X186Y67300D01*
X1614D01*
X3015Y67579D01*
X4334Y68125D01*
X5522Y68919D01*
X6531Y69928D01*
X7325Y71116D01*
X7871Y72435D01*
X8150Y73836D01*
Y75264D01*
X7871Y76665D01*
X7325Y77984D01*
X6531Y79172D01*
X5522Y80181D01*
X4334Y80975D01*
X3015Y81521D01*
X1614Y81800D01*
D02*
G37*
G36*
X130400Y67974D02*
Y66300D01*
X132074D01*
X131765Y67046D01*
X131146Y67665D01*
X130400Y67974D01*
D02*
G37*
G36*
X129400D02*
X128654Y67665D01*
X128035Y67046D01*
X127726Y66300D01*
X129400D01*
Y67974D01*
D02*
G37*
G36*
X132074Y65300D02*
X130400D01*
Y63626D01*
X131146Y63935D01*
X131765Y64554D01*
X132074Y65300D01*
D02*
G37*
G36*
X129400D02*
X127726D01*
X128035Y64554D01*
X128654Y63935D01*
X129400Y63626D01*
Y65300D01*
D02*
G37*
G36*
X19134Y116214D02*
X18259D01*
X17450Y115879D01*
X16831Y115260D01*
X16496Y114452D01*
Y113576D01*
X16831Y112768D01*
X17450Y112149D01*
X18259Y111814D01*
X18274D01*
Y107003D01*
X18375Y106496D01*
X18663Y106066D01*
X23175Y101554D01*
Y58136D01*
X22713Y57944D01*
X22456Y58201D01*
X21544Y58727D01*
X20527Y59000D01*
X19473D01*
X18456Y58727D01*
X17544Y58201D01*
X16799Y57456D01*
X16273Y56544D01*
X16000Y55527D01*
Y54473D01*
X16273Y53456D01*
X16799Y52544D01*
X17544Y51799D01*
X18456Y51273D01*
X19473Y51000D01*
X20527D01*
X21544Y51273D01*
X22456Y51799D01*
X22713Y52056D01*
X23175Y51864D01*
Y48136D01*
X22713Y47944D01*
X22456Y48201D01*
X21544Y48727D01*
X20527Y49000D01*
X19473D01*
X18456Y48727D01*
X17544Y48201D01*
X16799Y47456D01*
X16273Y46544D01*
X16000Y45527D01*
Y44473D01*
X16273Y43456D01*
X16799Y42544D01*
X17544Y41799D01*
X18456Y41273D01*
X19473Y41000D01*
X20527D01*
X21544Y41273D01*
X22456Y41799D01*
X22713Y42056D01*
X23175Y41864D01*
Y32003D01*
X23275Y31496D01*
X23563Y31066D01*
X43603Y11026D01*
X43396Y10526D01*
X41225D01*
X40766Y10985D01*
X39957Y11320D01*
X39082D01*
X38274Y10985D01*
X37714Y10425D01*
X33586D01*
X33146Y10865D01*
X32338Y11200D01*
X31462D01*
X30654Y10865D01*
X30035Y10246D01*
X29700Y9438D01*
Y8562D01*
X30035Y7754D01*
X30654Y7135D01*
X31462Y6800D01*
X32338D01*
X33146Y7135D01*
X33765Y7754D01*
X33774Y7774D01*
X34310D01*
X34564Y7275D01*
X34300Y6638D01*
Y5932D01*
X34137Y5663D01*
X33867Y5500D01*
X33162D01*
X32354Y5165D01*
X31735Y4546D01*
X31400Y3738D01*
Y2862D01*
X31735Y2054D01*
X32354Y1435D01*
X32680Y1300D01*
X32580Y800D01*
X31862D01*
X31054Y465D01*
X30435Y-154D01*
X30126Y-900D01*
X34474D01*
X34165Y-154D01*
X33546Y465D01*
X33220Y600D01*
X33320Y1100D01*
X33926D01*
X38642Y-3616D01*
X39072Y-3903D01*
X39579Y-4004D01*
X44372D01*
X44912Y-4544D01*
X45720Y-4879D01*
X46595D01*
X47404Y-4544D01*
X48023Y-3925D01*
X48358Y-3116D01*
Y-2241D01*
X48023Y-1433D01*
X47404Y-814D01*
X46595Y-479D01*
X45720D01*
X44912Y-814D01*
X44372Y-1353D01*
X40128D01*
X35800Y2974D01*
Y3568D01*
X35963Y3837D01*
X36233Y4000D01*
X36938D01*
X37746Y4335D01*
X38286Y4874D01*
X39151D01*
X40600Y3426D01*
Y2662D01*
X40935Y1854D01*
X41554Y1235D01*
X42362Y900D01*
X43238D01*
X44046Y1235D01*
X44665Y1854D01*
X45000Y2662D01*
Y3538D01*
X44665Y4346D01*
X44046Y4965D01*
X43238Y5300D01*
X42474D01*
X40969Y6805D01*
X40766Y7255D01*
X41385Y7874D01*
X41385Y7875D01*
X43451D01*
X51474Y-149D01*
Y-13572D01*
X51059Y-13850D01*
X50938Y-13800D01*
X50062D01*
X49254Y-14135D01*
X48635Y-14754D01*
X48300Y-15562D01*
Y-16037D01*
X46966Y-17371D01*
X22034D01*
X20841Y-16179D01*
Y-15421D01*
X20506Y-14612D01*
X19888Y-13994D01*
X19079Y-13659D01*
X18837D01*
X18738Y-13159D01*
X19446Y-12865D01*
X20065Y-12246D01*
X20400Y-11438D01*
Y-10562D01*
X20065Y-9754D01*
X19446Y-9135D01*
X18638Y-8800D01*
X17762D01*
X16954Y-9135D01*
X16518Y-9571D01*
X8234D01*
X2429Y-3766D01*
Y-3248D01*
X2929Y-3041D01*
X3354Y-3465D01*
X4162Y-3800D01*
X4925D01*
X5763Y-4637D01*
X6193Y-4925D01*
X6700Y-5026D01*
X21300D01*
X21807Y-4925D01*
X22237Y-4637D01*
X24137Y-2737D01*
X24425Y-2307D01*
X24525Y-1800D01*
Y13500D01*
X24425Y14007D01*
X24137Y14437D01*
X19037Y19537D01*
X18607Y19825D01*
X18100Y19926D01*
X16886D01*
X16346Y20465D01*
X15538Y20800D01*
X14662D01*
X13854Y20465D01*
X13235Y19846D01*
X12900Y19038D01*
Y18162D01*
X13235Y17354D01*
X13854Y16735D01*
X14172Y16603D01*
X14422Y16146D01*
X14370Y16021D01*
X14087Y15338D01*
Y14462D01*
X14422Y13654D01*
X14918Y13158D01*
Y9381D01*
X14502Y9104D01*
X14279Y9196D01*
X13404D01*
X12596Y8861D01*
X11977Y8242D01*
X11642Y7434D01*
Y6558D01*
X11977Y5750D01*
X12075Y5652D01*
Y686D01*
X11535Y146D01*
X11200Y-662D01*
Y-1538D01*
X11340Y-1874D01*
X11005Y-2375D01*
X7249D01*
X6800Y-1925D01*
Y-1162D01*
X6465Y-354D01*
X5846Y265D01*
X5038Y600D01*
X4162D01*
X3354Y265D01*
X2929Y-159D01*
X2429Y48D01*
Y10367D01*
X3663Y11600D01*
X4138D01*
X4946Y11935D01*
X5565Y12554D01*
X5900Y13362D01*
Y14238D01*
X5565Y15046D01*
X4946Y15665D01*
X4138Y16000D01*
X3262D01*
X2454Y15665D01*
X1835Y15046D01*
X1500Y14238D01*
Y13763D01*
X-181Y12081D01*
X-513Y11585D01*
X-629Y11000D01*
Y-4400D01*
X-513Y-4985D01*
X-181Y-5481D01*
X6519Y-12181D01*
X7015Y-12513D01*
X7600Y-12629D01*
X16718D01*
X16954Y-12865D01*
X17762Y-13200D01*
X18004D01*
X18104Y-13700D01*
X17395Y-13994D01*
X16776Y-14612D01*
X16441Y-15421D01*
Y-16296D01*
X16776Y-17105D01*
X17395Y-17724D01*
X18204Y-18059D01*
X18396D01*
X20319Y-19981D01*
X20815Y-20313D01*
X21400Y-20429D01*
X47600D01*
X48185Y-20313D01*
X48681Y-19981D01*
X50463Y-18200D01*
X50938D01*
X51059Y-18150D01*
X51474Y-18428D01*
Y-20151D01*
X44363Y-27263D01*
X44075Y-27693D01*
X43975Y-28200D01*
Y-42884D01*
X43475Y-43018D01*
X43201Y-42544D01*
X42456Y-41799D01*
X41544Y-41273D01*
X40527Y-41000D01*
X39473D01*
X38456Y-41273D01*
X37544Y-41799D01*
X36799Y-42544D01*
X36273Y-43456D01*
X36000Y-44473D01*
Y-45527D01*
X36273Y-46544D01*
X36799Y-47456D01*
X37544Y-48201D01*
X38456Y-48727D01*
X39473Y-49000D01*
X40527D01*
X41544Y-48727D01*
X42456Y-48201D01*
X43201Y-47456D01*
X43475Y-46982D01*
X43975Y-47116D01*
Y-50300D01*
X44075Y-50807D01*
X44363Y-51237D01*
X46386Y-53260D01*
X46273Y-53456D01*
X46000Y-54473D01*
Y-55527D01*
X46273Y-56544D01*
X46799Y-57456D01*
X47544Y-58201D01*
X48456Y-58727D01*
X48674Y-58786D01*
Y-68675D01*
X48175Y-68724D01*
X48113Y-68415D01*
X47781Y-67919D01*
X41381Y-61519D01*
X40885Y-61187D01*
X40300Y-61071D01*
X-5666D01*
X-22571Y-44166D01*
Y-25182D01*
X-22235Y-24846D01*
X-21900Y-24038D01*
Y-23162D01*
X-22235Y-22354D01*
X-22854Y-21735D01*
X-23662Y-21400D01*
X-24538D01*
X-25346Y-21735D01*
X-25965Y-22354D01*
X-26300Y-23162D01*
Y-24038D01*
X-25965Y-24846D01*
X-25629Y-25182D01*
Y-44800D01*
X-25513Y-45385D01*
X-25181Y-45881D01*
X-7381Y-63681D01*
X-6885Y-64013D01*
X-6300Y-64129D01*
X39667D01*
X45171Y-69634D01*
Y-86018D01*
X44835Y-86354D01*
X44500Y-87162D01*
Y-88038D01*
X44835Y-88846D01*
X45454Y-89465D01*
X46262Y-89800D01*
X47138D01*
X47946Y-89465D01*
X48175Y-89237D01*
X48674Y-89444D01*
Y-97651D01*
X26163Y-120163D01*
X25875Y-120593D01*
X25774Y-121100D01*
Y-133593D01*
X25275Y-133800D01*
X23600Y-132125D01*
Y-131362D01*
X23265Y-130554D01*
X22646Y-129935D01*
X21838Y-129600D01*
X20962D01*
X20154Y-129935D01*
X19535Y-130554D01*
X19200Y-131362D01*
Y-132238D01*
X19535Y-133046D01*
X20154Y-133665D01*
X20962Y-134000D01*
X21725D01*
X23374Y-135649D01*
Y-158551D01*
X23325Y-158600D01*
X22562D01*
X21754Y-158935D01*
X21135Y-159554D01*
X20800Y-160362D01*
Y-161238D01*
X21135Y-162046D01*
X21754Y-162665D01*
X22562Y-163000D01*
X23438D01*
X24246Y-162665D01*
X24451Y-162460D01*
X25041Y-162578D01*
X25235Y-163046D01*
X25854Y-163665D01*
X26662Y-164000D01*
X27538D01*
X28346Y-163665D01*
X28965Y-163046D01*
X29300Y-162238D01*
Y-162218D01*
X29800Y-162011D01*
X30254Y-162465D01*
X31062Y-162800D01*
X31938D01*
X32746Y-162465D01*
X33365Y-161846D01*
X33634Y-161198D01*
X33649Y-161188D01*
X34118Y-161083D01*
X34178Y-161090D01*
X34654Y-161565D01*
X35400Y-161874D01*
Y-159700D01*
Y-157526D01*
X34654Y-157835D01*
X34035Y-158454D01*
X33766Y-159102D01*
X33751Y-159112D01*
X33282Y-159217D01*
X33222Y-159210D01*
X32746Y-158735D01*
X31938Y-158400D01*
X31174D01*
X31025Y-158251D01*
Y-128186D01*
X31565Y-127646D01*
X31900Y-126838D01*
Y-125962D01*
X31565Y-125154D01*
X30946Y-124535D01*
X30138Y-124200D01*
X29262D01*
X28925Y-124340D01*
X28425Y-124005D01*
Y-121649D01*
X50937Y-99137D01*
X51225Y-98707D01*
X51326Y-98200D01*
Y-58786D01*
X51544Y-58727D01*
X52456Y-58201D01*
X53201Y-57456D01*
X53727Y-56544D01*
X54000Y-55527D01*
Y-54473D01*
X53727Y-53456D01*
X53201Y-52544D01*
X52456Y-51799D01*
X51544Y-51273D01*
X50527Y-51000D01*
X49473D01*
X48456Y-51273D01*
X48260Y-51386D01*
X46626Y-49751D01*
Y-47989D01*
X47126Y-47782D01*
X47544Y-48201D01*
X48456Y-48727D01*
X49473Y-49000D01*
X50527D01*
X51544Y-48727D01*
X52456Y-48201D01*
X53201Y-47456D01*
X53727Y-46544D01*
X54000Y-45527D01*
Y-44473D01*
X53727Y-43456D01*
X53201Y-42544D01*
X52456Y-41799D01*
X51544Y-41273D01*
X50527Y-41000D01*
X49473D01*
X48456Y-41273D01*
X47544Y-41799D01*
X47126Y-42218D01*
X46626Y-42011D01*
Y-28749D01*
X53737Y-21637D01*
X54025Y-21207D01*
X54125Y-20700D01*
Y-204D01*
X54625Y3D01*
X62875Y-8246D01*
Y-40251D01*
X61740Y-41386D01*
X61544Y-41273D01*
X60527Y-41000D01*
X59473D01*
X58456Y-41273D01*
X57544Y-41799D01*
X56799Y-42544D01*
X56273Y-43456D01*
X56000Y-44473D01*
Y-45527D01*
X56273Y-46544D01*
X56799Y-47456D01*
X57544Y-48201D01*
X58456Y-48727D01*
X59473Y-49000D01*
X60527D01*
X61544Y-48727D01*
X62456Y-48201D01*
X63201Y-47456D01*
X63727Y-46544D01*
X64000Y-45527D01*
Y-44473D01*
X63727Y-43456D01*
X63614Y-43260D01*
X65000Y-41875D01*
X66386Y-43260D01*
X66273Y-43456D01*
X66000Y-44473D01*
Y-45527D01*
X66273Y-46544D01*
X66799Y-47456D01*
X67544Y-48201D01*
X68456Y-48727D01*
X69473Y-49000D01*
X70527D01*
X71544Y-48727D01*
X72456Y-48201D01*
X73201Y-47456D01*
X73727Y-46544D01*
X74000Y-45527D01*
Y-44473D01*
X73727Y-43456D01*
X73201Y-42544D01*
X72456Y-41799D01*
X71544Y-41273D01*
X70527Y-41000D01*
X69473D01*
X68456Y-41273D01*
X68260Y-41386D01*
X66725Y-39851D01*
Y-7200D01*
X66625Y-6693D01*
X66337Y-6263D01*
X27025Y33049D01*
Y41664D01*
X27487Y41856D01*
X27544Y41799D01*
X28456Y41273D01*
X29473Y41000D01*
X30527D01*
X31544Y41273D01*
X32456Y41799D01*
X33201Y42544D01*
X33727Y43456D01*
X34000Y44473D01*
Y45527D01*
X33727Y46544D01*
X33201Y47456D01*
X32456Y48201D01*
X31544Y48727D01*
X30527Y49000D01*
X29473D01*
X28456Y48727D01*
X27544Y48201D01*
X27487Y48144D01*
X27025Y48336D01*
Y51664D01*
X27487Y51856D01*
X27544Y51799D01*
X28456Y51273D01*
X29473Y51000D01*
X30527D01*
X31544Y51273D01*
X32456Y51799D01*
X33201Y52544D01*
X33727Y53456D01*
X34000Y54473D01*
Y55527D01*
X33727Y56544D01*
X33201Y57456D01*
X32456Y58201D01*
X31544Y58727D01*
X30527Y59000D01*
X29473D01*
X28456Y58727D01*
X27544Y58201D01*
X27487Y58144D01*
X27025Y58336D01*
Y102600D01*
X27025Y102600D01*
X26925Y103107D01*
X26637Y103537D01*
X22226Y107949D01*
Y111709D01*
X22985Y112023D01*
X23604Y112642D01*
X23939Y113451D01*
Y114326D01*
X23604Y115134D01*
X22985Y115753D01*
X22176Y116088D01*
X21301D01*
X20492Y115753D01*
X20280Y115541D01*
X19942Y115879D01*
X19134Y116214D01*
D02*
G37*
G36*
X340527Y59000D02*
X339473D01*
X338456Y58727D01*
X337544Y58201D01*
X336799Y57456D01*
X336273Y56544D01*
X336000Y55527D01*
Y54473D01*
X336273Y53456D01*
X336799Y52544D01*
X337544Y51799D01*
X338456Y51273D01*
X339473Y51000D01*
X340527D01*
X341544Y51273D01*
X342456Y51799D01*
X343201Y52544D01*
X343727Y53456D01*
X344000Y54473D01*
Y55527D01*
X343727Y56544D01*
X343201Y57456D01*
X342456Y58201D01*
X341544Y58727D01*
X340527Y59000D01*
D02*
G37*
G36*
X330527D02*
X329473D01*
X328456Y58727D01*
X327544Y58201D01*
X326799Y57456D01*
X326273Y56544D01*
X326000Y55527D01*
Y54473D01*
X326273Y53456D01*
X326799Y52544D01*
X327544Y51799D01*
X328456Y51273D01*
X329473Y51000D01*
X330527D01*
X331544Y51273D01*
X332456Y51799D01*
X333201Y52544D01*
X333727Y53456D01*
X334000Y54473D01*
Y55527D01*
X333727Y56544D01*
X333201Y57456D01*
X332456Y58201D01*
X331544Y58727D01*
X330527Y59000D01*
D02*
G37*
G36*
X320527D02*
X319473D01*
X318456Y58727D01*
X317544Y58201D01*
X316799Y57456D01*
X316273Y56544D01*
X316000Y55527D01*
Y54473D01*
X316273Y53456D01*
X316799Y52544D01*
X317544Y51799D01*
X318456Y51273D01*
X319473Y51000D01*
X320527D01*
X321544Y51273D01*
X322456Y51799D01*
X323201Y52544D01*
X323727Y53456D01*
X324000Y54473D01*
Y55527D01*
X323727Y56544D01*
X323201Y57456D01*
X322456Y58201D01*
X321544Y58727D01*
X320527Y59000D01*
D02*
G37*
G36*
X310527D02*
X309473D01*
X308456Y58727D01*
X307544Y58201D01*
X306799Y57456D01*
X306273Y56544D01*
X306000Y55527D01*
Y54473D01*
X306273Y53456D01*
X306799Y52544D01*
X307544Y51799D01*
X308456Y51273D01*
X309473Y51000D01*
X310527D01*
X311544Y51273D01*
X312456Y51799D01*
X313201Y52544D01*
X313727Y53456D01*
X314000Y54473D01*
Y55527D01*
X313727Y56544D01*
X313201Y57456D01*
X312456Y58201D01*
X311544Y58727D01*
X310527Y59000D01*
D02*
G37*
G36*
X300527D02*
X299473D01*
X298456Y58727D01*
X297544Y58201D01*
X296799Y57456D01*
X296273Y56544D01*
X296000Y55527D01*
Y54473D01*
X296273Y53456D01*
X296799Y52544D01*
X297544Y51799D01*
X298456Y51273D01*
X299473Y51000D01*
X300527D01*
X301544Y51273D01*
X302456Y51799D01*
X303201Y52544D01*
X303727Y53456D01*
X304000Y54473D01*
Y55527D01*
X303727Y56544D01*
X303201Y57456D01*
X302456Y58201D01*
X301544Y58727D01*
X300527Y59000D01*
D02*
G37*
G36*
X290527D02*
X289473D01*
X288456Y58727D01*
X287544Y58201D01*
X286799Y57456D01*
X286273Y56544D01*
X286000Y55527D01*
Y54473D01*
X286273Y53456D01*
X286799Y52544D01*
X287544Y51799D01*
X288456Y51273D01*
X289473Y51000D01*
X290527D01*
X291544Y51273D01*
X292456Y51799D01*
X293201Y52544D01*
X293727Y53456D01*
X294000Y54473D01*
Y55527D01*
X293727Y56544D01*
X293201Y57456D01*
X292456Y58201D01*
X291544Y58727D01*
X290527Y59000D01*
D02*
G37*
G36*
X280527D02*
X279473D01*
X278456Y58727D01*
X277544Y58201D01*
X276799Y57456D01*
X276273Y56544D01*
X276000Y55527D01*
Y54473D01*
X276273Y53456D01*
X276799Y52544D01*
X277544Y51799D01*
X278456Y51273D01*
X279473Y51000D01*
X280527D01*
X281544Y51273D01*
X282456Y51799D01*
X283201Y52544D01*
X283727Y53456D01*
X284000Y54473D01*
Y55527D01*
X283727Y56544D01*
X283201Y57456D01*
X282456Y58201D01*
X281544Y58727D01*
X280527Y59000D01*
D02*
G37*
G36*
X270527D02*
X269473D01*
X268456Y58727D01*
X267544Y58201D01*
X266799Y57456D01*
X266273Y56544D01*
X266000Y55527D01*
Y54473D01*
X266273Y53456D01*
X266799Y52544D01*
X267544Y51799D01*
X268456Y51273D01*
X269473Y51000D01*
X270527D01*
X271544Y51273D01*
X272456Y51799D01*
X273201Y52544D01*
X273727Y53456D01*
X274000Y54473D01*
Y55527D01*
X273727Y56544D01*
X273201Y57456D01*
X272456Y58201D01*
X271544Y58727D01*
X270527Y59000D01*
D02*
G37*
G36*
X260527D02*
X259473D01*
X258456Y58727D01*
X257544Y58201D01*
X256799Y57456D01*
X256273Y56544D01*
X256000Y55527D01*
Y54473D01*
X256273Y53456D01*
X256799Y52544D01*
X257544Y51799D01*
X258456Y51273D01*
X259473Y51000D01*
X260527D01*
X261544Y51273D01*
X262456Y51799D01*
X263201Y52544D01*
X263727Y53456D01*
X264000Y54473D01*
Y55527D01*
X263727Y56544D01*
X263201Y57456D01*
X262456Y58201D01*
X261544Y58727D01*
X260527Y59000D01*
D02*
G37*
G36*
X250527D02*
X249473D01*
X248456Y58727D01*
X247544Y58201D01*
X246799Y57456D01*
X246273Y56544D01*
X246000Y55527D01*
Y54473D01*
X246273Y53456D01*
X246799Y52544D01*
X247544Y51799D01*
X248456Y51273D01*
X249473Y51000D01*
X250527D01*
X251544Y51273D01*
X252456Y51799D01*
X253201Y52544D01*
X253727Y53456D01*
X254000Y54473D01*
Y55527D01*
X253727Y56544D01*
X253201Y57456D01*
X252456Y58201D01*
X251544Y58727D01*
X250527Y59000D01*
D02*
G37*
G36*
X240527D02*
X239473D01*
X238456Y58727D01*
X237544Y58201D01*
X236799Y57456D01*
X236273Y56544D01*
X236000Y55527D01*
Y54473D01*
X236273Y53456D01*
X236799Y52544D01*
X237544Y51799D01*
X238456Y51273D01*
X239473Y51000D01*
X240527D01*
X241544Y51273D01*
X242456Y51799D01*
X243201Y52544D01*
X243727Y53456D01*
X244000Y54473D01*
Y55527D01*
X243727Y56544D01*
X243201Y57456D01*
X242456Y58201D01*
X241544Y58727D01*
X240527Y59000D01*
D02*
G37*
G36*
X230527D02*
X229473D01*
X228456Y58727D01*
X227544Y58201D01*
X226799Y57456D01*
X226273Y56544D01*
X226000Y55527D01*
Y54473D01*
X226273Y53456D01*
X226799Y52544D01*
X227544Y51799D01*
X228456Y51273D01*
X229473Y51000D01*
X230527D01*
X231544Y51273D01*
X232456Y51799D01*
X233201Y52544D01*
X233727Y53456D01*
X234000Y54473D01*
Y55527D01*
X233727Y56544D01*
X233201Y57456D01*
X232456Y58201D01*
X231544Y58727D01*
X230527Y59000D01*
D02*
G37*
G36*
X220527D02*
X219473D01*
X218456Y58727D01*
X217544Y58201D01*
X216799Y57456D01*
X216273Y56544D01*
X216000Y55527D01*
Y54473D01*
X216273Y53456D01*
X216799Y52544D01*
X217544Y51799D01*
X218456Y51273D01*
X219473Y51000D01*
X220527D01*
X221544Y51273D01*
X222456Y51799D01*
X223201Y52544D01*
X223727Y53456D01*
X224000Y54473D01*
Y55527D01*
X223727Y56544D01*
X223201Y57456D01*
X222456Y58201D01*
X221544Y58727D01*
X220527Y59000D01*
D02*
G37*
G36*
X210527D02*
X209473D01*
X208456Y58727D01*
X207544Y58201D01*
X206799Y57456D01*
X206273Y56544D01*
X206000Y55527D01*
Y54473D01*
X206273Y53456D01*
X206799Y52544D01*
X207544Y51799D01*
X208456Y51273D01*
X209473Y51000D01*
X210527D01*
X211544Y51273D01*
X212456Y51799D01*
X213201Y52544D01*
X213727Y53456D01*
X214000Y54473D01*
Y55527D01*
X213727Y56544D01*
X213201Y57456D01*
X212456Y58201D01*
X211544Y58727D01*
X210527Y59000D01*
D02*
G37*
G36*
X200527D02*
X199473D01*
X198456Y58727D01*
X197544Y58201D01*
X196799Y57456D01*
X196273Y56544D01*
X196000Y55527D01*
Y54473D01*
X196273Y53456D01*
X196799Y52544D01*
X197544Y51799D01*
X198456Y51273D01*
X199473Y51000D01*
X200527D01*
X201544Y51273D01*
X202456Y51799D01*
X203201Y52544D01*
X203727Y53456D01*
X204000Y54473D01*
Y55527D01*
X203727Y56544D01*
X203201Y57456D01*
X202456Y58201D01*
X201544Y58727D01*
X200527Y59000D01*
D02*
G37*
G36*
X190527D02*
X189473D01*
X188456Y58727D01*
X187544Y58201D01*
X186799Y57456D01*
X186273Y56544D01*
X186000Y55527D01*
Y54473D01*
X186273Y53456D01*
X186799Y52544D01*
X187544Y51799D01*
X188456Y51273D01*
X189473Y51000D01*
X190527D01*
X191544Y51273D01*
X192456Y51799D01*
X193201Y52544D01*
X193727Y53456D01*
X194000Y54473D01*
Y55527D01*
X193727Y56544D01*
X193201Y57456D01*
X192456Y58201D01*
X191544Y58727D01*
X190527Y59000D01*
D02*
G37*
G36*
X180527D02*
X179473D01*
X178456Y58727D01*
X177544Y58201D01*
X176799Y57456D01*
X176273Y56544D01*
X176000Y55527D01*
Y54473D01*
X176273Y53456D01*
X176799Y52544D01*
X177544Y51799D01*
X178456Y51273D01*
X179473Y51000D01*
X180527D01*
X181544Y51273D01*
X182456Y51799D01*
X183201Y52544D01*
X183727Y53456D01*
X184000Y54473D01*
Y55527D01*
X183727Y56544D01*
X183201Y57456D01*
X182456Y58201D01*
X181544Y58727D01*
X180527Y59000D01*
D02*
G37*
G36*
X170527D02*
X169473D01*
X168456Y58727D01*
X167544Y58201D01*
X166799Y57456D01*
X166273Y56544D01*
X166000Y55527D01*
Y54473D01*
X166273Y53456D01*
X166799Y52544D01*
X167544Y51799D01*
X168456Y51273D01*
X169473Y51000D01*
X170527D01*
X171544Y51273D01*
X172456Y51799D01*
X173201Y52544D01*
X173727Y53456D01*
X174000Y54473D01*
Y55527D01*
X173727Y56544D01*
X173201Y57456D01*
X172456Y58201D01*
X171544Y58727D01*
X170527Y59000D01*
D02*
G37*
G36*
X160527D02*
X159473D01*
X158456Y58727D01*
X157544Y58201D01*
X156799Y57456D01*
X156273Y56544D01*
X156000Y55527D01*
Y54473D01*
X156273Y53456D01*
X156799Y52544D01*
X157544Y51799D01*
X158456Y51273D01*
X159473Y51000D01*
X160527D01*
X161544Y51273D01*
X162456Y51799D01*
X163201Y52544D01*
X163727Y53456D01*
X164000Y54473D01*
Y55527D01*
X163727Y56544D01*
X163201Y57456D01*
X162456Y58201D01*
X161544Y58727D01*
X160527Y59000D01*
D02*
G37*
G36*
X150527D02*
X149473D01*
X148456Y58727D01*
X147544Y58201D01*
X146799Y57456D01*
X146273Y56544D01*
X146000Y55527D01*
Y54473D01*
X146273Y53456D01*
X146799Y52544D01*
X147544Y51799D01*
X148456Y51273D01*
X149473Y51000D01*
X150527D01*
X151544Y51273D01*
X152456Y51799D01*
X153201Y52544D01*
X153727Y53456D01*
X154000Y54473D01*
Y55527D01*
X153727Y56544D01*
X153201Y57456D01*
X152456Y58201D01*
X151544Y58727D01*
X150527Y59000D01*
D02*
G37*
G36*
X140527D02*
X139473D01*
X138456Y58727D01*
X137544Y58201D01*
X136799Y57456D01*
X136273Y56544D01*
X136000Y55527D01*
Y54473D01*
X136273Y53456D01*
X136799Y52544D01*
X137544Y51799D01*
X138456Y51273D01*
X139473Y51000D01*
X140527D01*
X141544Y51273D01*
X142456Y51799D01*
X143201Y52544D01*
X143727Y53456D01*
X144000Y54473D01*
Y55527D01*
X143727Y56544D01*
X143201Y57456D01*
X142456Y58201D01*
X141544Y58727D01*
X140527Y59000D01*
D02*
G37*
G36*
X130527D02*
X129473D01*
X128456Y58727D01*
X127544Y58201D01*
X126799Y57456D01*
X126273Y56544D01*
X126000Y55527D01*
Y54473D01*
X126273Y53456D01*
X126799Y52544D01*
X127544Y51799D01*
X128456Y51273D01*
X129473Y51000D01*
X130527D01*
X131544Y51273D01*
X132456Y51799D01*
X133201Y52544D01*
X133727Y53456D01*
X134000Y54473D01*
Y55527D01*
X133727Y56544D01*
X133201Y57456D01*
X132456Y58201D01*
X131544Y58727D01*
X130527Y59000D01*
D02*
G37*
G36*
X120527D02*
X119473D01*
X118456Y58727D01*
X117544Y58201D01*
X116799Y57456D01*
X116273Y56544D01*
X116000Y55527D01*
Y54473D01*
X116273Y53456D01*
X116799Y52544D01*
X117544Y51799D01*
X118456Y51273D01*
X119473Y51000D01*
X120527D01*
X121544Y51273D01*
X122456Y51799D01*
X123201Y52544D01*
X123727Y53456D01*
X124000Y54473D01*
Y55527D01*
X123727Y56544D01*
X123201Y57456D01*
X122456Y58201D01*
X121544Y58727D01*
X120527Y59000D01*
D02*
G37*
G36*
X110527D02*
X109473D01*
X108456Y58727D01*
X107544Y58201D01*
X106799Y57456D01*
X106273Y56544D01*
X106000Y55527D01*
Y54473D01*
X106273Y53456D01*
X106799Y52544D01*
X107544Y51799D01*
X108456Y51273D01*
X109473Y51000D01*
X110527D01*
X111544Y51273D01*
X112456Y51799D01*
X113201Y52544D01*
X113727Y53456D01*
X114000Y54473D01*
Y55527D01*
X113727Y56544D01*
X113201Y57456D01*
X112456Y58201D01*
X111544Y58727D01*
X110527Y59000D01*
D02*
G37*
G36*
X100527D02*
X99473D01*
X98456Y58727D01*
X97544Y58201D01*
X96799Y57456D01*
X96273Y56544D01*
X96000Y55527D01*
Y54473D01*
X96273Y53456D01*
X96799Y52544D01*
X97544Y51799D01*
X98456Y51273D01*
X99473Y51000D01*
X100527D01*
X101544Y51273D01*
X102456Y51799D01*
X103201Y52544D01*
X103727Y53456D01*
X104000Y54473D01*
Y55527D01*
X103727Y56544D01*
X103201Y57456D01*
X102456Y58201D01*
X101544Y58727D01*
X100527Y59000D01*
D02*
G37*
G36*
X90527D02*
X89473D01*
X88456Y58727D01*
X87544Y58201D01*
X86799Y57456D01*
X86273Y56544D01*
X86000Y55527D01*
Y54473D01*
X86273Y53456D01*
X86799Y52544D01*
X87544Y51799D01*
X88456Y51273D01*
X89473Y51000D01*
X90527D01*
X91544Y51273D01*
X92456Y51799D01*
X93201Y52544D01*
X93727Y53456D01*
X94000Y54473D01*
Y55527D01*
X93727Y56544D01*
X93201Y57456D01*
X92456Y58201D01*
X91544Y58727D01*
X90527Y59000D01*
D02*
G37*
G36*
X80527D02*
X79473D01*
X78456Y58727D01*
X77544Y58201D01*
X76799Y57456D01*
X76273Y56544D01*
X76000Y55527D01*
Y54473D01*
X76273Y53456D01*
X76799Y52544D01*
X77544Y51799D01*
X78456Y51273D01*
X79473Y51000D01*
X80527D01*
X81544Y51273D01*
X82456Y51799D01*
X83201Y52544D01*
X83727Y53456D01*
X84000Y54473D01*
Y55527D01*
X83727Y56544D01*
X83201Y57456D01*
X82456Y58201D01*
X81544Y58727D01*
X80527Y59000D01*
D02*
G37*
G36*
X70527D02*
X69473D01*
X68456Y58727D01*
X67544Y58201D01*
X66799Y57456D01*
X66273Y56544D01*
X66000Y55527D01*
Y54473D01*
X66273Y53456D01*
X66799Y52544D01*
X67544Y51799D01*
X68456Y51273D01*
X69473Y51000D01*
X70527D01*
X71544Y51273D01*
X72456Y51799D01*
X73201Y52544D01*
X73727Y53456D01*
X74000Y54473D01*
Y55527D01*
X73727Y56544D01*
X73201Y57456D01*
X72456Y58201D01*
X71544Y58727D01*
X70527Y59000D01*
D02*
G37*
G36*
X60527D02*
X59473D01*
X58456Y58727D01*
X57544Y58201D01*
X56799Y57456D01*
X56273Y56544D01*
X56000Y55527D01*
Y54473D01*
X56273Y53456D01*
X56799Y52544D01*
X57544Y51799D01*
X58456Y51273D01*
X59473Y51000D01*
X60527D01*
X61544Y51273D01*
X62456Y51799D01*
X63201Y52544D01*
X63727Y53456D01*
X64000Y54473D01*
Y55527D01*
X63727Y56544D01*
X63201Y57456D01*
X62456Y58201D01*
X61544Y58727D01*
X60527Y59000D01*
D02*
G37*
G36*
X50527D02*
X49473D01*
X48456Y58727D01*
X47544Y58201D01*
X46799Y57456D01*
X46273Y56544D01*
X46000Y55527D01*
Y54473D01*
X46273Y53456D01*
X46799Y52544D01*
X47544Y51799D01*
X48456Y51273D01*
X49473Y51000D01*
X50527D01*
X51544Y51273D01*
X52456Y51799D01*
X53201Y52544D01*
X53727Y53456D01*
X54000Y54473D01*
Y55527D01*
X53727Y56544D01*
X53201Y57456D01*
X52456Y58201D01*
X51544Y58727D01*
X50527Y59000D01*
D02*
G37*
G36*
X40527D02*
X39473D01*
X38456Y58727D01*
X37544Y58201D01*
X36799Y57456D01*
X36273Y56544D01*
X36000Y55527D01*
Y54473D01*
X36273Y53456D01*
X36799Y52544D01*
X37544Y51799D01*
X38456Y51273D01*
X39473Y51000D01*
X40527D01*
X41544Y51273D01*
X42456Y51799D01*
X43201Y52544D01*
X43727Y53456D01*
X44000Y54473D01*
Y55527D01*
X43727Y56544D01*
X43201Y57456D01*
X42456Y58201D01*
X41544Y58727D01*
X40527Y59000D01*
D02*
G37*
G36*
X10527D02*
X9473D01*
X8456Y58727D01*
X7544Y58201D01*
X6799Y57456D01*
X6273Y56544D01*
X6000Y55527D01*
Y54473D01*
X6273Y53456D01*
X6799Y52544D01*
X7544Y51799D01*
X8456Y51273D01*
X9473Y51000D01*
X10527D01*
X11544Y51273D01*
X12456Y51799D01*
X13201Y52544D01*
X13727Y53456D01*
X14000Y54473D01*
Y55527D01*
X13727Y56544D01*
X13201Y57456D01*
X12456Y58201D01*
X11544Y58727D01*
X10527Y59000D01*
D02*
G37*
G36*
X4100Y59100D02*
X-4100D01*
Y50900D01*
X4100D01*
Y59100D01*
D02*
G37*
G36*
X-50300Y43174D02*
Y41500D01*
X-48626D01*
X-48935Y42246D01*
X-49554Y42865D01*
X-50300Y43174D01*
D02*
G37*
G36*
X-51300D02*
X-52046Y42865D01*
X-52665Y42246D01*
X-52974Y41500D01*
X-51300D01*
Y43174D01*
D02*
G37*
G36*
X340527Y49000D02*
X339473D01*
X338456Y48727D01*
X337544Y48201D01*
X336799Y47456D01*
X336273Y46544D01*
X336000Y45527D01*
Y44473D01*
X336273Y43456D01*
X336799Y42544D01*
X337544Y41799D01*
X338456Y41273D01*
X339473Y41000D01*
X340527D01*
X341544Y41273D01*
X342456Y41799D01*
X343201Y42544D01*
X343727Y43456D01*
X344000Y44473D01*
Y45527D01*
X343727Y46544D01*
X343201Y47456D01*
X342456Y48201D01*
X341544Y48727D01*
X340527Y49000D01*
D02*
G37*
G36*
X330527D02*
X329473D01*
X328456Y48727D01*
X327544Y48201D01*
X326799Y47456D01*
X326273Y46544D01*
X326000Y45527D01*
Y44473D01*
X326273Y43456D01*
X326799Y42544D01*
X327544Y41799D01*
X328456Y41273D01*
X329473Y41000D01*
X330527D01*
X331544Y41273D01*
X332456Y41799D01*
X333201Y42544D01*
X333727Y43456D01*
X334000Y44473D01*
Y45527D01*
X333727Y46544D01*
X333201Y47456D01*
X332456Y48201D01*
X331544Y48727D01*
X330527Y49000D01*
D02*
G37*
G36*
X320527D02*
X319473D01*
X318456Y48727D01*
X317544Y48201D01*
X316799Y47456D01*
X316273Y46544D01*
X316000Y45527D01*
Y44473D01*
X316273Y43456D01*
X316799Y42544D01*
X317544Y41799D01*
X318456Y41273D01*
X319473Y41000D01*
X320527D01*
X321544Y41273D01*
X322456Y41799D01*
X323201Y42544D01*
X323727Y43456D01*
X324000Y44473D01*
Y45527D01*
X323727Y46544D01*
X323201Y47456D01*
X322456Y48201D01*
X321544Y48727D01*
X320527Y49000D01*
D02*
G37*
G36*
X310527D02*
X309473D01*
X308456Y48727D01*
X307544Y48201D01*
X306799Y47456D01*
X306273Y46544D01*
X306000Y45527D01*
Y44473D01*
X306273Y43456D01*
X306799Y42544D01*
X307544Y41799D01*
X308456Y41273D01*
X309473Y41000D01*
X310527D01*
X311544Y41273D01*
X312456Y41799D01*
X313201Y42544D01*
X313727Y43456D01*
X314000Y44473D01*
Y45527D01*
X313727Y46544D01*
X313201Y47456D01*
X312456Y48201D01*
X311544Y48727D01*
X310527Y49000D01*
D02*
G37*
G36*
X300527D02*
X299473D01*
X298456Y48727D01*
X297544Y48201D01*
X296799Y47456D01*
X296273Y46544D01*
X296000Y45527D01*
Y44473D01*
X296273Y43456D01*
X296799Y42544D01*
X297544Y41799D01*
X298456Y41273D01*
X299473Y41000D01*
X300527D01*
X301544Y41273D01*
X302456Y41799D01*
X303201Y42544D01*
X303727Y43456D01*
X304000Y44473D01*
Y45527D01*
X303727Y46544D01*
X303201Y47456D01*
X302456Y48201D01*
X301544Y48727D01*
X300527Y49000D01*
D02*
G37*
G36*
X290527D02*
X289473D01*
X288456Y48727D01*
X287544Y48201D01*
X286799Y47456D01*
X286273Y46544D01*
X286000Y45527D01*
Y44473D01*
X286273Y43456D01*
X286799Y42544D01*
X287544Y41799D01*
X288456Y41273D01*
X289473Y41000D01*
X290527D01*
X291544Y41273D01*
X292456Y41799D01*
X293201Y42544D01*
X293727Y43456D01*
X294000Y44473D01*
Y45527D01*
X293727Y46544D01*
X293201Y47456D01*
X292456Y48201D01*
X291544Y48727D01*
X290527Y49000D01*
D02*
G37*
G36*
X280527D02*
X279473D01*
X278456Y48727D01*
X277544Y48201D01*
X276799Y47456D01*
X276273Y46544D01*
X276000Y45527D01*
Y44473D01*
X276273Y43456D01*
X276799Y42544D01*
X277544Y41799D01*
X278456Y41273D01*
X279473Y41000D01*
X280527D01*
X281544Y41273D01*
X282456Y41799D01*
X283201Y42544D01*
X283727Y43456D01*
X284000Y44473D01*
Y45527D01*
X283727Y46544D01*
X283201Y47456D01*
X282456Y48201D01*
X281544Y48727D01*
X280527Y49000D01*
D02*
G37*
G36*
X270527D02*
X269473D01*
X268456Y48727D01*
X267544Y48201D01*
X266799Y47456D01*
X266273Y46544D01*
X266000Y45527D01*
Y44473D01*
X266273Y43456D01*
X266799Y42544D01*
X267544Y41799D01*
X268456Y41273D01*
X269473Y41000D01*
X270527D01*
X271544Y41273D01*
X272456Y41799D01*
X273201Y42544D01*
X273727Y43456D01*
X274000Y44473D01*
Y45527D01*
X273727Y46544D01*
X273201Y47456D01*
X272456Y48201D01*
X271544Y48727D01*
X270527Y49000D01*
D02*
G37*
G36*
X260527D02*
X259473D01*
X258456Y48727D01*
X257544Y48201D01*
X256799Y47456D01*
X256273Y46544D01*
X256000Y45527D01*
Y44473D01*
X256273Y43456D01*
X256799Y42544D01*
X257544Y41799D01*
X258456Y41273D01*
X259473Y41000D01*
X260527D01*
X261544Y41273D01*
X262456Y41799D01*
X263201Y42544D01*
X263727Y43456D01*
X264000Y44473D01*
Y45527D01*
X263727Y46544D01*
X263201Y47456D01*
X262456Y48201D01*
X261544Y48727D01*
X260527Y49000D01*
D02*
G37*
G36*
X250527D02*
X249473D01*
X248456Y48727D01*
X247544Y48201D01*
X246799Y47456D01*
X246273Y46544D01*
X246000Y45527D01*
Y44473D01*
X246273Y43456D01*
X246799Y42544D01*
X247544Y41799D01*
X248456Y41273D01*
X249473Y41000D01*
X250527D01*
X251544Y41273D01*
X252456Y41799D01*
X253201Y42544D01*
X253727Y43456D01*
X254000Y44473D01*
Y45527D01*
X253727Y46544D01*
X253201Y47456D01*
X252456Y48201D01*
X251544Y48727D01*
X250527Y49000D01*
D02*
G37*
G36*
X240527D02*
X239473D01*
X238456Y48727D01*
X237544Y48201D01*
X236799Y47456D01*
X236273Y46544D01*
X236000Y45527D01*
Y44473D01*
X236273Y43456D01*
X236799Y42544D01*
X237544Y41799D01*
X238456Y41273D01*
X239473Y41000D01*
X240527D01*
X241544Y41273D01*
X242456Y41799D01*
X243201Y42544D01*
X243727Y43456D01*
X244000Y44473D01*
Y45527D01*
X243727Y46544D01*
X243201Y47456D01*
X242456Y48201D01*
X241544Y48727D01*
X240527Y49000D01*
D02*
G37*
G36*
X230527D02*
X229473D01*
X228456Y48727D01*
X227544Y48201D01*
X226799Y47456D01*
X226273Y46544D01*
X226000Y45527D01*
Y44473D01*
X226273Y43456D01*
X226799Y42544D01*
X227544Y41799D01*
X228456Y41273D01*
X229473Y41000D01*
X230527D01*
X231544Y41273D01*
X232456Y41799D01*
X233201Y42544D01*
X233727Y43456D01*
X234000Y44473D01*
Y45527D01*
X233727Y46544D01*
X233201Y47456D01*
X232456Y48201D01*
X231544Y48727D01*
X230527Y49000D01*
D02*
G37*
G36*
X220527D02*
X219473D01*
X218456Y48727D01*
X217544Y48201D01*
X216799Y47456D01*
X216273Y46544D01*
X216000Y45527D01*
Y44473D01*
X216273Y43456D01*
X216799Y42544D01*
X217544Y41799D01*
X218456Y41273D01*
X219473Y41000D01*
X220527D01*
X221544Y41273D01*
X222456Y41799D01*
X223201Y42544D01*
X223727Y43456D01*
X224000Y44473D01*
Y45527D01*
X223727Y46544D01*
X223201Y47456D01*
X222456Y48201D01*
X221544Y48727D01*
X220527Y49000D01*
D02*
G37*
G36*
X210527D02*
X209473D01*
X208456Y48727D01*
X207544Y48201D01*
X206799Y47456D01*
X206273Y46544D01*
X206000Y45527D01*
Y44473D01*
X206273Y43456D01*
X206799Y42544D01*
X207544Y41799D01*
X208456Y41273D01*
X209473Y41000D01*
X210527D01*
X211544Y41273D01*
X212456Y41799D01*
X213201Y42544D01*
X213727Y43456D01*
X214000Y44473D01*
Y45527D01*
X213727Y46544D01*
X213201Y47456D01*
X212456Y48201D01*
X211544Y48727D01*
X210527Y49000D01*
D02*
G37*
G36*
X200527D02*
X199473D01*
X198456Y48727D01*
X197544Y48201D01*
X196799Y47456D01*
X196273Y46544D01*
X196000Y45527D01*
Y44473D01*
X196273Y43456D01*
X196799Y42544D01*
X197544Y41799D01*
X198456Y41273D01*
X199473Y41000D01*
X200527D01*
X201544Y41273D01*
X202456Y41799D01*
X203201Y42544D01*
X203727Y43456D01*
X204000Y44473D01*
Y45527D01*
X203727Y46544D01*
X203201Y47456D01*
X202456Y48201D01*
X201544Y48727D01*
X200527Y49000D01*
D02*
G37*
G36*
X190527D02*
X189473D01*
X188456Y48727D01*
X187544Y48201D01*
X186799Y47456D01*
X186273Y46544D01*
X186000Y45527D01*
Y44473D01*
X186273Y43456D01*
X186799Y42544D01*
X187544Y41799D01*
X188456Y41273D01*
X189473Y41000D01*
X190527D01*
X191544Y41273D01*
X192456Y41799D01*
X193201Y42544D01*
X193727Y43456D01*
X194000Y44473D01*
Y45527D01*
X193727Y46544D01*
X193201Y47456D01*
X192456Y48201D01*
X191544Y48727D01*
X190527Y49000D01*
D02*
G37*
G36*
X180527D02*
X179473D01*
X178456Y48727D01*
X177544Y48201D01*
X176799Y47456D01*
X176273Y46544D01*
X176000Y45527D01*
Y44473D01*
X176273Y43456D01*
X176799Y42544D01*
X177544Y41799D01*
X178456Y41273D01*
X179473Y41000D01*
X180527D01*
X181544Y41273D01*
X182456Y41799D01*
X183201Y42544D01*
X183727Y43456D01*
X184000Y44473D01*
Y45527D01*
X183727Y46544D01*
X183201Y47456D01*
X182456Y48201D01*
X181544Y48727D01*
X180527Y49000D01*
D02*
G37*
G36*
X170527D02*
X169473D01*
X168456Y48727D01*
X167544Y48201D01*
X166799Y47456D01*
X166273Y46544D01*
X166000Y45527D01*
Y44473D01*
X166273Y43456D01*
X166799Y42544D01*
X167544Y41799D01*
X168456Y41273D01*
X169473Y41000D01*
X170527D01*
X171544Y41273D01*
X172456Y41799D01*
X173201Y42544D01*
X173727Y43456D01*
X174000Y44473D01*
Y45527D01*
X173727Y46544D01*
X173201Y47456D01*
X172456Y48201D01*
X171544Y48727D01*
X170527Y49000D01*
D02*
G37*
G36*
X160527D02*
X159473D01*
X158456Y48727D01*
X157544Y48201D01*
X156799Y47456D01*
X156273Y46544D01*
X156000Y45527D01*
Y44473D01*
X156273Y43456D01*
X156799Y42544D01*
X157544Y41799D01*
X158456Y41273D01*
X159473Y41000D01*
X160527D01*
X161544Y41273D01*
X162456Y41799D01*
X163201Y42544D01*
X163727Y43456D01*
X164000Y44473D01*
Y45527D01*
X163727Y46544D01*
X163201Y47456D01*
X162456Y48201D01*
X161544Y48727D01*
X160527Y49000D01*
D02*
G37*
G36*
X150527D02*
X149473D01*
X148456Y48727D01*
X147544Y48201D01*
X146799Y47456D01*
X146273Y46544D01*
X146000Y45527D01*
Y44473D01*
X146273Y43456D01*
X146799Y42544D01*
X147544Y41799D01*
X148456Y41273D01*
X149473Y41000D01*
X150527D01*
X151544Y41273D01*
X152456Y41799D01*
X153201Y42544D01*
X153727Y43456D01*
X154000Y44473D01*
Y45527D01*
X153727Y46544D01*
X153201Y47456D01*
X152456Y48201D01*
X151544Y48727D01*
X150527Y49000D01*
D02*
G37*
G36*
X140527D02*
X139473D01*
X138456Y48727D01*
X137544Y48201D01*
X136799Y47456D01*
X136273Y46544D01*
X136000Y45527D01*
Y44473D01*
X136273Y43456D01*
X136799Y42544D01*
X137544Y41799D01*
X138456Y41273D01*
X139473Y41000D01*
X140527D01*
X141544Y41273D01*
X142456Y41799D01*
X143201Y42544D01*
X143727Y43456D01*
X144000Y44473D01*
Y45527D01*
X143727Y46544D01*
X143201Y47456D01*
X142456Y48201D01*
X141544Y48727D01*
X140527Y49000D01*
D02*
G37*
G36*
X130527D02*
X129473D01*
X128456Y48727D01*
X127544Y48201D01*
X126799Y47456D01*
X126273Y46544D01*
X126000Y45527D01*
Y44473D01*
X126273Y43456D01*
X126799Y42544D01*
X127544Y41799D01*
X128456Y41273D01*
X129473Y41000D01*
X130527D01*
X131544Y41273D01*
X132456Y41799D01*
X133201Y42544D01*
X133727Y43456D01*
X134000Y44473D01*
Y45527D01*
X133727Y46544D01*
X133201Y47456D01*
X132456Y48201D01*
X131544Y48727D01*
X130527Y49000D01*
D02*
G37*
G36*
X120527D02*
X119473D01*
X118456Y48727D01*
X117544Y48201D01*
X116799Y47456D01*
X116273Y46544D01*
X116000Y45527D01*
Y44473D01*
X116273Y43456D01*
X116799Y42544D01*
X117544Y41799D01*
X118456Y41273D01*
X119473Y41000D01*
X120527D01*
X121544Y41273D01*
X122456Y41799D01*
X123201Y42544D01*
X123727Y43456D01*
X124000Y44473D01*
Y45527D01*
X123727Y46544D01*
X123201Y47456D01*
X122456Y48201D01*
X121544Y48727D01*
X120527Y49000D01*
D02*
G37*
G36*
X110527D02*
X109473D01*
X108456Y48727D01*
X107544Y48201D01*
X106799Y47456D01*
X106273Y46544D01*
X106000Y45527D01*
Y44473D01*
X106273Y43456D01*
X106799Y42544D01*
X107544Y41799D01*
X108456Y41273D01*
X109473Y41000D01*
X110527D01*
X111544Y41273D01*
X112456Y41799D01*
X113201Y42544D01*
X113727Y43456D01*
X114000Y44473D01*
Y45527D01*
X113727Y46544D01*
X113201Y47456D01*
X112456Y48201D01*
X111544Y48727D01*
X110527Y49000D01*
D02*
G37*
G36*
X100527D02*
X99473D01*
X98456Y48727D01*
X97544Y48201D01*
X96799Y47456D01*
X96273Y46544D01*
X96000Y45527D01*
Y44473D01*
X96273Y43456D01*
X96799Y42544D01*
X97544Y41799D01*
X98456Y41273D01*
X99473Y41000D01*
X100527D01*
X101544Y41273D01*
X102456Y41799D01*
X103201Y42544D01*
X103727Y43456D01*
X104000Y44473D01*
Y45527D01*
X103727Y46544D01*
X103201Y47456D01*
X102456Y48201D01*
X101544Y48727D01*
X100527Y49000D01*
D02*
G37*
G36*
X90527D02*
X89473D01*
X88456Y48727D01*
X87544Y48201D01*
X86799Y47456D01*
X86273Y46544D01*
X86000Y45527D01*
Y44473D01*
X86273Y43456D01*
X86799Y42544D01*
X87544Y41799D01*
X88456Y41273D01*
X89473Y41000D01*
X90527D01*
X91544Y41273D01*
X92456Y41799D01*
X93201Y42544D01*
X93727Y43456D01*
X94000Y44473D01*
Y45527D01*
X93727Y46544D01*
X93201Y47456D01*
X92456Y48201D01*
X91544Y48727D01*
X90527Y49000D01*
D02*
G37*
G36*
X80527D02*
X79473D01*
X78456Y48727D01*
X77544Y48201D01*
X76799Y47456D01*
X76273Y46544D01*
X76000Y45527D01*
Y44473D01*
X76273Y43456D01*
X76799Y42544D01*
X77544Y41799D01*
X78456Y41273D01*
X79473Y41000D01*
X80527D01*
X81544Y41273D01*
X82456Y41799D01*
X83201Y42544D01*
X83727Y43456D01*
X84000Y44473D01*
Y45527D01*
X83727Y46544D01*
X83201Y47456D01*
X82456Y48201D01*
X81544Y48727D01*
X80527Y49000D01*
D02*
G37*
G36*
X70527D02*
X69473D01*
X68456Y48727D01*
X67544Y48201D01*
X66799Y47456D01*
X66273Y46544D01*
X66000Y45527D01*
Y44473D01*
X66273Y43456D01*
X66799Y42544D01*
X67544Y41799D01*
X68456Y41273D01*
X69473Y41000D01*
X70527D01*
X71544Y41273D01*
X72456Y41799D01*
X73201Y42544D01*
X73727Y43456D01*
X74000Y44473D01*
Y45527D01*
X73727Y46544D01*
X73201Y47456D01*
X72456Y48201D01*
X71544Y48727D01*
X70527Y49000D01*
D02*
G37*
G36*
X60527D02*
X59473D01*
X58456Y48727D01*
X57544Y48201D01*
X56799Y47456D01*
X56273Y46544D01*
X56000Y45527D01*
Y44473D01*
X56273Y43456D01*
X56799Y42544D01*
X57544Y41799D01*
X58456Y41273D01*
X59473Y41000D01*
X60527D01*
X61544Y41273D01*
X62456Y41799D01*
X63201Y42544D01*
X63727Y43456D01*
X64000Y44473D01*
Y45527D01*
X63727Y46544D01*
X63201Y47456D01*
X62456Y48201D01*
X61544Y48727D01*
X60527Y49000D01*
D02*
G37*
G36*
X50527D02*
X49473D01*
X48456Y48727D01*
X47544Y48201D01*
X46799Y47456D01*
X46273Y46544D01*
X46000Y45527D01*
Y44473D01*
X46273Y43456D01*
X46799Y42544D01*
X47544Y41799D01*
X48456Y41273D01*
X49473Y41000D01*
X50527D01*
X51544Y41273D01*
X52456Y41799D01*
X53201Y42544D01*
X53727Y43456D01*
X54000Y44473D01*
Y45527D01*
X53727Y46544D01*
X53201Y47456D01*
X52456Y48201D01*
X51544Y48727D01*
X50527Y49000D01*
D02*
G37*
G36*
X40527D02*
X39473D01*
X38456Y48727D01*
X37544Y48201D01*
X36799Y47456D01*
X36273Y46544D01*
X36000Y45527D01*
Y44473D01*
X36273Y43456D01*
X36799Y42544D01*
X37544Y41799D01*
X38456Y41273D01*
X39473Y41000D01*
X40527D01*
X41544Y41273D01*
X42456Y41799D01*
X43201Y42544D01*
X43727Y43456D01*
X44000Y44473D01*
Y45527D01*
X43727Y46544D01*
X43201Y47456D01*
X42456Y48201D01*
X41544Y48727D01*
X40527Y49000D01*
D02*
G37*
G36*
X10527D02*
X9473D01*
X8456Y48727D01*
X7544Y48201D01*
X6799Y47456D01*
X6273Y46544D01*
X6000Y45527D01*
Y44473D01*
X6273Y43456D01*
X6799Y42544D01*
X7544Y41799D01*
X8456Y41273D01*
X9473Y41000D01*
X10527D01*
X11544Y41273D01*
X12456Y41799D01*
X13201Y42544D01*
X13727Y43456D01*
X14000Y44473D01*
Y45527D01*
X13727Y46544D01*
X13201Y47456D01*
X12456Y48201D01*
X11544Y48727D01*
X10527Y49000D01*
D02*
G37*
G36*
X527D02*
X-527D01*
X-1544Y48727D01*
X-2456Y48201D01*
X-3201Y47456D01*
X-3727Y46544D01*
X-4000Y45527D01*
Y44473D01*
X-3727Y43456D01*
X-3201Y42544D01*
X-2456Y41799D01*
X-1544Y41273D01*
X-527Y41000D01*
X527D01*
X1544Y41273D01*
X2456Y41799D01*
X3201Y42544D01*
X3727Y43456D01*
X4000Y44473D01*
Y45527D01*
X3727Y46544D01*
X3201Y47456D01*
X2456Y48201D01*
X1544Y48727D01*
X527Y49000D01*
D02*
G37*
G36*
X-48626Y40500D02*
X-50300D01*
Y38826D01*
X-49554Y39135D01*
X-48935Y39754D01*
X-48626Y40500D01*
D02*
G37*
G36*
X-51300D02*
X-52974D01*
X-52665Y39754D01*
X-52046Y39135D01*
X-51300Y38826D01*
Y40500D01*
D02*
G37*
G36*
X140198Y27900D02*
X139402D01*
X139005Y27735D01*
X118195D01*
X117798Y27900D01*
X117002D01*
X116267Y27595D01*
X115705Y27033D01*
X115400Y26298D01*
Y25502D01*
X115705Y24767D01*
X116267Y24205D01*
X117002Y23900D01*
X117798D01*
X118195Y24065D01*
X139005D01*
X139402Y23900D01*
X140198D01*
X140933Y24205D01*
X141496Y24767D01*
X141800Y25502D01*
Y26298D01*
X141496Y27033D01*
X140933Y27595D01*
X140198Y27900D01*
D02*
G37*
G36*
X32200Y20674D02*
Y19000D01*
X33874D01*
X33565Y19746D01*
X32946Y20365D01*
X32200Y20674D01*
D02*
G37*
G36*
X31200D02*
X30454Y20365D01*
X29835Y19746D01*
X29526Y19000D01*
X31200D01*
Y20674D01*
D02*
G37*
G36*
X168600Y19074D02*
Y17400D01*
X170274D01*
X169965Y18146D01*
X169346Y18765D01*
X168600Y19074D01*
D02*
G37*
G36*
X167600D02*
X166854Y18765D01*
X166235Y18146D01*
X165926Y17400D01*
X167600D01*
Y19074D01*
D02*
G37*
G36*
X33874Y18000D02*
X32200D01*
Y16326D01*
X32946Y16635D01*
X33565Y17254D01*
X33874Y18000D01*
D02*
G37*
G36*
X31200D02*
X29526D01*
X29835Y17254D01*
X30454Y16635D01*
X31200Y16326D01*
Y18000D01*
D02*
G37*
G36*
X170274Y16400D02*
X168600D01*
Y14726D01*
X169346Y15035D01*
X169965Y15654D01*
X170274Y16400D01*
D02*
G37*
G36*
X167600D02*
X165926D01*
X166235Y15654D01*
X166854Y15035D01*
X167600Y14726D01*
Y16400D01*
D02*
G37*
G36*
X527860Y11100D02*
X526985D01*
X526176Y10765D01*
X525841Y10429D01*
X482200D01*
X481615Y10313D01*
X481119Y9981D01*
X480037Y8900D01*
X479562D01*
X478754Y8565D01*
X478135Y7946D01*
X477800Y7138D01*
Y6262D01*
X478135Y5454D01*
X478754Y4835D01*
X479562Y4500D01*
X480438D01*
X481246Y4835D01*
X481865Y5454D01*
X482200Y6262D01*
Y6737D01*
X482833Y7371D01*
X525841D01*
X526176Y7035D01*
X526985Y6700D01*
X527860D01*
X528669Y7035D01*
X529287Y7654D01*
X529623Y8462D01*
Y9338D01*
X529287Y10146D01*
X528669Y10765D01*
X527860Y11100D01*
D02*
G37*
G36*
X130638Y18600D02*
X129762D01*
X128954Y18265D01*
X128335Y17646D01*
X128000Y16838D01*
Y15962D01*
X128335Y15154D01*
X128954Y14535D01*
X129075Y14485D01*
Y1981D01*
X128575Y1882D01*
X128465Y2146D01*
X127846Y2765D01*
X127038Y3100D01*
X126174D01*
X114900Y14375D01*
Y15138D01*
X114565Y15946D01*
X113946Y16565D01*
X113138Y16900D01*
X112262D01*
X111454Y16565D01*
X110835Y15946D01*
X110500Y15138D01*
Y14262D01*
X110835Y13454D01*
X111454Y12835D01*
X112262Y12500D01*
X113025D01*
X124400Y1125D01*
Y462D01*
X124735Y-346D01*
X125354Y-965D01*
X126162Y-1300D01*
X127038D01*
X127846Y-965D01*
X128465Y-346D01*
X128575Y-82D01*
X129075Y-181D01*
Y-17414D01*
X128735Y-17754D01*
X128400Y-18562D01*
Y-19438D01*
X128735Y-20246D01*
X129354Y-20865D01*
X130162Y-21200D01*
X131038D01*
X131846Y-20865D01*
X132465Y-20246D01*
X132800Y-19438D01*
Y-18562D01*
X132465Y-17754D01*
X131846Y-17135D01*
X131726Y-17085D01*
Y14814D01*
X132065Y15154D01*
X132400Y15962D01*
Y16838D01*
X132065Y17646D01*
X131446Y18265D01*
X130638Y18600D01*
D02*
G37*
G36*
X168400Y2174D02*
Y500D01*
X170074D01*
X169765Y1246D01*
X169146Y1865D01*
X168400Y2174D01*
D02*
G37*
G36*
X167400D02*
X166654Y1865D01*
X166035Y1246D01*
X165700Y438D01*
Y-300D01*
X165562D01*
X164754Y-635D01*
X164135Y-1254D01*
X163826Y-2000D01*
X166000D01*
Y-2500D01*
X166500D01*
Y-4674D01*
X167246Y-4365D01*
X167865Y-3746D01*
X168200Y-2938D01*
Y-2200D01*
X168338D01*
X169146Y-1865D01*
X169765Y-1246D01*
X170074Y-500D01*
X167900D01*
Y0D01*
X167400D01*
Y2174D01*
D02*
G37*
G36*
X165500Y-3000D02*
X163826D01*
X164135Y-3746D01*
X164754Y-4365D01*
X165500Y-4674D01*
Y-3000D01*
D02*
G37*
G36*
X34474Y-1900D02*
X30126D01*
X30435Y-2646D01*
X31054Y-3265D01*
X31230Y-3338D01*
Y-3879D01*
X30854Y-4035D01*
X30235Y-4654D01*
X29926Y-5400D01*
X34274D01*
X33965Y-4654D01*
X33346Y-4035D01*
X33170Y-3962D01*
Y-3421D01*
X33546Y-3265D01*
X34165Y-2646D01*
X34474Y-1900D01*
D02*
G37*
G36*
X34274Y-6400D02*
X32600D01*
Y-8074D01*
X33346Y-7765D01*
X33965Y-7146D01*
X34274Y-6400D01*
D02*
G37*
G36*
X31600D02*
X29926D01*
X30235Y-7146D01*
X30854Y-7765D01*
X31600Y-8074D01*
Y-6400D01*
D02*
G37*
G36*
X-6700Y-6626D02*
Y-8300D01*
X-5026D01*
X-5335Y-7554D01*
X-5954Y-6935D01*
X-6700Y-6626D01*
D02*
G37*
G36*
X-7700D02*
X-8446Y-6935D01*
X-9065Y-7554D01*
X-9374Y-8300D01*
X-7700D01*
Y-6626D01*
D02*
G37*
G36*
X-29900Y-6726D02*
Y-8400D01*
X-28226D01*
X-28535Y-7654D01*
X-29154Y-7035D01*
X-29900Y-6726D01*
D02*
G37*
G36*
X-30900D02*
X-31646Y-7035D01*
X-32265Y-7654D01*
X-32574Y-8400D01*
X-30900D01*
Y-6726D01*
D02*
G37*
G36*
X48938Y-7600D02*
X48062D01*
X47254Y-7935D01*
X46635Y-8554D01*
X46585Y-8675D01*
X42486D01*
X41946Y-8135D01*
X41138Y-7800D01*
X40262D01*
X39454Y-8135D01*
X38835Y-8754D01*
X38500Y-9562D01*
Y-10438D01*
X38835Y-11246D01*
X39454Y-11865D01*
X40262Y-12200D01*
X41138D01*
X41946Y-11865D01*
X42486Y-11326D01*
X46914D01*
X47254Y-11665D01*
X48062Y-12000D01*
X48938D01*
X49746Y-11665D01*
X50365Y-11046D01*
X50700Y-10238D01*
Y-9362D01*
X50365Y-8554D01*
X49746Y-7935D01*
X48938Y-7600D01*
D02*
G37*
G36*
X548800Y-7026D02*
Y-8700D01*
X550474D01*
X550165Y-7954D01*
X549546Y-7335D01*
X548800Y-7026D01*
D02*
G37*
G36*
X547800D02*
X547054Y-7335D01*
X546435Y-7954D01*
X546126Y-8700D01*
X547800D01*
Y-7026D01*
D02*
G37*
G36*
X-5026Y-9300D02*
X-6700D01*
Y-10974D01*
X-5954Y-10665D01*
X-5335Y-10046D01*
X-5026Y-9300D01*
D02*
G37*
G36*
X-7700D02*
X-9374D01*
X-9065Y-10046D01*
X-8446Y-10665D01*
X-7700Y-10974D01*
Y-9300D01*
D02*
G37*
G36*
X-28226Y-9400D02*
X-29900D01*
Y-11074D01*
X-29154Y-10765D01*
X-28535Y-10146D01*
X-28226Y-9400D01*
D02*
G37*
G36*
X-30900D02*
X-32574D01*
X-32265Y-10146D01*
X-31646Y-10765D01*
X-30900Y-11074D01*
Y-9400D01*
D02*
G37*
G36*
X550474Y-9700D02*
X548800D01*
Y-11374D01*
X549546Y-11065D01*
X550165Y-10446D01*
X550474Y-9700D01*
D02*
G37*
G36*
X547800D02*
X546126D01*
X546435Y-10446D01*
X547054Y-11065D01*
X547800Y-11374D01*
Y-9700D01*
D02*
G37*
G36*
X168900Y-11526D02*
Y-13200D01*
X170574D01*
X170265Y-12454D01*
X169646Y-11835D01*
X168900Y-11526D01*
D02*
G37*
G36*
X167900D02*
X167154Y-11835D01*
X166535Y-12454D01*
X166226Y-13200D01*
X167900D01*
Y-11526D01*
D02*
G37*
G36*
X170574Y-14200D02*
X168900D01*
Y-15874D01*
X169646Y-15565D01*
X170265Y-14946D01*
X170574Y-14200D01*
D02*
G37*
G36*
X167900D02*
X166226D01*
X166535Y-14946D01*
X167154Y-15565D01*
X167900Y-15874D01*
Y-14200D01*
D02*
G37*
G36*
X95038Y24000D02*
X94162D01*
X93354Y23665D01*
X92735Y23046D01*
X92400Y22238D01*
Y21362D01*
X92735Y20554D01*
X93221Y20068D01*
Y-14025D01*
X93035Y-14210D01*
X92700Y-15019D01*
Y-15894D01*
X93035Y-16703D01*
X93654Y-17322D01*
X94462Y-17657D01*
X95338D01*
X96146Y-17322D01*
X96765Y-16703D01*
X97100Y-15894D01*
Y-15019D01*
X96765Y-14210D01*
X96279Y-13725D01*
Y20368D01*
X96465Y20554D01*
X96800Y21362D01*
Y22238D01*
X96465Y23046D01*
X95846Y23665D01*
X95038Y24000D01*
D02*
G37*
G36*
X93000Y-29726D02*
Y-31400D01*
X94674D01*
X94365Y-30654D01*
X93746Y-30035D01*
X93000Y-29726D01*
D02*
G37*
G36*
X92000D02*
X91254Y-30035D01*
X90635Y-30654D01*
X90326Y-31400D01*
X92000D01*
Y-29726D01*
D02*
G37*
G36*
X-12362Y-28600D02*
X-13238D01*
X-14046Y-28935D01*
X-14665Y-29554D01*
X-15000Y-30362D01*
Y-31238D01*
X-14665Y-32046D01*
X-14046Y-32665D01*
X-13238Y-33000D01*
X-12362D01*
X-11554Y-32665D01*
X-11314Y-32425D01*
X9714D01*
X10254Y-32965D01*
X11062Y-33300D01*
X11938D01*
X12746Y-32965D01*
X13365Y-32346D01*
X13700Y-31538D01*
Y-30662D01*
X13365Y-29854D01*
X12746Y-29235D01*
X11938Y-28900D01*
X11062D01*
X10254Y-29235D01*
X9714Y-29774D01*
X-10843D01*
X-10935Y-29554D01*
X-11554Y-28935D01*
X-12362Y-28600D01*
D02*
G37*
G36*
X94674Y-32400D02*
X93000D01*
Y-34074D01*
X93746Y-33765D01*
X94365Y-33146D01*
X94674Y-32400D01*
D02*
G37*
G36*
X92000D02*
X90326D01*
X90635Y-33146D01*
X91254Y-33765D01*
X92000Y-34074D01*
Y-32400D01*
D02*
G37*
G36*
X49138Y17400D02*
X48262D01*
X47454Y17065D01*
X46835Y16446D01*
X46500Y15638D01*
Y14762D01*
X46835Y13954D01*
X47454Y13335D01*
X48262Y13000D01*
X49138D01*
X49946Y13335D01*
X50486Y13874D01*
X56751D01*
X103100Y-32474D01*
Y-33238D01*
X103435Y-34046D01*
X104054Y-34665D01*
X104862Y-35000D01*
X105738D01*
X106546Y-34665D01*
X107165Y-34046D01*
X107500Y-33238D01*
Y-32362D01*
X107165Y-31554D01*
X106546Y-30935D01*
X105738Y-30600D01*
X104974D01*
X58237Y16137D01*
X57807Y16425D01*
X57300Y16525D01*
X50486D01*
X49946Y17065D01*
X49138Y17400D01*
D02*
G37*
G36*
X340527Y-41000D02*
X339473D01*
X338456Y-41273D01*
X337544Y-41799D01*
X336799Y-42544D01*
X336273Y-43456D01*
X336000Y-44473D01*
Y-45527D01*
X336273Y-46544D01*
X336799Y-47456D01*
X337544Y-48201D01*
X338456Y-48727D01*
X339473Y-49000D01*
X340527D01*
X341544Y-48727D01*
X342456Y-48201D01*
X343201Y-47456D01*
X343727Y-46544D01*
X344000Y-45527D01*
Y-44473D01*
X343727Y-43456D01*
X343201Y-42544D01*
X342456Y-41799D01*
X341544Y-41273D01*
X340527Y-41000D01*
D02*
G37*
G36*
X330527D02*
X329473D01*
X328456Y-41273D01*
X327544Y-41799D01*
X326799Y-42544D01*
X326273Y-43456D01*
X326000Y-44473D01*
Y-45527D01*
X326273Y-46544D01*
X326799Y-47456D01*
X327544Y-48201D01*
X328456Y-48727D01*
X329473Y-49000D01*
X330527D01*
X331544Y-48727D01*
X332456Y-48201D01*
X333201Y-47456D01*
X333727Y-46544D01*
X334000Y-45527D01*
Y-44473D01*
X333727Y-43456D01*
X333201Y-42544D01*
X332456Y-41799D01*
X331544Y-41273D01*
X330527Y-41000D01*
D02*
G37*
G36*
X320527D02*
X319473D01*
X318456Y-41273D01*
X317544Y-41799D01*
X316799Y-42544D01*
X316273Y-43456D01*
X316000Y-44473D01*
Y-45527D01*
X316273Y-46544D01*
X316799Y-47456D01*
X317544Y-48201D01*
X318456Y-48727D01*
X319473Y-49000D01*
X320527D01*
X321544Y-48727D01*
X322456Y-48201D01*
X323201Y-47456D01*
X323727Y-46544D01*
X324000Y-45527D01*
Y-44473D01*
X323727Y-43456D01*
X323201Y-42544D01*
X322456Y-41799D01*
X321544Y-41273D01*
X320527Y-41000D01*
D02*
G37*
G36*
X310527D02*
X309473D01*
X308456Y-41273D01*
X307544Y-41799D01*
X306799Y-42544D01*
X306273Y-43456D01*
X306000Y-44473D01*
Y-45527D01*
X306273Y-46544D01*
X306799Y-47456D01*
X307544Y-48201D01*
X308456Y-48727D01*
X309473Y-49000D01*
X310527D01*
X311544Y-48727D01*
X312456Y-48201D01*
X313201Y-47456D01*
X313727Y-46544D01*
X314000Y-45527D01*
Y-44473D01*
X313727Y-43456D01*
X313201Y-42544D01*
X312456Y-41799D01*
X311544Y-41273D01*
X310527Y-41000D01*
D02*
G37*
G36*
X300527D02*
X299473D01*
X298456Y-41273D01*
X297544Y-41799D01*
X296799Y-42544D01*
X296273Y-43456D01*
X296000Y-44473D01*
Y-45527D01*
X296273Y-46544D01*
X296799Y-47456D01*
X297544Y-48201D01*
X298456Y-48727D01*
X299473Y-49000D01*
X300527D01*
X301544Y-48727D01*
X302456Y-48201D01*
X303201Y-47456D01*
X303727Y-46544D01*
X304000Y-45527D01*
Y-44473D01*
X303727Y-43456D01*
X303201Y-42544D01*
X302456Y-41799D01*
X301544Y-41273D01*
X300527Y-41000D01*
D02*
G37*
G36*
X290527D02*
X289473D01*
X288456Y-41273D01*
X287544Y-41799D01*
X286799Y-42544D01*
X286273Y-43456D01*
X286000Y-44473D01*
Y-45527D01*
X286273Y-46544D01*
X286799Y-47456D01*
X287544Y-48201D01*
X288456Y-48727D01*
X289473Y-49000D01*
X290527D01*
X291544Y-48727D01*
X292456Y-48201D01*
X293201Y-47456D01*
X293727Y-46544D01*
X294000Y-45527D01*
Y-44473D01*
X293727Y-43456D01*
X293201Y-42544D01*
X292456Y-41799D01*
X291544Y-41273D01*
X290527Y-41000D01*
D02*
G37*
G36*
X280527D02*
X279473D01*
X278456Y-41273D01*
X277544Y-41799D01*
X276799Y-42544D01*
X276273Y-43456D01*
X276000Y-44473D01*
Y-45527D01*
X276273Y-46544D01*
X276799Y-47456D01*
X277544Y-48201D01*
X278456Y-48727D01*
X279473Y-49000D01*
X280527D01*
X281544Y-48727D01*
X282456Y-48201D01*
X283201Y-47456D01*
X283727Y-46544D01*
X284000Y-45527D01*
Y-44473D01*
X283727Y-43456D01*
X283201Y-42544D01*
X282456Y-41799D01*
X281544Y-41273D01*
X280527Y-41000D01*
D02*
G37*
G36*
X270527D02*
X269473D01*
X268456Y-41273D01*
X267544Y-41799D01*
X266799Y-42544D01*
X266273Y-43456D01*
X266000Y-44473D01*
Y-45527D01*
X266273Y-46544D01*
X266799Y-47456D01*
X267544Y-48201D01*
X268456Y-48727D01*
X269473Y-49000D01*
X270527D01*
X271544Y-48727D01*
X272456Y-48201D01*
X273201Y-47456D01*
X273727Y-46544D01*
X274000Y-45527D01*
Y-44473D01*
X273727Y-43456D01*
X273201Y-42544D01*
X272456Y-41799D01*
X271544Y-41273D01*
X270527Y-41000D01*
D02*
G37*
G36*
X260527D02*
X259473D01*
X258456Y-41273D01*
X257544Y-41799D01*
X256799Y-42544D01*
X256273Y-43456D01*
X256000Y-44473D01*
Y-45527D01*
X256273Y-46544D01*
X256799Y-47456D01*
X257544Y-48201D01*
X258456Y-48727D01*
X259473Y-49000D01*
X260527D01*
X261544Y-48727D01*
X262456Y-48201D01*
X263201Y-47456D01*
X263727Y-46544D01*
X264000Y-45527D01*
Y-44473D01*
X263727Y-43456D01*
X263201Y-42544D01*
X262456Y-41799D01*
X261544Y-41273D01*
X260527Y-41000D01*
D02*
G37*
G36*
X250527D02*
X249473D01*
X248456Y-41273D01*
X247544Y-41799D01*
X246799Y-42544D01*
X246273Y-43456D01*
X246000Y-44473D01*
Y-45527D01*
X246273Y-46544D01*
X246799Y-47456D01*
X247544Y-48201D01*
X248456Y-48727D01*
X249473Y-49000D01*
X250527D01*
X251544Y-48727D01*
X252456Y-48201D01*
X253201Y-47456D01*
X253727Y-46544D01*
X254000Y-45527D01*
Y-44473D01*
X253727Y-43456D01*
X253201Y-42544D01*
X252456Y-41799D01*
X251544Y-41273D01*
X250527Y-41000D01*
D02*
G37*
G36*
X240527D02*
X239473D01*
X238456Y-41273D01*
X237544Y-41799D01*
X236799Y-42544D01*
X236273Y-43456D01*
X236000Y-44473D01*
Y-45527D01*
X236273Y-46544D01*
X236799Y-47456D01*
X237544Y-48201D01*
X238456Y-48727D01*
X239473Y-49000D01*
X240527D01*
X241544Y-48727D01*
X242456Y-48201D01*
X243201Y-47456D01*
X243727Y-46544D01*
X244000Y-45527D01*
Y-44473D01*
X243727Y-43456D01*
X243201Y-42544D01*
X242456Y-41799D01*
X241544Y-41273D01*
X240527Y-41000D01*
D02*
G37*
G36*
X230527D02*
X229473D01*
X228456Y-41273D01*
X227544Y-41799D01*
X226799Y-42544D01*
X226273Y-43456D01*
X226000Y-44473D01*
Y-45527D01*
X226273Y-46544D01*
X226799Y-47456D01*
X227544Y-48201D01*
X228456Y-48727D01*
X229473Y-49000D01*
X230527D01*
X231544Y-48727D01*
X232456Y-48201D01*
X233201Y-47456D01*
X233727Y-46544D01*
X234000Y-45527D01*
Y-44473D01*
X233727Y-43456D01*
X233201Y-42544D01*
X232456Y-41799D01*
X231544Y-41273D01*
X230527Y-41000D01*
D02*
G37*
G36*
X220527D02*
X219473D01*
X218456Y-41273D01*
X217544Y-41799D01*
X216799Y-42544D01*
X216273Y-43456D01*
X216000Y-44473D01*
Y-45527D01*
X216273Y-46544D01*
X216799Y-47456D01*
X217544Y-48201D01*
X218456Y-48727D01*
X219473Y-49000D01*
X220527D01*
X221544Y-48727D01*
X222456Y-48201D01*
X223201Y-47456D01*
X223727Y-46544D01*
X224000Y-45527D01*
Y-44473D01*
X223727Y-43456D01*
X223201Y-42544D01*
X222456Y-41799D01*
X221544Y-41273D01*
X220527Y-41000D01*
D02*
G37*
G36*
X210527D02*
X209473D01*
X208456Y-41273D01*
X207544Y-41799D01*
X206799Y-42544D01*
X206273Y-43456D01*
X206000Y-44473D01*
Y-45527D01*
X206273Y-46544D01*
X206799Y-47456D01*
X207544Y-48201D01*
X208456Y-48727D01*
X209473Y-49000D01*
X210527D01*
X211544Y-48727D01*
X212456Y-48201D01*
X213201Y-47456D01*
X213727Y-46544D01*
X214000Y-45527D01*
Y-44473D01*
X213727Y-43456D01*
X213201Y-42544D01*
X212456Y-41799D01*
X211544Y-41273D01*
X210527Y-41000D01*
D02*
G37*
G36*
X200527D02*
X199473D01*
X198456Y-41273D01*
X197544Y-41799D01*
X196799Y-42544D01*
X196273Y-43456D01*
X196000Y-44473D01*
Y-45527D01*
X196273Y-46544D01*
X196799Y-47456D01*
X197544Y-48201D01*
X198456Y-48727D01*
X199473Y-49000D01*
X200527D01*
X201544Y-48727D01*
X202456Y-48201D01*
X203201Y-47456D01*
X203727Y-46544D01*
X204000Y-45527D01*
Y-44473D01*
X203727Y-43456D01*
X203201Y-42544D01*
X202456Y-41799D01*
X201544Y-41273D01*
X200527Y-41000D01*
D02*
G37*
G36*
X190527D02*
X189473D01*
X188456Y-41273D01*
X187544Y-41799D01*
X186799Y-42544D01*
X186273Y-43456D01*
X186000Y-44473D01*
Y-45527D01*
X186273Y-46544D01*
X186799Y-47456D01*
X187544Y-48201D01*
X188456Y-48727D01*
X189473Y-49000D01*
X190527D01*
X191544Y-48727D01*
X192456Y-48201D01*
X193201Y-47456D01*
X193727Y-46544D01*
X194000Y-45527D01*
Y-44473D01*
X193727Y-43456D01*
X193201Y-42544D01*
X192456Y-41799D01*
X191544Y-41273D01*
X190527Y-41000D01*
D02*
G37*
G36*
X180527D02*
X179473D01*
X178456Y-41273D01*
X177544Y-41799D01*
X176799Y-42544D01*
X176273Y-43456D01*
X176000Y-44473D01*
Y-45527D01*
X176273Y-46544D01*
X176799Y-47456D01*
X177544Y-48201D01*
X178456Y-48727D01*
X179473Y-49000D01*
X180527D01*
X181544Y-48727D01*
X182456Y-48201D01*
X183201Y-47456D01*
X183727Y-46544D01*
X184000Y-45527D01*
Y-44473D01*
X183727Y-43456D01*
X183201Y-42544D01*
X182456Y-41799D01*
X181544Y-41273D01*
X180527Y-41000D01*
D02*
G37*
G36*
X170527D02*
X169473D01*
X168456Y-41273D01*
X167544Y-41799D01*
X166799Y-42544D01*
X166273Y-43456D01*
X166000Y-44473D01*
Y-45527D01*
X166273Y-46544D01*
X166799Y-47456D01*
X167544Y-48201D01*
X168456Y-48727D01*
X169473Y-49000D01*
X170527D01*
X171544Y-48727D01*
X172456Y-48201D01*
X173201Y-47456D01*
X173727Y-46544D01*
X174000Y-45527D01*
Y-44473D01*
X173727Y-43456D01*
X173201Y-42544D01*
X172456Y-41799D01*
X171544Y-41273D01*
X170527Y-41000D01*
D02*
G37*
G36*
X160527D02*
X159473D01*
X158456Y-41273D01*
X157544Y-41799D01*
X156799Y-42544D01*
X156273Y-43456D01*
X156000Y-44473D01*
Y-45527D01*
X156273Y-46544D01*
X156799Y-47456D01*
X157544Y-48201D01*
X158456Y-48727D01*
X159473Y-49000D01*
X160527D01*
X161544Y-48727D01*
X162456Y-48201D01*
X163201Y-47456D01*
X163727Y-46544D01*
X164000Y-45527D01*
Y-44473D01*
X163727Y-43456D01*
X163201Y-42544D01*
X162456Y-41799D01*
X161544Y-41273D01*
X160527Y-41000D01*
D02*
G37*
G36*
X150527D02*
X149473D01*
X148456Y-41273D01*
X147544Y-41799D01*
X146799Y-42544D01*
X146273Y-43456D01*
X146000Y-44473D01*
Y-45527D01*
X146273Y-46544D01*
X146799Y-47456D01*
X147544Y-48201D01*
X148456Y-48727D01*
X149473Y-49000D01*
X150527D01*
X151544Y-48727D01*
X152456Y-48201D01*
X153201Y-47456D01*
X153727Y-46544D01*
X154000Y-45527D01*
Y-44473D01*
X153727Y-43456D01*
X153201Y-42544D01*
X152456Y-41799D01*
X151544Y-41273D01*
X150527Y-41000D01*
D02*
G37*
G36*
X140527D02*
X139473D01*
X138456Y-41273D01*
X137544Y-41799D01*
X136799Y-42544D01*
X136273Y-43456D01*
X136000Y-44473D01*
Y-45527D01*
X136273Y-46544D01*
X136799Y-47456D01*
X137544Y-48201D01*
X138456Y-48727D01*
X139473Y-49000D01*
X140527D01*
X141544Y-48727D01*
X142456Y-48201D01*
X143201Y-47456D01*
X143727Y-46544D01*
X144000Y-45527D01*
Y-44473D01*
X143727Y-43456D01*
X143201Y-42544D01*
X142456Y-41799D01*
X141544Y-41273D01*
X140527Y-41000D01*
D02*
G37*
G36*
X130527D02*
X129473D01*
X128456Y-41273D01*
X127544Y-41799D01*
X126799Y-42544D01*
X126273Y-43456D01*
X126000Y-44473D01*
Y-45527D01*
X126273Y-46544D01*
X126799Y-47456D01*
X127544Y-48201D01*
X128456Y-48727D01*
X129473Y-49000D01*
X130527D01*
X131544Y-48727D01*
X132456Y-48201D01*
X133201Y-47456D01*
X133727Y-46544D01*
X134000Y-45527D01*
Y-44473D01*
X133727Y-43456D01*
X133201Y-42544D01*
X132456Y-41799D01*
X131544Y-41273D01*
X130527Y-41000D01*
D02*
G37*
G36*
X120527D02*
X119473D01*
X118456Y-41273D01*
X117544Y-41799D01*
X116799Y-42544D01*
X116273Y-43456D01*
X116000Y-44473D01*
Y-45527D01*
X116273Y-46544D01*
X116799Y-47456D01*
X117544Y-48201D01*
X118456Y-48727D01*
X119473Y-49000D01*
X120527D01*
X121544Y-48727D01*
X122456Y-48201D01*
X123201Y-47456D01*
X123727Y-46544D01*
X124000Y-45527D01*
Y-44473D01*
X123727Y-43456D01*
X123201Y-42544D01*
X122456Y-41799D01*
X121544Y-41273D01*
X120527Y-41000D01*
D02*
G37*
G36*
X110527D02*
X109473D01*
X108456Y-41273D01*
X107544Y-41799D01*
X106799Y-42544D01*
X106273Y-43456D01*
X106000Y-44473D01*
Y-45527D01*
X106273Y-46544D01*
X106799Y-47456D01*
X107544Y-48201D01*
X108456Y-48727D01*
X109473Y-49000D01*
X110527D01*
X111544Y-48727D01*
X112456Y-48201D01*
X113201Y-47456D01*
X113727Y-46544D01*
X114000Y-45527D01*
Y-44473D01*
X113727Y-43456D01*
X113201Y-42544D01*
X112456Y-41799D01*
X111544Y-41273D01*
X110527Y-41000D01*
D02*
G37*
G36*
X100527D02*
X99473D01*
X98456Y-41273D01*
X97544Y-41799D01*
X96799Y-42544D01*
X96273Y-43456D01*
X96000Y-44473D01*
Y-45527D01*
X96273Y-46544D01*
X96799Y-47456D01*
X97544Y-48201D01*
X98456Y-48727D01*
X99473Y-49000D01*
X100527D01*
X101544Y-48727D01*
X102456Y-48201D01*
X103201Y-47456D01*
X103727Y-46544D01*
X104000Y-45527D01*
Y-44473D01*
X103727Y-43456D01*
X103201Y-42544D01*
X102456Y-41799D01*
X101544Y-41273D01*
X100527Y-41000D01*
D02*
G37*
G36*
X90527D02*
X89473D01*
X88456Y-41273D01*
X87544Y-41799D01*
X86799Y-42544D01*
X86273Y-43456D01*
X86000Y-44473D01*
Y-45527D01*
X86273Y-46544D01*
X86799Y-47456D01*
X87544Y-48201D01*
X88456Y-48727D01*
X89473Y-49000D01*
X90527D01*
X91544Y-48727D01*
X92456Y-48201D01*
X93201Y-47456D01*
X93727Y-46544D01*
X94000Y-45527D01*
Y-44473D01*
X93727Y-43456D01*
X93201Y-42544D01*
X92456Y-41799D01*
X91544Y-41273D01*
X90527Y-41000D01*
D02*
G37*
G36*
X80527D02*
X79473D01*
X78456Y-41273D01*
X77544Y-41799D01*
X76799Y-42544D01*
X76273Y-43456D01*
X76000Y-44473D01*
Y-45527D01*
X76273Y-46544D01*
X76799Y-47456D01*
X77544Y-48201D01*
X78456Y-48727D01*
X79473Y-49000D01*
X80527D01*
X81544Y-48727D01*
X82456Y-48201D01*
X83201Y-47456D01*
X83727Y-46544D01*
X84000Y-45527D01*
Y-44473D01*
X83727Y-43456D01*
X83201Y-42544D01*
X82456Y-41799D01*
X81544Y-41273D01*
X80527Y-41000D01*
D02*
G37*
G36*
X-2962Y10900D02*
X-3838D01*
X-4646Y10565D01*
X-5265Y9946D01*
X-5600Y9138D01*
Y8262D01*
X-5265Y7454D01*
X-4646Y6835D01*
X-4625Y6826D01*
Y-5500D01*
X-4525Y-6007D01*
X-4237Y-6437D01*
X28675Y-39349D01*
Y-41214D01*
X28456Y-41273D01*
X27544Y-41799D01*
X26799Y-42544D01*
X26273Y-43456D01*
X26000Y-44473D01*
Y-45527D01*
X26273Y-46544D01*
X26799Y-47456D01*
X27544Y-48201D01*
X28456Y-48727D01*
X29473Y-49000D01*
X30527D01*
X31544Y-48727D01*
X32456Y-48201D01*
X33201Y-47456D01*
X33727Y-46544D01*
X34000Y-45527D01*
Y-44473D01*
X33727Y-43456D01*
X33201Y-42544D01*
X32456Y-41799D01*
X31544Y-41273D01*
X31326Y-41214D01*
Y-38800D01*
X31225Y-38293D01*
X30937Y-37863D01*
X-1974Y-4951D01*
Y7014D01*
X-1535Y7454D01*
X-1200Y8262D01*
Y9138D01*
X-1535Y9946D01*
X-2154Y10565D01*
X-2962Y10900D01*
D02*
G37*
G36*
X20527Y-41000D02*
X19473D01*
X18456Y-41273D01*
X17544Y-41799D01*
X16799Y-42544D01*
X16273Y-43456D01*
X16000Y-44473D01*
Y-45527D01*
X16273Y-46544D01*
X16799Y-47456D01*
X17544Y-48201D01*
X18456Y-48727D01*
X19473Y-49000D01*
X20527D01*
X21544Y-48727D01*
X22456Y-48201D01*
X23201Y-47456D01*
X23727Y-46544D01*
X24000Y-45527D01*
Y-44473D01*
X23727Y-43456D01*
X23201Y-42544D01*
X22456Y-41799D01*
X21544Y-41273D01*
X20527Y-41000D01*
D02*
G37*
G36*
X10527D02*
X9473D01*
X8456Y-41273D01*
X7544Y-41799D01*
X6799Y-42544D01*
X6273Y-43456D01*
X6000Y-44473D01*
Y-45527D01*
X6273Y-46544D01*
X6799Y-47456D01*
X7544Y-48201D01*
X8456Y-48727D01*
X9473Y-49000D01*
X10527D01*
X11544Y-48727D01*
X12456Y-48201D01*
X13201Y-47456D01*
X13727Y-46544D01*
X14000Y-45527D01*
Y-44473D01*
X13727Y-43456D01*
X13201Y-42544D01*
X12456Y-41799D01*
X11544Y-41273D01*
X10527Y-41000D01*
D02*
G37*
G36*
X4100Y-40900D02*
X-4100D01*
Y-49100D01*
X4100D01*
Y-40900D01*
D02*
G37*
G36*
X10527Y-51000D02*
X10500D01*
Y-54500D01*
X14000D01*
Y-54473D01*
X13727Y-53456D01*
X13201Y-52544D01*
X12456Y-51799D01*
X11544Y-51273D01*
X10527Y-51000D01*
D02*
G37*
G36*
X9500D02*
X9473D01*
X8456Y-51273D01*
X7544Y-51799D01*
X6799Y-52544D01*
X6273Y-53456D01*
X6000Y-54473D01*
Y-54500D01*
X9500D01*
Y-51000D01*
D02*
G37*
G36*
X-26300Y-56426D02*
Y-58100D01*
X-24626D01*
X-24935Y-57354D01*
X-25554Y-56735D01*
X-26300Y-56426D01*
D02*
G37*
G36*
X-27300D02*
X-28046Y-56735D01*
X-28665Y-57354D01*
X-28974Y-58100D01*
X-27300D01*
Y-56426D01*
D02*
G37*
G36*
X-49300Y-57026D02*
Y-58700D01*
X-47626D01*
X-47935Y-57954D01*
X-48554Y-57335D01*
X-49300Y-57026D01*
D02*
G37*
G36*
X-50300D02*
X-51046Y-57335D01*
X-51665Y-57954D01*
X-51974Y-58700D01*
X-50300D01*
Y-57026D01*
D02*
G37*
G36*
X340527Y-51000D02*
X339473D01*
X338456Y-51273D01*
X337544Y-51799D01*
X336799Y-52544D01*
X336273Y-53456D01*
X336000Y-54473D01*
Y-55527D01*
X336273Y-56544D01*
X336799Y-57456D01*
X337544Y-58201D01*
X338456Y-58727D01*
X339473Y-59000D01*
X340527D01*
X341544Y-58727D01*
X342456Y-58201D01*
X343201Y-57456D01*
X343727Y-56544D01*
X344000Y-55527D01*
Y-54473D01*
X343727Y-53456D01*
X343201Y-52544D01*
X342456Y-51799D01*
X341544Y-51273D01*
X340527Y-51000D01*
D02*
G37*
G36*
X330527D02*
X329473D01*
X328456Y-51273D01*
X327544Y-51799D01*
X326799Y-52544D01*
X326273Y-53456D01*
X326000Y-54473D01*
Y-55527D01*
X326273Y-56544D01*
X326799Y-57456D01*
X327544Y-58201D01*
X328456Y-58727D01*
X329473Y-59000D01*
X330527D01*
X331544Y-58727D01*
X332456Y-58201D01*
X333201Y-57456D01*
X333727Y-56544D01*
X334000Y-55527D01*
Y-54473D01*
X333727Y-53456D01*
X333201Y-52544D01*
X332456Y-51799D01*
X331544Y-51273D01*
X330527Y-51000D01*
D02*
G37*
G36*
X320527D02*
X319473D01*
X318456Y-51273D01*
X317544Y-51799D01*
X316799Y-52544D01*
X316273Y-53456D01*
X316000Y-54473D01*
Y-55527D01*
X316273Y-56544D01*
X316799Y-57456D01*
X317544Y-58201D01*
X318456Y-58727D01*
X319473Y-59000D01*
X320527D01*
X321544Y-58727D01*
X322456Y-58201D01*
X323201Y-57456D01*
X323727Y-56544D01*
X324000Y-55527D01*
Y-54473D01*
X323727Y-53456D01*
X323201Y-52544D01*
X322456Y-51799D01*
X321544Y-51273D01*
X320527Y-51000D01*
D02*
G37*
G36*
X310527D02*
X309473D01*
X308456Y-51273D01*
X307544Y-51799D01*
X306799Y-52544D01*
X306273Y-53456D01*
X306000Y-54473D01*
Y-55527D01*
X306273Y-56544D01*
X306799Y-57456D01*
X307544Y-58201D01*
X308456Y-58727D01*
X309473Y-59000D01*
X310527D01*
X311544Y-58727D01*
X312456Y-58201D01*
X313201Y-57456D01*
X313727Y-56544D01*
X314000Y-55527D01*
Y-54473D01*
X313727Y-53456D01*
X313201Y-52544D01*
X312456Y-51799D01*
X311544Y-51273D01*
X310527Y-51000D01*
D02*
G37*
G36*
X300527D02*
X299473D01*
X298456Y-51273D01*
X297544Y-51799D01*
X296799Y-52544D01*
X296273Y-53456D01*
X296000Y-54473D01*
Y-55527D01*
X296273Y-56544D01*
X296799Y-57456D01*
X297544Y-58201D01*
X298456Y-58727D01*
X299473Y-59000D01*
X300527D01*
X301544Y-58727D01*
X302456Y-58201D01*
X303201Y-57456D01*
X303727Y-56544D01*
X304000Y-55527D01*
Y-54473D01*
X303727Y-53456D01*
X303201Y-52544D01*
X302456Y-51799D01*
X301544Y-51273D01*
X300527Y-51000D01*
D02*
G37*
G36*
X290527D02*
X289473D01*
X288456Y-51273D01*
X287544Y-51799D01*
X286799Y-52544D01*
X286273Y-53456D01*
X286000Y-54473D01*
Y-55527D01*
X286273Y-56544D01*
X286799Y-57456D01*
X287544Y-58201D01*
X288456Y-58727D01*
X289473Y-59000D01*
X290527D01*
X291544Y-58727D01*
X292456Y-58201D01*
X293201Y-57456D01*
X293727Y-56544D01*
X294000Y-55527D01*
Y-54473D01*
X293727Y-53456D01*
X293201Y-52544D01*
X292456Y-51799D01*
X291544Y-51273D01*
X290527Y-51000D01*
D02*
G37*
G36*
X280527D02*
X279473D01*
X278456Y-51273D01*
X277544Y-51799D01*
X276799Y-52544D01*
X276273Y-53456D01*
X276000Y-54473D01*
Y-55527D01*
X276273Y-56544D01*
X276799Y-57456D01*
X277544Y-58201D01*
X278456Y-58727D01*
X279473Y-59000D01*
X280527D01*
X281544Y-58727D01*
X282456Y-58201D01*
X283201Y-57456D01*
X283727Y-56544D01*
X284000Y-55527D01*
Y-54473D01*
X283727Y-53456D01*
X283201Y-52544D01*
X282456Y-51799D01*
X281544Y-51273D01*
X280527Y-51000D01*
D02*
G37*
G36*
X270527D02*
X269473D01*
X268456Y-51273D01*
X267544Y-51799D01*
X266799Y-52544D01*
X266273Y-53456D01*
X266000Y-54473D01*
Y-55527D01*
X266273Y-56544D01*
X266799Y-57456D01*
X267544Y-58201D01*
X268456Y-58727D01*
X269473Y-59000D01*
X270527D01*
X271544Y-58727D01*
X272456Y-58201D01*
X273201Y-57456D01*
X273727Y-56544D01*
X274000Y-55527D01*
Y-54473D01*
X273727Y-53456D01*
X273201Y-52544D01*
X272456Y-51799D01*
X271544Y-51273D01*
X270527Y-51000D01*
D02*
G37*
G36*
X260527D02*
X259473D01*
X258456Y-51273D01*
X257544Y-51799D01*
X256799Y-52544D01*
X256273Y-53456D01*
X256000Y-54473D01*
Y-55527D01*
X256273Y-56544D01*
X256799Y-57456D01*
X257544Y-58201D01*
X258456Y-58727D01*
X259473Y-59000D01*
X260527D01*
X261544Y-58727D01*
X262456Y-58201D01*
X263201Y-57456D01*
X263727Y-56544D01*
X264000Y-55527D01*
Y-54473D01*
X263727Y-53456D01*
X263201Y-52544D01*
X262456Y-51799D01*
X261544Y-51273D01*
X260527Y-51000D01*
D02*
G37*
G36*
X250527D02*
X249473D01*
X248456Y-51273D01*
X247544Y-51799D01*
X246799Y-52544D01*
X246273Y-53456D01*
X246000Y-54473D01*
Y-55527D01*
X246273Y-56544D01*
X246799Y-57456D01*
X247544Y-58201D01*
X248456Y-58727D01*
X249473Y-59000D01*
X250527D01*
X251544Y-58727D01*
X252456Y-58201D01*
X253201Y-57456D01*
X253727Y-56544D01*
X254000Y-55527D01*
Y-54473D01*
X253727Y-53456D01*
X253201Y-52544D01*
X252456Y-51799D01*
X251544Y-51273D01*
X250527Y-51000D01*
D02*
G37*
G36*
X240527D02*
X239473D01*
X238456Y-51273D01*
X237544Y-51799D01*
X236799Y-52544D01*
X236273Y-53456D01*
X236000Y-54473D01*
Y-55527D01*
X236273Y-56544D01*
X236799Y-57456D01*
X237544Y-58201D01*
X238456Y-58727D01*
X239473Y-59000D01*
X240527D01*
X241544Y-58727D01*
X242456Y-58201D01*
X243201Y-57456D01*
X243727Y-56544D01*
X244000Y-55527D01*
Y-54473D01*
X243727Y-53456D01*
X243201Y-52544D01*
X242456Y-51799D01*
X241544Y-51273D01*
X240527Y-51000D01*
D02*
G37*
G36*
X230527D02*
X229473D01*
X228456Y-51273D01*
X227544Y-51799D01*
X226799Y-52544D01*
X226273Y-53456D01*
X226000Y-54473D01*
Y-55527D01*
X226273Y-56544D01*
X226799Y-57456D01*
X227544Y-58201D01*
X228456Y-58727D01*
X229473Y-59000D01*
X230527D01*
X231544Y-58727D01*
X232456Y-58201D01*
X233201Y-57456D01*
X233727Y-56544D01*
X234000Y-55527D01*
Y-54473D01*
X233727Y-53456D01*
X233201Y-52544D01*
X232456Y-51799D01*
X231544Y-51273D01*
X230527Y-51000D01*
D02*
G37*
G36*
X220527D02*
X219473D01*
X218456Y-51273D01*
X217544Y-51799D01*
X216799Y-52544D01*
X216273Y-53456D01*
X216000Y-54473D01*
Y-55527D01*
X216273Y-56544D01*
X216799Y-57456D01*
X217544Y-58201D01*
X218456Y-58727D01*
X219473Y-59000D01*
X220527D01*
X221544Y-58727D01*
X222456Y-58201D01*
X223201Y-57456D01*
X223727Y-56544D01*
X224000Y-55527D01*
Y-54473D01*
X223727Y-53456D01*
X223201Y-52544D01*
X222456Y-51799D01*
X221544Y-51273D01*
X220527Y-51000D01*
D02*
G37*
G36*
X210527D02*
X209473D01*
X208456Y-51273D01*
X207544Y-51799D01*
X206799Y-52544D01*
X206273Y-53456D01*
X206000Y-54473D01*
Y-55527D01*
X206273Y-56544D01*
X206799Y-57456D01*
X207544Y-58201D01*
X208456Y-58727D01*
X209473Y-59000D01*
X210527D01*
X211544Y-58727D01*
X212456Y-58201D01*
X213201Y-57456D01*
X213727Y-56544D01*
X214000Y-55527D01*
Y-54473D01*
X213727Y-53456D01*
X213201Y-52544D01*
X212456Y-51799D01*
X211544Y-51273D01*
X210527Y-51000D01*
D02*
G37*
G36*
X200527D02*
X199473D01*
X198456Y-51273D01*
X197544Y-51799D01*
X196799Y-52544D01*
X196273Y-53456D01*
X196000Y-54473D01*
Y-55527D01*
X196273Y-56544D01*
X196799Y-57456D01*
X197544Y-58201D01*
X198456Y-58727D01*
X199473Y-59000D01*
X200527D01*
X201544Y-58727D01*
X202456Y-58201D01*
X203201Y-57456D01*
X203727Y-56544D01*
X204000Y-55527D01*
Y-54473D01*
X203727Y-53456D01*
X203201Y-52544D01*
X202456Y-51799D01*
X201544Y-51273D01*
X200527Y-51000D01*
D02*
G37*
G36*
X190527D02*
X189473D01*
X188456Y-51273D01*
X187544Y-51799D01*
X186799Y-52544D01*
X186273Y-53456D01*
X186000Y-54473D01*
Y-55527D01*
X186273Y-56544D01*
X186799Y-57456D01*
X187544Y-58201D01*
X188456Y-58727D01*
X189473Y-59000D01*
X190527D01*
X191544Y-58727D01*
X192456Y-58201D01*
X193201Y-57456D01*
X193727Y-56544D01*
X194000Y-55527D01*
Y-54473D01*
X193727Y-53456D01*
X193201Y-52544D01*
X192456Y-51799D01*
X191544Y-51273D01*
X190527Y-51000D01*
D02*
G37*
G36*
X180527D02*
X179473D01*
X178456Y-51273D01*
X177544Y-51799D01*
X176799Y-52544D01*
X176273Y-53456D01*
X176000Y-54473D01*
Y-55527D01*
X176273Y-56544D01*
X176799Y-57456D01*
X177544Y-58201D01*
X178456Y-58727D01*
X179473Y-59000D01*
X180527D01*
X181544Y-58727D01*
X182456Y-58201D01*
X183201Y-57456D01*
X183727Y-56544D01*
X184000Y-55527D01*
Y-54473D01*
X183727Y-53456D01*
X183201Y-52544D01*
X182456Y-51799D01*
X181544Y-51273D01*
X180527Y-51000D01*
D02*
G37*
G36*
X170527D02*
X169473D01*
X168456Y-51273D01*
X167544Y-51799D01*
X166799Y-52544D01*
X166273Y-53456D01*
X166000Y-54473D01*
Y-55527D01*
X166273Y-56544D01*
X166799Y-57456D01*
X167544Y-58201D01*
X168456Y-58727D01*
X169473Y-59000D01*
X170527D01*
X171544Y-58727D01*
X172456Y-58201D01*
X173201Y-57456D01*
X173727Y-56544D01*
X174000Y-55527D01*
Y-54473D01*
X173727Y-53456D01*
X173201Y-52544D01*
X172456Y-51799D01*
X171544Y-51273D01*
X170527Y-51000D01*
D02*
G37*
G36*
X160527D02*
X159473D01*
X158456Y-51273D01*
X157544Y-51799D01*
X156799Y-52544D01*
X156273Y-53456D01*
X156000Y-54473D01*
Y-55527D01*
X156273Y-56544D01*
X156799Y-57456D01*
X157544Y-58201D01*
X158456Y-58727D01*
X159473Y-59000D01*
X160527D01*
X161544Y-58727D01*
X162456Y-58201D01*
X163201Y-57456D01*
X163727Y-56544D01*
X164000Y-55527D01*
Y-54473D01*
X163727Y-53456D01*
X163201Y-52544D01*
X162456Y-51799D01*
X161544Y-51273D01*
X160527Y-51000D01*
D02*
G37*
G36*
X150527D02*
X149473D01*
X148456Y-51273D01*
X147544Y-51799D01*
X146799Y-52544D01*
X146273Y-53456D01*
X146000Y-54473D01*
Y-55527D01*
X146273Y-56544D01*
X146799Y-57456D01*
X147544Y-58201D01*
X148456Y-58727D01*
X149473Y-59000D01*
X150527D01*
X151544Y-58727D01*
X152456Y-58201D01*
X153201Y-57456D01*
X153727Y-56544D01*
X154000Y-55527D01*
Y-54473D01*
X153727Y-53456D01*
X153201Y-52544D01*
X152456Y-51799D01*
X151544Y-51273D01*
X150527Y-51000D01*
D02*
G37*
G36*
X140527D02*
X139473D01*
X138456Y-51273D01*
X137544Y-51799D01*
X136799Y-52544D01*
X136273Y-53456D01*
X136000Y-54473D01*
Y-55527D01*
X136273Y-56544D01*
X136799Y-57456D01*
X137544Y-58201D01*
X138456Y-58727D01*
X139473Y-59000D01*
X140527D01*
X141544Y-58727D01*
X142456Y-58201D01*
X143201Y-57456D01*
X143727Y-56544D01*
X144000Y-55527D01*
Y-54473D01*
X143727Y-53456D01*
X143201Y-52544D01*
X142456Y-51799D01*
X141544Y-51273D01*
X140527Y-51000D01*
D02*
G37*
G36*
X130527D02*
X129473D01*
X128456Y-51273D01*
X127544Y-51799D01*
X126799Y-52544D01*
X126273Y-53456D01*
X126000Y-54473D01*
Y-55527D01*
X126273Y-56544D01*
X126799Y-57456D01*
X127544Y-58201D01*
X128456Y-58727D01*
X129473Y-59000D01*
X130527D01*
X131544Y-58727D01*
X132456Y-58201D01*
X133201Y-57456D01*
X133727Y-56544D01*
X134000Y-55527D01*
Y-54473D01*
X133727Y-53456D01*
X133201Y-52544D01*
X132456Y-51799D01*
X131544Y-51273D01*
X130527Y-51000D01*
D02*
G37*
G36*
X120527D02*
X119473D01*
X118456Y-51273D01*
X117544Y-51799D01*
X116799Y-52544D01*
X116273Y-53456D01*
X116000Y-54473D01*
Y-55527D01*
X116273Y-56544D01*
X116799Y-57456D01*
X117544Y-58201D01*
X118456Y-58727D01*
X119473Y-59000D01*
X120527D01*
X121544Y-58727D01*
X122456Y-58201D01*
X123201Y-57456D01*
X123727Y-56544D01*
X124000Y-55527D01*
Y-54473D01*
X123727Y-53456D01*
X123201Y-52544D01*
X122456Y-51799D01*
X121544Y-51273D01*
X120527Y-51000D01*
D02*
G37*
G36*
X110527D02*
X109473D01*
X108456Y-51273D01*
X107544Y-51799D01*
X106799Y-52544D01*
X106273Y-53456D01*
X106000Y-54473D01*
Y-55527D01*
X106273Y-56544D01*
X106799Y-57456D01*
X107544Y-58201D01*
X108456Y-58727D01*
X109473Y-59000D01*
X110527D01*
X111544Y-58727D01*
X112456Y-58201D01*
X113201Y-57456D01*
X113727Y-56544D01*
X114000Y-55527D01*
Y-54473D01*
X113727Y-53456D01*
X113201Y-52544D01*
X112456Y-51799D01*
X111544Y-51273D01*
X110527Y-51000D01*
D02*
G37*
G36*
X100527D02*
X99473D01*
X98456Y-51273D01*
X97544Y-51799D01*
X96799Y-52544D01*
X96273Y-53456D01*
X96000Y-54473D01*
Y-55527D01*
X96273Y-56544D01*
X96799Y-57456D01*
X97544Y-58201D01*
X98456Y-58727D01*
X99473Y-59000D01*
X100527D01*
X101544Y-58727D01*
X102456Y-58201D01*
X103201Y-57456D01*
X103727Y-56544D01*
X104000Y-55527D01*
Y-54473D01*
X103727Y-53456D01*
X103201Y-52544D01*
X102456Y-51799D01*
X101544Y-51273D01*
X100527Y-51000D01*
D02*
G37*
G36*
X90527D02*
X89473D01*
X88456Y-51273D01*
X87544Y-51799D01*
X86799Y-52544D01*
X86273Y-53456D01*
X86000Y-54473D01*
Y-55527D01*
X86273Y-56544D01*
X86799Y-57456D01*
X87544Y-58201D01*
X88456Y-58727D01*
X89473Y-59000D01*
X90527D01*
X91544Y-58727D01*
X92456Y-58201D01*
X93201Y-57456D01*
X93727Y-56544D01*
X94000Y-55527D01*
Y-54473D01*
X93727Y-53456D01*
X93201Y-52544D01*
X92456Y-51799D01*
X91544Y-51273D01*
X90527Y-51000D01*
D02*
G37*
G36*
X80527D02*
X79473D01*
X78456Y-51273D01*
X77544Y-51799D01*
X76799Y-52544D01*
X76273Y-53456D01*
X76000Y-54473D01*
Y-55527D01*
X76273Y-56544D01*
X76799Y-57456D01*
X77544Y-58201D01*
X78456Y-58727D01*
X79473Y-59000D01*
X80527D01*
X81544Y-58727D01*
X82456Y-58201D01*
X83201Y-57456D01*
X83727Y-56544D01*
X84000Y-55527D01*
Y-54473D01*
X83727Y-53456D01*
X83201Y-52544D01*
X82456Y-51799D01*
X81544Y-51273D01*
X80527Y-51000D01*
D02*
G37*
G36*
X70527D02*
X69473D01*
X68456Y-51273D01*
X67544Y-51799D01*
X66799Y-52544D01*
X66273Y-53456D01*
X66000Y-54473D01*
Y-55527D01*
X66273Y-56544D01*
X66799Y-57456D01*
X67544Y-58201D01*
X68456Y-58727D01*
X69473Y-59000D01*
X70527D01*
X71544Y-58727D01*
X72456Y-58201D01*
X73201Y-57456D01*
X73727Y-56544D01*
X74000Y-55527D01*
Y-54473D01*
X73727Y-53456D01*
X73201Y-52544D01*
X72456Y-51799D01*
X71544Y-51273D01*
X70527Y-51000D01*
D02*
G37*
G36*
X60527D02*
X59473D01*
X58456Y-51273D01*
X57544Y-51799D01*
X56799Y-52544D01*
X56273Y-53456D01*
X56000Y-54473D01*
Y-55527D01*
X56273Y-56544D01*
X56799Y-57456D01*
X57544Y-58201D01*
X58456Y-58727D01*
X59473Y-59000D01*
X60527D01*
X61544Y-58727D01*
X62456Y-58201D01*
X63201Y-57456D01*
X63727Y-56544D01*
X64000Y-55527D01*
Y-54473D01*
X63727Y-53456D01*
X63201Y-52544D01*
X62456Y-51799D01*
X61544Y-51273D01*
X60527Y-51000D01*
D02*
G37*
G36*
X40527D02*
X39473D01*
X38456Y-51273D01*
X37544Y-51799D01*
X36799Y-52544D01*
X36273Y-53456D01*
X36000Y-54473D01*
Y-55527D01*
X36273Y-56544D01*
X36799Y-57456D01*
X37544Y-58201D01*
X38456Y-58727D01*
X39473Y-59000D01*
X40527D01*
X41544Y-58727D01*
X42456Y-58201D01*
X43201Y-57456D01*
X43727Y-56544D01*
X44000Y-55527D01*
Y-54473D01*
X43727Y-53456D01*
X43201Y-52544D01*
X42456Y-51799D01*
X41544Y-51273D01*
X40527Y-51000D01*
D02*
G37*
G36*
X30527D02*
X29473D01*
X28456Y-51273D01*
X27544Y-51799D01*
X26799Y-52544D01*
X26273Y-53456D01*
X26000Y-54473D01*
Y-55527D01*
X26273Y-56544D01*
X26799Y-57456D01*
X27544Y-58201D01*
X28456Y-58727D01*
X29473Y-59000D01*
X30527D01*
X31544Y-58727D01*
X32456Y-58201D01*
X33201Y-57456D01*
X33727Y-56544D01*
X34000Y-55527D01*
Y-54473D01*
X33727Y-53456D01*
X33201Y-52544D01*
X32456Y-51799D01*
X31544Y-51273D01*
X30527Y-51000D01*
D02*
G37*
G36*
X20527D02*
X19473D01*
X18456Y-51273D01*
X17544Y-51799D01*
X16799Y-52544D01*
X16273Y-53456D01*
X16000Y-54473D01*
Y-55527D01*
X16273Y-56544D01*
X16799Y-57456D01*
X17544Y-58201D01*
X18456Y-58727D01*
X19473Y-59000D01*
X20527D01*
X21544Y-58727D01*
X22456Y-58201D01*
X23201Y-57456D01*
X23727Y-56544D01*
X24000Y-55527D01*
Y-54473D01*
X23727Y-53456D01*
X23201Y-52544D01*
X22456Y-51799D01*
X21544Y-51273D01*
X20527Y-51000D01*
D02*
G37*
G36*
X14000Y-55500D02*
X10500D01*
Y-59000D01*
X10527D01*
X11544Y-58727D01*
X12456Y-58201D01*
X13201Y-57456D01*
X13727Y-56544D01*
X14000Y-55527D01*
Y-55500D01*
D02*
G37*
G36*
X9500D02*
X6000D01*
Y-55527D01*
X6273Y-56544D01*
X6799Y-57456D01*
X7544Y-58201D01*
X8456Y-58727D01*
X9473Y-59000D01*
X9500D01*
Y-55500D01*
D02*
G37*
G36*
X527Y-51000D02*
X-527D01*
X-1544Y-51273D01*
X-2456Y-51799D01*
X-3201Y-52544D01*
X-3727Y-53456D01*
X-4000Y-54473D01*
Y-55527D01*
X-3727Y-56544D01*
X-3201Y-57456D01*
X-2456Y-58201D01*
X-1544Y-58727D01*
X-527Y-59000D01*
X527D01*
X1544Y-58727D01*
X2456Y-58201D01*
X3201Y-57456D01*
X3727Y-56544D01*
X4000Y-55527D01*
Y-54473D01*
X3727Y-53456D01*
X3201Y-52544D01*
X2456Y-51799D01*
X1544Y-51273D01*
X527Y-51000D01*
D02*
G37*
G36*
X-24626Y-59100D02*
X-26300D01*
Y-60774D01*
X-25554Y-60465D01*
X-24935Y-59846D01*
X-24626Y-59100D01*
D02*
G37*
G36*
X-27300D02*
X-28974D01*
X-28665Y-59846D01*
X-28046Y-60465D01*
X-27300Y-60774D01*
Y-59100D01*
D02*
G37*
G36*
X-47626Y-59700D02*
X-49300D01*
Y-61374D01*
X-48554Y-61065D01*
X-47935Y-60446D01*
X-47626Y-59700D01*
D02*
G37*
G36*
X-50300D02*
X-51974D01*
X-51665Y-60446D01*
X-51046Y-61065D01*
X-50300Y-61374D01*
Y-59700D01*
D02*
G37*
G36*
X341614Y-67200D02*
X340186D01*
X338785Y-67479D01*
X337466Y-68025D01*
X336278Y-68819D01*
X335269Y-69828D01*
X334475Y-71016D01*
X333929Y-72335D01*
X333650Y-73736D01*
Y-75164D01*
X333929Y-76565D01*
X334475Y-77884D01*
X335269Y-79072D01*
X336278Y-80081D01*
X337466Y-80875D01*
X338785Y-81421D01*
X340186Y-81700D01*
X341614D01*
X343015Y-81421D01*
X344334Y-80875D01*
X345522Y-80081D01*
X346531Y-79072D01*
X347325Y-77884D01*
X347871Y-76565D01*
X348150Y-75164D01*
Y-73736D01*
X347871Y-72335D01*
X347325Y-71016D01*
X346531Y-69828D01*
X345522Y-68819D01*
X344334Y-68025D01*
X343015Y-67479D01*
X341614Y-67200D01*
D02*
G37*
G36*
X1614D02*
X186D01*
X-1215Y-67479D01*
X-2534Y-68025D01*
X-3722Y-68819D01*
X-4731Y-69828D01*
X-5525Y-71016D01*
X-6071Y-72335D01*
X-6350Y-73736D01*
Y-75164D01*
X-6071Y-76565D01*
X-5525Y-77884D01*
X-4731Y-79072D01*
X-3722Y-80081D01*
X-2534Y-80875D01*
X-1215Y-81421D01*
X186Y-81700D01*
X1614D01*
X3015Y-81421D01*
X4334Y-80875D01*
X5522Y-80081D01*
X6531Y-79072D01*
X7325Y-77884D01*
X7871Y-76565D01*
X8150Y-75164D01*
Y-73736D01*
X7871Y-72335D01*
X7325Y-71016D01*
X6531Y-69828D01*
X5522Y-68819D01*
X4334Y-68025D01*
X3015Y-67479D01*
X1614Y-67200D01*
D02*
G37*
G36*
X310238Y-75400D02*
X309362D01*
X308554Y-75735D01*
X307935Y-76354D01*
X307600Y-77162D01*
Y-78038D01*
X307935Y-78846D01*
X308271Y-79182D01*
Y-86418D01*
X307935Y-86754D01*
X307600Y-87562D01*
Y-88438D01*
X307935Y-89246D01*
X308554Y-89865D01*
X309362Y-90200D01*
X310238D01*
X311046Y-89865D01*
X311665Y-89246D01*
X312000Y-88438D01*
Y-87562D01*
X311665Y-86754D01*
X311329Y-86418D01*
Y-79182D01*
X311665Y-78846D01*
X312000Y-78038D01*
Y-77162D01*
X311665Y-76354D01*
X311046Y-75735D01*
X310238Y-75400D01*
D02*
G37*
G36*
X19738Y-94400D02*
X18862D01*
X18054Y-94735D01*
X17464Y-95324D01*
X8536D01*
X8046Y-94835D01*
X7238Y-94500D01*
X6362D01*
X5554Y-94835D01*
X4935Y-95454D01*
X4600Y-96262D01*
Y-97138D01*
X4935Y-97946D01*
X5554Y-98565D01*
X6362Y-98900D01*
X7238D01*
X8046Y-98565D01*
X8636Y-97975D01*
X17564D01*
X18054Y-98465D01*
X18862Y-98800D01*
X19738D01*
X20546Y-98465D01*
X20986Y-98026D01*
X34226D01*
X34235Y-98046D01*
X34854Y-98665D01*
X35662Y-99000D01*
X36538D01*
X37346Y-98665D01*
X37965Y-98046D01*
X38300Y-97238D01*
Y-96362D01*
X37965Y-95554D01*
X37346Y-94935D01*
X36538Y-94600D01*
X35662D01*
X34854Y-94935D01*
X34414Y-95375D01*
X21174D01*
X21165Y-95354D01*
X20546Y-94735D01*
X19738Y-94400D01*
D02*
G37*
G36*
X17038Y-88500D02*
X16162D01*
X15354Y-88835D01*
X14735Y-89454D01*
X14400Y-90262D01*
Y-91138D01*
X14735Y-91946D01*
X15354Y-92565D01*
X16162Y-92900D01*
X17038D01*
X17846Y-92565D01*
X18386Y-92026D01*
X35351D01*
X39674Y-96349D01*
Y-97214D01*
X39135Y-97754D01*
X38800Y-98562D01*
Y-99438D01*
X39135Y-100246D01*
X39754Y-100865D01*
X40562Y-101200D01*
X41438D01*
X42246Y-100865D01*
X42865Y-100246D01*
X43200Y-99438D01*
Y-98562D01*
X42865Y-97754D01*
X42325Y-97214D01*
Y-95800D01*
X42225Y-95293D01*
X41937Y-94863D01*
X36837Y-89763D01*
X36407Y-89475D01*
X35900Y-89375D01*
X18386D01*
X17846Y-88835D01*
X17038Y-88500D01*
D02*
G37*
G36*
X41600Y-140426D02*
Y-142100D01*
X43274D01*
X42965Y-141354D01*
X42346Y-140735D01*
X41600Y-140426D01*
D02*
G37*
G36*
X40600D02*
X39854Y-140735D01*
X39235Y-141354D01*
X38926Y-142100D01*
X40600D01*
Y-140426D01*
D02*
G37*
G36*
X4000Y-140626D02*
Y-142300D01*
X5674D01*
X5365Y-141554D01*
X4746Y-140935D01*
X4000Y-140626D01*
D02*
G37*
G36*
X3000D02*
X2254Y-140935D01*
X1635Y-141554D01*
X1326Y-142300D01*
X3000D01*
Y-140626D01*
D02*
G37*
G36*
X43274Y-143100D02*
X41600D01*
Y-144774D01*
X42346Y-144465D01*
X42965Y-143846D01*
X43274Y-143100D01*
D02*
G37*
G36*
X40600D02*
X38926D01*
X39235Y-143846D01*
X39854Y-144465D01*
X40600Y-144774D01*
Y-143100D01*
D02*
G37*
G36*
X5674Y-143300D02*
X4000D01*
Y-144974D01*
X4746Y-144665D01*
X5365Y-144046D01*
X5674Y-143300D01*
D02*
G37*
G36*
X3000D02*
X1326D01*
X1635Y-144046D01*
X2254Y-144665D01*
X3000Y-144974D01*
Y-143300D01*
D02*
G37*
G36*
X17900Y-156026D02*
Y-157700D01*
X19574D01*
X19265Y-156954D01*
X18646Y-156335D01*
X17900Y-156026D01*
D02*
G37*
G36*
X16900D02*
X16154Y-156335D01*
X15535Y-156954D01*
X15226Y-157700D01*
X16900D01*
Y-156026D01*
D02*
G37*
G36*
X36400Y-157526D02*
Y-159200D01*
X38074D01*
X37765Y-158454D01*
X37146Y-157835D01*
X36400Y-157526D01*
D02*
G37*
G36*
X19574Y-158700D02*
X17900D01*
Y-160374D01*
X18646Y-160065D01*
X19265Y-159446D01*
X19574Y-158700D01*
D02*
G37*
G36*
X16900D02*
X15226D01*
X15535Y-159446D01*
X16154Y-160065D01*
X16900Y-160374D01*
Y-158700D01*
D02*
G37*
G36*
X38074Y-160200D02*
X36400D01*
Y-161874D01*
X37146Y-161565D01*
X37765Y-160946D01*
X38074Y-160200D01*
D02*
G37*
%LPD*%
D10*
X900Y-4400D02*
Y11000D01*
Y-4400D02*
X7600Y-11100D01*
X900Y11000D02*
X3700Y13800D01*
X-24100Y-44800D02*
X-6300Y-62600D01*
X-24100Y-44800D02*
Y-23600D01*
X-6300Y-62600D02*
X40300D01*
X46700Y-87600D02*
Y-69000D01*
X40300Y-62600D02*
X46700Y-69000D01*
X18100Y-11100D02*
X18200Y-11000D01*
X7600Y-11100D02*
X18100D01*
X94750Y-15307D02*
X94900Y-15457D01*
X94750Y-15307D02*
Y21650D01*
X94600Y21800D02*
X94750Y21650D01*
X47600Y-18900D02*
X50500Y-16000D01*
X21400Y-18900D02*
X47600D01*
X18641Y-16141D02*
Y-15859D01*
Y-16141D02*
X21400Y-18900D01*
X480000Y6700D02*
X482200Y8900D01*
X527423D01*
X309800Y-88000D02*
Y-77600D01*
D16*
X24500Y32003D02*
Y102103D01*
X25700Y32500D02*
Y102600D01*
X19600Y107003D02*
X24500Y102103D01*
X20900Y107400D02*
X25700Y102600D01*
X24500Y32003D02*
X64200Y-7697D01*
X25700Y32500D02*
X65400Y-7200D01*
X18696Y113666D02*
X19600Y112763D01*
Y107003D02*
Y112763D01*
X18696Y113666D02*
Y114014D01*
X20900Y107400D02*
Y112637D01*
X15100Y18600D02*
X18100D01*
X23200Y-1800D02*
Y13500D01*
X18100Y18600D02*
X23200Y13500D01*
X50000Y-98200D02*
Y-55000D01*
X27100Y-161800D02*
Y-121100D01*
X50000Y-98200D01*
X65400Y-40400D02*
Y-7200D01*
X64200Y-40800D02*
Y-7697D01*
X60000Y-45000D02*
X64200Y-40800D01*
X65400Y-40400D02*
X70000Y-45000D01*
X39600Y9200D02*
X44000D01*
X39500Y9100D02*
X39600Y9200D01*
X32000Y9100D02*
X39500D01*
X44000Y9200D02*
X52800Y400D01*
X36500Y6200D02*
X39700D01*
X42800Y3100D01*
X13400Y6067D02*
X13842Y6509D01*
X13400Y-1100D02*
Y6067D01*
X17900Y-3478D02*
Y-1000D01*
X17678Y-3700D02*
X17900Y-3478D01*
Y-3700D02*
X21300D01*
X6700D02*
X17678D01*
X17900D01*
X21300D02*
X23200Y-1800D01*
X19213Y143851D02*
Y146187D01*
X18963Y146438D02*
X19213Y146187D01*
Y143851D02*
X21194Y141869D01*
X16200Y3000D02*
X16243Y3043D01*
Y14856D01*
X16287Y14900D01*
X13842Y6509D02*
Y6996D01*
X33600Y3300D02*
X39579Y-2679D01*
X46158D01*
X4600Y-1600D02*
X6700Y-3700D01*
X57300Y15200D02*
X105300Y-32800D01*
X29700Y-158800D02*
Y-126400D01*
Y-158800D02*
X31500Y-160600D01*
X24700Y-159100D02*
Y-135100D01*
X23000Y-160800D02*
X24700Y-159100D01*
X16600Y-90700D02*
X35900D01*
X6800Y-96700D02*
X6850Y-96650D01*
X19250D01*
X19300Y-96600D01*
X19400Y-96700D01*
X36000D01*
X36100Y-96800D01*
X41000Y-99000D02*
Y-95800D01*
X52800Y-20700D02*
Y400D01*
X45300Y-50300D02*
Y-28200D01*
X52800Y-20700D01*
X48700Y15200D02*
X57300D01*
X31900Y9000D02*
X32000Y9100D01*
X20900Y112637D02*
X21739Y113475D01*
Y113888D01*
X130400Y-18800D02*
X130600Y-19000D01*
X130400Y-18800D02*
Y16200D01*
X130200Y16400D02*
X130400Y16200D01*
X-3300Y-5500D02*
X30000Y-38800D01*
Y-45000D02*
Y-38800D01*
X-3300Y-5500D02*
Y8600D01*
X-3400Y8700D02*
X-3300Y8600D01*
X24700Y155400D02*
X24900Y155600D01*
X15000Y155400D02*
X24700D01*
X40700Y-10000D02*
X48300D01*
X48500Y-9800D01*
X126000Y1400D02*
X126249D01*
X126600Y1048D01*
Y900D02*
Y1048D01*
X112700Y14700D02*
X126000Y1400D01*
X45300Y-50300D02*
X50000Y-55000D01*
X35900Y-90700D02*
X41000Y-95800D01*
X-12500Y-31100D02*
X11500D01*
X-12800Y-30800D02*
X-12500Y-31100D01*
X21400Y-131800D02*
X24700Y-135100D01*
D53*
X42300Y66000D02*
X82500D01*
X42200Y65900D02*
X42300Y66000D01*
D54*
X117400Y25900D02*
X139800D01*
D56*
X4331Y144153D02*
D03*
X35827D02*
D03*
D57*
X4331Y149784D02*
D03*
X35827D02*
D03*
X4331Y138524D02*
D03*
X35827D02*
D03*
D58*
X340000Y-55000D02*
D03*
Y-45000D02*
D03*
X330000Y-55000D02*
D03*
Y-45000D02*
D03*
X320000Y-55000D02*
D03*
Y-45000D02*
D03*
X310000Y-55000D02*
D03*
Y-45000D02*
D03*
X300000Y-55000D02*
D03*
Y-45000D02*
D03*
X290000Y-55000D02*
D03*
Y-45000D02*
D03*
X280000Y-55000D02*
D03*
Y-45000D02*
D03*
X270000Y-55000D02*
D03*
Y-45000D02*
D03*
X260000Y-55000D02*
D03*
Y-45000D02*
D03*
X250000Y-55000D02*
D03*
Y-45000D02*
D03*
X240000Y-55000D02*
D03*
Y-45000D02*
D03*
X230000Y-55000D02*
D03*
Y-45000D02*
D03*
X220000Y-55000D02*
D03*
Y-45000D02*
D03*
X210000Y-55000D02*
D03*
Y-45000D02*
D03*
X200000Y-55000D02*
D03*
Y-45000D02*
D03*
X190000Y-55000D02*
D03*
Y-45000D02*
D03*
X180000Y-55000D02*
D03*
Y-45000D02*
D03*
X170000Y-55000D02*
D03*
Y-45000D02*
D03*
X160000Y-55000D02*
D03*
Y-45000D02*
D03*
X150000Y-55000D02*
D03*
Y-45000D02*
D03*
X140000Y-55000D02*
D03*
Y-45000D02*
D03*
X130000Y-55000D02*
D03*
Y-45000D02*
D03*
X120000Y-55000D02*
D03*
Y-45000D02*
D03*
X110000Y-55000D02*
D03*
Y-45000D02*
D03*
X100000Y-55000D02*
D03*
Y-45000D02*
D03*
X90000Y-55000D02*
D03*
Y-45000D02*
D03*
X80000Y-55000D02*
D03*
Y-45000D02*
D03*
X70000Y-55000D02*
D03*
Y-45000D02*
D03*
X60000Y-55000D02*
D03*
Y-45000D02*
D03*
X50000Y-55000D02*
D03*
Y-45000D02*
D03*
X40000Y-55000D02*
D03*
Y-45000D02*
D03*
X0Y-55000D02*
D03*
X10000Y-45000D02*
D03*
Y-55000D02*
D03*
X20000Y-45000D02*
D03*
Y-55000D02*
D03*
X30000Y-45000D02*
D03*
Y-55000D02*
D03*
Y45000D02*
D03*
Y55000D02*
D03*
X20000Y45000D02*
D03*
Y55000D02*
D03*
X10000Y45000D02*
D03*
Y55000D02*
D03*
X0Y45000D02*
D03*
X40000Y55000D02*
D03*
Y45000D02*
D03*
X50000Y55000D02*
D03*
Y45000D02*
D03*
X60000Y55000D02*
D03*
Y45000D02*
D03*
X70000Y55000D02*
D03*
Y45000D02*
D03*
X80000Y55000D02*
D03*
Y45000D02*
D03*
X90000Y55000D02*
D03*
Y45000D02*
D03*
X100000Y55000D02*
D03*
Y45000D02*
D03*
X110000Y55000D02*
D03*
Y45000D02*
D03*
X120000Y55000D02*
D03*
Y45000D02*
D03*
X130000Y55000D02*
D03*
Y45000D02*
D03*
X140000Y55000D02*
D03*
Y45000D02*
D03*
X150000Y55000D02*
D03*
Y45000D02*
D03*
X160000Y55000D02*
D03*
Y45000D02*
D03*
X170000Y55000D02*
D03*
Y45000D02*
D03*
X180000Y55000D02*
D03*
Y45000D02*
D03*
X190000Y55000D02*
D03*
Y45000D02*
D03*
X200000Y55000D02*
D03*
Y45000D02*
D03*
X210000Y55000D02*
D03*
Y45000D02*
D03*
X220000Y55000D02*
D03*
Y45000D02*
D03*
X230000Y55000D02*
D03*
Y45000D02*
D03*
X240000Y55000D02*
D03*
Y45000D02*
D03*
X250000Y55000D02*
D03*
Y45000D02*
D03*
X260000Y55000D02*
D03*
Y45000D02*
D03*
X270000Y55000D02*
D03*
Y45000D02*
D03*
X280000Y55000D02*
D03*
Y45000D02*
D03*
X290000Y55000D02*
D03*
Y45000D02*
D03*
X300000Y55000D02*
D03*
Y45000D02*
D03*
X310000Y55000D02*
D03*
Y45000D02*
D03*
X320000Y55000D02*
D03*
Y45000D02*
D03*
X330000Y55000D02*
D03*
Y45000D02*
D03*
X340000Y55000D02*
D03*
Y45000D02*
D03*
D59*
X0Y-45000D02*
D03*
Y55000D02*
D03*
D60*
X42200Y65900D02*
D03*
X82500Y66000D02*
D03*
X117400Y25900D02*
D03*
X139800D02*
D03*
D61*
X80800Y72100D02*
D03*
X39520Y9120D02*
D03*
X36500Y6200D02*
D03*
X-24100Y-23600D02*
D03*
X21194Y141869D02*
D03*
X18963Y146438D02*
D03*
X-50800Y41000D02*
D03*
X16287Y14900D02*
D03*
X18200Y-11000D02*
D03*
X13842Y6996D02*
D03*
X16200Y3000D02*
D03*
X17800Y-1100D02*
D03*
X32100Y-5900D02*
D03*
X32300Y-1400D02*
D03*
X46158Y-2679D02*
D03*
X42800Y3100D02*
D03*
X13400Y-1100D02*
D03*
X31700Y18500D02*
D03*
X15100Y18600D02*
D03*
X92500Y-31900D02*
D03*
X105300Y-32800D02*
D03*
X94900Y-15457D02*
D03*
X129400Y78200D02*
D03*
X166000Y-2500D02*
D03*
X35900Y-159700D02*
D03*
X31500Y-160600D02*
D03*
X23000Y-160800D02*
D03*
X27100Y-161800D02*
D03*
X16600Y-90700D02*
D03*
X19300Y-96600D02*
D03*
X41000Y-99000D02*
D03*
X50500Y-16000D02*
D03*
X48700Y15200D02*
D03*
X31900Y9000D02*
D03*
X33600Y3300D02*
D03*
X18641Y-15859D02*
D03*
X21739Y113888D02*
D03*
X18696Y114014D02*
D03*
X168100Y16900D02*
D03*
X527423Y8900D02*
D03*
X548300Y-9200D02*
D03*
X-26800Y-58600D02*
D03*
X1300Y159100D02*
D03*
X39200Y130700D02*
D03*
X-7200Y-8800D02*
D03*
X130600Y-19000D02*
D03*
X130200Y16400D02*
D03*
X3700Y13800D02*
D03*
X129900Y65800D02*
D03*
X94600Y21800D02*
D03*
X24900Y155600D02*
D03*
X15000Y155400D02*
D03*
X-49800Y-59200D02*
D03*
X-30400Y-8900D02*
D03*
X46700Y-87600D02*
D03*
X309800Y-88000D02*
D03*
Y-77600D02*
D03*
X480000Y6700D02*
D03*
X48500Y-9800D02*
D03*
X168400Y-13700D02*
D03*
X167900Y0D02*
D03*
X126600Y900D02*
D03*
X112700Y14700D02*
D03*
X40700Y-10000D02*
D03*
X6800Y-96700D02*
D03*
X36100Y-96800D02*
D03*
X4600Y-1600D02*
D03*
X41100Y-142600D02*
D03*
X3500Y-142800D02*
D03*
X17400Y-158200D02*
D03*
X-3400Y8700D02*
D03*
X-12800Y-30800D02*
D03*
X11500Y-31100D02*
D03*
X21400Y-131800D02*
D03*
X29700Y-126400D02*
D03*
M02*
